<svg width="197" height="151" viewBox="0 0 197 151" fill="none" xmlns="http://www.w3.org/2000/svg">
<path d="M19.72 18.5201H9.07999L7.23999 29.0801H-9.71556e-06L5.07999 0.280077H25.16L24.04 6.52008H11.16L10.16 12.2801H20.8L19.72 18.5201ZM42.7203 22.9201C42.7203 23.6134 43.067 23.9601 43.7603 23.9601C44.4803 23.9601 45.0803 23.8267 45.5603 23.5601L45.3603 28.0801C44.0803 29.1201 42.6403 29.6401 41.0403 29.6401C38.027 29.6401 36.387 28.4801 36.1203 26.1601C34.5203 28.4801 32.3603 29.6401 29.6403 29.6401C26.947 29.6401 25.2003 29.0267 24.4003 27.8001C23.867 27.0267 23.6003 26.1467 23.6003 25.1601C23.6003 24.1734 23.6803 23.2667 23.8403 22.4401L26.0803 9.84008H32.8803L31.0003 20.4801C30.9203 20.9601 30.8803 21.4401 30.8803 21.9201C30.8803 23.2001 31.6003 23.8401 33.0403 23.8401C34.2403 23.8401 35.2003 23.4267 35.9203 22.6001L38.2003 9.84008H45.0003L42.7603 22.4401C42.7336 22.6001 42.7203 22.7601 42.7203 22.9201ZM65.6497 29.7201C65.063 33.1067 63.7163 35.7867 61.6097 37.7601C59.5297 39.7334 57.143 40.7201 54.4497 40.7201C51.7563 40.7201 49.8097 40.2267 48.6097 39.2401C47.4363 38.2534 46.8497 36.9601 46.8497 35.3601C46.8497 33.0134 48.343 30.9734 51.3297 29.2401C49.063 28.5201 47.9297 26.8001 47.9297 24.0801C47.9297 23.4134 47.9963 22.6801 48.1297 21.8801L48.9297 17.2001C49.3563 14.8001 50.343 12.8934 51.8897 11.4801C53.4363 10.0401 55.4363 9.32008 57.8897 9.32008C60.3697 9.32008 62.063 9.92008 62.9697 11.1201L63.2097 9.84008H69.1697L65.6497 29.7201ZM55.0897 21.0001C55.0363 21.2401 55.0097 21.5734 55.0097 22.0001C55.0097 22.4267 55.2097 22.8534 55.6097 23.2801C56.0097 23.6801 56.6763 23.8801 57.6097 23.8801C58.5697 23.8801 59.3963 23.5067 60.0897 22.7601L61.2897 16.0401C60.9163 15.3734 60.2097 15.0401 59.1697 15.0401C58.1297 15.0401 57.3163 15.3067 56.7297 15.8401C56.143 16.3734 55.7697 17.0934 55.6097 18.0001L55.0897 21.0001ZM55.3697 35.0001C57.103 35.0001 58.2363 33.4267 58.7697 30.2801L59.1697 27.9601C55.463 29.6934 53.6097 31.4401 53.6097 33.2001C53.6097 33.7334 53.7563 34.1601 54.0497 34.4801C54.3697 34.8267 54.8097 35.0001 55.3697 35.0001ZM89.0753 22.9201C89.0753 23.6134 89.422 23.9601 90.1153 23.9601C90.8353 23.9601 91.4353 23.8267 91.9153 23.5601L91.7153 28.0801C90.4353 29.1201 88.9953 29.6401 87.3953 29.6401C84.462 29.6401 82.8353 28.5734 82.5153 26.4401C81.182 28.5734 79.222 29.6401 76.6353 29.6401C72.262 29.6401 70.0753 27.7601 70.0753 24.0001C70.0753 23.3601 70.142 22.6534 70.2753 21.8801L71.1153 17.2001C71.542 14.8001 72.5153 12.8934 74.0353 11.4801C75.582 10.0401 77.582 9.32008 80.0353 9.32008C82.5153 9.32008 84.1953 9.89341 85.0753 11.0401L85.2753 9.84008H91.3553L89.1153 22.4401C89.0886 22.6001 89.0753 22.7601 89.0753 22.9201ZM77.2353 21.0001C77.182 21.2401 77.1553 21.5734 77.1553 22.0001C77.1553 22.4267 77.3553 22.8534 77.7553 23.2801C78.1553 23.6801 78.822 23.8801 79.7553 23.8801C80.7153 23.8801 81.542 23.5067 82.2353 22.7601L83.4353 16.0401C83.142 15.3734 82.4486 15.0401 81.3553 15.0401C79.302 15.0401 78.102 16.0267 77.7553 18.0001L77.2353 21.0001ZM111.218 29.0801H93.2578L94.2578 23.4801L105.538 15.4401H95.6578L96.6578 9.84008H114.618L113.618 15.4401L102.698 23.4801H112.218L111.218 29.0801ZM141.068 7.58171e-05C147.494 7.58171e-05 150.708 2.62674 150.708 7.88008C150.708 8.76008 150.614 9.70674 150.428 10.7201L149.028 18.7201C148.388 22.4267 147.001 25.1734 144.868 26.9601C142.734 28.7467 139.734 29.6401 135.868 29.6401C132.001 29.6401 129.308 28.7467 127.788 26.9601C126.748 25.7334 126.228 24.0401 126.228 21.8801C126.228 20.9201 126.334 19.8667 126.548 18.7201L127.948 10.7201C129.201 3.57341 133.574 7.58171e-05 141.068 7.58171e-05ZM136.948 23.4401C138.281 23.4401 139.348 23.0934 140.148 22.4001C140.948 21.7067 141.508 20.4267 141.828 18.5601L143.188 10.8801C143.268 10.3467 143.308 9.86674 143.308 9.44008C143.308 7.28008 142.214 6.20008 140.028 6.20008C137.281 6.25341 135.641 7.81341 135.108 10.8801L133.748 18.5601C133.641 19.2267 133.588 19.9201 133.588 20.6401C133.588 22.5067 134.708 23.4401 136.948 23.4401ZM165.07 16.8001C165.07 15.6534 164.51 15.0801 163.39 15.0801C162.297 15.0801 161.39 15.4934 160.67 16.3201L158.43 29.0801H151.63L155.03 9.84008H161.35L160.91 12.2001C162.484 10.2534 164.47 9.28008 166.87 9.28008C169.27 9.28008 170.83 9.86674 171.55 11.0401C172.004 11.7867 172.23 12.6401 172.23 13.6001C172.23 14.5601 172.164 15.4534 172.03 16.2801L170.95 22.4401C170.924 22.6001 170.91 22.7467 170.91 22.8801C170.91 23.6001 171.31 23.9601 172.11 23.9601C172.724 23.9601 173.27 23.8267 173.75 23.5601L173.55 28.0801C172.297 29.1201 170.87 29.6401 169.27 29.6401C165.644 29.6401 163.83 28.1201 163.83 25.0801C163.83 24.5467 163.884 23.9734 163.99 23.3601L164.95 18.0401C165.03 17.5601 165.07 17.1467 165.07 16.8001ZM184.177 29.6401C178.63 29.6401 175.857 27.7201 175.857 23.8801C175.857 23.3467 175.91 22.7734 176.017 22.1601L176.857 17.2001C177.31 14.6401 178.483 12.6801 180.377 11.3201C182.297 9.93341 184.83 9.24008 187.977 9.24008C193.337 9.24008 196.017 11.2667 196.017 15.3201C196.017 15.9067 195.963 16.5467 195.857 17.2401L195.377 20.0801H183.177L183.017 21.0001C182.963 21.3201 182.937 21.6134 182.937 21.8801C182.937 23.3467 183.803 24.0801 185.537 24.0801C186.177 24.0801 186.723 23.8801 187.177 23.4801C187.63 23.0801 187.897 22.6134 187.977 22.0801L194.617 22.1601C193.737 27.1467 190.257 29.6401 184.177 29.6401ZM188.977 17.6401C189.083 17.1867 189.137 16.7734 189.137 16.4001C189.137 16.0001 188.963 15.6001 188.617 15.2001C188.27 14.8001 187.71 14.6001 186.937 14.6001C186.19 14.6001 185.497 14.8534 184.857 15.3601C184.243 15.8667 183.817 16.6267 183.577 17.6401H188.977ZM66.7634 149.08L67.5314 128.984H46.1554L39.8834 149.08H15.4354L48.3314 56.9201H90.5714L91.0834 149.08H66.7634ZM61.5154 79.3201L51.4034 111.832H68.1714L69.5794 79.3201H61.5154ZM163.611 129.368C163.611 131.587 164.721 132.696 166.939 132.696C169.243 132.696 171.163 132.269 172.699 131.416L172.059 145.88C167.963 149.208 163.355 150.872 158.235 150.872C148.849 150.872 143.643 147.459 142.619 140.632C138.353 147.459 132.081 150.872 123.803 150.872C109.809 150.872 102.811 144.856 102.811 132.824C102.811 130.776 103.025 128.515 103.451 126.04L106.139 111.064C107.505 103.384 110.619 97.2827 115.483 92.7601C120.433 88.1521 126.833 85.8481 134.683 85.8481C142.619 85.8481 147.995 87.6827 150.811 91.3521L151.451 87.5121H170.907L163.739 127.832C163.654 128.344 163.611 128.856 163.611 129.368ZM125.723 123.224C125.553 123.992 125.467 125.059 125.467 126.424C125.467 127.789 126.107 129.155 127.387 130.52C128.667 131.8 130.801 132.44 133.787 132.44C136.859 132.44 139.505 131.245 141.723 128.856L145.563 107.352C144.625 105.219 142.406 104.152 138.907 104.152C132.337 104.152 128.497 107.309 127.387 113.624L125.723 123.224Z" fill="black"/>
</svg>
