<svg width="233" height="280" viewBox="0 0 233 280" fill="none" xmlns="http://www.w3.org/2000/svg">
<path d="M115.858 175.706C109.732 201.859 110.099 231.155 112.99 258.776C114.458 272.747 127.696 282.474 141.415 279.446C170.529 273.045 194.503 260.129 216.298 241.57C228.825 230.902 230.201 212.09 219.327 199.748C199.803 177.564 179.316 162.584 152.818 154.485C136.712 149.576 119.712 159.28 115.858 175.683V175.706Z" fill="#A5162C"/>
<path d="M219.327 199.771C210.334 189.539 201.111 180.845 191.177 173.641C197.44 179.376 203.566 186.029 210.288 193.669C220.451 205.208 218.662 225.786 206.961 235.743C186.589 253.086 165.023 268.067 137.791 274.054C124.966 276.876 113.977 266.025 112.6 252.971C112.302 250.173 112.027 247.328 111.729 244.46C112.05 249.255 112.463 254.027 112.967 258.753C114.436 272.724 127.673 282.451 141.393 279.423C170.506 273.022 194.481 260.106 216.276 241.547C228.802 230.879 230.179 212.067 219.304 199.725L219.327 199.771Z" fill="#890921"/>
<path d="M120.676 178.367C115.744 196.422 113.358 222.391 114.436 242.166C115.4 259.969 124.347 267.952 126.825 266.3C135.956 260.244 120.171 235.766 130.289 219.569C143.572 198.326 165.987 172.425 148.367 164.694C137.653 159.991 123.773 167.034 120.676 178.344V178.367Z" fill="#BC1E3C"/>
<path d="M146.922 264.635C149.159 262.787 150.043 260.164 148.897 258.777C147.75 257.391 145.008 257.765 142.772 259.613C140.535 261.461 139.651 264.084 140.797 265.471C141.943 266.857 144.685 266.483 146.922 264.635Z" fill="#EF997B"/>
<path d="M166.793 243.31C169.03 241.462 169.914 238.84 168.768 237.453C167.622 236.066 164.879 236.44 162.643 238.288C160.406 240.136 159.522 242.759 160.668 244.146C161.814 245.533 164.556 245.159 166.793 243.31Z" fill="#EF997B"/>
<path d="M198.594 226.202C200.351 223.893 200.614 221.138 199.182 220.049C197.75 218.959 195.165 219.948 193.408 222.258C191.652 224.567 191.388 227.322 192.82 228.411C194.252 229.501 196.837 228.512 198.594 226.202Z" fill="#EF997B"/>
<path d="M172.092 211.195C173.543 208.682 173.455 205.916 171.897 205.016C170.339 204.117 167.9 205.424 166.449 207.937C164.998 210.45 165.085 213.216 166.644 214.116C168.202 215.015 170.641 213.707 172.092 211.195Z" fill="#EF997B"/>
<path d="M139.247 237.039C139.933 234.22 139.072 231.59 137.324 231.164C135.576 230.739 133.603 232.679 132.916 235.499C132.23 238.318 133.091 240.948 134.839 241.373C136.587 241.799 138.561 239.859 139.247 237.039Z" fill="#EF997B"/>
<path d="M147.795 209.34C149.036 206.717 148.723 203.968 147.096 203.198C145.47 202.429 143.146 203.932 141.905 206.555C140.665 209.178 140.978 211.928 142.604 212.697C144.231 213.466 146.555 211.963 147.795 209.34Z" fill="#EF997B"/>
<path d="M132.017 194.408C132.84 191.625 132.107 188.956 130.382 188.447C128.656 187.937 126.591 189.779 125.769 192.562C124.947 195.344 125.679 198.013 127.405 198.523C129.13 199.033 131.195 197.19 132.017 194.408Z" fill="#EF997B"/>
<path d="M123.348 251.321C125.144 251.211 126.455 248.774 126.277 245.878C126.099 242.982 124.499 240.724 122.703 240.834C120.907 240.945 119.596 243.382 119.774 246.278C119.952 249.174 121.552 251.432 123.348 251.321Z" fill="#EF997B"/>
<path d="M192.278 172.563C186.588 161.322 162.247 152.054 145.866 143.52C152.68 152.857 159.929 161.299 169.06 165.727C161.65 162.928 155.685 166.575 143.549 163.983C155.226 171.049 166.468 176.463 176.333 176.555C170.208 177.725 164.61 183.024 159.058 188.805C172.639 186.236 183.285 188.943 187.735 185.181C187.368 190.732 196.706 201.905 205.951 209.59C201.569 198.578 203.634 191.306 198.656 186.534C204.3 192.751 220.359 202.662 233 208.603C214.784 192.384 215.495 179.422 192.278 172.586V172.563Z" fill="#6A994E"/>
<path d="M196.797 170.177C199.734 161.872 201.34 153.728 200.583 145.86L193.929 143.497C194.824 153.476 192.691 165.795 190.167 176.83C193.264 175.706 195.719 173.274 196.82 170.177H196.797Z" fill="#386641"/>
<path d="M0 153.018C27.3929 168.801 54.304 168.273 71.1664 183.323C86.6064 197.11 86.8129 221.084 81.8574 227.737C75.5713 232.463 48.4537 239.483 32.0042 226.659C5.96495 206.356 0 153.018 0 153.018Z" fill="#386641"/>
<path d="M3.09766 157.514C24.8927 183.736 50.5649 206.425 78.7607 225.558C49.2572 208.443 23.0573 185.227 3.09766 157.514Z" fill="#6A994E"/>
<path d="M72.9567 196.606C71.0296 203.534 68.8501 210.394 66.6018 217.207L66.4641 216.702C66.8541 217.024 67.68 217.781 68.07 218.102L67.2671 218.377C59.4209 221.107 51.5747 223.86 43.5908 226.269C51.2994 223.103 59.1226 220.281 66.9229 217.436L66.7623 218.262L65.8217 217.414C65.5464 217.161 65.5464 217.253 65.6841 216.909C67.9783 210.095 70.3413 203.305 72.9567 196.606Z" fill="#6A994E"/>
<path d="M66.3951 188.187C63.4815 195.688 60.3384 203.098 57.1265 210.462L56.9889 209.912C57.4018 210.256 58.4113 211.105 58.8242 211.449L57.9754 211.724C49.395 214.454 40.8147 217.207 32.1426 219.593C40.5853 216.427 49.1197 213.605 57.6771 210.784L57.5165 211.632L56.3694 210.646L56.0941 210.416L56.2318 210.095C59.4896 202.754 62.8391 195.413 66.3951 188.209V188.187Z" fill="#6A994E"/>
<path d="M58.0213 180.318C54.8552 188.118 51.4828 195.803 48.0414 203.488L47.9038 202.915C48.3626 203.282 49.4868 204.131 49.9456 204.475L49.0509 204.75C40.8147 207.411 32.5785 210.072 24.2275 212.412C32.3261 209.315 40.5394 206.585 48.7526 203.833L48.615 204.681L47.3302 203.672L47.032 203.443L47.1926 203.098C50.7027 195.459 54.2588 187.843 58.0442 180.341L58.0213 180.318Z" fill="#6A994E"/>
<path d="M47.0774 176.922C44.5308 183.231 41.7777 189.448 38.9788 195.642L38.8641 195.092C39.3688 195.505 40.9977 196.812 41.4565 197.225L40.5618 197.478C33.5415 199.565 26.5212 201.653 19.4092 203.396C26.2918 200.873 33.2662 198.716 40.2636 196.537L40.103 197.386L38.2446 195.826L37.9693 195.596L38.1299 195.275C40.9977 189.104 43.9572 182.979 47.1003 176.945L47.0774 176.922Z" fill="#6A994E"/>
<path d="M36.2952 173.733C34.5516 178.551 32.6933 183.323 30.6973 188.026L30.6055 187.521C31.0185 187.957 32.6703 189.632 33.0603 190.022L32.2574 190.251C26.5448 191.857 20.8551 193.44 15.0508 194.702C20.6257 192.683 26.3154 191.008 31.9821 189.31L31.7526 190.113L29.9173 188.163L29.7108 187.934C31.7756 183.139 33.9551 178.39 36.2722 173.71L36.2952 173.733Z" fill="#6A994E"/>
<path d="M28.0126 171.325C26.7508 174.674 25.3513 177.955 23.8372 181.189L23.7454 180.685C24.1584 181.121 25.3284 182.268 25.7184 182.681L24.8696 182.864C20.6253 183.828 16.381 184.791 12.0449 185.411C16.1745 184.011 20.3958 182.956 24.6401 181.901L24.3878 182.726C24.2272 182.566 22.9654 181.189 22.8507 181.075C24.4566 177.771 26.1314 174.514 27.9897 171.325H28.0126Z" fill="#6A994E"/>
<path d="M19.7999 166.76C19.2722 169.375 18.6298 171.967 17.8498 174.514L17.758 174.078C18.2169 174.583 19.4328 175.89 19.8687 176.372C16.2438 176.624 12.6419 176.969 8.99414 176.831C12.229 176.143 15.4868 175.799 18.7675 175.454L18.4463 176.28L17.0927 174.674L16.9321 174.468C17.758 171.853 18.7445 169.283 19.8228 166.76H19.7999Z" fill="#6A994E"/>
<path d="M224.947 57.3296C204.781 68.9378 184.982 68.5478 172.571 79.6284C161.214 89.7683 161.054 107.41 164.701 112.342C169.336 115.807 189.295 120.991 201.409 111.562C220.588 96.6048 224.97 57.3296 224.97 57.3296H224.947Z" fill="#386641"/>
<path d="M222.676 60.6328C207.833 80.9128 188.584 97.9351 166.973 110.713C187.85 96.811 206.8 80.0639 222.676 60.6328Z" fill="#6A994E"/>
<path d="M171.24 89.4009C173.305 94.402 175.072 99.495 176.815 104.611C176.655 104.771 176.035 105.299 175.875 105.46L175.714 104.634C181.472 106.744 187.231 108.809 192.852 111.241C186.956 109.566 181.174 107.547 175.393 105.551L174.59 105.276L175.232 104.726L175.943 104.106L175.806 104.611C174.177 99.5867 172.571 94.5167 171.263 89.4009H171.24Z" fill="#6A994E"/>
<path d="M176.081 83.207C178.834 88.5982 181.358 94.0811 183.813 99.587C183.629 99.7476 182.895 100.39 182.711 100.551L182.551 99.7017C188.837 101.789 195.146 103.877 201.317 106.309C194.894 104.657 188.585 102.638 182.252 100.642L181.404 100.367C181.771 100.046 182.574 99.4035 182.941 99.0823L182.803 99.6329C180.44 94.1958 178.146 88.7358 176.081 83.1841V83.207Z" fill="#6A994E"/>
<path d="M182.252 77.4258C185.189 83.0234 187.873 88.7358 190.511 94.471C190.305 94.6316 189.479 95.274 189.272 95.4575L189.135 94.6087C195.168 96.6504 201.225 98.6693 207.144 101.055C200.973 99.4493 194.893 97.4993 188.836 95.5493L187.942 95.274C188.355 94.9528 189.226 94.2875 189.639 93.9663L189.502 94.5399C186.978 88.8963 184.5 83.2069 182.275 77.4258H182.252Z" fill="#6A994E"/>
<path d="M190.305 74.9253C192.759 79.4447 194.985 84.0559 197.164 88.69C197.004 88.8276 195.719 89.9288 195.536 90.0894L195.375 89.2406C200.514 90.8464 205.653 92.4752 210.7 94.4252C205.424 93.2552 200.262 91.7182 195.1 90.1811L194.205 89.9288C194.664 89.5617 195.857 88.5982 196.316 88.2082L196.201 88.7588C194.136 84.1935 192.14 79.6053 190.351 74.9253H190.305Z" fill="#6A994E"/>
<path d="M198.243 72.585C200.055 76.0261 201.684 79.5361 203.221 83.0691C203.129 83.1608 201.799 84.5832 201.661 84.7438L201.432 83.9408C205.607 85.2026 209.783 86.4414 213.866 88.0243C209.576 87.1985 205.378 86.0514 201.156 84.8814L200.353 84.652L200.95 84.0555L202.326 82.6561L202.235 83.1608C200.789 79.6738 199.413 76.1638 198.22 72.585H198.243Z" fill="#6A994E"/>
<path d="M204.345 70.7959C205.791 73.1129 207.098 75.5218 208.268 77.9765C208.131 78.1371 207.259 79.1006 207.098 79.2612L206.846 78.4353C209.966 79.2153 213.063 80.0182 216.092 81.1423C212.88 80.7982 209.76 80.087 206.616 79.3988L205.745 79.2153L206.364 78.5959L207.374 77.5865L207.282 78.0912C206.181 75.7053 205.171 73.2735 204.322 70.7729L204.345 70.7959Z" fill="#6A994E"/>
<path d="M210.379 67.4463C211.274 69.3045 212.031 71.2086 212.651 73.1586C212.559 73.2504 211.595 74.4204 211.481 74.558L211.159 73.7322C213.568 73.9845 215.977 74.2598 218.34 74.8792C215.564 75.0857 212.811 74.8333 210.035 74.6498C210.448 74.2139 211.366 73.2045 211.779 72.7686L211.687 73.2045C211.113 71.3233 210.678 69.4192 210.356 67.4692L210.379 67.4463Z" fill="#6A994E"/>
<path d="M108.998 0C120.515 13.0764 135.061 17.8941 141.071 28.6305C146.578 38.4493 141.852 50.5163 137.837 52.9252C133.524 54.0952 117.533 52.5122 111.293 42.9917C101.428 27.8964 108.998 0.0229411 108.998 0.0229411V0Z" fill="#386641"/>
<path d="M109.756 2.84473C116.203 20.257 125.448 36.4305 136.621 51.2275C124.393 37.2793 114.941 20.6929 109.756 2.84473Z" fill="#6A994E"/>
<path d="M139.351 35.6274C137.034 38.8621 134.487 41.8904 131.918 44.9186L131.964 44.368L132.308 44.9645L132.744 45.7215H131.872C127.1 45.5609 122.328 45.4462 117.579 44.9645C122.351 44.6433 127.123 44.6892 131.895 44.7121L131.459 45.4462C131.344 45.2398 131.069 44.7351 130.954 44.5286C133.662 41.4774 136.369 38.4492 139.328 35.6274H139.351Z" fill="#6A994E"/>
<path d="M137.538 30.1675C134.556 33.5169 131.39 36.6369 128.201 39.7569L128.293 39.1604L128.728 39.8486L129.21 40.6516L128.27 40.6057C123.108 40.3304 117.946 40.078 112.807 39.4357C117.969 39.2522 123.131 39.4357 128.293 39.6192L127.857 40.3533C127.719 40.1239 127.375 39.5274 127.26 39.298C130.61 36.178 133.982 33.0351 137.538 30.1445V30.1675Z" fill="#6A994E"/>
<path d="M134.625 24.6387C131.459 28.0798 128.11 31.3145 124.714 34.5263L124.783 33.9069C125.035 34.2969 125.563 35.0769 125.838 35.4669L124.852 35.421C119.896 35.1916 114.918 34.9392 109.985 34.3428C114.964 34.1363 119.919 34.2969 124.898 34.4345L124.462 35.1916C124.301 34.9622 123.911 34.3198 123.751 34.0904C127.307 30.8557 130.84 27.621 134.602 24.6387H134.625Z" fill="#6A994E"/>
<path d="M129.44 20.8765C126.893 23.6753 124.186 26.3135 121.433 28.9059L121.525 28.3094C121.823 28.7911 122.466 29.7776 122.741 30.2594L121.777 30.1906C117.579 29.8923 113.403 29.5941 109.251 28.9517C113.449 28.7911 117.648 29.0206 121.846 29.227L121.387 29.9841C121.25 29.7317 120.653 28.7453 120.516 28.5159C123.406 25.9006 126.343 23.3312 129.44 20.9223V20.8765Z" fill="#6A994E"/>
<path d="M124.278 17.2515C122.465 19.4538 120.515 21.5185 118.519 23.5144L118.611 22.9867C118.841 23.4685 119.391 24.5926 119.621 25.0744L118.772 25.0056C115.376 24.7073 112.004 24.4091 108.654 23.7667C112.073 23.6062 115.445 23.8356 118.841 24.042L118.359 24.7303C118.267 24.5009 117.739 23.285 117.648 23.1014C119.758 21.0597 121.961 19.1097 124.278 17.2744V17.2515Z" fill="#6A994E"/>
<path d="M120.332 14.4756C119.07 16.0356 117.671 17.4579 116.225 18.7885L116.34 18.2609L116.799 19.2014L117.212 20.0273C115.675 19.7979 114.115 19.6144 112.6 19.3391C111.362 19.1097 110.146 18.8803 108.93 18.5132C111.453 18.3985 113.931 18.6509 116.409 18.9032L115.904 19.5914C115.812 19.362 115.468 18.5362 115.376 18.3067C116.936 16.9303 118.588 15.6226 120.355 14.4526L120.332 14.4756Z" fill="#6A994E"/>
<path d="M116.844 10.6216C116.11 11.9292 115.284 13.1451 114.366 14.2692L114.435 13.8104C114.665 14.3151 115.101 15.3016 115.33 15.8063L114.321 15.508C112.508 14.9804 110.696 14.4757 108.998 13.6269C110.902 13.6957 112.738 14.1316 114.573 14.5674L113.999 15.2327L113.609 14.1545L113.518 13.8792C114.527 12.6863 115.628 11.608 116.844 10.5986V10.6216Z" fill="#6A994E"/>
<path d="M88.9687 67.2635C98.0538 84.8823 103.032 105.896 105.923 126.176C107.391 136.431 99.6597 145.768 89.3128 146.066C67.3343 146.709 47.8565 141.776 28.9522 132.416C18.0776 127.048 13.7186 113.811 19.2706 103.029C29.2504 83.6664 41.2262 69.2594 58.731 58.7065C69.3761 52.3059 83.2791 56.2059 88.9687 67.2406V67.2635Z" fill="#A5162C"/>
<path d="M19.2711 103.052C23.8824 94.1046 28.9068 86.2358 34.7111 79.3076C31.2468 84.5382 28.0808 90.3882 24.6395 97.064C19.4546 107.135 24.4101 121.542 34.5735 126.566C52.2618 135.307 70.3861 142.166 90.9193 141.57C100.601 141.295 106.52 131.545 105.143 121.955C104.845 119.89 104.547 117.803 104.226 115.715C104.845 119.202 105.419 122.689 105.9 126.176C107.369 136.431 99.6373 145.768 89.2904 146.066C67.3118 146.709 47.834 141.776 28.9297 132.416C18.0551 127.048 13.6961 113.811 19.2481 103.029L19.2711 103.052Z" fill="#890921"/>
<path d="M86.01 70.0394C92.7779 82.0606 99.1558 100.23 101.932 114.568C104.433 127.484 99.477 134.802 97.3893 134.068C89.7725 131.361 96.6781 111.035 86.5377 101.262C73.2313 88.4382 52.5375 73.9394 63.7562 65.2447C70.57 59.9453 81.7657 62.5147 86.01 70.0394Z" fill="#BC1E3C"/>
<path d="M87.2678 135.991C87.8403 134.79 86.7375 133.069 84.8046 132.148C82.8717 131.226 80.8407 131.453 80.2681 132.654C79.6956 133.855 80.7984 135.575 82.7313 136.497C84.6641 137.418 86.6952 137.192 87.2678 135.991Z" fill="#EF997B"/>
<path d="M69.2111 124.289C69.7837 123.088 68.6809 121.368 66.748 120.446C64.8151 119.525 62.784 119.751 62.2115 120.952C61.6389 122.153 62.7417 123.873 64.6746 124.795C66.6075 125.716 68.6386 125.49 69.2111 124.289Z" fill="#EF997B"/>
<path d="M43.354 118.795C44.1851 117.756 43.5033 115.83 41.8312 114.492C40.1591 113.154 38.1299 112.912 37.2988 113.951C36.4677 114.99 37.1494 116.916 38.8215 118.254C40.4936 119.592 42.5229 119.834 43.354 118.795Z" fill="#EF997B"/>
<path d="M59.5127 103.886C60.4684 102.96 60.0356 100.963 58.5459 99.4249C57.0563 97.8867 55.0739 97.39 54.1182 98.3155C53.1625 99.241 53.5953 101.238 55.0849 102.776C56.5746 104.315 58.5569 104.811 59.5127 103.886Z" fill="#EF997B"/>
<path d="M87.1888 117.64C88.3661 117.02 88.5119 114.982 87.5145 113.087C86.5172 111.192 84.7543 110.158 83.577 110.778C82.3997 111.398 82.2538 113.436 83.2512 115.331C84.2486 117.226 86.0115 118.259 87.1888 117.64Z" fill="#EF997B"/>
<path d="M76.4955 98.5471C77.5237 97.7029 77.2557 95.677 75.8968 94.0221C74.5379 92.3673 72.6028 91.7101 71.5746 92.5544C70.5464 93.3986 70.8145 95.4245 72.1734 97.0794C73.5322 98.7342 75.4673 99.3913 76.4955 98.5471Z" fill="#EF997B"/>
<path d="M84.808 85.68C85.9539 85.004 86.0007 82.9609 84.9126 81.1168C83.8245 79.2726 82.0136 78.3256 80.8677 79.0016C79.7219 79.6776 79.675 81.7206 80.7631 83.5648C81.8512 85.409 83.6622 86.356 84.808 85.68Z" fill="#EF997B"/>
<path d="M97.174 122.71C98.4819 122.466 99.224 120.562 98.8316 118.457C98.4391 116.352 97.0608 114.843 95.7529 115.087C94.445 115.331 93.7029 117.235 94.0953 119.34C94.4878 121.445 95.8661 122.953 97.174 122.71Z" fill="#EF997B"/>
<path d="M33.7244 78.7339C35.7663 69.6721 51.5275 58.6833 61.7138 49.6216C58.5019 57.5363 54.8312 64.8545 49.0956 69.6721C53.8905 66.3457 58.8231 67.8827 67.0364 63.8451C59.9472 71.0027 52.8811 76.8986 45.8378 78.7109C50.4263 78.4356 55.3818 81.2344 60.4061 84.3774C50.2198 84.9738 43.1077 88.828 39.2305 86.9238C40.4923 90.8238 35.8121 100.505 30.5813 107.663C31.7285 98.9909 28.9525 94.1732 31.6596 89.8603C28.746 95.3203 19.0185 105.3 11.0576 111.815C21.1751 96.9262 18.3532 87.7956 33.7244 78.7339Z" fill="#6A994E"/>
<path d="M30.0769 77.8393C26.4979 72.4252 23.8825 66.8734 23.0107 61.1381L27.3468 58.2705C28.4939 65.5887 32.2335 74.0081 36.0189 81.441C33.61 81.1887 31.4076 79.881 30.0769 77.8622V77.8393Z" fill="#386641"/>
</svg>
