<svg width="218" height="38" viewBox="0 0 218 38" fill="none" xmlns="http://www.w3.org/2000/svg">
<path d="M35.293 4.41406C35.293 5.28646 34.4922 5.72266 32.8906 5.72266C31.6276 5.72266 28.6263 5.13672 23.8867 3.96484C21.6732 5.22786 20.5664 6.81641 20.5664 8.73047C20.5664 9.65495 20.8854 10.293 21.5234 10.6445C22.4479 10.5664 23.1445 10.5273 23.6133 10.5273C24.9674 10.5273 25.6445 10.6901 25.6445 11.0156C25.6445 11.224 25.2865 11.3281 24.5703 11.3281C23.6589 11.3281 22.6693 11.1979 21.6016 10.9375C20.1562 11.1458 18.4766 11.7057 16.5625 12.6172C11.6927 14.9479 9.25781 17.9688 9.25781 21.6797C9.25781 24.1406 10.5859 25.7031 13.2422 26.3672C12.7604 25.5729 12.5195 24.6549 12.5195 23.6133C12.5195 21.0482 13.8281 18.6849 16.4453 16.5234C19.0625 14.362 21.9271 13.2812 25.0391 13.2812C26.4714 13.2812 27.6107 13.6328 28.457 14.3359C29.3034 15.0391 29.7266 15.9831 29.7266 17.168C29.7266 19.707 28.3333 21.9987 25.5469 24.043C22.7604 26.0742 19.6224 27.0898 16.1328 27.0898C15.4297 27.0898 14.7721 27.0508 14.1602 26.9727C15.4102 28.6523 17.2656 29.4922 19.7266 29.4922C21.25 29.4922 22.4935 29.2643 23.457 28.8086L23.6914 28.7695C23.7695 28.7956 23.8086 28.8477 23.8086 28.9258C23.8086 29.1081 23.3268 29.2969 22.3633 29.4922C21.3997 29.7005 20.5208 29.8047 19.7266 29.8047C17.0052 29.8047 14.9284 28.8216 13.4961 26.8555C11.5039 26.4128 9.94141 25.6641 8.80859 24.6094C7.6888 23.5417 7.12891 22.3047 7.12891 20.8984C7.12891 19.0104 7.91016 17.2461 9.47266 15.6055C11.0352 13.9518 13.1185 12.7018 15.7227 11.8555C17.2982 11.3346 19.1016 10.957 21.1328 10.7227C19.6875 10.1107 18.9648 9.14062 18.9648 7.8125C18.9648 6.10677 20.0195 4.68099 22.1289 3.53516C19.1081 2.80599 16.6146 2.44141 14.6484 2.44141C10.7943 2.44141 7.50651 3.40495 4.78516 5.33203C2.07682 7.25911 0.722656 9.58984 0.722656 12.3242C0.722656 13.5482 1.08073 14.5964 1.79688 15.4688C2.51302 16.3411 3.3724 16.7773 4.375 16.7773C5.0651 16.7773 5.41016 16.6667 5.41016 16.4453C5.41016 16.3281 5.28646 16.2891 5.03906 16.3281C4.34896 16.3281 4.00391 16.0091 4.00391 15.3711C4.00391 15.0065 4.15365 14.694 4.45312 14.4336C4.76562 14.1732 5.13672 14.043 5.56641 14.043C6.39974 14.043 6.81641 14.4466 6.81641 15.2539C6.81641 15.7878 6.57552 16.2435 6.09375 16.6211C5.625 16.9857 5.05208 17.168 4.375 17.168C3.16406 17.168 2.12891 16.6276 1.26953 15.5469C0.423177 14.4531 0 13.138 0 11.6016C0 9.29688 1.0026 7.18099 3.00781 5.25391C5.39062 2.96224 8.73698 1.81641 13.0469 1.81641C15.4427 1.81641 18.6328 2.30469 22.6172 3.28125C24.4141 2.40885 26.5039 1.97266 28.8867 1.97266C30.6576 1.97266 32.168 2.21354 33.418 2.69531C34.668 3.16406 35.293 3.73698 35.293 4.41406ZM34.8828 4.375C34.8828 3.86719 34.3424 3.41797 33.2617 3.02734C32.194 2.63672 30.9635 2.44141 29.5703 2.44141C27.6562 2.44141 25.9115 2.85807 24.3359 3.69141C27.7865 4.8112 30.6901 5.37109 33.0469 5.37109C34.2708 5.37109 34.8828 5.03906 34.8828 4.375ZM29.375 17.0117C29.375 16.0742 29.0039 15.2995 28.2617 14.6875C27.5195 14.0755 26.582 13.7695 25.4492 13.7695C22.6497 13.7695 19.9154 14.9349 17.2461 17.2656C14.5768 19.5833 13.2422 21.9531 13.2422 24.375C13.2422 25.0781 13.457 25.7943 13.8867 26.5234C14.6419 26.6667 15.3385 26.7383 15.9766 26.7383C19.0495 26.7383 22.0508 25.6771 24.9805 23.5547C27.9102 21.4193 29.375 19.2383 29.375 17.0117ZM48.8086 6.52344C43.9258 14.2839 40.8464 19.2448 39.5703 21.4062C38.2812 23.6068 37.6367 24.9935 37.6367 25.5664C37.6367 26.1523 37.9036 26.4453 38.4375 26.4453C39.6224 26.4453 41.6341 24.3815 44.4727 20.2539C44.5508 20.1237 44.6224 20.0586 44.6875 20.0586C44.7656 20.0586 44.8047 20.0977 44.8047 20.1758C44.7917 20.2148 44.7266 20.319 44.6094 20.4883L43.7695 21.6406C41.3086 25.0391 39.4922 26.7383 38.3203 26.7383C37.7214 26.7383 37.2331 26.5169 36.8555 26.0742C36.4779 25.6185 36.2891 25.0391 36.2891 24.3359C36.2891 23.6328 36.5234 22.819 36.9922 21.8945C34.7135 25.1237 33.0208 26.7383 31.9141 26.7383C31.224 26.7383 30.6445 26.4453 30.1758 25.8594C29.707 25.2604 29.4727 24.5117 29.4727 23.6133C29.4727 21.4648 30.8073 19.5182 33.4766 17.7734C35.599 16.3802 37.2656 15.6836 38.4766 15.6836C39.2839 15.6836 39.6875 16.0742 39.6875 16.8555C39.6875 17.2201 39.5768 17.6302 39.3555 18.0859L46.3281 6.40625C46.7578 6.53646 47.181 6.60156 47.5977 6.60156C47.7018 6.60156 48.1055 6.57552 48.8086 6.52344ZM39.3945 17.0117C39.3945 16.3216 39.0755 15.9766 38.4375 15.9766C37.2656 15.9766 35.7161 17.1484 33.7891 19.4922C31.875 21.8229 30.918 23.7044 30.918 25.1367C30.918 26.0091 31.276 26.4453 31.9922 26.4453C33.0339 26.4453 34.8242 24.6354 37.3633 21.0156C38.7174 19.0625 39.3945 17.7279 39.3945 17.0117ZM61.8359 20.1367C61.8359 20.2799 61.4193 20.7812 60.5859 21.6406C59.4661 22.8255 58.4831 23.418 57.6367 23.418C57.0638 23.418 56.582 23.1055 56.1914 22.4805C55.0326 24.082 54.0885 25.1953 53.3594 25.8203C52.6302 26.4323 51.8945 26.7383 51.1523 26.7383C50.4883 26.7383 49.9349 26.5169 49.4922 26.0742C49.0495 25.6185 48.8281 25.0651 48.8281 24.4141C48.8281 23.8672 49.0039 23.2096 49.3555 22.4414C47.4023 25.306 45.8659 26.7383 44.7461 26.7383C44.1862 26.7383 43.7109 26.5104 43.3203 26.0547C42.9427 25.599 42.7539 25.0521 42.7539 24.4141C42.7539 23.6719 43.138 22.6432 43.9062 21.3281L47.1484 15.8398C47.6693 15.931 48.0534 15.9766 48.3008 15.9766C48.5221 15.9766 48.9518 15.931 49.5898 15.8398L45.1562 23.0859C44.4531 24.2188 44.1016 25.0456 44.1016 25.5664C44.1016 26.1523 44.3685 26.4453 44.9023 26.4453C45.4883 26.4453 46.3607 25.7943 47.5195 24.4922C48.6914 23.1901 49.8503 21.5625 50.9961 19.6094L53.1836 15.8398C53.8867 15.9049 54.3294 15.9375 54.5117 15.9375C54.9674 15.9375 55.3385 15.9049 55.625 15.8398L51.543 22.4414C50.6445 23.9128 50.1953 24.9284 50.1953 25.4883C50.1953 26.1263 50.5273 26.4453 51.1914 26.4453C52.5195 26.4453 54.1341 25.0456 56.0352 22.2461C55.957 21.7643 55.918 21.4062 55.918 21.1719C55.918 20.013 56.276 18.8086 56.9922 17.5586C57.7214 16.3086 58.4245 15.6836 59.1016 15.6836C59.401 15.6836 59.5508 15.8854 59.5508 16.2891C59.5508 17.3828 58.4831 19.3815 56.3477 22.2852C56.6732 22.8711 57.1029 23.1641 57.6367 23.1641C58.6133 23.1641 59.8112 22.2852 61.2305 20.5273C61.4909 20.2148 61.6667 20.0586 61.7578 20.0586C61.7969 20.0586 61.8229 20.0846 61.8359 20.1367ZM75.5469 20.1758C75.5469 20.4492 74.5964 21.7122 72.6953 23.9648C71.1589 25.8138 69.9479 26.7383 69.0625 26.7383C68.4635 26.7383 67.9753 26.5169 67.5977 26.0742C67.2201 25.6185 67.0312 25.0521 67.0312 24.375C67.0312 23.6719 67.2396 22.9102 67.6562 22.0898C66.3542 23.9128 65.3581 25.1432 64.668 25.7812C63.9779 26.4193 63.3073 26.7383 62.6562 26.7383C61.9661 26.7383 61.3867 26.4453 60.918 25.8594C60.4492 25.2604 60.2148 24.5117 60.2148 23.6133C60.2148 21.1133 61.9792 18.8997 65.5078 16.9727C67.0573 16.1133 68.3073 15.6836 69.2578 15.6836C70.0651 15.6836 70.4688 16.0742 70.4688 16.8555C70.4688 17.0768 70.4167 17.3698 70.3125 17.7344L71.3086 15.8398C71.6992 15.931 72.0443 15.9766 72.3438 15.9766C72.6953 15.9766 73.151 15.931 73.7109 15.8398L70.2539 21.5625C69.056 23.5677 68.457 24.8893 68.457 25.5273C68.457 26.1393 68.7109 26.4453 69.2188 26.4453C69.7396 26.4453 70.5729 25.8529 71.7188 24.668C72.8646 23.4701 74.0299 21.9987 75.2148 20.2539C75.293 20.1237 75.3646 20.0586 75.4297 20.0586C75.5078 20.0586 75.5469 20.0977 75.5469 20.1758ZM70.1758 16.9336C70.1758 16.2956 69.8828 15.9766 69.2969 15.9766C68.099 15.9766 66.5234 17.1484 64.5703 19.4922C62.6302 21.8359 61.6602 23.7305 61.6602 25.1758C61.6602 26.0221 62.0378 26.4453 62.793 26.4453C63.6914 26.4453 65.2474 24.9544 67.4609 21.9727C69.2708 19.5247 70.1758 17.8451 70.1758 16.9336ZM86.7383 20.1758C86.7383 20.2799 86.3477 20.7552 85.5664 21.6016C84.5768 22.6953 83.6458 23.2422 82.7734 23.2422C81.7839 23.2422 81.2891 22.6693 81.2891 21.5234C81.2891 21.1589 81.3672 20.6966 81.5234 20.1367C80.7031 20.8529 80.0326 21.5625 79.5117 22.2656C79.0039 22.9688 78.1185 24.401 76.8555 26.5625C76.1654 26.5104 75.7617 26.4844 75.6445 26.4844C75.5924 26.4844 75.1953 26.5104 74.4531 26.5625L77.6562 21.3672C79.2578 18.763 80.0586 17.1484 80.0586 16.5234C80.0586 16.1589 79.9089 15.9766 79.6094 15.9766C78.8802 15.9766 77.5586 17.3763 75.6445 20.1758C75.5273 20.3581 75.4232 20.4492 75.332 20.4492C75.2799 20.4362 75.2539 20.3971 75.2539 20.332C75.2669 20.2669 75.293 20.2148 75.332 20.1758L75.6836 19.6875C77.6888 17.0182 79.0495 15.6836 79.7656 15.6836C80.8073 15.6836 81.3281 16.3542 81.3281 17.6953C81.3281 18.6979 80.7943 20.026 79.7266 21.6797C80.4036 20.8984 81.0482 20.2604 81.6602 19.7656C82.1549 18.6068 82.7669 17.6367 83.4961 16.8555C84.2383 16.0742 84.9023 15.6836 85.4883 15.6836C85.8919 15.6836 86.0938 15.8594 86.0938 16.2109C86.0938 16.8359 85.1888 17.7279 83.3789 18.8867C83.0924 19.069 82.6628 19.3359 82.0898 19.6875L81.8555 19.8828C81.6732 20.4818 81.582 20.9766 81.582 21.3672C81.582 22.4609 81.9922 23.0078 82.8125 23.0078C83.8281 23.0078 84.9349 22.168 86.1328 20.4883C86.3932 20.2018 86.556 20.0586 86.6211 20.0586C86.6992 20.0586 86.7383 20.0977 86.7383 20.1758ZM104.473 6.52344C99.5898 14.2839 96.5104 19.2448 95.2344 21.4062C93.9453 23.6068 93.3008 24.9935 93.3008 25.5664C93.3008 26.1523 93.5677 26.4453 94.1016 26.4453C95.2865 26.4453 97.2982 24.3815 100.137 20.2539C100.215 20.1237 100.286 20.0586 100.352 20.0586C100.43 20.0586 100.469 20.0977 100.469 20.1758C100.456 20.2148 100.391 20.319 100.273 20.4883L99.4336 21.6406C96.9727 25.0391 95.1562 26.7383 93.9844 26.7383C93.3854 26.7383 92.8971 26.5169 92.5195 26.0742C92.1419 25.6185 91.9531 25.0391 91.9531 24.3359C91.9531 23.6328 92.1875 22.819 92.6562 21.8945C90.3776 25.1237 88.6849 26.7383 87.5781 26.7383C86.888 26.7383 86.3086 26.4453 85.8398 25.8594C85.3711 25.2604 85.1367 24.5117 85.1367 23.6133C85.1367 21.4648 86.4714 19.5182 89.1406 17.7734C91.263 16.3802 92.9297 15.6836 94.1406 15.6836C94.9479 15.6836 95.3516 16.0742 95.3516 16.8555C95.3516 17.2201 95.2409 17.6302 95.0195 18.0859L101.992 6.40625C102.422 6.53646 102.845 6.60156 103.262 6.60156C103.366 6.60156 103.77 6.57552 104.473 6.52344ZM95.0586 17.0117C95.0586 16.3216 94.7396 15.9766 94.1016 15.9766C92.9297 15.9766 91.3802 17.1484 89.4531 19.4922C87.5391 21.8229 86.582 23.7044 86.582 25.1367C86.582 26.0091 86.9401 26.4453 87.6562 26.4453C88.6979 26.4453 90.4883 24.6354 93.0273 21.0156C94.3815 19.0625 95.0586 17.7279 95.0586 17.0117ZM106.934 12.0898C106.934 12.5456 106.738 12.9753 106.348 13.3789C105.97 13.7695 105.553 13.9648 105.098 13.9648C104.512 13.9648 104.219 13.6719 104.219 13.0859C104.219 12.6562 104.421 12.2461 104.824 11.8555C105.228 11.4518 105.651 11.25 106.094 11.25C106.654 11.25 106.934 11.5299 106.934 12.0898ZM107.207 20.1758C107.194 20.2148 107.129 20.319 107.012 20.4883L106.172 21.6406C103.724 25.0391 101.855 26.7383 100.566 26.7383C99.9544 26.7383 99.4401 26.5234 99.0234 26.0938C98.6198 25.651 98.418 25.1042 98.418 24.4531C98.418 23.6979 98.8672 22.5521 99.7656 21.0156L102.812 15.8398C103.216 15.931 103.535 15.9766 103.77 15.9766C104.121 15.9766 104.616 15.931 105.254 15.8398L100.82 23.125C100.182 24.1797 99.8633 24.9935 99.8633 25.5664C99.8633 26.1523 100.169 26.4453 100.781 26.4453C101.94 26.4453 103.978 24.3815 106.895 20.2539C106.96 20.1237 107.025 20.0586 107.09 20.0586C107.168 20.0586 107.207 20.0977 107.207 20.1758ZM120.977 20.1758C120.977 20.4492 120.026 21.7122 118.125 23.9648C116.589 25.8138 115.378 26.7383 114.492 26.7383C113.893 26.7383 113.405 26.5169 113.027 26.0742C112.65 25.6185 112.461 25.0521 112.461 24.375C112.461 23.6719 112.669 22.9102 113.086 22.0898C111.784 23.9128 110.788 25.1432 110.098 25.7812C109.408 26.4193 108.737 26.7383 108.086 26.7383C107.396 26.7383 106.816 26.4453 106.348 25.8594C105.879 25.2604 105.645 24.5117 105.645 23.6133C105.645 21.1133 107.409 18.8997 110.938 16.9727C112.487 16.1133 113.737 15.6836 114.688 15.6836C115.495 15.6836 115.898 16.0742 115.898 16.8555C115.898 17.0768 115.846 17.3698 115.742 17.7344L116.738 15.8398C117.129 15.931 117.474 15.9766 117.773 15.9766C118.125 15.9766 118.581 15.931 119.141 15.8398L115.684 21.5625C114.486 23.5677 113.887 24.8893 113.887 25.5273C113.887 26.1393 114.141 26.4453 114.648 26.4453C115.169 26.4453 116.003 25.8529 117.148 24.668C118.294 23.4701 119.46 21.9987 120.645 20.2539C120.723 20.1237 120.794 20.0586 120.859 20.0586C120.938 20.0586 120.977 20.0977 120.977 20.1758ZM115.605 16.9336C115.605 16.2956 115.312 15.9766 114.727 15.9766C113.529 15.9766 111.953 17.1484 110 19.4922C108.06 21.8359 107.09 23.7305 107.09 25.1758C107.09 26.0221 107.467 26.4453 108.223 26.4453C109.121 26.4453 110.677 24.9544 112.891 21.9727C114.701 19.5247 115.605 17.8451 115.605 16.9336ZM136.68 20.1758C136.68 20.4492 135.736 21.7122 133.848 23.9648C132.298 25.8138 131.081 26.7383 130.195 26.7383C129.609 26.7383 129.115 26.5104 128.711 26.0547C128.32 25.599 128.125 25.0391 128.125 24.375C128.125 23.7891 128.242 23.2487 128.477 22.7539C128.724 22.2461 129.355 21.25 130.371 19.7656C131.426 18.2031 131.953 17.207 131.953 16.7773C131.953 16.2435 131.673 15.9766 131.113 15.9766C129.212 15.9766 126.283 19.5052 122.324 26.5625C121.686 26.5104 121.302 26.4844 121.172 26.4844C120.716 26.4844 120.286 26.5104 119.883 26.5625L122.93 21.7383C124.661 18.9779 125.527 17.2526 125.527 16.5625C125.527 16.1719 125.365 15.9766 125.039 15.9766C124.375 15.9766 123.066 17.3763 121.113 20.1758C120.996 20.3451 120.905 20.4362 120.84 20.4492C120.775 20.4492 120.736 20.4102 120.723 20.332C120.736 20.2669 120.762 20.2148 120.801 20.1758L121.172 19.6875C123.164 17.0182 124.505 15.6836 125.195 15.6836C125.638 15.6836 126.016 15.8854 126.328 16.2891C126.641 16.6927 126.797 17.1745 126.797 17.7344C126.797 18.5677 126.309 19.7266 125.332 21.2109C126.868 19.0885 128.047 17.6367 128.867 16.8555C129.701 16.0742 130.469 15.6836 131.172 15.6836C131.745 15.6836 132.227 15.918 132.617 16.3867C133.008 16.8555 133.203 17.4349 133.203 18.125C133.203 18.9974 132.604 20.332 131.406 22.1289C130.182 23.9648 129.57 25.1367 129.57 25.6445C129.57 26.1784 129.837 26.4453 130.371 26.4453C131.53 26.4453 133.529 24.3815 136.367 20.2539C136.432 20.1237 136.497 20.0586 136.562 20.0586C136.641 20.0586 136.68 20.0977 136.68 20.1758ZM179.902 0.761719C179.902 1.38672 179.271 2.29167 178.008 3.47656C176.758 4.64844 175.228 5.77474 173.418 6.85547C173.184 7.59766 172.839 8.94531 172.383 10.8984C171.654 13.9583 170.983 16.1328 170.371 17.4219C169.759 18.6979 168.75 20 167.344 21.3281C163.281 25.1693 158.73 27.0898 153.691 27.0898C152.246 27.0898 150.97 26.849 149.863 26.3672C149.251 27.5651 148.945 28.6068 148.945 29.4922C148.945 30.612 149.316 31.6406 150.059 32.5781C150.137 32.6562 150.176 32.7474 150.176 32.8516C150.176 32.9557 150.111 33.0078 149.98 33.0078C149.681 33.0078 149.355 32.6042 149.004 31.7969C148.665 30.9896 148.496 30.2344 148.496 29.5312C148.496 28.5156 148.828 27.3958 149.492 26.1719C146.771 24.7656 145.41 22.3503 145.41 18.9258C145.41 16.7253 146.061 14.5378 147.363 12.3633C148.665 10.1888 150.495 8.22917 152.852 6.48438C155.859 4.27083 158.835 3.16406 161.777 3.16406C163.379 3.16406 164.648 3.61328 165.586 4.51172C166.536 5.41016 167.012 6.6276 167.012 8.16406C167.012 8.98438 166.895 9.83724 166.66 10.7227C168.574 9.44661 170.267 8.36589 171.738 7.48047C172.676 5.4362 173.854 3.67839 175.273 2.20703C176.693 0.735677 177.93 0 178.984 0C179.596 0 179.902 0.253906 179.902 0.761719ZM179.531 0.800781C179.531 0.488281 179.349 0.332031 178.984 0.332031C178.112 0.332031 177.135 0.9375 176.055 2.14844C174.987 3.34635 174.16 4.7526 173.574 6.36719C175.293 5.3125 176.712 4.25781 177.832 3.20312C178.965 2.14844 179.531 1.34766 179.531 0.800781ZM165.977 11.6016L164.688 12.4805C159.779 15.8659 156.237 18.6849 154.062 20.9375C154.609 21.224 155.195 21.3672 155.82 21.3672C157.643 21.3672 159.551 20.4102 161.543 18.4961C163.535 16.582 165.013 14.2839 165.977 11.6016ZM171.504 8.00781C169.98 8.97135 168.314 10.0651 166.504 11.2891C165.645 14.0495 164.134 16.4714 161.973 18.5547C159.824 20.638 157.76 21.6797 155.781 21.6797C155.182 21.6797 154.525 21.5234 153.809 21.2109C152.337 22.7344 151.087 24.3359 150.059 26.0156C151.126 26.4974 152.337 26.7383 153.691 26.7383C156.139 26.7383 158.509 26.0482 160.801 24.668C163.092 23.2747 165.059 21.3477 166.699 18.8867C167.467 17.7409 168.073 16.6797 168.516 15.7031C168.958 14.7135 169.674 12.8581 170.664 10.1367C170.898 9.45964 171.178 8.75 171.504 8.00781ZM166.66 8.08594C166.66 6.71875 166.224 5.61849 165.352 4.78516C164.492 3.95182 163.353 3.53516 161.934 3.53516C158.431 3.53516 155.039 5.35807 151.758 9.00391C148.49 12.6497 146.855 16.4258 146.855 20.332C146.855 22.8971 147.799 24.7201 149.688 25.8008C150.573 24.3424 151.842 22.7474 153.496 21.0156C152.637 20.2734 152.207 19.388 152.207 18.3594C152.207 17.5781 152.454 16.9141 152.949 16.3672C153.444 15.8073 154.043 15.5273 154.746 15.5273C155.618 15.5273 156.055 15.931 156.055 16.7383C156.055 17.1549 155.892 17.5195 155.566 17.832C155.241 18.1315 154.857 18.2812 154.414 18.2812C153.776 18.2812 153.457 17.9753 153.457 17.3633C153.457 17.168 153.522 16.9596 153.652 16.7383C153.704 16.569 153.73 16.4714 153.73 16.4453C153.73 16.3672 153.691 16.3281 153.613 16.3281C153.392 16.3281 153.164 16.5625 152.93 17.0312C152.695 17.5 152.578 17.9622 152.578 18.418C152.578 19.2773 152.975 20.0456 153.77 20.7227C156.387 17.9622 160.521 14.7396 166.172 11.0547C166.497 9.90885 166.66 8.91927 166.66 8.08594ZM181.738 20.1758C181.738 20.3451 180.82 21.4388 178.984 23.457C176.979 25.6445 175.273 26.7383 173.867 26.7383C172.956 26.7383 172.174 26.3932 171.523 25.7031C170.872 25 170.547 24.1667 170.547 23.2031C170.547 22.1094 170.99 20.9766 171.875 19.8047C172.76 18.6328 173.952 17.6237 175.449 16.7773C176.712 16.0482 177.741 15.6836 178.535 15.6836C179.499 15.6836 179.98 16.2565 179.98 17.4023C179.98 18.3008 179.674 19.1992 179.062 20.0977C178.464 20.9961 177.865 21.4453 177.266 21.4453C176.68 21.4453 176.387 21.1523 176.387 20.5664C176.387 19.8763 176.986 19.2383 178.184 18.6523C179.108 18.1966 179.57 17.5977 179.57 16.8555C179.57 16.2695 179.251 15.9766 178.613 15.9766C177.533 15.9766 176.204 17.0508 174.629 19.1992C173.053 21.3477 172.266 23.151 172.266 24.6094C172.266 25.8333 172.839 26.4453 173.984 26.4453C175.781 26.4453 178.216 24.4206 181.289 20.3711C181.458 20.1628 181.582 20.0586 181.66 20.0586C181.712 20.0716 181.738 20.1107 181.738 20.1758ZM192.871 20.1758C192.871 20.2799 192.48 20.7552 191.699 21.6016C190.71 22.6953 189.779 23.2422 188.906 23.2422C187.917 23.2422 187.422 22.6693 187.422 21.5234C187.422 21.1589 187.5 20.6966 187.656 20.1367C186.836 20.8529 186.165 21.5625 185.645 22.2656C185.137 22.9688 184.251 24.401 182.988 26.5625C182.298 26.5104 181.895 26.4844 181.777 26.4844C181.725 26.4844 181.328 26.5104 180.586 26.5625L183.789 21.3672C185.391 18.763 186.191 17.1484 186.191 16.5234C186.191 16.1589 186.042 15.9766 185.742 15.9766C185.013 15.9766 183.691 17.3763 181.777 20.1758C181.66 20.3581 181.556 20.4492 181.465 20.4492C181.413 20.4362 181.387 20.3971 181.387 20.332C181.4 20.2669 181.426 20.2148 181.465 20.1758L181.816 19.6875C183.822 17.0182 185.182 15.6836 185.898 15.6836C186.94 15.6836 187.461 16.3542 187.461 17.6953C187.461 18.6979 186.927 20.026 185.859 21.6797C186.536 20.8984 187.181 20.2604 187.793 19.7656C188.288 18.6068 188.9 17.6367 189.629 16.8555C190.371 16.0742 191.035 15.6836 191.621 15.6836C192.025 15.6836 192.227 15.8594 192.227 16.2109C192.227 16.8359 191.322 17.7279 189.512 18.8867C189.225 19.069 188.796 19.3359 188.223 19.6875L187.988 19.8828C187.806 20.4818 187.715 20.9766 187.715 21.3672C187.715 22.4609 188.125 23.0078 188.945 23.0078C189.961 23.0078 191.068 22.168 192.266 20.4883C192.526 20.2018 192.689 20.0586 192.754 20.0586C192.832 20.0586 192.871 20.0977 192.871 20.1758ZM199.277 12.0898C199.277 12.5456 199.082 12.9753 198.691 13.3789C198.314 13.7695 197.897 13.9648 197.441 13.9648C196.855 13.9648 196.562 13.6719 196.562 13.0859C196.562 12.6562 196.764 12.2461 197.168 11.8555C197.572 11.4518 197.995 11.25 198.438 11.25C198.997 11.25 199.277 11.5299 199.277 12.0898ZM199.551 20.1758C199.538 20.2148 199.473 20.319 199.355 20.4883L198.516 21.6406C196.068 25.0391 194.199 26.7383 192.91 26.7383C192.298 26.7383 191.784 26.5234 191.367 26.0938C190.964 25.651 190.762 25.1042 190.762 24.4531C190.762 23.6979 191.211 22.5521 192.109 21.0156L195.156 15.8398C195.56 15.931 195.879 15.9766 196.113 15.9766C196.465 15.9766 196.96 15.931 197.598 15.8398L193.164 23.125C192.526 24.1797 192.207 24.9935 192.207 25.5664C192.207 26.1523 192.513 26.4453 193.125 26.4453C194.284 26.4453 196.322 24.3815 199.238 20.2539C199.303 20.1237 199.368 20.0586 199.434 20.0586C199.512 20.0586 199.551 20.0977 199.551 20.1758ZM208.887 18.8086C208.887 20.931 207.565 22.8646 204.922 24.6094C202.773 26.0286 201.094 26.7383 199.883 26.7383C199.049 26.7383 198.633 26.3477 198.633 25.5664C198.633 25.332 198.698 25.013 198.828 24.6094L191.348 37.0898C190.892 36.9857 190.521 36.9336 190.234 36.9336C189.805 36.9336 189.382 37.0117 188.965 37.168L205 10.8008C205.352 10.918 205.697 10.9766 206.035 10.9766C206.387 10.9766 206.816 10.918 207.324 10.8008L201.523 20.1758C202.917 18.3268 203.926 17.1159 204.551 16.543C205.189 15.9701 205.82 15.6836 206.445 15.6836C207.135 15.6836 207.715 15.9831 208.184 16.582C208.652 17.181 208.887 17.9232 208.887 18.8086ZM207.441 17.2461C207.441 16.3997 207.064 15.9766 206.309 15.9766C205.358 15.9766 203.763 17.5065 201.523 20.5664C199.792 22.9362 198.926 24.5638 198.926 25.4492C198.926 26.1133 199.232 26.4453 199.844 26.4453C201.042 26.4453 202.604 25.2799 204.531 22.9492C206.471 20.6055 207.441 18.7044 207.441 17.2461ZM217.422 15.6836L217.266 15.9766H214.707L210.352 23.418C209.818 24.3164 209.551 25.0326 209.551 25.5664C209.551 26.1523 209.857 26.4453 210.469 26.4453C211.654 26.4453 213.652 24.3815 216.465 20.2539C216.556 20.1237 216.634 20.0586 216.699 20.0586C216.777 20.0586 216.816 20.0977 216.816 20.1758C216.803 20.2148 216.738 20.319 216.621 20.4883L215.781 21.6406C213.333 25.0391 211.491 26.7383 210.254 26.7383C209.642 26.7383 209.128 26.5169 208.711 26.0742C208.307 25.6315 208.105 25.0781 208.105 24.4141C208.105 23.6328 208.451 22.6562 209.141 21.4844L212.422 15.9766H210.43L210.625 15.6836H212.578L214.863 11.8945C215.254 11.9987 215.625 12.0508 215.977 12.0508C216.341 12.0508 216.719 11.9987 217.109 11.8945L214.863 15.6836H217.422Z" fill="#202326"/>
</svg>
