<svg width="326" height="135" viewBox="0 0 326 135" fill="none" xmlns="http://www.w3.org/2000/svg">
<path d="M157.266 3.28125C156.589 4.03646 155.69 5.28646 154.57 7.03125C153.438 8.80208 152.624 10.1693 152.129 11.1328C154.941 10.5729 156.888 10.293 157.969 10.293C158.49 10.293 158.887 10.3451 159.16 10.4492C159.473 10.5534 159.629 10.7943 159.629 11.1719C159.629 11.9792 159.173 12.3828 158.262 12.3828C158.21 12.3828 158.105 12.3828 157.949 12.3828C157.559 12.3698 157.272 12.3633 157.09 12.3633C155.801 12.3633 153.659 12.7865 150.664 13.6328C148.763 16.901 147.09 20.8073 145.645 25.3516C145.449 26.0417 145.143 26.3867 144.727 26.3867C144.362 26.3867 144.056 26.1849 143.809 25.7812C143.613 25.4818 143.516 25.1823 143.516 24.8828C143.516 24.5443 143.874 23.3984 144.59 21.4453C145.775 18.2292 147.467 14.7786 149.668 11.0938C151.061 8.78906 152.591 6.34766 154.258 3.76953C153.815 3.70443 153.594 3.45703 153.594 3.02734C153.594 2.38932 154.212 1.90104 155.449 1.5625C157.168 1.08073 158.841 0.709635 160.469 0.449219C162.318 0.14974 163.724 0 164.688 0C166.211 0 166.973 0.384115 166.973 1.15234C166.973 1.54297 166.797 1.86198 166.445 2.10938C166.302 2.21354 166.139 2.26562 165.957 2.26562C165.801 2.26562 165.579 2.24609 165.293 2.20703C164.85 2.14193 164.466 2.10938 164.141 2.10938C163.438 2.10938 162.253 2.24609 160.586 2.51953C159.388 2.70182 158.281 2.95573 157.266 3.28125ZM162.07 19.082C163.346 17.7148 164.818 16.3802 166.484 15.0781C167.083 14.6094 167.721 14.1732 168.398 13.7695C168.737 13.5742 168.952 13.4766 169.043 13.4766C169.238 13.4766 169.434 13.6198 169.629 13.9062C169.746 14.0625 169.805 14.2057 169.805 14.3359C169.805 14.5703 169.557 14.8893 169.062 15.293C167.734 16.3477 167.07 17.1419 167.07 17.6758C167.07 17.9753 167.24 18.125 167.578 18.125C168.138 18.125 169.102 17.6628 170.469 16.7383C170.703 16.582 170.898 16.5039 171.055 16.5039C171.159 16.5039 171.263 16.556 171.367 16.6602C171.484 16.7773 171.543 16.901 171.543 17.0312C171.543 17.4219 170.996 18.0208 169.902 18.8281C168.757 19.6875 167.669 20.1172 166.641 20.1172C166.224 20.1172 165.84 20.0065 165.488 19.7852C165.189 19.6029 165.039 19.2773 165.039 18.8086C165.039 18.4831 165.176 18.112 165.449 17.6953C164.421 18.4245 163.21 19.6745 161.816 21.4453C161.009 22.5391 160.208 23.8867 159.414 25.4883C159.115 26.0872 158.743 26.3867 158.301 26.3867C157.819 26.3867 157.578 26.1589 157.578 25.7031C157.578 25.2604 157.956 24.0755 158.711 22.1484C159.831 19.2839 161.003 17.0638 162.227 15.4883C162.982 14.5117 163.613 14.0234 164.121 14.0234C164.29 14.0234 164.447 14.0755 164.59 14.1797C164.759 14.3099 164.844 14.4727 164.844 14.668C164.844 14.8633 164.714 15.1367 164.453 15.4883C164.401 15.5534 164.056 15.9896 163.418 16.7969C162.832 17.5651 162.383 18.3268 162.07 19.082ZM172.266 21.7578V22.1094C172.266 22.3958 172.337 22.6432 172.48 22.8516C172.806 23.3333 173.34 23.5742 174.082 23.5742C175.71 23.5742 177.591 22.3242 179.727 19.8242C180.104 19.3945 180.423 19.1797 180.684 19.1797C180.827 19.1797 180.957 19.2513 181.074 19.3945C181.152 19.4987 181.191 19.5964 181.191 19.6875C181.191 20.1953 180.566 21.0547 179.316 22.2656C178.34 23.2161 177.298 23.9909 176.191 24.5898C175.085 25.1888 174.056 25.4883 173.105 25.4883C172.129 25.4883 171.361 25.1497 170.801 24.4727C170.423 24.0039 170.234 23.3659 170.234 22.5586C170.234 20.3581 171.27 18.2031 173.34 16.0938C175.02 14.375 176.484 13.5156 177.734 13.5156C178.073 13.5156 178.379 13.6198 178.652 13.8281C178.991 14.1016 179.16 14.4596 179.16 14.9023C179.16 15.5924 178.841 16.4388 178.203 17.4414C176.888 19.5247 174.909 20.9635 172.266 21.7578ZM172.695 20.2344C173.607 19.9219 174.323 19.5703 174.844 19.1797C175.755 18.4766 176.478 17.6823 177.012 16.7969C177.207 16.4844 177.305 16.2044 177.305 15.957C177.305 15.6966 177.181 15.5664 176.934 15.5664C176.595 15.5664 176.113 15.8203 175.488 16.3281C174.368 17.2266 173.438 18.5286 172.695 20.2344ZM183.242 21.7578V22.1094C183.242 22.3958 183.314 22.6432 183.457 22.8516C183.783 23.3333 184.316 23.5742 185.059 23.5742C186.686 23.5742 188.568 22.3242 190.703 19.8242C191.081 19.3945 191.4 19.1797 191.66 19.1797C191.803 19.1797 191.934 19.2513 192.051 19.3945C192.129 19.4987 192.168 19.5964 192.168 19.6875C192.168 20.1953 191.543 21.0547 190.293 22.2656C189.316 23.2161 188.275 23.9909 187.168 24.5898C186.061 25.1888 185.033 25.4883 184.082 25.4883C183.105 25.4883 182.337 25.1497 181.777 24.4727C181.4 24.0039 181.211 23.3659 181.211 22.5586C181.211 20.3581 182.246 18.2031 184.316 16.0938C185.996 14.375 187.461 13.5156 188.711 13.5156C189.049 13.5156 189.355 13.6198 189.629 13.8281C189.967 14.1016 190.137 14.4596 190.137 14.9023C190.137 15.5924 189.818 16.4388 189.18 17.4414C187.865 19.5247 185.885 20.9635 183.242 21.7578ZM183.672 20.2344C184.583 19.9219 185.299 19.5703 185.82 19.1797C186.732 18.4766 187.454 17.6823 187.988 16.7969C188.184 16.4844 188.281 16.2044 188.281 15.957C188.281 15.6966 188.158 15.5664 187.91 15.5664C187.572 15.5664 187.09 15.8203 186.465 16.3281C185.345 17.2266 184.414 18.5286 183.672 20.2344ZM201.66 12.5391C202.467 12.5391 203.073 12.6823 203.477 12.9688C203.88 13.2552 204.082 13.6914 204.082 14.2773C204.082 15.0456 203.796 15.7878 203.223 16.5039C202.676 17.181 201.855 17.7279 200.762 18.1445C200.163 18.3659 199.661 18.4766 199.258 18.4766C198.711 18.4766 198.438 18.2357 198.438 17.7539C198.438 17.4284 198.594 17.181 198.906 17.0117C198.984 16.9727 199.427 16.862 200.234 16.6797C200.716 16.5755 201.159 16.3477 201.562 15.9961C201.914 15.6966 202.09 15.3711 202.09 15.0195C202.09 14.7461 202.012 14.5443 201.855 14.4141C201.699 14.2839 201.465 14.2188 201.152 14.2188C200.397 14.2188 199.564 14.5247 198.652 15.1367C197.598 15.8268 197.07 16.6471 197.07 17.5977C197.07 18.2747 197.415 19.1211 198.105 20.1367C198.874 21.2435 199.258 22.181 199.258 22.9492C199.258 24.0951 198.75 24.9935 197.734 25.6445C197.109 26.0482 196.4 26.25 195.605 26.25C194.355 26.25 193.405 25.8008 192.754 24.9023C192.298 24.2643 192.07 23.5091 192.07 22.6367C192.07 21.6211 192.331 20.7682 192.852 20.0781C193.19 19.6224 193.542 19.3945 193.906 19.3945C194.232 19.3945 194.395 19.5247 194.395 19.7852C194.395 19.8893 194.336 20.0456 194.219 20.2539C193.919 20.8138 193.77 21.4714 193.77 22.2266C193.77 22.8646 193.997 23.4049 194.453 23.8477C194.857 24.2383 195.319 24.4336 195.84 24.4336C196.348 24.4336 196.745 24.2643 197.031 23.9258C197.266 23.6393 197.383 23.2747 197.383 22.832C197.383 22.2852 197.07 21.5755 196.445 20.7031C195.586 19.5052 195.156 18.418 195.156 17.4414C195.156 16.1393 195.866 14.987 197.285 13.9844C198.665 13.0208 200.124 12.5391 201.66 12.5391ZM210.039 12.9297C209.193 14.2448 208.411 15.7161 207.695 17.3438C206.667 19.6615 206.152 21.3932 206.152 22.5391C206.152 22.8646 206.217 23.112 206.348 23.2812C206.491 23.4505 206.699 23.5352 206.973 23.5352C207.624 23.5352 208.411 22.9232 209.336 21.6992C209.922 20.944 210.443 20.1888 210.898 19.4336C211.146 19.0039 211.413 18.7891 211.699 18.7891C211.868 18.7891 212.012 18.8477 212.129 18.9648C212.233 19.082 212.285 19.1992 212.285 19.3164C212.285 19.7982 211.654 20.8724 210.391 22.5391C208.88 24.5443 207.5 25.5469 206.25 25.5469C205.586 25.5469 205.033 25.2409 204.59 24.6289C204.316 24.2383 204.18 23.6849 204.18 22.9688C204.18 21.3932 204.635 19.5573 205.547 17.4609C205.768 16.9401 206.38 15.6836 207.383 13.6914C207.031 13.7826 206.764 13.8281 206.582 13.8281C206.309 13.8281 206.068 13.763 205.859 13.6328C205.573 13.4505 205.43 13.2227 205.43 12.9492C205.43 12.6237 205.618 12.3633 205.996 12.168C206.1 12.1159 206.582 12.0312 207.441 11.9141C207.754 11.862 208.21 11.7383 208.809 11.543C209.264 10.7227 210.007 9.60938 211.035 8.20312C211.608 7.42188 212.005 6.91406 212.227 6.67969C212.539 6.35417 212.812 6.19141 213.047 6.19141C213.216 6.19141 213.385 6.28255 213.555 6.46484C213.711 6.63411 213.789 6.80339 213.789 6.97266C213.789 7.3112 213.424 7.98177 212.695 8.98438C212.214 9.63542 211.855 10.1628 211.621 10.5664C213.066 10.1758 214.102 9.98047 214.727 9.98047C215.443 9.98047 215.801 10.2799 215.801 10.8789C215.801 11.1784 215.677 11.3997 215.43 11.543C215.299 11.6211 214.961 11.6862 214.414 11.7383C214.193 11.7253 213.21 11.9727 211.465 12.4805C210.983 12.6237 210.508 12.7734 210.039 12.9297ZM219.668 20.0391C218.509 21.4062 217.585 22.4219 216.895 23.0859C215.527 24.388 214.388 25.0391 213.477 25.0391C213.034 25.0391 212.682 24.8763 212.422 24.5508C212.227 24.2904 212.129 23.9648 212.129 23.5742C212.129 22.168 212.962 20.2995 214.629 17.9688C216.322 15.599 217.546 14.4141 218.301 14.4141C218.509 14.4141 218.691 14.5052 218.848 14.6875C218.991 14.8307 219.062 15 219.062 15.1953C219.062 15.4818 218.984 15.7357 218.828 15.957C218.685 16.1654 218.262 16.6406 217.559 17.3828C216.816 18.151 216.133 18.9844 215.508 19.8828C214.792 20.8984 214.434 21.6406 214.434 22.1094C214.434 22.3828 214.564 22.5195 214.824 22.5195C215.345 22.5195 216.322 21.8099 217.754 20.3906C218.652 19.4922 219.355 18.737 219.863 18.125C219.967 17.9948 220.423 17.3763 221.23 16.2695C221.96 15.293 222.409 14.7135 222.578 14.5312C222.969 14.0755 223.333 13.8477 223.672 13.8477C223.88 13.8477 224.069 13.9388 224.238 14.1211C224.395 14.2904 224.473 14.4857 224.473 14.707C224.473 15.0846 224.212 15.7161 223.691 16.6016C223.066 17.6823 222.493 18.6914 221.973 19.6289C221.152 21.0872 220.521 22.3893 220.078 23.5352C220.911 23.0534 221.673 22.4609 222.363 21.7578C223.535 20.5859 224.251 19.7135 224.512 19.1406C224.759 18.6198 225.013 18.3594 225.273 18.3594C225.638 18.3594 225.82 18.5417 225.82 18.9062C225.82 19.5964 225.234 20.625 224.062 21.9922C222.656 23.6328 220.924 25.026 218.867 26.1719C217.773 28.8021 216.738 30.9831 215.762 32.7148C213.939 35.9049 212.057 37.5 210.117 37.5C209.323 37.5 208.685 37.194 208.203 36.582C207.826 36.1133 207.637 35.5208 207.637 34.8047C207.637 32.7734 209.062 30.6966 211.914 28.5742C212.747 27.9492 213.984 27.168 215.625 26.2305C216.289 25.8529 216.81 25.5469 217.188 25.3125C217.422 24.7135 217.78 23.9193 218.262 22.9297C218.796 21.862 219.264 20.8984 219.668 20.0391ZM216.074 27.7148C214.694 28.418 213.281 29.4206 211.836 30.7227C210.378 32.0638 209.648 33.3138 209.648 34.4727C209.648 34.7201 209.72 34.9284 209.863 35.0977C210.059 35.332 210.312 35.4492 210.625 35.4492C211.602 35.4492 212.682 34.4271 213.867 32.3828C214.062 32.0443 214.596 30.918 215.469 29.0039C215.651 28.6133 215.853 28.1836 216.074 27.7148ZM229.375 19.0234C228.984 20.0391 228.691 20.8594 228.496 21.4844C228.301 22.1094 228.203 22.5456 228.203 22.793C228.203 23.1185 228.359 23.2812 228.672 23.2812C229.141 23.2812 229.746 22.8385 230.488 21.9531C230.84 21.5234 231.361 20.7487 232.051 19.6289C232.324 19.1862 232.611 18.9648 232.91 18.9648C233.249 18.9648 233.418 19.1276 233.418 19.4531C233.418 20.013 232.773 21.1458 231.484 22.8516C230.143 24.6354 228.9 25.5273 227.754 25.5273C227.259 25.5273 226.855 25.319 226.543 24.9023C226.322 24.6029 226.211 24.2383 226.211 23.8086C226.211 23.0794 226.432 22.0703 226.875 20.7812C227.318 19.4922 227.975 17.9232 228.848 16.0742C231.087 11.3737 233.372 7.5 235.703 4.45312C237.565 2.00521 239.108 0.78125 240.332 0.78125C240.723 0.78125 241.042 0.93099 241.289 1.23047C241.549 1.52995 241.68 1.875 241.68 2.26562C241.68 4.08854 240.052 7.1224 236.797 11.3672C235.339 13.2552 233.594 15.1432 231.562 17.0312C231.029 17.526 230.299 18.1901 229.375 19.0234ZM230.762 15.918C233.47 13.6003 235.892 10.6706 238.027 7.12891C239.134 5.29297 239.688 4.07552 239.688 3.47656C239.688 3.1901 239.564 3.04688 239.316 3.04688C238.6 3.04688 237.298 4.47266 235.41 7.32422C233.848 9.66797 232.298 12.5326 230.762 15.918ZM236.289 21.7578V22.1094C236.289 22.3958 236.361 22.6432 236.504 22.8516C236.829 23.3333 237.363 23.5742 238.105 23.5742C239.733 23.5742 241.615 22.3242 243.75 19.8242C244.128 19.3945 244.447 19.1797 244.707 19.1797C244.85 19.1797 244.98 19.2513 245.098 19.3945C245.176 19.4987 245.215 19.5964 245.215 19.6875C245.215 20.1953 244.59 21.0547 243.34 22.2656C242.363 23.2161 241.322 23.9909 240.215 24.5898C239.108 25.1888 238.079 25.4883 237.129 25.4883C236.152 25.4883 235.384 25.1497 234.824 24.4727C234.447 24.0039 234.258 23.3659 234.258 22.5586C234.258 20.3581 235.293 18.2031 237.363 16.0938C239.043 14.375 240.508 13.5156 241.758 13.5156C242.096 13.5156 242.402 13.6198 242.676 13.8281C243.014 14.1016 243.184 14.4596 243.184 14.9023C243.184 15.5924 242.865 16.4388 242.227 17.4414C240.911 19.5247 238.932 20.9635 236.289 21.7578ZM236.719 20.2344C237.63 19.9219 238.346 19.5703 238.867 19.1797C239.779 18.4766 240.501 17.6823 241.035 16.7969C241.23 16.4844 241.328 16.2044 241.328 15.957C241.328 15.6966 241.204 15.5664 240.957 15.5664C240.618 15.5664 240.137 15.8203 239.512 16.3281C238.392 17.2266 237.461 18.5286 236.719 20.2344ZM259.844 17.9688C260.547 17.9688 260.898 18.2552 260.898 18.8281C260.898 19.2578 260.573 19.5833 259.922 19.8047C258.802 20.2083 258.242 20.931 258.242 21.9727C258.242 22.806 258.568 23.457 259.219 23.9258C259.779 24.3164 260.488 24.5117 261.348 24.5117C263.066 24.5117 264.57 24.0104 265.859 23.0078C266.667 22.3698 267.07 21.5625 267.07 20.5859C267.07 19.987 266.953 19.4466 266.719 18.9648C266.471 18.4701 266.094 17.8451 265.586 17.0898C264.805 15.918 264.147 14.8503 263.613 13.8867C263.014 12.819 262.715 11.7708 262.715 10.7422C262.715 8.30729 263.919 6.02865 266.328 3.90625C267.604 2.79948 269.01 1.90104 270.547 1.21094C271.823 0.651042 273.053 0.371094 274.238 0.371094C275.007 0.371094 275.658 0.572917 276.191 0.976562C276.842 1.45833 277.168 2.11589 277.168 2.94922C277.168 4.2513 276.465 5.65755 275.059 7.16797C273.73 8.58724 272.181 9.74609 270.41 10.6445C269.525 11.0872 268.854 11.3086 268.398 11.3086C268.099 11.3086 267.832 11.1849 267.598 10.9375C267.441 10.7682 267.363 10.5794 267.363 10.3711C267.363 9.88932 267.793 9.4987 268.652 9.19922C270.228 8.63932 271.621 7.85156 272.832 6.83594C274.395 5.53385 275.176 4.39453 275.176 3.41797C275.176 3.04036 275.02 2.73438 274.707 2.5C274.46 2.31771 274.167 2.22656 273.828 2.22656C272.93 2.22656 271.803 2.57161 270.449 3.26172C268.626 4.1862 267.194 5.3776 266.152 6.83594C265.241 8.09896 264.785 9.32943 264.785 10.5273C264.785 11.3997 265.026 12.2982 265.508 13.2227C265.911 13.9648 266.426 14.8047 267.051 15.7422C267.65 16.6406 268.158 17.474 268.574 18.2422C269.056 19.1536 269.297 20.0065 269.297 20.8008C269.297 22.3372 268.418 23.6979 266.66 24.8828C265.163 25.8724 263.47 26.3672 261.582 26.3672C259.72 26.3672 258.262 25.8529 257.207 24.8242C256.413 24.043 256.016 23.1445 256.016 22.1289C256.016 20.9961 256.393 20.0456 257.148 19.2773C257.604 18.8086 258.145 18.457 258.77 18.2227C259.199 18.0534 259.557 17.9688 259.844 17.9688ZM278.555 13.3984C279.583 13.3984 280.098 13.9388 280.098 15.0195C280.098 15.9701 279.727 16.9271 278.984 17.8906C278.411 18.6198 277.91 18.9844 277.48 18.9844C277.116 18.9844 276.934 18.776 276.934 18.3594C276.934 18.138 276.986 17.9622 277.09 17.832C277.129 17.7799 277.285 17.6302 277.559 17.3828C277.793 17.1615 278.034 16.8294 278.281 16.3867C278.451 16.0872 278.535 15.8464 278.535 15.6641C278.535 15.4557 278.418 15.3516 278.184 15.3516C277.91 15.3516 277.493 15.5664 276.934 15.9961C276.048 16.6862 275.163 17.7669 274.277 19.2383C273.366 20.7747 272.91 21.9857 272.91 22.8711C272.91 23.1576 272.995 23.4115 273.164 23.6328C273.411 23.9714 273.743 24.1406 274.16 24.1406C274.98 24.1406 275.951 23.6328 277.07 22.6172C278.021 21.7448 278.822 20.8724 279.473 20C279.811 19.5182 280.104 19.2773 280.352 19.2773C280.495 19.2773 280.625 19.3424 280.742 19.4727C280.846 19.6029 280.898 19.7331 280.898 19.8633C280.898 20.3451 280.28 21.2826 279.043 22.6758C277.077 24.8633 275.293 25.957 273.691 25.957C272.728 25.957 271.992 25.612 271.484 24.9219C271.12 24.4141 270.938 23.8151 270.938 23.125C270.938 21.7708 271.497 20.2018 272.617 18.418C273.698 16.7122 274.948 15.3385 276.367 14.2969C277.201 13.6979 277.93 13.3984 278.555 13.3984ZM285.977 19.082C287.253 17.7148 288.724 16.3802 290.391 15.0781C290.99 14.6094 291.628 14.1732 292.305 13.7695C292.643 13.5742 292.858 13.4766 292.949 13.4766C293.145 13.4766 293.34 13.6198 293.535 13.9062C293.652 14.0625 293.711 14.2057 293.711 14.3359C293.711 14.5703 293.464 14.8893 292.969 15.293C291.641 16.3477 290.977 17.1419 290.977 17.6758C290.977 17.9753 291.146 18.125 291.484 18.125C292.044 18.125 293.008 17.6628 294.375 16.7383C294.609 16.582 294.805 16.5039 294.961 16.5039C295.065 16.5039 295.169 16.556 295.273 16.6602C295.391 16.7773 295.449 16.901 295.449 17.0312C295.449 17.4219 294.902 18.0208 293.809 18.8281C292.663 19.6875 291.576 20.1172 290.547 20.1172C290.13 20.1172 289.746 20.0065 289.395 19.7852C289.095 19.6029 288.945 19.2773 288.945 18.8086C288.945 18.4831 289.082 18.112 289.355 17.6953C288.327 18.4245 287.116 19.6745 285.723 21.4453C284.915 22.5391 284.115 23.8867 283.32 25.4883C283.021 26.0872 282.65 26.3867 282.207 26.3867C281.725 26.3867 281.484 26.1589 281.484 25.7031C281.484 25.2604 281.862 24.0755 282.617 22.1484C283.737 19.2839 284.909 17.0638 286.133 15.4883C286.888 14.5117 287.52 14.0234 288.027 14.0234C288.197 14.0234 288.353 14.0755 288.496 14.1797C288.665 14.3099 288.75 14.4727 288.75 14.668C288.75 14.8633 288.62 15.1367 288.359 15.4883C288.307 15.5534 287.962 15.9896 287.324 16.7969C286.738 17.5651 286.289 18.3268 285.977 19.082ZM299.766 13.8086C299.987 13.8086 300.169 13.8932 300.312 14.0625C300.417 14.2057 300.469 14.349 300.469 14.4922C300.469 14.7266 300.28 15.1172 299.902 15.6641C298.548 17.7604 297.585 19.4857 297.012 20.8398C296.4 22.2331 295.859 23.6654 295.391 25.1367C295.182 25.7878 294.857 26.1133 294.414 26.1133C294.154 26.1133 293.945 26.0091 293.789 25.8008C293.646 25.6315 293.574 25.4492 293.574 25.2539C293.574 24.8633 293.991 23.5612 294.824 21.3477C295.475 19.6029 296.53 17.6758 297.988 15.5664C298.457 14.8763 298.809 14.4141 299.043 14.1797C299.277 13.9323 299.518 13.8086 299.766 13.8086ZM303.477 6.5625C304.062 6.5625 304.355 6.86198 304.355 7.46094C304.355 8.00781 304.069 8.61328 303.496 9.27734C302.949 9.91536 302.422 10.2344 301.914 10.2344C301.667 10.2344 301.465 10.1432 301.309 9.96094C301.152 9.79167 301.074 9.58333 301.074 9.33594C301.074 8.71094 301.419 8.04688 302.109 7.34375C302.617 6.82292 303.073 6.5625 303.477 6.5625ZM305.547 15.1367C306.081 14.7982 306.478 14.5638 306.738 14.4336C307.272 14.1732 307.793 14.043 308.301 14.043C308.874 14.043 309.303 14.2122 309.59 14.5508C309.876 14.8763 310.02 15.3711 310.02 16.0352C310.02 16.9466 309.701 18.0404 309.062 19.3164C308.073 21.3346 306.875 22.9232 305.469 24.082C304.284 25.0586 303.171 25.5469 302.129 25.5469C301.556 25.5469 300.99 25.3255 300.43 24.8828C298.646 28.4896 297.051 32.168 295.645 35.918C295.345 36.8164 294.993 37.2656 294.59 37.2656C294.395 37.2656 294.199 37.1354 294.004 36.875C293.861 36.6927 293.789 36.4909 293.789 36.2695C293.789 35.5664 294.648 33.2812 296.367 29.4141C299.023 23.4505 301.543 18.4961 303.926 14.5508C304.421 13.7174 304.753 13.1445 304.922 12.832C305.378 11.9857 305.82 11.5625 306.25 11.5625C306.693 11.5625 306.914 11.8294 306.914 12.3633C306.914 12.6628 306.758 13.0664 306.445 13.5742C306.068 14.2253 305.768 14.7461 305.547 15.1367ZM301.152 23.2422C301.439 23.5417 301.797 23.6914 302.227 23.6914C303.438 23.6914 304.779 22.6172 306.25 20.4688C306.797 19.6745 307.233 18.8607 307.559 18.0273C307.819 17.3633 307.949 16.862 307.949 16.5234C307.949 16.2891 307.891 16.1133 307.773 15.9961C307.669 15.8789 307.5 15.8203 307.266 15.8203C306.654 15.8203 305.905 16.2435 305.02 17.0898C304.173 17.9102 303.359 19.0625 302.578 20.5469C301.862 21.9141 301.387 22.8125 301.152 23.2422ZM317.617 12.9297C316.771 14.2448 315.99 15.7161 315.273 17.3438C314.245 19.6615 313.73 21.3932 313.73 22.5391C313.73 22.8646 313.796 23.112 313.926 23.2812C314.069 23.4505 314.277 23.5352 314.551 23.5352C315.202 23.5352 315.99 22.9232 316.914 21.6992C317.5 20.944 318.021 20.1888 318.477 19.4336C318.724 19.0039 318.991 18.7891 319.277 18.7891C319.447 18.7891 319.59 18.8477 319.707 18.9648C319.811 19.082 319.863 19.1992 319.863 19.3164C319.863 19.7982 319.232 20.8724 317.969 22.5391C316.458 24.5443 315.078 25.5469 313.828 25.5469C313.164 25.5469 312.611 25.2409 312.168 24.6289C311.895 24.2383 311.758 23.6849 311.758 22.9688C311.758 21.3932 312.214 19.5573 313.125 17.4609C313.346 16.9401 313.958 15.6836 314.961 13.6914C314.609 13.7826 314.342 13.8281 314.16 13.8281C313.887 13.8281 313.646 13.763 313.438 13.6328C313.151 13.4505 313.008 13.2227 313.008 12.9492C313.008 12.6237 313.197 12.3633 313.574 12.168C313.678 12.1159 314.16 12.0312 315.02 11.9141C315.332 11.862 315.788 11.7383 316.387 11.543C316.842 10.7227 317.585 9.60938 318.613 8.20312C319.186 7.42188 319.583 6.91406 319.805 6.67969C320.117 6.35417 320.391 6.19141 320.625 6.19141C320.794 6.19141 320.964 6.28255 321.133 6.46484C321.289 6.63411 321.367 6.80339 321.367 6.97266C321.367 7.3112 321.003 7.98177 320.273 8.98438C319.792 9.63542 319.434 10.1628 319.199 10.5664C320.645 10.1758 321.68 9.98047 322.305 9.98047C323.021 9.98047 323.379 10.2799 323.379 10.8789C323.379 11.1784 323.255 11.3997 323.008 11.543C322.878 11.6211 322.539 11.6862 321.992 11.7383C321.771 11.7253 320.788 11.9727 319.043 12.4805C318.561 12.6237 318.086 12.7734 317.617 12.9297ZM143.477 52.1562C143.477 53.0286 142.676 53.4648 141.074 53.4648C139.811 53.4648 136.81 52.8789 132.07 51.707C129.857 52.9701 128.75 54.5586 128.75 56.4727C128.75 57.3971 129.069 58.0352 129.707 58.3867C130.632 58.3086 131.328 58.2695 131.797 58.2695C133.151 58.2695 133.828 58.4323 133.828 58.7578C133.828 58.9661 133.47 59.0703 132.754 59.0703C131.842 59.0703 130.853 58.9401 129.785 58.6797C128.34 58.888 126.66 59.4479 124.746 60.3594C119.876 62.6901 117.441 65.7109 117.441 69.4219C117.441 71.8828 118.77 73.4453 121.426 74.1094C120.944 73.3151 120.703 72.3971 120.703 71.3555C120.703 68.7904 122.012 66.4271 124.629 64.2656C127.246 62.1042 130.111 61.0234 133.223 61.0234C134.655 61.0234 135.794 61.375 136.641 62.0781C137.487 62.7812 137.91 63.7253 137.91 64.9102C137.91 67.4492 136.517 69.7409 133.73 71.7852C130.944 73.8164 127.806 74.832 124.316 74.832C123.613 74.832 122.956 74.793 122.344 74.7148C123.594 76.3945 125.449 77.2344 127.91 77.2344C129.434 77.2344 130.677 77.0065 131.641 76.5508L131.875 76.5117C131.953 76.5378 131.992 76.5898 131.992 76.668C131.992 76.8503 131.51 77.0391 130.547 77.2344C129.583 77.4427 128.704 77.5469 127.91 77.5469C125.189 77.5469 123.112 76.5638 121.68 74.5977C119.688 74.1549 118.125 73.4062 116.992 72.3516C115.872 71.2839 115.312 70.0469 115.312 68.6406C115.312 66.7526 116.094 64.9883 117.656 63.3477C119.219 61.694 121.302 60.444 123.906 59.5977C125.482 59.0768 127.285 58.6992 129.316 58.4648C127.871 57.8529 127.148 56.8828 127.148 55.5547C127.148 53.849 128.203 52.4232 130.312 51.2773C127.292 50.5482 124.798 50.1836 122.832 50.1836C118.978 50.1836 115.69 51.1471 112.969 53.0742C110.26 55.0013 108.906 57.332 108.906 60.0664C108.906 61.2904 109.264 62.3385 109.98 63.2109C110.697 64.0833 111.556 64.5195 112.559 64.5195C113.249 64.5195 113.594 64.4089 113.594 64.1875C113.594 64.0703 113.47 64.0312 113.223 64.0703C112.533 64.0703 112.188 63.7513 112.188 63.1133C112.188 62.7487 112.337 62.4362 112.637 62.1758C112.949 61.9154 113.32 61.7852 113.75 61.7852C114.583 61.7852 115 62.1888 115 62.9961C115 63.5299 114.759 63.9857 114.277 64.3633C113.809 64.7279 113.236 64.9102 112.559 64.9102C111.348 64.9102 110.312 64.3698 109.453 63.2891C108.607 62.1953 108.184 60.8802 108.184 59.3438C108.184 57.0391 109.186 54.9232 111.191 52.9961C113.574 50.7044 116.921 49.5586 121.23 49.5586C123.626 49.5586 126.816 50.0469 130.801 51.0234C132.598 50.151 134.688 49.7148 137.07 49.7148C138.841 49.7148 140.352 49.9557 141.602 50.4375C142.852 50.9062 143.477 51.4792 143.477 52.1562ZM143.066 52.1172C143.066 51.6094 142.526 51.1602 141.445 50.7695C140.378 50.3789 139.147 50.1836 137.754 50.1836C135.84 50.1836 134.095 50.6003 132.52 51.4336C135.97 52.5534 138.874 53.1133 141.23 53.1133C142.454 53.1133 143.066 52.7812 143.066 52.1172ZM137.559 64.7539C137.559 63.8164 137.188 63.0417 136.445 62.4297C135.703 61.8177 134.766 61.5117 133.633 61.5117C130.833 61.5117 128.099 62.6771 125.43 65.0078C122.76 67.3255 121.426 69.6953 121.426 72.1172C121.426 72.8203 121.641 73.5365 122.07 74.2656C122.826 74.4089 123.522 74.4805 124.16 74.4805C127.233 74.4805 130.234 73.4193 133.164 71.2969C136.094 69.1615 137.559 66.9805 137.559 64.7539ZM156.992 54.2656C152.109 62.026 149.03 66.987 147.754 69.1484C146.465 71.349 145.82 72.7357 145.82 73.3086C145.82 73.8945 146.087 74.1875 146.621 74.1875C147.806 74.1875 149.818 72.1237 152.656 67.9961C152.734 67.8659 152.806 67.8008 152.871 67.8008C152.949 67.8008 152.988 67.8398 152.988 67.918C152.975 67.957 152.91 68.0612 152.793 68.2305L151.953 69.3828C149.492 72.7812 147.676 74.4805 146.504 74.4805C145.905 74.4805 145.417 74.2591 145.039 73.8164C144.661 73.3607 144.473 72.7812 144.473 72.0781C144.473 71.375 144.707 70.5612 145.176 69.6367C142.897 72.8659 141.204 74.4805 140.098 74.4805C139.408 74.4805 138.828 74.1875 138.359 73.6016C137.891 73.0026 137.656 72.2539 137.656 71.3555C137.656 69.207 138.991 67.2604 141.66 65.5156C143.783 64.1224 145.449 63.4258 146.66 63.4258C147.467 63.4258 147.871 63.8164 147.871 64.5977C147.871 64.9622 147.76 65.3724 147.539 65.8281L154.512 54.1484C154.941 54.2786 155.365 54.3438 155.781 54.3438C155.885 54.3438 156.289 54.3177 156.992 54.2656ZM147.578 64.7539C147.578 64.0638 147.259 63.7188 146.621 63.7188C145.449 63.7188 143.9 64.8906 141.973 67.2344C140.059 69.5651 139.102 71.4466 139.102 72.8789C139.102 73.7513 139.46 74.1875 140.176 74.1875C141.217 74.1875 143.008 72.3776 145.547 68.7578C146.901 66.8047 147.578 65.4701 147.578 64.7539ZM170.02 67.8789C170.02 68.0221 169.603 68.5234 168.77 69.3828C167.65 70.5677 166.667 71.1602 165.82 71.1602C165.247 71.1602 164.766 70.8477 164.375 70.2227C163.216 71.8242 162.272 72.9375 161.543 73.5625C160.814 74.1745 160.078 74.4805 159.336 74.4805C158.672 74.4805 158.118 74.2591 157.676 73.8164C157.233 73.3607 157.012 72.8073 157.012 72.1562C157.012 71.6094 157.188 70.9518 157.539 70.1836C155.586 73.0482 154.049 74.4805 152.93 74.4805C152.37 74.4805 151.895 74.2526 151.504 73.7969C151.126 73.3411 150.938 72.7943 150.938 72.1562C150.938 71.4141 151.322 70.3854 152.09 69.0703L155.332 63.582C155.853 63.6732 156.237 63.7188 156.484 63.7188C156.706 63.7188 157.135 63.6732 157.773 63.582L153.34 70.8281C152.637 71.9609 152.285 72.7878 152.285 73.3086C152.285 73.8945 152.552 74.1875 153.086 74.1875C153.672 74.1875 154.544 73.5365 155.703 72.2344C156.875 70.9323 158.034 69.3047 159.18 67.3516L161.367 63.582C162.07 63.6471 162.513 63.6797 162.695 63.6797C163.151 63.6797 163.522 63.6471 163.809 63.582L159.727 70.1836C158.828 71.6549 158.379 72.6706 158.379 73.2305C158.379 73.8685 158.711 74.1875 159.375 74.1875C160.703 74.1875 162.318 72.7878 164.219 69.9883C164.141 69.5065 164.102 69.1484 164.102 68.9141C164.102 67.7552 164.46 66.5508 165.176 65.3008C165.905 64.0508 166.608 63.4258 167.285 63.4258C167.585 63.4258 167.734 63.6276 167.734 64.0312C167.734 65.125 166.667 67.1237 164.531 70.0273C164.857 70.6133 165.286 70.9062 165.82 70.9062C166.797 70.9062 167.995 70.0273 169.414 68.2695C169.674 67.957 169.85 67.8008 169.941 67.8008C169.98 67.8008 170.007 67.8268 170.02 67.8789ZM183.73 67.918C183.73 68.1914 182.78 69.4544 180.879 71.707C179.342 73.556 178.132 74.4805 177.246 74.4805C176.647 74.4805 176.159 74.2591 175.781 73.8164C175.404 73.3607 175.215 72.7943 175.215 72.1172C175.215 71.4141 175.423 70.6523 175.84 69.832C174.538 71.6549 173.542 72.8854 172.852 73.5234C172.161 74.1615 171.491 74.4805 170.84 74.4805C170.15 74.4805 169.57 74.1875 169.102 73.6016C168.633 73.0026 168.398 72.2539 168.398 71.3555C168.398 68.8555 170.163 66.6419 173.691 64.7148C175.241 63.8555 176.491 63.4258 177.441 63.4258C178.249 63.4258 178.652 63.8164 178.652 64.5977C178.652 64.819 178.6 65.112 178.496 65.4766L179.492 63.582C179.883 63.6732 180.228 63.7188 180.527 63.7188C180.879 63.7188 181.335 63.6732 181.895 63.582L178.438 69.3047C177.24 71.3099 176.641 72.6315 176.641 73.2695C176.641 73.8815 176.895 74.1875 177.402 74.1875C177.923 74.1875 178.757 73.5951 179.902 72.4102C181.048 71.2122 182.214 69.7409 183.398 67.9961C183.477 67.8659 183.548 67.8008 183.613 67.8008C183.691 67.8008 183.73 67.8398 183.73 67.918ZM178.359 64.6758C178.359 64.0378 178.066 63.7188 177.48 63.7188C176.283 63.7188 174.707 64.8906 172.754 67.2344C170.814 69.5781 169.844 71.4727 169.844 72.918C169.844 73.7643 170.221 74.1875 170.977 74.1875C171.875 74.1875 173.431 72.6966 175.645 69.7148C177.454 67.2669 178.359 65.5872 178.359 64.6758ZM194.922 67.918C194.922 68.0221 194.531 68.4974 193.75 69.3438C192.76 70.4375 191.829 70.9844 190.957 70.9844C189.967 70.9844 189.473 70.4115 189.473 69.2656C189.473 68.901 189.551 68.4388 189.707 67.8789C188.887 68.5951 188.216 69.3047 187.695 70.0078C187.188 70.7109 186.302 72.1432 185.039 74.3047C184.349 74.2526 183.945 74.2266 183.828 74.2266C183.776 74.2266 183.379 74.2526 182.637 74.3047L185.84 69.1094C187.441 66.5052 188.242 64.8906 188.242 64.2656C188.242 63.901 188.092 63.7188 187.793 63.7188C187.064 63.7188 185.742 65.1185 183.828 67.918C183.711 68.1003 183.607 68.1914 183.516 68.1914C183.464 68.1784 183.438 68.1393 183.438 68.0742C183.451 68.0091 183.477 67.957 183.516 67.918L183.867 67.4297C185.872 64.7604 187.233 63.4258 187.949 63.4258C188.991 63.4258 189.512 64.0964 189.512 65.4375C189.512 66.4401 188.978 67.7682 187.91 69.4219C188.587 68.6406 189.232 68.0026 189.844 67.5078C190.339 66.349 190.951 65.3789 191.68 64.5977C192.422 63.8164 193.086 63.4258 193.672 63.4258C194.076 63.4258 194.277 63.6016 194.277 63.9531C194.277 64.5781 193.372 65.4701 191.562 66.6289C191.276 66.8112 190.846 67.0781 190.273 67.4297L190.039 67.625C189.857 68.224 189.766 68.7188 189.766 69.1094C189.766 70.2031 190.176 70.75 190.996 70.75C192.012 70.75 193.118 69.9102 194.316 68.2305C194.577 67.944 194.74 67.8008 194.805 67.8008C194.883 67.8008 194.922 67.8398 194.922 67.918ZM212.656 54.2656C207.773 62.026 204.694 66.987 203.418 69.1484C202.129 71.349 201.484 72.7357 201.484 73.3086C201.484 73.8945 201.751 74.1875 202.285 74.1875C203.47 74.1875 205.482 72.1237 208.32 67.9961C208.398 67.8659 208.47 67.8008 208.535 67.8008C208.613 67.8008 208.652 67.8398 208.652 67.918C208.639 67.957 208.574 68.0612 208.457 68.2305L207.617 69.3828C205.156 72.7812 203.34 74.4805 202.168 74.4805C201.569 74.4805 201.081 74.2591 200.703 73.8164C200.326 73.3607 200.137 72.7812 200.137 72.0781C200.137 71.375 200.371 70.5612 200.84 69.6367C198.561 72.8659 196.868 74.4805 195.762 74.4805C195.072 74.4805 194.492 74.1875 194.023 73.6016C193.555 73.0026 193.32 72.2539 193.32 71.3555C193.32 69.207 194.655 67.2604 197.324 65.5156C199.447 64.1224 201.113 63.4258 202.324 63.4258C203.132 63.4258 203.535 63.8164 203.535 64.5977C203.535 64.9622 203.424 65.3724 203.203 65.8281L210.176 54.1484C210.605 54.2786 211.029 54.3438 211.445 54.3438C211.549 54.3438 211.953 54.3177 212.656 54.2656ZM203.242 64.7539C203.242 64.0638 202.923 63.7188 202.285 63.7188C201.113 63.7188 199.564 64.8906 197.637 67.2344C195.723 69.5651 194.766 71.4466 194.766 72.8789C194.766 73.7513 195.124 74.1875 195.84 74.1875C196.882 74.1875 198.672 72.3776 201.211 68.7578C202.565 66.8047 203.242 65.4701 203.242 64.7539ZM215.117 59.832C215.117 60.2878 214.922 60.7174 214.531 61.1211C214.154 61.5117 213.737 61.707 213.281 61.707C212.695 61.707 212.402 61.4141 212.402 60.8281C212.402 60.3984 212.604 59.9883 213.008 59.5977C213.411 59.194 213.835 58.9922 214.277 58.9922C214.837 58.9922 215.117 59.2721 215.117 59.832ZM215.391 67.918C215.378 67.957 215.312 68.0612 215.195 68.2305L214.355 69.3828C211.908 72.7812 210.039 74.4805 208.75 74.4805C208.138 74.4805 207.624 74.2656 207.207 73.8359C206.803 73.3932 206.602 72.8464 206.602 72.1953C206.602 71.4401 207.051 70.2943 207.949 68.7578L210.996 63.582C211.4 63.6732 211.719 63.7188 211.953 63.7188C212.305 63.7188 212.799 63.6732 213.438 63.582L209.004 70.8672C208.366 71.9219 208.047 72.7357 208.047 73.3086C208.047 73.8945 208.353 74.1875 208.965 74.1875C210.124 74.1875 212.161 72.1237 215.078 67.9961C215.143 67.8659 215.208 67.8008 215.273 67.8008C215.352 67.8008 215.391 67.8398 215.391 67.918ZM229.16 67.918C229.16 68.1914 228.21 69.4544 226.309 71.707C224.772 73.556 223.561 74.4805 222.676 74.4805C222.077 74.4805 221.589 74.2591 221.211 73.8164C220.833 73.3607 220.645 72.7943 220.645 72.1172C220.645 71.4141 220.853 70.6523 221.27 69.832C219.967 71.6549 218.971 72.8854 218.281 73.5234C217.591 74.1615 216.921 74.4805 216.27 74.4805C215.579 74.4805 215 74.1875 214.531 73.6016C214.062 73.0026 213.828 72.2539 213.828 71.3555C213.828 68.8555 215.592 66.6419 219.121 64.7148C220.671 63.8555 221.921 63.4258 222.871 63.4258C223.678 63.4258 224.082 63.8164 224.082 64.5977C224.082 64.819 224.03 65.112 223.926 65.4766L224.922 63.582C225.312 63.6732 225.658 63.7188 225.957 63.7188C226.309 63.7188 226.764 63.6732 227.324 63.582L223.867 69.3047C222.669 71.3099 222.07 72.6315 222.07 73.2695C222.07 73.8815 222.324 74.1875 222.832 74.1875C223.353 74.1875 224.186 73.5951 225.332 72.4102C226.478 71.2122 227.643 69.7409 228.828 67.9961C228.906 67.8659 228.978 67.8008 229.043 67.8008C229.121 67.8008 229.16 67.8398 229.16 67.918ZM223.789 64.6758C223.789 64.0378 223.496 63.7188 222.91 63.7188C221.712 63.7188 220.137 64.8906 218.184 67.2344C216.243 69.5781 215.273 71.4727 215.273 72.918C215.273 73.7643 215.651 74.1875 216.406 74.1875C217.305 74.1875 218.861 72.6966 221.074 69.7148C222.884 67.2669 223.789 65.5872 223.789 64.6758ZM244.863 67.918C244.863 68.1914 243.919 69.4544 242.031 71.707C240.482 73.556 239.264 74.4805 238.379 74.4805C237.793 74.4805 237.298 74.2526 236.895 73.7969C236.504 73.3411 236.309 72.7812 236.309 72.1172C236.309 71.5312 236.426 70.9909 236.66 70.4961C236.908 69.9883 237.539 68.9922 238.555 67.5078C239.609 65.9453 240.137 64.9492 240.137 64.5195C240.137 63.9857 239.857 63.7188 239.297 63.7188C237.396 63.7188 234.466 67.2474 230.508 74.3047C229.87 74.2526 229.486 74.2266 229.355 74.2266C228.9 74.2266 228.47 74.2526 228.066 74.3047L231.113 69.4805C232.845 66.7201 233.711 64.9948 233.711 64.3047C233.711 63.9141 233.548 63.7188 233.223 63.7188C232.559 63.7188 231.25 65.1185 229.297 67.918C229.18 68.0872 229.089 68.1784 229.023 68.1914C228.958 68.1914 228.919 68.1523 228.906 68.0742C228.919 68.0091 228.945 67.957 228.984 67.918L229.355 67.4297C231.348 64.7604 232.689 63.4258 233.379 63.4258C233.822 63.4258 234.199 63.6276 234.512 64.0312C234.824 64.4349 234.98 64.9167 234.98 65.4766C234.98 66.3099 234.492 67.4688 233.516 68.9531C235.052 66.8307 236.23 65.3789 237.051 64.5977C237.884 63.8164 238.652 63.4258 239.355 63.4258C239.928 63.4258 240.41 63.6602 240.801 64.1289C241.191 64.5977 241.387 65.1771 241.387 65.8672C241.387 66.7396 240.788 68.0742 239.59 69.8711C238.366 71.707 237.754 72.8789 237.754 73.3867C237.754 73.9206 238.021 74.1875 238.555 74.1875C239.714 74.1875 241.712 72.1237 244.551 67.9961C244.616 67.8659 244.681 67.8008 244.746 67.8008C244.824 67.8008 244.863 67.8398 244.863 67.918ZM288.086 48.5039C288.086 49.1289 287.454 50.0339 286.191 51.2188C284.941 52.3906 283.411 53.5169 281.602 54.5977C281.367 55.3398 281.022 56.6875 280.566 58.6406C279.837 61.7005 279.167 63.875 278.555 65.1641C277.943 66.4401 276.934 67.7422 275.527 69.0703C271.465 72.9115 266.914 74.832 261.875 74.832C260.43 74.832 259.154 74.5911 258.047 74.1094C257.435 75.3073 257.129 76.349 257.129 77.2344C257.129 78.3542 257.5 79.3828 258.242 80.3203C258.32 80.3984 258.359 80.4896 258.359 80.5938C258.359 80.6979 258.294 80.75 258.164 80.75C257.865 80.75 257.539 80.3464 257.188 79.5391C256.849 78.7318 256.68 77.9766 256.68 77.2734C256.68 76.2578 257.012 75.138 257.676 73.9141C254.954 72.5078 253.594 70.0924 253.594 66.668C253.594 64.4674 254.245 62.2799 255.547 60.1055C256.849 57.931 258.678 55.9714 261.035 54.2266C264.043 52.013 267.018 50.9062 269.961 50.9062C271.562 50.9062 272.832 51.3555 273.77 52.2539C274.72 53.1523 275.195 54.3698 275.195 55.9062C275.195 56.7266 275.078 57.5794 274.844 58.4648C276.758 57.1888 278.451 56.1081 279.922 55.2227C280.859 53.1784 282.038 51.4206 283.457 49.9492C284.876 48.4779 286.113 47.7422 287.168 47.7422C287.78 47.7422 288.086 47.9961 288.086 48.5039ZM287.715 48.543C287.715 48.2305 287.533 48.0742 287.168 48.0742C286.296 48.0742 285.319 48.6797 284.238 49.8906C283.171 51.0885 282.344 52.4948 281.758 54.1094C283.477 53.0547 284.896 52 286.016 50.9453C287.148 49.8906 287.715 49.0898 287.715 48.543ZM274.16 59.3438L272.871 60.2227C267.962 63.6081 264.421 66.4271 262.246 68.6797C262.793 68.9661 263.379 69.1094 264.004 69.1094C265.827 69.1094 267.734 68.1523 269.727 66.2383C271.719 64.3242 273.197 62.026 274.16 59.3438ZM279.688 55.75C278.164 56.7135 276.497 57.8073 274.688 59.0312C273.828 61.7917 272.318 64.2135 270.156 66.2969C268.008 68.3802 265.944 69.4219 263.965 69.4219C263.366 69.4219 262.708 69.2656 261.992 68.9531C260.521 70.4766 259.271 72.0781 258.242 73.7578C259.31 74.2396 260.521 74.4805 261.875 74.4805C264.323 74.4805 266.693 73.7904 268.984 72.4102C271.276 71.0169 273.242 69.0898 274.883 66.6289C275.651 65.4831 276.257 64.4219 276.699 63.4453C277.142 62.4557 277.858 60.6003 278.848 57.8789C279.082 57.2018 279.362 56.4922 279.688 55.75ZM274.844 55.8281C274.844 54.4609 274.408 53.3607 273.535 52.5273C272.676 51.694 271.536 51.2773 270.117 51.2773C266.615 51.2773 263.223 53.1003 259.941 56.7461C256.673 60.3919 255.039 64.168 255.039 68.0742C255.039 70.6393 255.983 72.4622 257.871 73.543C258.757 72.0846 260.026 70.4896 261.68 68.7578C260.82 68.0156 260.391 67.1302 260.391 66.1016C260.391 65.3203 260.638 64.6562 261.133 64.1094C261.628 63.5495 262.227 63.2695 262.93 63.2695C263.802 63.2695 264.238 63.6732 264.238 64.4805C264.238 64.8971 264.076 65.2617 263.75 65.5742C263.424 65.8737 263.04 66.0234 262.598 66.0234C261.96 66.0234 261.641 65.7174 261.641 65.1055C261.641 64.9102 261.706 64.7018 261.836 64.4805C261.888 64.3112 261.914 64.2135 261.914 64.1875C261.914 64.1094 261.875 64.0703 261.797 64.0703C261.576 64.0703 261.348 64.3047 261.113 64.7734C260.879 65.2422 260.762 65.7044 260.762 66.1602C260.762 67.0195 261.159 67.7878 261.953 68.4648C264.57 65.7044 268.704 62.4818 274.355 58.7969C274.681 57.651 274.844 56.6615 274.844 55.8281ZM289.922 67.918C289.922 68.0872 289.004 69.181 287.168 71.1992C285.163 73.3867 283.457 74.4805 282.051 74.4805C281.139 74.4805 280.358 74.1354 279.707 73.4453C279.056 72.7422 278.73 71.9089 278.73 70.9453C278.73 69.8516 279.173 68.7188 280.059 67.5469C280.944 66.375 282.135 65.3659 283.633 64.5195C284.896 63.7904 285.924 63.4258 286.719 63.4258C287.682 63.4258 288.164 63.9987 288.164 65.1445C288.164 66.043 287.858 66.9414 287.246 67.8398C286.647 68.7383 286.048 69.1875 285.449 69.1875C284.863 69.1875 284.57 68.8945 284.57 68.3086C284.57 67.6185 285.169 66.9805 286.367 66.3945C287.292 65.9388 287.754 65.3398 287.754 64.5977C287.754 64.0117 287.435 63.7188 286.797 63.7188C285.716 63.7188 284.388 64.793 282.812 66.9414C281.237 69.0898 280.449 70.8932 280.449 72.3516C280.449 73.5755 281.022 74.1875 282.168 74.1875C283.965 74.1875 286.4 72.1628 289.473 68.1133C289.642 67.9049 289.766 67.8008 289.844 67.8008C289.896 67.8138 289.922 67.8529 289.922 67.918ZM301.055 67.918C301.055 68.0221 300.664 68.4974 299.883 69.3438C298.893 70.4375 297.962 70.9844 297.09 70.9844C296.1 70.9844 295.605 70.4115 295.605 69.2656C295.605 68.901 295.684 68.4388 295.84 67.8789C295.02 68.5951 294.349 69.3047 293.828 70.0078C293.32 70.7109 292.435 72.1432 291.172 74.3047C290.482 74.2526 290.078 74.2266 289.961 74.2266C289.909 74.2266 289.512 74.2526 288.77 74.3047L291.973 69.1094C293.574 66.5052 294.375 64.8906 294.375 64.2656C294.375 63.901 294.225 63.7188 293.926 63.7188C293.197 63.7188 291.875 65.1185 289.961 67.918C289.844 68.1003 289.74 68.1914 289.648 68.1914C289.596 68.1784 289.57 68.1393 289.57 68.0742C289.583 68.0091 289.609 67.957 289.648 67.918L290 67.4297C292.005 64.7604 293.366 63.4258 294.082 63.4258C295.124 63.4258 295.645 64.0964 295.645 65.4375C295.645 66.4401 295.111 67.7682 294.043 69.4219C294.72 68.6406 295.365 68.0026 295.977 67.5078C296.471 66.349 297.083 65.3789 297.812 64.5977C298.555 63.8164 299.219 63.4258 299.805 63.4258C300.208 63.4258 300.41 63.6016 300.41 63.9531C300.41 64.5781 299.505 65.4701 297.695 66.6289C297.409 66.8112 296.979 67.0781 296.406 67.4297L296.172 67.625C295.99 68.224 295.898 68.7188 295.898 69.1094C295.898 70.2031 296.309 70.75 297.129 70.75C298.145 70.75 299.251 69.9102 300.449 68.2305C300.71 67.944 300.872 67.8008 300.938 67.8008C301.016 67.8008 301.055 67.8398 301.055 67.918ZM307.461 59.832C307.461 60.2878 307.266 60.7174 306.875 61.1211C306.497 61.5117 306.081 61.707 305.625 61.707C305.039 61.707 304.746 61.4141 304.746 60.8281C304.746 60.3984 304.948 59.9883 305.352 59.5977C305.755 59.194 306.178 58.9922 306.621 58.9922C307.181 58.9922 307.461 59.2721 307.461 59.832ZM307.734 67.918C307.721 67.957 307.656 68.0612 307.539 68.2305L306.699 69.3828C304.251 72.7812 302.383 74.4805 301.094 74.4805C300.482 74.4805 299.967 74.2656 299.551 73.8359C299.147 73.3932 298.945 72.8464 298.945 72.1953C298.945 71.4401 299.395 70.2943 300.293 68.7578L303.34 63.582C303.743 63.6732 304.062 63.7188 304.297 63.7188C304.648 63.7188 305.143 63.6732 305.781 63.582L301.348 70.8672C300.71 71.9219 300.391 72.7357 300.391 73.3086C300.391 73.8945 300.697 74.1875 301.309 74.1875C302.467 74.1875 304.505 72.1237 307.422 67.9961C307.487 67.8659 307.552 67.8008 307.617 67.8008C307.695 67.8008 307.734 67.8398 307.734 67.918ZM317.07 66.5508C317.07 68.6732 315.749 70.6068 313.105 72.3516C310.957 73.7708 309.277 74.4805 308.066 74.4805C307.233 74.4805 306.816 74.0898 306.816 73.3086C306.816 73.0742 306.882 72.7552 307.012 72.3516L299.531 84.832C299.076 84.7279 298.704 84.6758 298.418 84.6758C297.988 84.6758 297.565 84.7539 297.148 84.9102L313.184 58.543C313.535 58.6602 313.88 58.7188 314.219 58.7188C314.57 58.7188 315 58.6602 315.508 58.543L309.707 67.918C311.1 66.069 312.109 64.8581 312.734 64.2852C313.372 63.7122 314.004 63.4258 314.629 63.4258C315.319 63.4258 315.898 63.7253 316.367 64.3242C316.836 64.9232 317.07 65.6654 317.07 66.5508ZM315.625 64.9883C315.625 64.1419 315.247 63.7188 314.492 63.7188C313.542 63.7188 311.947 65.2487 309.707 68.3086C307.975 70.6784 307.109 72.306 307.109 73.1914C307.109 73.8555 307.415 74.1875 308.027 74.1875C309.225 74.1875 310.788 73.0221 312.715 70.6914C314.655 68.3477 315.625 66.4466 315.625 64.9883ZM325.605 63.4258L325.449 63.7188H322.891L318.535 71.1602C318.001 72.0586 317.734 72.7747 317.734 73.3086C317.734 73.8945 318.04 74.1875 318.652 74.1875C319.837 74.1875 321.836 72.1237 324.648 67.9961C324.74 67.8659 324.818 67.8008 324.883 67.8008C324.961 67.8008 325 67.8398 325 67.918C324.987 67.957 324.922 68.0612 324.805 68.2305L323.965 69.3828C321.517 72.7812 319.674 74.4805 318.438 74.4805C317.826 74.4805 317.311 74.2591 316.895 73.8164C316.491 73.3737 316.289 72.8203 316.289 72.1562C316.289 71.375 316.634 70.3984 317.324 69.2266L320.605 63.7188H318.613L318.809 63.4258H320.762L323.047 59.6367C323.438 59.7409 323.809 59.793 324.16 59.793C324.525 59.793 324.902 59.7409 325.293 59.6367L323.047 63.4258H325.605ZM36.7188 115.031L34.5508 120.363H37.9297H38.4375C39.8958 120.363 40.625 121.001 40.625 122.277C40.625 123.137 40.306 123.814 39.668 124.309C39.0299 124.79 38.1445 125.031 37.0117 125.031H33.0078C31.7448 125.031 30.7422 124.745 30 124.172C29.2578 123.586 28.8867 122.792 28.8867 121.789C28.8867 121.164 29.0365 120.487 29.3359 119.758L29.6484 118.996L31.2695 115.031H25.0391L21.2305 124.387C18.6133 130.845 14.707 134.074 9.51172 134.074C6.7513 134.074 4.47266 133.208 2.67578 131.477C0.891927 129.758 0 127.564 0 124.895C0 122.837 0.520833 120.871 1.5625 118.996C2.60417 117.121 4.07552 115.507 5.97656 114.152C7.57812 113.02 9.4401 112.121 11.5625 111.457C13.6979 110.793 15.7943 110.461 17.8516 110.461L20.625 110.383L21.4844 110.363L25.293 101.008L25.5078 100.441C26.1589 98.8789 27.1875 98.0977 28.5938 98.0977C29.2318 98.0977 29.7656 98.293 30.1953 98.6836C30.625 99.0612 30.8398 99.5234 30.8398 100.07C30.8398 100.513 30.6576 101.184 30.293 102.082L26.9336 110.363H33.1641L36.9336 101.086L37.168 100.5C37.832 98.8984 38.8737 98.0977 40.293 98.0977C40.9049 98.0977 41.4258 98.293 41.8555 98.6836C42.2852 99.0742 42.5 99.556 42.5 100.129C42.5 100.572 42.3112 101.262 41.9336 102.199L38.6133 110.363H40.1172H40.6445C42.0898 110.363 42.8125 111.001 42.8125 112.277C42.8125 113.137 42.4935 113.814 41.8555 114.309C41.2174 114.79 40.3385 115.031 39.2188 115.031H36.7188ZM19.5898 115.031H18.5352C14.681 115.031 11.6016 115.91 9.29688 117.668C8.09896 118.579 7.15495 119.628 6.46484 120.812C5.77474 121.997 5.42969 123.163 5.42969 124.309C5.42969 125.663 5.83984 126.783 6.66016 127.668C7.48047 128.566 8.51562 129.016 9.76562 129.016C12.526 129.016 14.8112 126.783 16.6211 122.316L19.5898 115.031ZM56.8945 120.773H59.043C60.6836 120.773 61.5039 121.346 61.5039 122.492C61.5039 123.286 61.2109 123.911 60.625 124.367C60.0391 124.81 59.2318 125.031 58.2031 125.031H55.7031C54.5833 125.031 53.8216 124.595 53.418 123.723C52.4414 124.595 51.4974 125.031 50.5859 125.031H48.3594C46.9271 125.031 45.7682 124.523 44.8828 123.508C44.0104 122.479 43.5742 121.138 43.5742 119.484C43.5742 116.984 44.4336 114.751 46.1523 112.785C47.8841 110.806 49.8372 109.816 52.0117 109.816C53.6784 109.816 54.8958 110.396 55.6641 111.555C56.3151 110.578 57.168 110.09 58.2227 110.09C58.7956 110.09 59.2708 110.272 59.6484 110.637C60.0391 111.001 60.2344 111.451 60.2344 111.984C60.2344 112.349 60.1302 112.785 59.9219 113.293L59.707 113.82L56.8945 120.773ZM49.8047 120.871H50.293C51.3607 120.871 52.0703 120.435 52.4219 119.562L53.7891 116.184C53.9714 115.741 54.0625 115.37 54.0625 115.07C54.0625 114.719 53.8867 114.413 53.5352 114.152C53.1966 113.892 52.7865 113.762 52.3047 113.762C51.3542 113.762 50.4297 114.315 49.5312 115.422C48.6328 116.529 48.1836 117.674 48.1836 118.859C48.1836 120.201 48.724 120.871 49.8047 120.871ZM67.1484 114.367L66.4844 116.008C65.8854 117.466 65.1042 118.195 64.1406 118.195C63.5547 118.195 63.0664 118.02 62.6758 117.668C62.2852 117.316 62.0898 116.88 62.0898 116.359C62.0898 116.06 62.2331 115.552 62.5195 114.836L64.7266 109.387C65.2604 108.072 66.0156 107.414 66.9922 107.414C67.9557 107.414 68.5482 107.87 68.7695 108.781L68.9258 109.387C69.0039 109.699 69.1211 109.895 69.2773 109.973C69.4336 110.051 69.8177 110.09 70.4297 110.09H75C76.7057 110.09 77.5586 110.689 77.5586 111.887C77.5586 113.54 76.4779 114.367 74.3164 114.367L74.1016 114.562C72.0312 116.542 70.9961 118.072 70.9961 119.152C70.9961 120.233 71.5951 120.773 72.793 120.773H75.2539C76.9076 120.773 77.7344 121.346 77.7344 122.492C77.7344 123.299 77.4414 123.924 76.8555 124.367C76.2826 124.81 75.4753 125.031 74.4336 125.031H70.6055C69.3034 125.031 68.2357 124.582 67.4023 123.684C66.582 122.785 66.1719 121.62 66.1719 120.188C66.1719 119.276 66.3932 118.391 66.8359 117.531C67.2786 116.672 68.0599 115.617 69.1797 114.367H67.1484ZM83.8281 120.773H85.8789C87.5326 120.773 88.3594 121.353 88.3594 122.512C88.3594 123.306 88.0664 123.924 87.4805 124.367C86.9076 124.81 86.1003 125.031 85.0586 125.031H81.543C80.5794 125.031 79.8177 124.803 79.2578 124.348C78.6979 123.892 78.418 123.28 78.418 122.512C78.418 122.108 78.6068 121.438 78.9844 120.5L86.875 101.086L87.0898 100.559C87.6888 99.1003 88.6458 98.3711 89.9609 98.3711C90.5078 98.3711 90.9701 98.5534 91.3477 98.918C91.7383 99.2826 91.9336 99.7188 91.9336 100.227C91.9336 100.617 91.8359 101.06 91.6406 101.555L91.4258 102.082L83.8281 120.773ZM98.2617 109.816C100.15 109.816 101.699 110.415 102.91 111.613C104.134 112.811 104.746 114.335 104.746 116.184C104.746 117.577 104.427 118.964 103.789 120.344C103.151 121.711 102.324 122.805 101.309 123.625C100.632 124.159 99.9284 124.53 99.1992 124.738C98.4831 124.934 97.474 125.031 96.1719 125.031C94.0495 125.031 92.6172 124.777 91.875 124.27C90.1302 123.072 89.2578 121.301 89.2578 118.957C89.2578 116.483 90.1497 114.341 91.9336 112.531C93.7174 110.721 95.8268 109.816 98.2617 109.816ZM97.793 113.977C96.8294 113.977 95.9505 114.452 95.1562 115.402C94.362 116.353 93.9648 117.401 93.9648 118.547C93.9648 120.057 94.8112 120.812 96.5039 120.812C97.4935 120.812 98.2552 120.507 98.7891 119.895C99.6745 118.892 100.117 117.746 100.117 116.457C100.117 115.715 99.9023 115.116 99.4727 114.66C99.043 114.204 98.4831 113.977 97.793 113.977ZM120.039 117.766L124.629 111.789L125 111.32C125.768 110.318 126.615 109.816 127.539 109.816C128.125 109.816 128.607 110.012 128.984 110.402C129.362 110.78 129.551 111.262 129.551 111.848C129.551 112.46 129.154 113.267 128.359 114.27L121.035 123.488C120.072 124.699 119.076 125.305 118.047 125.305C117.201 125.305 116.484 124.986 115.898 124.348C115.312 123.71 115.02 122.928 115.02 122.004C115.02 121.77 115.039 121.529 115.078 121.281L115.723 117.766L111.738 123.488C110.905 124.699 109.98 125.305 108.965 125.305C108.092 125.305 107.376 124.966 106.816 124.289C106.257 123.612 105.977 122.74 105.977 121.672C105.977 121.516 105.983 121.385 105.996 121.281L106.543 113.098C106.621 112.043 106.895 111.236 107.363 110.676C107.845 110.103 108.496 109.816 109.316 109.816C110.54 109.816 111.152 110.487 111.152 111.828C111.152 112.049 111.139 112.297 111.113 112.57L110.566 118.039L114.922 111.809C115.846 110.48 116.921 109.816 118.145 109.816C118.9 109.816 119.499 110.031 119.941 110.461C120.384 110.891 120.605 111.47 120.605 112.199C120.605 112.499 120.599 112.72 120.586 112.863L120.039 117.766ZM155.684 111.691L157.48 113.957L158.516 115.207C160.521 117.681 161.523 120.298 161.523 123.059C161.523 125.741 160.638 128.091 158.867 130.109C156.445 132.883 153.275 134.27 149.355 134.27C146.322 134.27 143.835 133.332 141.895 131.457C139.954 129.595 138.984 127.206 138.984 124.289C138.984 120.721 140.495 117.746 143.516 115.363C145.117 114.1 146.595 113.469 147.949 113.469C148.652 113.469 149.225 113.671 149.668 114.074C150.111 114.478 150.332 114.999 150.332 115.637C150.332 116.496 149.824 117.238 148.809 117.863L147.246 118.82C146.348 119.38 145.599 120.161 145 121.164C144.401 122.167 144.102 123.156 144.102 124.133C144.102 125.682 144.622 126.958 145.664 127.961C146.719 128.977 148.053 129.484 149.668 129.484C151.452 129.484 153.001 128.814 154.316 127.473C155.632 126.145 156.289 124.576 156.289 122.766C156.289 121.62 156.022 120.578 155.488 119.641C154.954 118.703 153.802 117.251 152.031 115.285C150.794 113.918 149.909 112.72 149.375 111.691H144.102C142.305 111.691 141.406 111.073 141.406 109.836C141.406 108.938 141.719 108.247 142.344 107.766C142.982 107.271 143.874 107.023 145.02 107.023H148.359C148.62 104.445 149.798 102.316 151.895 100.637C153.991 98.944 156.504 98.0977 159.434 98.0977C161.634 98.0977 163.424 98.7031 164.805 99.9141C166.198 101.125 166.895 102.694 166.895 104.621C166.895 107.186 165.794 109.152 163.594 110.52C162.344 111.301 160.358 111.691 157.637 111.691H155.684ZM153.34 107.023H158.027C160.671 107.023 161.992 106.255 161.992 104.719C161.992 104.12 161.719 103.638 161.172 103.273C160.638 102.909 159.922 102.727 159.023 102.727C157.617 102.727 156.335 103.163 155.176 104.035C154.03 104.908 153.418 105.904 153.34 107.023ZM174.316 109.816C176.204 109.816 177.754 110.415 178.965 111.613C180.189 112.811 180.801 114.335 180.801 116.184C180.801 117.577 180.482 118.964 179.844 120.344C179.206 121.711 178.379 122.805 177.363 123.625C176.686 124.159 175.983 124.53 175.254 124.738C174.538 124.934 173.529 125.031 172.227 125.031C170.104 125.031 168.672 124.777 167.93 124.27C166.185 123.072 165.312 121.301 165.312 118.957C165.312 116.483 166.204 114.341 167.988 112.531C169.772 110.721 171.882 109.816 174.316 109.816ZM173.848 113.977C172.884 113.977 172.005 114.452 171.211 115.402C170.417 116.353 170.02 117.401 170.02 118.547C170.02 120.057 170.866 120.812 172.559 120.812C173.548 120.812 174.31 120.507 174.844 119.895C175.729 118.892 176.172 117.746 176.172 116.457C176.172 115.715 175.957 115.116 175.527 114.66C175.098 114.204 174.538 113.977 173.848 113.977ZM187.07 120.773H189.121C190.775 120.773 191.602 121.353 191.602 122.512C191.602 123.306 191.309 123.924 190.723 124.367C190.15 124.81 189.342 125.031 188.301 125.031H184.785C183.822 125.031 183.06 124.803 182.5 124.348C181.94 123.892 181.66 123.28 181.66 122.512C181.66 122.108 181.849 121.438 182.227 120.5L190.117 101.086L190.332 100.559C190.931 99.1003 191.888 98.3711 193.203 98.3711C193.75 98.3711 194.212 98.5534 194.59 98.918C194.98 99.2826 195.176 99.7188 195.176 100.227C195.176 100.617 195.078 101.06 194.883 101.555L194.668 102.082L187.07 120.773ZM197.891 120.773H200.098C201.738 120.773 202.559 121.353 202.559 122.512C202.559 123.306 202.266 123.924 201.68 124.367C201.107 124.81 200.299 125.031 199.258 125.031H196.152C195.007 125.031 194.102 124.797 193.438 124.328C192.786 123.859 192.461 123.221 192.461 122.414C192.461 121.984 192.598 121.438 192.871 120.773L196.094 112.844L196.309 112.297C196.908 110.826 197.871 110.09 199.199 110.09C199.746 110.09 200.215 110.272 200.605 110.637C201.009 111.001 201.211 111.438 201.211 111.945C201.211 112.362 201.035 113 200.684 113.859L197.891 120.773ZM200.469 103.859C201.224 103.859 201.862 104.126 202.383 104.66C202.917 105.181 203.184 105.819 203.184 106.574C203.184 107.329 202.917 107.974 202.383 108.508C201.862 109.029 201.224 109.289 200.469 109.289C199.714 109.289 199.069 109.029 198.535 108.508C198.014 107.974 197.754 107.329 197.754 106.574C197.754 105.819 198.014 105.181 198.535 104.66C199.069 104.126 199.714 103.859 200.469 103.859ZM216.738 120.773H218.965C220.618 120.773 221.445 121.353 221.445 122.512C221.445 123.306 221.152 123.924 220.566 124.367C219.98 124.81 219.173 125.031 218.145 125.031H215.508C214.492 125.031 213.75 124.615 213.281 123.781C212.448 124.615 211.556 125.031 210.605 125.031H208.125C206.68 125.031 205.521 124.536 204.648 123.547C203.789 122.557 203.359 121.242 203.359 119.602C203.359 117.089 204.212 114.829 205.918 112.824C207.637 110.819 209.564 109.816 211.699 109.816C213.275 109.816 214.531 110.383 215.469 111.516L219.824 100.832C220.566 99.0091 221.602 98.0977 222.93 98.0977C223.49 98.0977 223.965 98.2799 224.355 98.6445C224.746 98.9961 224.941 99.4323 224.941 99.9531C224.941 100.357 224.844 100.812 224.648 101.32L224.414 101.848L216.738 120.773ZM209.59 120.871H210.332C211.23 120.871 211.823 120.513 212.109 119.797L213.574 116.184C213.757 115.741 213.848 115.402 213.848 115.168C213.848 114.777 213.678 114.445 213.34 114.172C213.014 113.898 212.604 113.762 212.109 113.762C211.094 113.762 210.143 114.328 209.258 115.461C208.385 116.594 207.949 117.818 207.949 119.133C207.949 120.292 208.496 120.871 209.59 120.871ZM247.695 120.363H250.977C252.773 120.363 253.672 120.988 253.672 122.238C253.672 123.124 253.353 123.814 252.715 124.309C252.09 124.79 251.204 125.031 250.059 125.031H246.504C245.072 125.031 243.984 124.758 243.242 124.211C242.5 123.651 242.129 122.844 242.129 121.789C242.129 121.047 242.396 120.012 242.93 118.684L246.855 109.035C247.65 107.082 248.047 105.741 248.047 105.012C248.047 104.426 247.78 103.905 247.246 103.449C246.712 102.98 246.1 102.746 245.41 102.746C244.108 102.746 242.93 103.312 241.875 104.445C240.82 105.565 240.293 106.822 240.293 108.215C240.293 109.022 240.469 109.647 240.82 110.09C241.185 110.533 241.842 110.943 242.793 111.32C243.639 111.659 244.062 112.238 244.062 113.059C244.062 113.814 243.776 114.439 243.203 114.934C242.643 115.415 241.94 115.656 241.094 115.656C239.466 115.656 238.073 114.966 236.914 113.586C235.755 112.193 235.176 110.526 235.176 108.586C235.176 105.76 236.243 103.286 238.379 101.164C240.514 99.0417 243.001 97.9805 245.84 97.9805C247.975 97.9805 249.753 98.6055 251.172 99.8555C252.604 101.105 253.32 102.661 253.32 104.523C253.32 105.865 252.982 107.368 252.305 109.035L247.695 120.363ZM265.508 110.09H266.113C267.767 110.09 268.594 110.669 268.594 111.828C268.594 112.622 268.301 113.241 267.715 113.684C267.129 114.126 266.322 114.348 265.293 114.348H263.867L261.25 120.773H263.438C265.091 120.773 265.918 121.353 265.918 122.512C265.918 123.306 265.625 123.924 265.039 124.367C264.466 124.81 263.659 125.031 262.617 125.031H259.121C258.132 125.031 257.344 124.803 256.758 124.348C256.185 123.892 255.898 123.273 255.898 122.492C255.898 122.01 256.016 121.477 256.25 120.891L256.621 120.031L258.926 114.348H258.633C257.174 114.348 256.445 113.781 256.445 112.648C256.445 111.841 256.732 111.216 257.305 110.773C257.891 110.318 258.704 110.09 259.746 110.09H260.645L261.68 107.531L261.895 107.004C262.507 105.559 263.47 104.836 264.785 104.836C265.319 104.836 265.775 105.018 266.152 105.383C266.543 105.734 266.738 106.164 266.738 106.672C266.738 107.167 266.569 107.792 266.23 108.547L265.508 110.09ZM281.113 120.773H283.262C284.902 120.773 285.723 121.346 285.723 122.492C285.723 123.286 285.43 123.911 284.844 124.367C284.258 124.81 283.451 125.031 282.422 125.031H279.922C278.802 125.031 278.04 124.595 277.637 123.723C276.66 124.595 275.716 125.031 274.805 125.031H272.578C271.146 125.031 269.987 124.523 269.102 123.508C268.229 122.479 267.793 121.138 267.793 119.484C267.793 116.984 268.652 114.751 270.371 112.785C272.103 110.806 274.056 109.816 276.23 109.816C277.897 109.816 279.115 110.396 279.883 111.555C280.534 110.578 281.387 110.09 282.441 110.09C283.014 110.09 283.49 110.272 283.867 110.637C284.258 111.001 284.453 111.451 284.453 111.984C284.453 112.349 284.349 112.785 284.141 113.293L283.926 113.82L281.113 120.773ZM274.023 120.871H274.512C275.579 120.871 276.289 120.435 276.641 119.562L278.008 116.184C278.19 115.741 278.281 115.37 278.281 115.07C278.281 114.719 278.105 114.413 277.754 114.152C277.415 113.892 277.005 113.762 276.523 113.762C275.573 113.762 274.648 114.315 273.75 115.422C272.852 116.529 272.402 117.674 272.402 118.859C272.402 120.201 272.943 120.871 274.023 120.871ZM291.719 120.773H293.77C295.423 120.773 296.25 121.353 296.25 122.512C296.25 123.306 295.957 123.924 295.371 124.367C294.798 124.81 293.991 125.031 292.949 125.031H289.434C288.47 125.031 287.708 124.803 287.148 124.348C286.589 123.892 286.309 123.28 286.309 122.512C286.309 122.108 286.497 121.438 286.875 120.5L294.766 101.086L294.98 100.559C295.579 99.1003 296.536 98.3711 297.852 98.3711C298.398 98.3711 298.861 98.5534 299.238 98.918C299.629 99.2826 299.824 99.7188 299.824 100.227C299.824 100.617 299.727 101.06 299.531 101.555L299.316 102.082L291.719 120.773ZM302.539 120.773H304.746C306.387 120.773 307.207 121.353 307.207 122.512C307.207 123.306 306.914 123.924 306.328 124.367C305.755 124.81 304.948 125.031 303.906 125.031H300.801C299.655 125.031 298.75 124.797 298.086 124.328C297.435 123.859 297.109 123.221 297.109 122.414C297.109 121.984 297.246 121.438 297.52 120.773L300.742 112.844L300.957 112.297C301.556 110.826 302.52 110.09 303.848 110.09C304.395 110.09 304.863 110.272 305.254 110.637C305.658 111.001 305.859 111.438 305.859 111.945C305.859 112.362 305.684 113 305.332 113.859L302.539 120.773ZM305.117 103.859C305.872 103.859 306.51 104.126 307.031 104.66C307.565 105.181 307.832 105.819 307.832 106.574C307.832 107.329 307.565 107.974 307.031 108.508C306.51 109.029 305.872 109.289 305.117 109.289C304.362 109.289 303.717 109.029 303.184 108.508C302.663 107.974 302.402 107.329 302.402 106.574C302.402 105.819 302.663 105.181 303.184 104.66C303.717 104.126 304.362 103.859 305.117 103.859ZM319.16 125.031H313.496C311.868 125.031 310.54 124.458 309.512 123.312C308.496 122.167 307.988 120.682 307.988 118.859C307.988 116.424 308.828 114.309 310.508 112.512C312.188 110.715 314.16 109.816 316.426 109.816C317.962 109.816 319.212 110.246 320.176 111.105C321.139 111.965 321.621 113.085 321.621 114.465C321.621 115.428 321.38 116.223 320.898 116.848C320.417 117.46 319.798 117.766 319.043 117.766C317.845 117.766 317.246 117.206 317.246 116.086C317.246 115.917 317.246 115.773 317.246 115.656C317.259 115.513 317.266 115.376 317.266 115.246C317.266 114.335 316.816 113.879 315.918 113.879C315.072 113.879 314.297 114.328 313.594 115.227C312.904 116.125 312.559 117.128 312.559 118.234C312.559 119.159 312.839 119.816 313.398 120.207C313.971 120.585 314.935 120.773 316.289 120.773H319.98C321.634 120.773 322.461 121.353 322.461 122.512C322.461 123.293 322.161 123.911 321.562 124.367C320.977 124.81 320.176 125.031 319.16 125.031Z" fill="black"/>
</svg>
