<svg width="238" height="280" viewBox="0 0 238 280" fill="none" xmlns="http://www.w3.org/2000/svg">
<path d="M221.025 280C203.018 256.113 200.207 230.661 184.157 216.612C169.459 203.748 147.184 206.541 141.584 212.042C137.982 218.558 134.755 245.027 148.683 258.948C170.729 280.995 221.005 279.979 221.005 279.979L221.025 280Z" fill="#386641"/>
<path d="M216.465 277.652C188.278 262.27 163.525 240.436 144.019 214.708C165.232 238.955 189.444 260.345 216.465 277.652Z" fill="#6A994E"/>
<path d="M171.603 216.591C165.712 219.891 159.674 222.938 153.637 225.985C153.304 226.154 153.408 226.154 153.138 225.921L152.222 225.138L152.971 224.885C151.285 232.607 149.619 240.351 147.642 248.01C148.912 240.203 150.494 232.438 152.076 224.694L152.242 223.911C152.596 224.229 153.387 224.927 153.741 225.244L153.242 225.181C159.321 222.219 165.399 219.299 171.603 216.633V216.591Z" fill="#6A994E"/>
<path d="M180.22 221.711C173.954 225.985 167.563 230.026 161.13 234.025L160.838 234.194L160.589 233.962L159.527 233.01L160.297 232.756C158.715 241.176 157.154 249.597 155.238 257.954C156.404 249.449 157.882 241.028 159.381 232.586L159.527 231.74C159.902 232.079 160.797 232.925 161.171 233.285L160.63 233.242C167.084 229.307 173.579 225.393 180.178 221.711H180.22Z" fill="#6A994E"/>
<path d="M188.547 228.651C182.051 233.179 175.41 237.474 168.728 241.726L168.436 241.917L168.187 241.663L167.083 240.584L167.853 240.33C166.313 248.433 164.752 256.516 162.878 264.534C164.002 256.368 165.48 248.264 166.937 240.14L167.104 239.272C167.479 239.653 168.416 240.605 168.811 241.007L168.249 240.944C174.952 236.754 181.677 232.565 188.526 228.63L188.547 228.651Z" fill="#6A994E"/>
<path d="M193.046 238.553C187.821 242.276 182.492 245.81 177.12 249.301L176.829 249.491L176.579 249.258L174.893 247.714L175.663 247.439C174.497 254.315 173.332 261.17 171.854 267.983C172.603 261.043 173.685 254.167 174.768 247.291L174.893 246.423C175.309 246.804 176.746 248.201 177.183 248.603L176.642 248.56C182.054 245.133 187.488 241.769 193.025 238.574L193.046 238.553Z" fill="#6A994E"/>
<path d="M197.313 248.349C193.253 251.141 189.111 253.765 184.926 256.325L184.697 256.156L182.657 254.675L183.386 254.357C182.511 259.922 181.658 265.507 180.45 271.008C180.908 265.381 181.678 259.795 182.47 254.209L182.574 253.426C182.969 253.744 184.76 255.098 185.197 255.436H184.718C188.861 252.961 193.045 250.57 197.313 248.349Z" fill="#6A994E"/>
<path d="M200.582 255.859C197.855 258.017 195.044 260.006 192.171 261.932C192.047 261.847 190.61 260.81 190.444 260.704L191.172 260.366C190.714 264.492 190.256 268.617 189.444 272.68C189.486 268.533 189.861 264.386 190.256 260.26L190.34 259.435C190.756 259.752 192.005 260.704 192.442 261.043H191.963C194.774 259.202 197.647 257.467 200.603 255.859H200.582Z" fill="#6A994E"/>
<path d="M205.828 263.032C203.621 264.386 201.352 265.613 199.02 266.735L198.812 266.608L197.147 265.529L197.854 265.127C197.938 268.258 198.021 271.389 197.771 274.521C197.209 271.093 197.084 267.645 196.876 264.196C197.376 264.534 198.75 265.529 199.27 265.889L198.854 265.846C201.123 264.788 203.434 263.857 205.807 263.032H205.828Z" fill="#6A994E"/>
<path opacity="0.5" d="M167.19 195.052C174.893 195.983 181.846 199.58 189.195 204.044C188.217 204.214 187.259 204.594 186.468 205.208C186.281 205.356 186.197 205.42 186.135 205.483C186.072 205.504 186.01 205.547 185.906 205.589C185.802 205.652 185.739 205.673 185.677 205.716C185.594 205.716 185.51 205.716 185.344 205.758C182.221 206.287 179.931 208.868 179.931 212.084C179.931 214.919 182.179 218.389 185.302 218.453C185.864 218.453 186.426 218.41 186.988 218.41V218.453C187.072 218.453 187.155 218.41 187.259 218.389C188.55 218.368 189.861 218.326 191.152 218.241C192.11 219.828 193.713 220.992 195.607 221.267C195.794 221.288 195.961 221.288 196.148 221.309C195.961 223.594 193.109 225.816 193.754 228.079C195.045 230.47 196.815 233.75 197.876 235.971C186.78 240.689 180.264 240.901 171.645 238.595C155.616 234.279 142.334 215.914 141.834 209.588C143.187 203.029 150.89 193.148 167.232 195.095L167.19 195.052Z" fill="#1B4922"/>
<path d="M237.347 205.461C212.448 202.097 195.752 188.514 177.849 189.847C161.444 191.074 149.703 206.308 149.599 213.036C151.264 219.15 164.942 236.986 181.513 236.88C207.743 236.69 237.347 205.483 237.347 205.483V205.461Z" fill="#386641"/>
<path d="M233.227 206.816C207.246 214.729 179.495 216.697 152.619 213.142C179.641 214.792 206.809 212.888 233.227 206.816Z" fill="#6A994E"/>
<path d="M170.293 197.464C168.711 203.049 166.879 208.55 165.047 214.03C164.943 214.326 165.005 214.263 164.714 214.284L163.694 214.369L163.985 213.755C167.545 219.425 171.084 225.075 174.415 230.893C170.585 225.434 166.941 219.806 163.319 214.2L162.944 213.628C163.34 213.607 164.235 213.544 164.631 213.522L164.298 213.776C166.213 208.297 168.128 202.838 170.272 197.464H170.293Z" fill="#6A994E"/>
<path d="M178.494 195.306C177.245 201.674 175.788 208 174.289 214.326C174.206 214.665 174.289 214.601 173.935 214.623L172.748 214.686L173.061 214.072C177.079 220.081 181.097 226.111 184.885 232.268C180.576 226.45 176.496 220.483 172.415 214.517L171.999 213.924C172.415 213.924 173.456 213.861 173.893 213.84L173.54 214.136C175.08 207.831 176.683 201.547 178.473 195.306H178.494Z" fill="#6A994E"/>
<path d="M187.572 194.396C186.323 201.061 184.886 207.704 183.388 214.305L183.325 214.602H183.013L181.722 214.623L182.034 214.009C185.886 219.806 189.716 225.625 193.318 231.57C189.196 225.963 185.282 220.229 181.389 214.453L180.973 213.84C181.431 213.84 182.555 213.84 183.013 213.84L182.638 214.136C184.179 207.535 185.782 200.934 187.572 194.396Z" fill="#6A994E"/>
<path d="M196.107 197.591C195.15 203.092 194.005 208.572 192.818 214.009H192.527L190.591 214.115L190.903 213.48C194.255 218.304 197.585 223.149 200.708 228.143C197.086 223.53 193.651 218.749 190.257 213.946L189.82 213.332C190.299 213.332 191.985 213.269 192.485 213.248L192.131 213.544C193.359 208.191 194.629 202.859 196.087 197.57L196.107 197.591Z" fill="#6A994E"/>
<path d="M204.455 200.871C203.664 205.017 202.727 209.122 201.707 213.205L201.457 213.248L199.354 213.607L199.604 212.973C202.373 216.845 205.142 220.716 207.661 224.758C204.6 221.097 201.79 217.268 198.98 213.438L198.584 212.909C199 212.846 200.874 212.571 201.332 212.507L201.041 212.782C202.081 208.784 203.185 204.806 204.434 200.871H204.455Z" fill="#6A994E"/>
<path d="M210.847 203.388C210.473 206.329 209.973 209.249 209.369 212.147C209.244 212.147 207.766 212.422 207.6 212.465L207.849 211.83C209.994 214.581 212.159 217.331 214.074 220.272C211.638 217.754 209.453 215.025 207.246 212.338L206.809 211.788C207.246 211.724 208.557 211.534 209.015 211.47L208.703 211.767C209.328 208.953 210.015 206.16 210.847 203.409V203.388Z" fill="#6A994E"/>
<path d="M218.237 204.509C217.696 206.667 217.071 208.783 216.322 210.878L216.113 210.92L214.49 211.28L214.677 210.603C216.571 212.443 218.466 214.242 220.173 216.294C217.82 214.58 215.697 212.591 213.553 210.645C214.052 210.56 215.468 210.306 215.988 210.201L215.718 210.433C216.467 208.423 217.3 206.456 218.237 204.509Z" fill="#6A994E"/>
<path d="M133.09 252.114C157.913 252.114 178.036 231.663 178.036 206.435C178.036 181.207 157.913 160.755 133.09 160.755C108.267 160.755 88.1436 181.207 88.1436 206.435C88.1436 231.663 108.267 252.114 133.09 252.114Z" fill="#284878"/>
<path d="M139.397 161.2C154.136 168.69 164.275 184.177 164.275 202.076C164.275 227.317 144.144 247.755 119.328 247.755C117.184 247.755 115.081 247.607 113.021 247.311C119.058 250.379 125.886 252.114 133.089 252.114C157.925 252.114 178.035 231.655 178.035 206.435C178.035 183.373 161.235 164.331 139.397 161.2Z" fill="#102A51"/>
<path d="M142.124 218.6C141.749 219.849 142.187 221.181 143.227 221.943C145.559 223.636 144.414 227.36 141.541 227.381C140.271 227.381 139.147 228.248 138.752 229.475C137.898 232.247 134.047 232.289 133.131 229.539C132.714 228.312 131.59 227.486 130.299 227.486C127.447 227.508 126.219 223.805 128.509 222.07C129.529 221.287 129.966 219.933 129.55 218.706C128.634 215.956 131.736 213.628 134.068 215.3C135.108 216.061 136.503 216.04 137.544 215.257C139.834 213.522 142.978 215.786 142.124 218.558V218.6Z" fill="#102A51"/>
<path d="M128.905 202.753C127.053 217.458 117.039 227.846 107.192 226.577C97.3452 225.307 92.2864 214.305 94.1184 199.601C95.9712 184.896 105.423 174 115.27 175.27C125.117 176.539 130.737 188.028 128.905 202.753Z" fill="#4468A6"/>
<path d="M111.833 187.605C110.022 191.751 104.984 195.56 101.091 194.142C97.1981 192.725 96.9899 187.774 98.8011 183.627C100.612 179.48 106.254 175.777 110.147 177.216C114.04 178.655 113.644 183.479 111.833 187.626V187.605Z" fill="#B9CDEE"/>
<path d="M108.523 214.77C112.728 224.355 123.304 229.433 115.684 235.399C110.043 239.842 100.341 231.21 96.1153 221.626C91.91 212.041 93.5963 199.833 100.945 198.775C110.126 197.442 104.297 205.186 108.523 214.77Z" fill="#B9CDEE"/>
<path d="M0 104.391C19.1734 115.626 38.0138 115.245 49.8176 125.951C60.6222 135.768 60.7679 152.821 57.3121 157.56C52.9195 160.924 33.9334 165.917 22.4211 156.799C4.18443 142.369 0 104.391 0 104.391Z" fill="#386641"/>
<path d="M2.16504 107.607C17.4247 126.268 35.3907 142.411 55.147 156.016C34.4955 143.829 16.134 127.326 2.16504 107.607Z" fill="#6A994E"/>
<path d="M51.0875 135.408C49.7551 140.337 48.1938 145.204 46.6532 150.07L46.5491 149.71C46.8198 149.943 47.4027 150.472 47.6733 150.705L47.1112 150.895C42.2606 152.609 35.4115 155.042 30.54 156.523C35.2033 154.555 42.0732 152.016 46.8822 150.239L46.7781 150.832L46.112 150.218C45.9038 150.049 45.9246 150.112 46.0079 149.858C47.6317 145.013 49.2555 140.168 51.0875 135.408Z" fill="#6A994E"/>
<path d="M46.4853 129.442C44.4452 134.774 42.2385 140.042 39.9901 145.289L39.9068 144.887C40.1983 145.141 40.9061 145.733 41.1976 145.987L40.5938 146.178C35.2852 147.891 27.7907 150.303 22.5029 151.784C27.6034 149.817 35.1187 147.299 40.3856 145.522L40.2607 146.114L39.4697 145.416C39.2407 145.204 39.2615 145.289 39.3864 145.014C41.6764 139.788 44.008 134.562 46.5062 129.442H46.4853Z" fill="#6A994E"/>
<path d="M40.6155 123.834C38.4087 129.378 36.0355 134.858 33.6206 140.316L33.5165 139.914C33.8496 140.168 34.6199 140.782 34.9529 141.036L34.3284 141.247C28.5618 143.151 22.7952 145.034 16.9453 146.685C22.6078 144.484 28.3536 142.517 34.1202 140.57L34.0161 141.184L33.1209 140.464C32.8711 140.253 32.892 140.359 33.0169 140.062C35.4734 134.625 37.9507 129.209 40.6155 123.856V123.834Z" fill="#6A994E"/>
<path d="M32.9558 121.423C31.1655 125.908 29.2502 130.351 27.2725 134.752L27.1892 134.35C27.5431 134.646 28.6673 135.577 29.0004 135.852L28.3759 136.043C23.4628 137.545 18.5497 139.005 13.5742 140.253C18.404 138.476 23.2754 136.91 28.1885 135.366L28.0636 135.979L26.7729 134.858C26.5439 134.646 26.5647 134.752 26.6896 134.456C28.709 130.076 30.7699 125.718 32.9558 121.423Z" fill="#6A994E"/>
<path d="M25.4181 119.159C24.2107 122.587 22.8783 125.972 21.5043 129.336L21.4419 128.976C21.7333 129.272 22.8783 130.478 23.149 130.753L22.5869 130.901C18.5898 132.023 14.5927 133.187 10.5332 134.054C14.447 132.594 18.4233 131.43 22.3995 130.224L22.2538 130.796L20.9839 129.399L20.8381 129.23C22.2954 125.824 23.7943 122.438 25.4389 119.117L25.4181 119.159Z" fill="#6A994E"/>
<path d="M19.61 117.424C18.7356 119.815 17.7363 122.142 16.6954 124.448L16.633 124.088C16.9244 124.385 17.7363 125.231 18.007 125.506L17.4032 125.654C14.4263 126.331 11.4701 127.051 8.43066 127.474C11.3244 126.458 14.2805 125.739 17.2367 124.977L17.0702 125.57C16.9661 125.464 16.0709 124.469 16.0084 124.385C17.1326 122.036 18.3192 119.709 19.61 117.445V117.424Z" fill="#6A994E"/>
<path d="M13.8659 114.188C13.4911 116.049 13.0331 117.89 12.4919 119.71L12.4294 119.392C12.7417 119.752 13.5952 120.683 13.9075 121.021C11.3677 121.212 8.84871 121.445 6.28809 121.36C8.55726 120.852 10.8472 120.619 13.1372 120.387L12.9082 120.958L11.9506 119.815L11.8257 119.667C12.4086 117.805 13.0956 115.986 13.8659 114.188Z" fill="#6A994E"/>
<path opacity="0.5" d="M67.2215 136.635C65.8058 130.922 62.475 126.035 58.5195 120.936C58.4779 121.698 58.3113 122.438 57.9366 123.115C57.8533 123.263 57.8117 123.348 57.7701 123.39C57.7701 123.433 57.7493 123.496 57.7076 123.581C57.6868 123.665 57.666 123.708 57.6452 123.771C57.6452 123.835 57.6452 123.898 57.6452 124.025C57.5619 126.437 55.9173 128.405 53.5648 128.722C51.5038 128.997 48.735 127.643 48.4019 125.294C48.3395 124.871 48.3187 124.448 48.277 124.025C48.277 124.025 48.2562 124.025 48.2354 124.025C48.2354 123.962 48.2354 123.898 48.2354 123.813C48.1313 122.84 48.0272 121.846 47.9648 120.873C46.7157 120.301 45.7164 119.201 45.3209 117.826C45.2792 117.699 45.2792 117.551 45.2376 117.424C43.593 117.784 42.2398 120.153 40.5327 119.878C38.6799 119.138 36.0985 118.122 34.3914 117.53C32.0389 126.352 30.8523 136.762 33.517 145.077C37.3476 157.052 53.0444 162.68 57.7076 162.447C62.3709 160.776 70.2193 148.716 67.2007 136.614L67.2215 136.635Z" fill="#1B4922"/>
<path d="M45.4255 94.5742C53.253 111.923 66.4517 121.085 69.4287 134.372C72.1558 146.558 63.9952 158.407 59.3111 159.972C54.6479 160.099 39.0968 154.069 35.5577 142.01C29.9576 122.904 45.4255 94.5954 45.4255 94.5954V94.5742Z" fill="#386641"/>
<path d="M45.3623 97.875C46.882 118.398 51.4828 138.54 58.5401 157.815C50.1505 139.069 45.4664 118.483 45.3623 97.875Z" fill="#6A994E"/>
<path d="M65.7008 141.544C62.3908 144.294 58.9558 146.876 55.5416 149.457L55.6457 149.161C55.7082 149.457 55.8747 150.113 55.9372 150.409L55.4584 150.261C50.7118 148.864 45.9653 147.468 41.2812 145.86C46.0902 147.003 50.8576 148.357 55.6041 149.69L55.2294 150.049L55.0628 149.288C55.0212 149.076 55.0004 149.118 55.1669 148.991C58.6227 146.453 62.0993 143.935 65.68 141.544H65.7008Z" fill="#6A994E"/>
<path d="M65.4317 135.112C61.4347 137.778 57.3543 140.317 53.274 142.814L53.3989 142.496C53.4822 142.814 53.6695 143.576 53.7528 143.893L53.2532 143.724C48.1527 142.073 43.0731 140.423 38.0352 138.54C43.2189 139.936 48.3193 141.544 53.4197 143.152L53.045 143.512L52.8368 142.623C52.7743 142.37 52.7535 142.433 52.9617 142.306C57.0837 139.831 61.2057 137.397 65.4109 135.091L65.4317 135.112Z" fill="#6A994E"/>
<path d="M64.0772 128.3C59.872 131.029 55.5835 133.631 51.2741 136.191L51.399 135.853C51.5031 136.191 51.7529 136.995 51.857 137.334L51.3366 137.165C46.4443 135.578 41.5313 134.033 36.6807 132.235C41.6562 133.547 46.5901 135.07 51.5031 136.593L51.1284 136.953L50.8578 136.001C50.7745 135.747 50.7537 135.811 50.9827 135.662C55.3128 133.145 59.643 130.627 64.0772 128.257V128.3Z" fill="#6A994E"/>
<path d="M59.9555 122.799C56.5413 125.021 53.0855 127.115 49.5881 129.167L49.713 128.85C49.8171 129.231 50.1502 130.437 50.2335 130.797L49.713 130.606C45.6119 129.167 41.4899 127.75 37.4512 126.121C41.6564 127.284 45.7784 128.681 49.9004 130.035L49.5257 130.395L49.1717 128.977C49.1093 128.723 49.0677 128.787 49.2967 128.66C52.8149 126.629 56.354 124.661 59.9555 122.778V122.799Z" fill="#6A994E"/>
<path d="M55.8351 117.467C53.337 119.223 50.7764 120.915 48.1949 122.545L48.3198 122.27C48.3823 122.629 48.5905 124.026 48.6529 124.364L48.1949 124.195C44.8848 122.989 41.5748 121.783 38.3271 120.365C41.7205 121.317 45.0514 122.481 48.3823 123.645L47.9867 123.962L47.7786 122.354V122.164C50.4016 120.535 53.0872 118.969 55.8351 117.467Z" fill="#6A994E"/>
<path d="M52.6705 113.383C50.9009 114.589 49.0898 115.711 47.2578 116.769L47.4035 116.493C47.466 116.853 47.6117 117.826 47.6741 118.165L47.1953 117.953C44.8013 116.938 42.428 115.943 40.1172 114.716C42.6154 115.478 45.0094 116.43 47.4243 117.403L47.0288 117.721C47.0288 117.594 46.8622 116.472 46.8622 116.367C48.7775 115.287 50.7136 114.293 52.7121 113.383H52.6705Z" fill="#6A994E"/>
<path d="M50.2547 108.263C49.0889 109.363 47.9022 110.421 46.6323 111.395L46.7364 111.141C46.7781 111.543 46.9238 112.622 46.9654 113.002C45.1334 111.86 43.2598 110.781 41.5527 109.427C43.3639 110.21 45.0502 111.204 46.7573 112.177L46.3201 112.474L46.216 111.204V111.056C47.5067 110.062 48.8599 109.152 50.2547 108.284V108.263Z" fill="#6A994E"/>
<path d="M63.1835 185.023C80.4068 185.023 94.369 170.833 94.369 153.329C94.369 135.825 80.4068 121.635 63.1835 121.635C45.9603 121.635 31.998 135.825 31.998 153.329C31.998 170.833 45.9603 185.023 63.1835 185.023Z" fill="#284878"/>
<path d="M78.8174 125.909C86.3952 134.626 88.9558 147.257 84.3759 158.766C77.9223 174.994 59.7481 182.844 43.7806 176.285C42.4066 175.714 41.0951 175.058 39.8252 174.338C42.9271 177.914 46.8617 180.813 51.5041 182.717C67.4716 189.276 85.6458 181.426 92.0994 165.198C97.9909 150.367 92.0577 133.674 78.7966 125.909H78.8174Z" fill="#102A51"/>
<path d="M80.7952 146.051C80.2331 146.749 80.1706 147.743 80.6495 148.484C81.7112 150.177 80.0249 152.271 78.1721 151.552C77.3394 151.213 76.4026 151.467 75.8405 152.165C74.5706 153.731 72.0932 152.737 72.2181 150.727C72.2806 149.817 71.7393 148.992 70.9274 148.674C69.0746 147.934 69.2412 145.226 71.1564 144.718C72.01 144.485 72.6345 143.723 72.6761 142.835C72.801 140.825 75.3825 140.148 76.4442 141.84C76.923 142.602 77.8182 142.962 78.6926 142.729C80.6078 142.221 82.0443 144.506 80.7952 146.072V146.051Z" fill="#102A51"/>
<path d="M61.4339 149.859C56.4792 158.83 47.3817 162.871 41.3861 159.465C35.3905 156.058 34.9325 147.638 39.8664 138.667C44.8003 129.696 53.6896 125.189 59.6852 128.596C65.6808 132.002 66.3678 140.888 61.4339 149.88V149.859Z" fill="#4468A6"/>
<path d="M51.7336 136.868C49.7559 138.963 46.1127 140.127 44.3432 138.413C42.5736 136.699 43.6354 133.673 45.6131 131.579C47.5908 129.484 51.5254 128.511 53.3158 130.246C55.1061 131.981 53.7113 134.795 51.7544 136.889L51.7336 136.868Z" fill="#B9CDEE"/>
<path d="M43.4255 152.504C43.4255 159.211 47.943 164.627 42.3846 166.532C38.2626 167.949 35.0566 160.586 35.0566 153.879C35.0566 147.172 38.908 140.212 43.1549 141.185C48.4635 142.433 43.4463 145.797 43.4463 152.504H43.4255Z" fill="#B9CDEE"/>
<path d="M196.629 105.852C180.057 114.949 164.048 114.167 153.764 122.989C144.354 131.071 143.834 145.564 146.665 149.69C150.329 152.652 166.359 157.349 176.352 149.881C192.194 138.032 196.608 105.852 196.608 105.852H196.629Z" fill="#386641"/>
<path d="M194.733 108.518C182.263 124.851 166.337 138.413 148.579 148.421C165.775 137.461 181.451 124.132 194.733 108.518Z" fill="#6A994E"/>
<path d="M152.492 131.008C154.054 135.155 155.365 139.386 156.656 143.639C156.531 143.766 156.01 144.189 155.886 144.316L155.781 143.618C160.382 145.48 164.983 147.32 169.501 149.436C164.754 147.934 160.132 146.136 155.511 144.358L154.865 144.105L155.386 143.66L155.969 143.174L155.844 143.597C154.636 139.429 153.45 135.239 152.492 130.987V131.008Z" fill="#6A994E"/>
<path d="M156.531 126.015C158.633 130.5 160.548 135.07 162.422 139.661C162.276 139.788 161.673 140.296 161.506 140.423L161.381 139.725C166.419 141.587 171.457 143.449 176.412 145.585C171.249 144.062 166.19 142.285 161.111 140.486L160.424 140.254C160.736 140 161.381 139.492 161.693 139.238L161.569 139.704C159.778 135.176 158.05 130.648 156.51 126.036L156.531 126.015Z" fill="#6A994E"/>
<path d="M161.653 121.403C163.902 126.079 165.942 130.818 167.961 135.6C167.795 135.727 167.108 136.234 166.941 136.382L166.837 135.684C171.688 137.483 176.517 139.302 181.264 141.397C176.309 139.937 171.438 138.202 166.566 136.446L165.838 136.192C166.171 135.938 166.899 135.409 167.253 135.155L167.128 135.621C165.213 130.924 163.34 126.206 161.653 121.403Z" fill="#6A994E"/>
<path d="M168.209 119.519C170.103 123.285 171.79 127.115 173.455 130.986C173.309 131.092 172.268 131.96 172.102 132.108L171.977 131.41C176.099 132.848 180.221 134.287 184.239 136.022C179.992 134.943 175.87 133.547 171.706 132.192L170.999 131.96C171.373 131.664 172.352 130.902 172.747 130.606L172.643 131.071C171.082 127.284 169.562 123.454 168.209 119.561V119.519Z" fill="#6A994E"/>
<path d="M174.686 117.784C176.06 120.64 177.309 123.56 178.475 126.522C178.391 126.607 177.288 127.749 177.184 127.855L177.017 127.178C180.369 128.3 183.721 129.4 186.989 130.817C183.534 130.056 180.161 128.998 176.788 127.94L176.143 127.749L176.622 127.284L177.767 126.163L177.684 126.565C176.58 123.666 175.56 120.746 174.665 117.784H174.686Z" fill="#6A994E"/>
<path d="M179.659 116.452C180.783 118.398 181.762 120.408 182.678 122.439C182.574 122.566 181.824 123.328 181.699 123.476L181.512 122.799C184.01 123.518 186.508 124.217 188.923 125.232C186.342 124.872 183.823 124.217 181.304 123.582L180.617 123.413C180.929 123.116 181.658 122.418 181.97 122.101L181.887 122.524C181.054 120.535 180.284 118.525 179.659 116.452Z" fill="#6A994E"/>
<path d="M184.635 113.828C185.302 115.373 185.885 116.959 186.343 118.567C186.28 118.652 185.468 119.583 185.364 119.689L185.114 119.012C187.05 119.287 188.986 119.541 190.902 120.112C188.653 120.239 186.426 119.943 184.198 119.731C184.531 119.371 185.302 118.589 185.656 118.229L185.572 118.589C185.156 117.044 184.844 115.457 184.615 113.849L184.635 113.828Z" fill="#6A994E"/>
<path d="M127.968 128.596C142.202 128.596 153.741 116.869 153.741 102.403C153.741 87.9365 142.202 76.2095 127.968 76.2095C113.734 76.2095 102.195 87.9365 102.195 102.403C102.195 116.869 113.734 128.596 127.968 128.596Z" fill="#284878"/>
<path d="M145.475 83.1914C150.013 91.6121 149.805 102.276 144.059 110.717C135.961 122.608 119.889 125.57 108.19 117.319C107.17 116.599 106.233 115.838 105.358 115.012C107.211 118.461 109.876 121.55 113.269 123.941C124.969 132.171 141.02 129.23 149.139 117.34C156.55 106.486 154.76 91.9083 145.475 83.1914Z" fill="#102A51"/>
<path d="M127.177 99.2718C121.577 105.598 113.52 107.164 109.294 103.292C105.068 99.4199 106.213 92.5648 111.813 86.2387C117.413 79.9126 125.365 77.9237 129.591 81.7956C133.818 85.6674 132.777 92.9457 127.177 99.2718Z" fill="#4468A6"/>
<path d="M121.683 87.0212C119.726 88.3541 116.562 88.608 115.437 86.8943C114.313 85.1805 115.729 82.9378 117.686 81.6049C119.643 80.2719 123.015 80.2296 124.139 81.9434C125.263 83.6572 123.64 85.6883 121.683 87.0001V87.0212Z" fill="#B9CDEE"/>
<path d="M125.742 99.3984C125.159 99.8639 124.93 100.647 125.18 101.345C125.742 102.911 123.993 104.286 122.64 103.355C122.036 102.932 121.224 102.953 120.641 103.418C119.351 104.434 117.519 103.186 117.977 101.578C118.185 100.858 117.914 100.097 117.311 99.6735C115.957 98.7425 116.561 96.5844 118.206 96.521C118.934 96.4998 119.58 95.992 119.767 95.2727C120.225 93.6647 122.432 93.6012 122.994 95.1669C123.244 95.8651 123.91 96.3305 124.639 96.3094C126.283 96.2459 127.033 98.3617 125.721 99.3772L125.742 99.3984Z" fill="#102A51"/>
<path d="M112.187 98.0866C110.979 103.503 113.644 108.687 108.835 109.194C105.254 109.575 103.984 103.037 105.192 97.6422C106.399 92.2471 110.75 87.3385 113.977 88.9253C118.037 90.9141 113.373 92.6914 112.187 98.1077V98.0866Z" fill="#B9CDEE"/>
<path d="M110.667 0C120.098 10.8962 132.006 14.895 136.94 23.8235C141.437 31.9903 137.564 42.0402 134.296 44.0502C130.757 45.0234 117.662 43.7116 112.562 35.7775C104.464 23.2099 110.688 0.0211576 110.688 0.0211576L110.667 0Z" fill="#386641"/>
<path d="M111.272 2.36963C116.539 16.8626 124.138 30.34 133.277 42.6537C123.264 31.0382 115.519 17.2434 111.272 2.36963Z" fill="#6A994E"/>
<path d="M135.526 29.6411C133.632 32.3281 131.55 34.867 129.447 37.3636L129.489 36.8982L129.781 37.406L130.134 38.0407H129.406C125.492 37.9137 121.599 37.808 117.706 37.406C121.62 37.1309 125.513 37.1732 129.427 37.1944L129.073 37.808C128.989 37.6387 128.74 37.2155 128.656 37.0463C130.884 34.5074 133.091 31.9896 135.526 29.6411Z" fill="#6A994E"/>
<path d="M134.026 25.1143C131.59 27.8859 128.988 30.5095 126.365 33.0907L126.427 32.6041L126.781 33.1965L127.177 33.8524L126.406 33.81C122.18 33.5773 117.954 33.3657 113.749 32.8368C117.996 32.6675 122.222 32.8368 126.448 32.9849L126.094 33.5985C125.99 33.408 125.699 32.9003 125.595 32.731C128.342 30.1286 131.09 27.5262 134.026 25.1143Z" fill="#6A994E"/>
<path d="M131.653 20.502C129.072 23.3794 126.303 26.0664 123.534 28.7323L123.597 28.2245C123.805 28.5418 124.242 29.1977 124.45 29.5151L123.639 29.4728C119.579 29.2612 115.519 29.0919 111.46 28.5842C115.54 28.3937 119.6 28.5418 123.659 28.6688L123.305 29.3035C123.181 29.1131 122.847 28.5842 122.723 28.3937C125.637 25.7067 128.531 23.0197 131.612 20.5231L131.653 20.502Z" fill="#6A994E"/>
<path d="M127.406 17.3706C125.324 19.6979 123.096 21.8983 120.848 24.0564L120.911 23.5698C121.16 23.9718 121.66 24.7969 121.91 25.1778L121.119 25.1143C117.684 24.8604 114.27 24.6277 110.855 24.0776C114.311 23.9506 117.746 24.141 121.16 24.3103L120.786 24.9239C120.661 24.7123 120.182 23.8872 120.078 23.6967C122.451 21.5175 124.845 19.3806 127.385 17.3918L127.406 17.3706Z" fill="#6A994E"/>
<path d="M123.179 14.3442C121.701 16.1638 120.098 17.8987 118.454 19.5702L118.537 19.1259C118.724 19.5279 119.182 20.4588 119.349 20.8608L118.641 20.7973C115.872 20.5434 113.103 20.3107 110.355 19.7606C113.145 19.6336 115.935 19.8241 118.704 19.9933L118.308 20.5646C118.225 20.3742 117.808 19.3586 117.725 19.2105C119.453 17.5179 121.264 15.8887 123.159 14.3654L123.179 14.3442Z" fill="#6A994E"/>
<path d="M119.954 12.0386C118.913 13.3292 117.789 14.514 116.582 15.6354L116.665 15.1911L117.04 15.9739L117.373 16.6509C115.103 16.3124 112.813 16.0585 110.586 15.4026C112.647 15.2968 114.687 15.5296 116.727 15.72L116.311 16.2913C116.228 16.1008 115.936 15.4026 115.874 15.2334C117.164 14.0697 118.497 12.9907 119.954 12.0386Z" fill="#6A994E"/>
<path d="M117.103 8.84375C116.499 9.92279 115.833 10.9384 115.083 11.8904L115.146 11.5096C115.333 11.9116 115.687 12.7579 115.874 13.1599L115.042 12.9272C113.564 12.504 112.086 12.0809 110.67 11.3615C112.252 11.425 113.73 11.7847 115.229 12.1443L114.75 12.6944C114.688 12.5252 114.396 11.7212 114.355 11.5942C115.167 10.5998 116.083 9.71121 117.082 8.86491L117.103 8.84375Z" fill="#6A994E"/>
<path d="M81.1494 74.3685C92.4399 74.3685 101.593 65.0664 101.593 53.5917C101.593 42.117 92.4399 32.8149 81.1494 32.8149C69.8588 32.8149 60.7061 42.117 60.7061 53.5917C60.7061 65.0664 69.8588 74.3685 81.1494 74.3685Z" fill="#284878"/>
<path d="M83.3762 32.9419C90.1837 36.1367 95.0135 43.0129 95.2633 51.1586C95.6172 62.626 86.7696 72.2104 75.4862 72.5913C74.5077 72.6336 73.5501 72.5913 72.6133 72.4855C75.4029 73.7972 78.5256 74.4743 81.8149 74.3685C93.0983 74.0088 101.946 64.4033 101.592 52.9358C101.259 42.4628 93.3481 34.0421 83.3762 32.9631V32.9419Z" fill="#102A51"/>
<path d="M79.1929 51.9629C78.5684 58.6699 74.1549 63.5361 69.679 63.113C65.2032 62.6898 62.7258 57.7601 63.3503 51.0532C63.9749 44.3462 68.1177 39.2472 72.6144 39.6915C77.1111 40.1358 79.8383 45.256 79.1929 51.9841V51.9629Z" fill="#4468A6"/>
<path d="M69.9913 46.8004C69.346 48.5776 67.4723 50.2702 65.9526 49.7201C64.4329 49.17 64.2872 47.0543 64.9325 45.277C65.5779 43.4998 67.6805 41.8495 69.2002 42.3996C70.72 42.9497 70.6159 45.0231 69.9913 46.8004Z" fill="#B9CDEE"/>
<path d="M79.7321 43.267C79.5655 43.8382 79.7945 44.4518 80.2733 44.7692C81.3559 45.5097 80.8771 47.2023 79.5863 47.2658C79.0034 47.2869 78.5038 47.6889 78.3581 48.2602C78.0042 49.5296 76.2555 49.6143 75.7975 48.366C75.5893 47.8159 75.0688 47.4562 74.4859 47.4774C73.1952 47.5408 72.5707 45.8694 73.5907 45.0442C74.0487 44.6845 74.2153 44.0498 74.0071 43.4997C73.5491 42.2514 74.9231 41.1512 76.0056 41.8917C76.4845 42.2091 77.1298 42.1879 77.5878 41.8283C78.6079 41.0031 80.0652 41.9975 79.7113 43.267H79.7321Z" fill="#102A51"/>
<path d="M69.095 58.3947C70.8437 62.4147 74.9657 64.4458 72.1136 67.0693C70.011 69.037 66.1596 65.4825 64.4317 61.4626C62.683 57.4426 63.1826 52.2379 65.9722 51.6878C69.4697 51.0107 67.3462 54.3748 69.095 58.3947Z" fill="#B9CDEE"/>
</svg>
