<svg width="138" height="150" viewBox="0 0 138 150" fill="none" xmlns="http://www.w3.org/2000/svg">
<path d="M35.9648 0V1.91406H22.4883V10.7227H35.5547V12.6367H22.4883V29.043H18.2109V0H35.9648ZM45.457 10.2734C46.7852 10.2734 47.9049 10.5208 48.8164 11.0156C49.7409 11.4974 50.4896 12.1549 51.0625 12.9883C51.6484 13.8216 52.0651 14.7852 52.3125 15.8789C52.5729 16.9596 52.7031 18.1055 52.7031 19.3164V20.2344H40.6719C40.6719 20.9635 40.7891 21.7513 41.0234 22.5977C41.2578 23.444 41.6354 24.2253 42.1562 24.9414C42.6901 25.6576 43.3737 26.2565 44.207 26.7383C45.0534 27.207 46.0885 27.4414 47.3125 27.4414H51.375V29.043H47.2539C45.431 29.043 43.8555 28.8346 42.5273 28.418C41.2122 28.0013 40.125 27.3958 39.2656 26.6016C38.4193 25.8073 37.7943 24.8372 37.3906 23.6914C36.987 22.5456 36.7852 21.237 36.7852 19.7656C36.7852 18.5417 36.974 17.3568 37.3516 16.2109C37.7422 15.0651 38.3021 14.056 39.0312 13.1836C39.7734 12.2982 40.6784 11.5951 41.7461 11.0742C42.8268 10.5404 44.0638 10.2734 45.457 10.2734ZM45.2617 12.0508C44.4544 12.0508 43.7643 12.2331 43.1914 12.5977C42.6185 12.9622 42.1432 13.4505 41.7656 14.0625C41.401 14.6615 41.1276 15.3646 40.9453 16.1719C40.776 16.9661 40.6849 17.793 40.6719 18.6523H48.9336V17.8125C48.9076 17.0573 48.8359 16.3346 48.7188 15.6445C48.6146 14.9544 48.4258 14.3424 48.1523 13.8086C47.8789 13.2747 47.5078 12.8516 47.0391 12.5391C46.5833 12.2135 45.9909 12.0508 45.2617 12.0508ZM67.0977 29.043C65.5482 29.043 64.181 28.9193 62.9961 28.6719C61.8242 28.4245 60.8021 28.0794 59.9297 27.6367C59.0703 27.181 58.3477 26.6471 57.7617 26.0352C57.1888 25.4232 56.7266 24.7526 56.375 24.0234C56.0234 23.2812 55.776 22.5 55.6328 21.6797C55.4896 20.8594 55.418 20.0195 55.418 19.1602C55.418 17.8841 55.6068 16.7057 55.9844 15.625C56.375 14.5312 56.9609 13.5938 57.7422 12.8125C58.5365 12.0182 59.5326 11.3997 60.7305 10.957C61.9414 10.5013 63.3737 10.2734 65.0273 10.2734C65.6784 10.2734 66.4141 10.3841 67.2344 10.6055C68.0677 10.8268 68.862 11.1589 69.6172 11.6016V0H73.582V29.043H67.0977ZM59.3828 19.1211C59.3828 19.5638 59.4089 20.0781 59.4609 20.6641C59.526 21.237 59.6497 21.8359 59.832 22.4609C60.0143 23.0729 60.2747 23.6784 60.6133 24.2773C60.9648 24.8633 61.4206 25.3971 61.9805 25.8789C62.5534 26.3477 63.2565 26.7253 64.0898 27.0117C64.9362 27.2982 65.9388 27.4414 67.0977 27.4414H69.6172V13.0469C68.9922 12.6693 68.3411 12.3893 67.6641 12.207C66.987 12.0117 66.2383 11.9141 65.418 11.9141C64.4544 11.9141 63.5951 12.1159 62.8398 12.5195C62.0977 12.9102 61.4661 13.4375 60.9453 14.1016C60.4375 14.7656 60.0469 15.5339 59.7734 16.4062C59.513 17.2656 59.3828 18.1706 59.3828 19.1211ZM86.3555 10.2734C87.6836 10.2734 88.8034 10.5208 89.7148 11.0156C90.6393 11.4974 91.388 12.1549 91.9609 12.9883C92.5469 13.8216 92.9635 14.7852 93.2109 15.8789C93.4714 16.9596 93.6016 18.1055 93.6016 19.3164V20.2344H81.5703C81.5703 20.9635 81.6875 21.7513 81.9219 22.5977C82.1562 23.444 82.5339 24.2253 83.0547 24.9414C83.5885 25.6576 84.2721 26.2565 85.1055 26.7383C85.9518 27.207 86.987 27.4414 88.2109 27.4414H92.2734V29.043H88.1523C86.3294 29.043 84.7539 28.8346 83.4258 28.418C82.1107 28.0013 81.0234 27.3958 80.1641 26.6016C79.3177 25.8073 78.6927 24.8372 78.2891 23.6914C77.8854 22.5456 77.6836 21.237 77.6836 19.7656C77.6836 18.5417 77.8724 17.3568 78.25 16.2109C78.6406 15.0651 79.2005 14.056 79.9297 13.1836C80.6719 12.2982 81.5768 11.5951 82.6445 11.0742C83.7253 10.5404 84.9622 10.2734 86.3555 10.2734ZM86.1602 12.0508C85.3529 12.0508 84.6628 12.2331 84.0898 12.5977C83.5169 12.9622 83.0417 13.4505 82.6641 14.0625C82.2995 14.6615 82.026 15.3646 81.8438 16.1719C81.6745 16.9661 81.5833 17.793 81.5703 18.6523H89.832V17.8125C89.806 17.0573 89.7344 16.3346 89.6172 15.6445C89.513 14.9544 89.3242 14.3424 89.0508 13.8086C88.7773 13.2747 88.4062 12.8516 87.9375 12.5391C87.4818 12.2135 86.8893 12.0508 86.1602 12.0508ZM101.434 12.0898C101.954 11.7253 102.41 11.4258 102.801 11.1914C103.204 10.957 103.562 10.7747 103.875 10.6445C104.188 10.5013 104.474 10.4036 104.734 10.3516C105.008 10.2995 105.275 10.2734 105.535 10.2734C106.551 10.2734 107.306 10.625 107.801 11.3281C108.296 12.0312 108.589 13.0273 108.68 14.3164L105.262 15.332C105.132 14.3945 104.956 13.7305 104.734 13.3398C104.513 12.9492 104.168 12.7539 103.699 12.7539C103.426 12.7539 103.1 12.8125 102.723 12.9297C102.358 13.0469 101.928 13.2422 101.434 13.5156V29.043H97.4688V10.6445H101.434V12.0898ZM119.734 10.2734C121.076 10.2734 122.332 10.5273 123.504 11.0352C124.676 11.5299 125.691 12.2135 126.551 13.0859C127.423 13.9453 128.107 14.9609 128.602 16.1328C129.096 17.2917 129.344 18.5286 129.344 19.8438C129.344 21.1719 129.096 22.4219 128.602 23.5938C128.107 24.7526 127.423 25.7682 126.551 26.6406C125.691 27.5 124.676 28.1836 123.504 28.6914C122.332 29.1862 121.076 29.4336 119.734 29.4336C118.419 29.4336 117.182 29.1862 116.023 28.6914C114.878 28.1836 113.875 27.5 113.016 26.6406C112.156 25.7682 111.473 24.7526 110.965 23.5938C110.47 22.4219 110.223 21.1719 110.223 19.8438C110.223 18.5286 110.47 17.2917 110.965 16.1328C111.473 14.9609 112.156 13.9453 113.016 13.0859C113.875 12.2135 114.878 11.5299 116.023 11.0352C117.182 10.5273 118.419 10.2734 119.734 10.2734ZM119.695 12.0508C118.68 12.0508 117.82 12.2461 117.117 12.6367C116.427 13.0273 115.867 13.5742 115.438 14.2773C115.008 14.9805 114.695 15.8138 114.5 16.7773C114.318 17.7409 114.227 18.7891 114.227 19.9219C114.227 21.0417 114.324 22.0768 114.52 23.0273C114.715 23.9779 115.027 24.8047 115.457 25.5078C115.887 26.1979 116.447 26.7383 117.137 27.1289C117.84 27.5195 118.693 27.7148 119.695 27.7148C120.698 27.7148 121.551 27.5195 122.254 27.1289C122.957 26.7383 123.53 26.1979 123.973 25.5078C124.428 24.8047 124.754 23.9779 124.949 23.0273C125.158 22.0768 125.262 21.0417 125.262 19.9219C125.262 18.7891 125.158 17.7409 124.949 16.7773C124.754 15.8138 124.428 14.9805 123.973 14.2773C123.53 13.5742 122.957 13.0273 122.254 12.6367C121.551 12.2461 120.698 12.0508 119.695 12.0508ZM82.9375 149.043H68.5L63.375 136.98H12.5625L7.5625 149.043H0L34.0625 68.043L29.0625 56.1055H43.6875L82.9375 149.043ZM15.125 130.855H60.8125L37.75 76.8555L15.125 130.855ZM111.125 94.418C109.125 94.418 107.375 94.4805 105.875 94.6055C104.417 94.7305 103.083 94.8971 101.875 95.1055C100.667 95.3138 99.5417 95.5638 98.5 95.8555C97.4583 96.1055 96.4167 96.3763 95.375 96.668L93.875 92.6055C97.375 91.3138 101.021 90.3971 104.812 89.8555C108.646 89.2721 112.271 88.9805 115.688 88.9805C120.062 88.9805 123.646 89.2096 126.438 89.668C129.271 90.1263 131.479 90.8971 133.062 91.9805C134.646 93.0221 135.729 94.4388 136.312 96.2305C136.938 97.9805 137.25 100.189 137.25 102.855V149.043H116.75C111.167 149.043 106.396 148.46 102.438 147.293C98.5208 146.126 95.3125 144.564 92.8125 142.605C90.3125 140.605 88.4792 138.335 87.3125 135.793C86.1458 133.21 85.5625 130.501 85.5625 127.668C85.5625 124.168 86.1042 121.085 87.1875 118.418C88.3125 115.751 89.9167 113.522 92 111.73C94.0833 109.897 96.625 108.522 99.625 107.605C102.625 106.647 106.042 106.168 109.875 106.168C111.958 106.168 114.312 106.522 116.938 107.23C119.604 107.939 122.146 109.001 124.562 110.418V102.605C124.562 101.647 124.458 100.689 124.25 99.7305C124.042 98.7305 123.5 97.8555 122.625 97.1055C121.75 96.3138 120.396 95.668 118.562 95.168C116.771 94.668 114.292 94.418 111.125 94.418ZM124.562 143.918V114.98C122.562 113.772 120.479 112.876 118.312 112.293C116.146 111.71 113.75 111.418 111.125 111.418C109.042 111.418 107.188 111.793 105.562 112.543C103.979 113.293 102.646 114.355 101.562 115.73C100.479 117.105 99.6458 118.751 99.0625 120.668C98.5208 122.585 98.25 124.71 98.25 127.043C98.25 127.71 98.2708 128.585 98.3125 129.668C98.3958 130.751 98.6042 131.918 98.9375 133.168C99.3125 134.418 99.8542 135.689 100.562 136.98C101.312 138.23 102.354 139.376 103.688 140.418C105.021 141.46 106.708 142.314 108.75 142.98C110.792 143.605 113.292 143.918 116.25 143.918H124.562Z" fill="black"/>
</svg>
