<svg width="204" height="281" viewBox="0 0 204 281" fill="none" xmlns="http://www.w3.org/2000/svg">
<path d="M203.181 170.195C185.401 180.25 168.086 179.648 157.084 189.337C147.012 198.21 146.653 213.894 149.757 218.319C153.748 221.477 171.126 226.354 181.853 218.104C198.81 205.064 203.181 170.195 203.181 170.195Z" fill="#386641"/>
<path d="M201.153 173.117C188.061 191.056 170.936 206.009 151.783 216.923C170.112 204.677 186.857 190.068 201.153 173.117Z" fill="#6A994E"/>
<path d="M155.795 198.017C157.421 202.421 158.857 206.911 160.272 211.38C160.356 211.616 160.356 211.552 160.187 211.724L159.575 212.282L159.469 211.745C164.474 213.679 169.478 215.612 174.398 217.761C169.288 216.107 164.263 214.216 159.237 212.347L158.73 212.153C158.962 211.939 159.533 211.466 159.765 211.251L159.68 211.595C158.308 207.105 156.956 202.593 155.795 198.039V198.017Z" fill="#6A994E"/>
<path d="M160.104 192.56C162.321 197.329 164.39 202.163 166.438 206.997C166.544 207.255 166.565 207.191 166.354 207.362L165.615 207.986L165.509 207.427C170.978 209.36 176.469 211.294 181.853 213.442C176.279 211.788 170.788 209.898 165.298 208.028L164.749 207.835C165.024 207.62 165.678 207.083 165.953 206.847L165.868 207.212C163.883 202.357 161.92 197.48 160.104 192.539V192.56Z" fill="#6A994E"/>
<path d="M165.573 187.511C167.938 192.474 170.155 197.48 172.33 202.528C172.456 202.808 172.456 202.722 172.224 202.915L171.379 203.56L171.295 203.001C176.553 204.892 181.811 206.761 186.984 208.866C181.621 207.276 176.363 205.429 171.084 203.603L170.514 203.409C170.809 203.194 171.548 202.636 171.844 202.4L171.738 202.765C169.606 197.716 167.494 192.646 165.53 187.49L165.573 187.511Z" fill="#6A994E"/>
<path d="M172.646 185.384C174.652 189.445 176.51 193.548 178.326 197.695L178.136 197.845L176.933 198.855L176.827 198.296C181.304 199.8 185.78 201.282 190.194 203.001C185.633 201.798 181.135 200.337 176.637 198.919L176.067 198.747C176.363 198.511 177.439 197.652 177.756 197.372L177.672 197.738C175.919 193.656 174.209 189.552 172.625 185.406L172.646 185.384Z" fill="#6A994E"/>
<path d="M179.614 183.408C181.071 186.501 182.423 189.617 183.711 192.775C183.669 192.818 182.444 194.107 182.38 194.171L182.254 193.634C185.886 194.794 189.539 195.933 193.108 197.329C189.391 196.47 185.738 195.353 182.064 194.257L181.557 194.107C181.81 193.849 182.887 192.775 183.162 192.495L183.098 192.818C181.874 189.703 180.712 186.566 179.635 183.386L179.614 183.408Z" fill="#6A994E"/>
<path d="M184.978 181.904C186.14 184.009 187.195 186.158 188.188 188.327C188.124 188.392 187.28 189.294 187.195 189.402L187.048 188.865C189.75 189.595 192.474 190.325 195.114 191.292C192.327 190.863 189.603 190.154 186.879 189.488L186.33 189.359C186.583 189.101 187.343 188.349 187.618 188.07L187.554 188.413C186.604 186.287 185.738 184.117 184.957 181.925L184.978 181.904Z" fill="#6A994E"/>
<path d="M190.32 179.004C190.996 180.68 191.608 182.355 192.115 184.074L192.009 184.203L191.122 185.234L190.911 184.697C193.002 184.955 195.113 185.191 197.183 185.685C194.839 185.728 192.516 185.471 190.193 185.277C190.468 184.976 191.27 184.117 191.566 183.795L191.503 184.074C191.017 182.398 190.637 180.701 190.32 178.982V179.004Z" fill="#6A994E"/>
<path d="M0 146.005C12.3952 154.684 25.1917 155.479 32.6246 163.407C39.424 170.668 38.6005 182.248 36.0032 185.277C32.8357 187.318 19.7014 189.66 12.3741 182.807C0.781301 172 0 146.005 0 146.005Z" fill="#386641"/>
<path d="M1.28809 148.304C10.537 161.904 21.8553 173.87 34.5884 184.118C21.3274 174.601 9.79792 162.398 1.28809 148.304Z" fill="#6A994E"/>
<path d="M32.9631 169.896C31.8439 173.204 30.5558 176.427 29.2466 179.628L29.1833 179.284L29.6056 179.735L29.9857 180.143L29.4578 180.272C25.6146 181.282 21.7926 182.292 17.9072 183.087C21.6659 181.798 25.488 180.723 29.31 179.649L29.1622 180.186C29.0566 180.079 28.6976 179.692 28.592 179.585C29.9857 176.319 31.3794 173.075 32.9842 169.896H32.9631Z" fill="#6A994E"/>
<path d="M30.1756 165.577C28.5497 169.122 26.7759 172.581 24.981 176.018L24.9177 175.653L25.4245 176.169L25.8468 176.577L25.2767 176.706C21.0957 177.673 16.9147 178.682 12.6914 179.413C16.8091 178.145 20.969 177.114 25.1289 176.083L24.981 176.62C24.8544 176.491 24.432 176.04 24.3264 175.932C26.2058 172.452 28.1062 168.972 30.1756 165.599V165.577Z" fill="#6A994E"/>
<path d="M26.5006 161.452C24.7691 165.126 22.8686 168.714 20.947 172.28L20.8837 171.893C21.1371 172.13 21.665 172.602 21.9184 172.839L21.3271 172.989C17.3151 173.934 13.303 174.923 9.22754 175.632C13.1763 174.385 17.1672 173.376 21.1793 172.366L21.0315 172.925C20.9048 172.796 20.398 172.323 20.2924 172.216C22.2985 168.585 24.3256 164.997 26.5006 161.474V161.452Z" fill="#6A994E"/>
<path d="M21.433 159.39C20.0394 162.376 18.4979 165.276 16.9353 168.155L16.893 167.79C17.1675 168.069 17.8855 168.757 18.16 169.036L17.5688 169.165C14.1479 169.895 10.7482 170.626 7.28516 171.12C10.6426 170.089 14.0423 169.315 17.4209 168.542L17.2731 169.079C17.1464 168.95 16.3862 168.177 16.3018 168.069C17.9488 165.147 19.6381 162.226 21.433 159.411V159.39Z" fill="#6A994E"/>
<path d="M16.4288 157.435C15.4575 159.712 14.4228 161.968 13.2825 164.16L13.2403 163.837L14.0638 164.826L14.4016 165.255L13.8737 165.363C11.1075 165.9 8.34129 166.458 5.51172 166.759C8.21459 165.921 10.9808 165.341 13.747 164.74L13.557 165.255C13.557 165.255 12.7123 164.16 12.649 164.074C13.8315 161.818 15.0774 159.626 16.4077 157.457L16.4288 157.435Z" fill="#6A994E"/>
<path d="M12.5868 155.931C11.9111 157.521 11.1298 159.068 10.2851 160.572V160.228C10.4752 160.507 11.0031 161.109 11.2142 161.388L10.6441 161.474C8.59581 161.753 6.54754 162.076 4.45703 162.119C6.46307 161.517 8.51135 161.195 10.5596 160.829L10.3696 161.345C10.2851 161.216 9.7572 160.55 9.67274 160.443C10.5596 158.896 11.531 157.392 12.5868 155.931Z" fill="#6A994E"/>
<path d="M8.86839 153.417C8.55164 154.685 8.17155 155.91 7.707 157.113L7.66476 156.833C7.91816 157.156 8.44606 157.843 8.69946 158.165C6.90458 158.144 5.13082 158.165 3.33594 157.886C4.89854 157.607 6.46114 157.564 8.02374 157.521L7.77034 158.037C7.77034 158.037 7.13686 157.134 7.09462 157.07C7.60141 155.824 8.19267 154.621 8.84727 153.439L8.86839 153.417Z" fill="#6A994E"/>
<path d="M63.4754 0.0214839C54.4165 9.56034 43.3939 12.697 38.5371 20.6246C34.0816 27.8861 37.1857 37.2101 40.0997 39.1867C43.2883 40.2394 55.2612 39.5949 60.2657 32.5696C68.1632 21.4624 63.4754 0 63.4754 0V0.0214839Z" fill="#386641"/>
<path d="M62.821 2.14844C58.3232 15.5329 50.7003 27.7788 41.0713 37.9621C49.919 27.1342 57.4152 15.1462 62.821 2.14844Z" fill="#6A994E"/>
<path d="M39.5723 25.9956C41.6839 28.2514 43.6055 30.6576 45.5059 33.0638C45.4215 33.2142 45.1892 33.6009 45.1047 33.7513L44.8091 33.1712C48.3777 33.3216 51.9253 33.4505 55.4939 33.8587C51.9253 34.0521 48.3566 33.9661 44.788 33.9017H44.1334L44.4923 33.3216L44.7669 32.8705V33.3001C42.9931 30.9154 41.1771 28.5307 39.5723 25.9741V25.9956Z" fill="#6A994E"/>
<path d="M41.1348 21.9351C43.7109 24.2553 46.0971 26.7475 48.5043 29.2611C48.3987 29.4115 48.1242 29.8626 48.0187 30.0345L47.723 29.4544C51.5873 29.4974 55.4516 29.5404 59.2947 29.8626C55.4304 30.1634 51.5662 30.1634 47.723 30.1849H47.0262C47.2162 29.9056 47.5752 29.3685 47.7653 29.0892L47.8075 29.5404C45.5269 27.0697 43.2675 24.5776 41.1559 21.9351H41.1348Z" fill="#6A994E"/>
<path d="M43.499 17.832C46.2019 20.2382 48.7358 22.8163 51.2698 25.4159C51.1642 25.5877 50.8264 26.0604 50.6997 26.2322L50.404 25.6307C54.1205 25.6951 57.8369 25.7381 61.5323 26.0819C57.8158 26.3611 54.0994 26.3611 50.404 26.3826H49.665C49.8761 26.1033 50.2984 25.5233 50.5096 25.244L50.5518 25.7166C48.1446 23.16 45.7373 20.582 43.499 17.8535V17.832Z" fill="#6A994E"/>
<path d="M47.4912 15.146C49.7295 17.0795 51.82 19.1205 53.8894 21.2259C53.7838 21.3978 53.2982 22.1283 53.1926 22.3216L52.8758 21.7416C56.0222 21.7416 59.1474 21.7201 62.2937 21.9779C59.1685 22.3431 56.0222 22.4076 52.897 22.472H52.179C52.4113 22.1498 52.9181 21.4193 53.1504 21.0541L53.1926 21.5052C51.2288 19.4428 49.3072 17.3374 47.4912 15.1245V15.146Z" fill="#6A994E"/>
<path d="M51.4609 12.5679C53.1291 14.0503 54.6917 15.6186 56.2121 17.2299C56.1487 17.3803 55.7053 18.2826 55.6208 18.4545L55.283 17.9174C57.8169 17.8744 60.3509 17.8314 62.9059 18.0678C60.372 18.4545 57.838 18.5404 55.3041 18.6478H54.6706C54.8606 18.3256 55.3041 17.4877 55.4941 17.1439L55.5575 17.5521C54.1216 15.9623 52.749 14.3081 51.4609 12.5894V12.5679Z" fill="#6A994E"/>
<path d="M54.5221 10.6128C55.8102 11.5581 56.9716 12.6108 58.0907 13.7065C58.0274 13.8569 57.7318 14.5014 57.6473 14.6518L57.2883 14.1147C59.1465 14.0287 61.0048 13.8998 62.8841 14.0932C61.047 14.5444 59.1888 14.6947 57.3306 14.8666L56.6548 14.9311C56.8238 14.6088 57.1827 13.9428 57.3517 13.6205L57.415 14.0287C56.3803 12.9545 55.3879 11.8159 54.501 10.6128H54.5221Z" fill="#6A994E"/>
<path d="M57.2461 7.82031C58.1119 8.61522 58.9143 9.49606 59.6322 10.4199C59.59 10.5488 59.2732 11.2792 59.231 11.4081L58.8298 10.8925C60.2024 10.6347 61.596 10.3554 63.0319 10.3769C61.7227 10.9784 60.3502 11.2792 58.9776 11.623L58.2174 11.8163C58.4075 11.4511 58.7665 10.6992 58.9565 10.3339L58.9987 10.6777C58.3441 9.77535 57.774 8.83006 57.2883 7.82031H57.2461Z" fill="#6A994E"/>
<path d="M80.0086 199.221C106.657 202.744 121.544 214.001 121.544 214.001C121.227 213.25 117.87 222.23 81.6767 219.48C58.1322 217.675 42.9707 202.594 42.9707 202.594C42.9707 202.594 54.3312 195.826 80.0086 199.242V199.221Z" fill="#386641"/>
<path d="M123.719 172.752C112.971 201.863 121.228 213.228 121.228 213.228C120.7 212.605 127.541 218.191 140.95 185.428C149.671 164.116 142.893 141.987 142.893 141.987C142.893 141.987 132.483 149.077 123.719 172.752Z" fill="#386641"/>
<path d="M123.719 172.752C112.971 201.863 121.228 213.228 121.228 213.228C120.7 212.605 124.057 204.957 130.54 184.697C137.572 162.762 142.893 141.987 142.893 141.987C142.893 141.987 132.483 149.077 123.719 172.752Z" fill="#4C8455"/>
<path d="M80.0086 199.221C106.657 202.744 121.544 214.001 121.544 214.001C121.227 213.25 114.47 214.195 78.2559 211.445C54.7113 209.64 42.9707 202.594 42.9707 202.594C42.9707 202.594 54.3312 195.826 80.0086 199.242V199.221Z" fill="#4C8455"/>
<path d="M92.8901 148.712C95.1073 172.172 100.513 185.406 100.513 185.406C100.513 185.406 111.071 173.654 111.472 151.633C111.852 130.687 99.5206 109.869 99.5206 109.869C99.5206 109.869 90.4828 123.532 92.8689 148.712H92.8901Z" fill="#386641"/>
<path d="M79.2063 166.694C95.1702 174.686 100.513 185.406 100.513 185.406C100.513 185.406 89.4055 188.156 73.7372 182.484C58.8292 177.07 48.8623 160.012 48.8623 160.012C48.8623 160.012 62.0388 158.122 79.1852 166.694H79.2063Z" fill="#386641"/>
<path d="M79.2067 166.694C95.1705 174.686 100.513 185.406 100.513 185.406C100.513 185.406 87.7165 182.699 74.1177 175.502C60.0754 168.09 48.8838 160.012 48.8838 160.012C48.8838 160.012 62.0603 158.122 79.2067 166.694Z" fill="#4C8455"/>
<path d="M92.8885 148.712C95.1057 172.172 100.511 185.406 100.511 185.406C100.511 185.406 102.391 172.902 102.792 150.881C103.172 129.935 99.5401 109.869 99.5401 109.869C99.5401 109.869 90.5023 123.532 92.8885 148.712Z" fill="#4C8455"/>
<path d="M171.378 256.539C148.847 249.578 95.9724 192.99 70.5273 129.763" stroke="#386641" stroke-width="1.92" stroke-miterlimit="10" stroke-linecap="round"/>
<path d="M49.891 82.3098C52.9061 80.9734 52.3635 72.9149 48.6793 64.3105C44.995 55.7062 39.5641 49.8143 36.5491 51.1506C33.534 52.487 34.0765 60.5455 37.7608 69.1499C41.4451 77.7543 46.876 83.6461 49.891 82.3098Z" fill="#3F2A52"/>
<path d="M51.6513 88.2795C53.4855 86.272 50.063 80.0015 44.007 74.2739C37.9509 68.5463 31.5547 65.5305 29.7205 67.538C27.8863 69.5455 31.3088 75.816 37.3648 81.5436C43.4209 87.2712 49.8171 90.287 51.6513 88.2795Z" fill="#3F2A52"/>
<path d="M51.9452 88.1698C54.6392 88.1698 56.8231 81.3501 56.8231 72.9377C56.8231 64.5252 54.6392 57.7056 51.9452 57.7056C49.2513 57.7056 47.0674 64.5252 47.0674 72.9377C47.0674 81.3501 49.2513 88.1698 51.9452 88.1698Z" fill="#3F2A52"/>
<path d="M53.7331 91.2399C56.9727 89.8041 56.6122 81.6649 52.9279 73.0605C49.2436 64.4561 43.6307 58.6449 40.3912 60.0808C37.1516 61.5167 37.5121 69.6559 41.1964 78.2602C44.8806 86.8646 50.4935 92.6758 53.7331 91.2399Z" fill="#6850A0"/>
<path d="M55.1702 100.329C56.9477 97.6564 52.1948 91.226 44.5544 85.9669C36.9139 80.7078 29.2791 78.6114 27.5016 81.2845C25.7241 83.9576 30.477 90.3879 38.1175 95.647C45.758 100.906 53.3928 103.002 55.1702 100.329Z" fill="#6850A0"/>
<path d="M66.6158 83.0222C68.0335 73.7483 66.6417 65.8282 63.5073 65.3323C60.3729 64.8363 56.6827 71.9522 55.2651 81.2262C53.8475 90.5001 55.2392 98.4201 58.3736 98.9161C61.5081 99.4121 65.1982 92.2961 66.6158 83.0222Z" fill="#6850A0"/>
<path d="M62.995 101.307C64.6721 98.9976 60.0172 92.6042 52.598 87.0268C45.1788 81.4494 37.8047 78.8001 36.1276 81.1095C34.4504 83.4189 39.1053 89.8124 46.5245 95.3898C53.9437 100.967 61.3178 103.616 62.995 101.307Z" fill="#A28CD3"/>
<path d="M61.2241 88.8875C62.2619 79.5617 60.8299 71.7398 58.0256 71.4167C55.2213 71.0936 52.1066 78.3918 51.0687 87.7176C50.0308 97.0435 51.4628 104.865 54.2671 105.188C57.0715 105.512 60.1862 98.2133 61.2241 88.8875Z" fill="#A28CD3"/>
<path d="M64.858 116.618C66.8894 115.718 65.5495 108.013 61.8653 99.4084C58.181 90.804 53.5475 84.5587 51.5161 85.4591C49.4847 86.3595 50.8246 94.0646 54.5089 102.669C58.1931 111.273 62.8266 117.519 64.858 116.618Z" fill="#6850A0"/>
<path d="M68.4098 113.861C69.7266 112.048 64.7796 106.057 57.3604 100.48C49.9411 94.9022 42.8592 91.8506 41.5424 93.6638C40.2257 95.4769 45.1727 101.468 52.5919 107.046C60.0111 112.623 67.0931 115.674 68.4098 113.861Z" fill="#6850A0"/>
<path d="M66.3329 100.936C67.3708 91.6106 66.4273 83.845 64.2255 83.5913C62.0238 83.3377 59.3976 90.6921 58.3597 100.018C57.3218 109.344 58.2653 117.109 60.4671 117.363C62.6688 117.617 65.295 110.262 66.3329 100.936Z" fill="#6850A0"/>
<path d="M70.5306 129.739C72.0916 129.047 70.3704 121.511 66.6861 112.907C63.0018 104.302 58.7497 97.8879 57.1887 98.5798C55.6277 99.2716 57.349 106.808 61.0333 115.412C64.7175 124.016 68.9697 130.431 70.5306 129.739Z" fill="#3F2A52"/>
<path d="M58.1688 115.672C59.5202 113.811 55.2248 108.25 48.5747 103.251C41.9246 98.2519 35.438 95.7077 34.0866 97.5686C32.7352 99.4295 37.0306 104.991 43.6807 109.99C50.3308 114.989 56.8174 117.533 58.1688 115.672Z" fill="#3F2A52"/>
<path d="M74.844 96.1882C75.7743 87.8291 74.6966 80.8418 72.4369 80.5814C70.1772 80.3211 67.5913 86.8864 66.661 95.2455C65.7307 103.605 66.8084 110.592 69.0681 110.852C71.3278 111.113 73.9137 104.547 74.844 96.1882Z" fill="#3F2A52"/>
<path d="M75.3309 129.45C77.0081 127.141 72.3532 120.747 64.934 115.17C57.5147 109.592 50.1407 106.943 48.4635 109.253C46.7864 111.562 51.4412 117.955 58.8605 123.533C66.2797 129.11 73.6538 131.759 75.3309 129.45Z" fill="#A28CD3"/>
<path d="M73.5668 117.034C74.6047 107.708 73.1727 99.8858 70.3684 99.5627C67.5641 99.2396 64.4493 106.538 63.4115 115.864C62.3736 125.189 63.8056 133.011 66.6099 133.334C69.4142 133.658 72.5289 126.359 73.5668 117.034Z" fill="#A28CD3"/>
<path d="M58.6822 118.312C65.3338 123.318 69.6627 126.734 68.3112 128.603C66.9598 130.472 57.373 129.118 50.7214 124.134C44.0698 119.15 39.7832 113.586 41.1346 111.716C42.4861 109.847 52.0306 113.328 58.6611 118.334L58.6822 118.312Z" fill="#6850A0"/>
<path d="M69.9582 112.34C69.0291 120.697 69.1558 128.001 71.4152 128.259C73.6746 128.517 78.4891 120.783 79.4183 112.447C80.3474 104.111 79.2704 97.1076 77.011 96.8498C74.7516 96.592 70.9084 103.982 69.9793 112.34H69.9582Z" fill="#6850A0"/>
<path d="M76.7781 140.032C76.0812 136.982 74.7298 132.878 72.8504 128.517C69.1762 119.923 64.9107 113.5 63.3692 114.187C61.8278 114.875 63.5382 122.415 67.2124 131.009C69.0495 135.284 71.0133 139.044 72.7237 141.622C74.0541 141.085 75.4055 140.526 76.7569 140.011L76.7781 140.032Z" fill="#3F2A52"/>
<path d="M72.3015 141.944C73.1039 141.665 73.9063 141.364 74.6876 140.999C74.9622 140.87 75.5745 140.698 75.7435 140.44C75.4901 140.612 75.4689 140.612 75.6801 140.462C75.7223 140.419 75.7857 140.397 75.8279 140.354C76.018 140.225 76.1869 140.097 76.3558 139.968C76.6303 139.753 76.8837 139.516 77.1371 139.259C77.1794 139.194 77.2849 139.087 77.3272 139.022C77.3694 138.979 77.3905 138.915 77.4328 138.872C77.4328 138.872 77.4328 138.872 77.4328 138.85C77.4328 138.829 77.4539 138.786 77.475 138.765C77.475 138.679 77.5383 138.421 77.5595 138.378C77.7073 137.69 77.8762 137.218 78.2563 136.616C78.4252 136.337 78.6786 136.143 78.9531 135.972C76.9471 133.974 74.2653 131.868 71.1401 129.978C63.2215 125.165 55.5352 123.425 53.9726 126.089C52.3889 128.774 57.5413 134.833 65.4387 139.667C67.4448 140.891 69.4508 141.923 71.3302 142.718C71.5624 142.352 71.8792 142.052 72.2804 141.923L72.3015 141.944Z" fill="#A28CD3"/>
<path d="M78.7428 114.982C75.8499 114.402 72.0489 121.384 70.2541 130.579C69.4728 134.532 69.1982 138.249 69.3672 141.235C70.0429 141.278 70.7186 141.622 71.1409 142.181C71.1832 142.181 71.2254 142.181 71.2676 142.181C71.6055 142.138 71.9434 142.052 72.2601 141.966C72.2601 141.966 72.2601 141.966 72.2812 141.966C72.5135 141.901 72.7458 141.837 72.9781 141.772C72.8302 141.815 72.8302 141.815 72.9781 141.772C74.1394 141.407 75.1953 140.849 76.2933 140.354C77.2646 139.946 78.1515 139.366 79.0806 138.915C79.7141 137.024 80.2631 134.94 80.6855 132.728C82.4803 123.533 81.5935 115.583 78.7005 115.003L78.7428 114.982Z" fill="#A28CD3"/>
<path d="M60.8787 131.997C67.9738 136.316 72.6194 139.302 71.4369 141.3C70.2543 143.298 60.6042 142.89 53.5092 138.55C46.4141 134.21 41.6207 129.119 42.8033 127.121C43.9858 125.123 53.7837 127.658 60.8787 131.976V131.997Z" fill="#6850A0"/>
<path d="M78.1721 121.707C76.0182 129.828 75.068 137.068 77.2641 137.669C79.4602 138.271 85.3516 131.353 87.5055 123.253C89.6593 115.133 89.6171 108.064 87.421 107.463C85.2249 106.861 80.3259 113.586 78.1721 121.707Z" fill="#6850A0"/>
<path d="M79.6713 137.218C80.9805 140.269 77.0318 142.009 75.4692 142.696C73.9066 143.384 69.9156 145.016 68.6064 141.966C67.2972 138.915 70.4013 134.962 71.9639 134.275C73.5265 133.587 78.3621 134.167 79.6713 137.218Z" fill="#3F2A52"/>
<path d="M155.119 272.674C120.953 248.912 95.7399 166.307 95.7188 97.9663" stroke="#386641" stroke-width="1.92" stroke-miterlimit="10" stroke-linecap="round"/>
<path d="M94.2531 46.1382C97.541 46.0623 100.037 38.3944 99.8274 29.0114C99.6181 19.6284 96.7831 12.0835 93.4952 12.1594C90.2073 12.2353 87.7117 19.9033 87.9209 29.2863C88.1302 38.6693 90.9652 46.2141 94.2531 46.1382Z" fill="#3F2A52"/>
<path d="M93.6477 52.3505C96.0924 51.1991 95.2585 44.077 91.785 36.4429C88.3115 28.8087 83.5139 23.5534 81.0691 24.7048C78.6244 25.8562 79.4584 32.9783 82.9319 40.6124C86.4053 48.2466 91.203 53.5019 93.6477 52.3505Z" fill="#3F2A52"/>
<path d="M104.178 40.1218C107.309 32.3357 107.825 25.1826 105.332 24.1447C102.839 23.1069 98.2792 28.5774 95.1484 36.3635C92.0175 44.1496 91.5008 51.3028 93.9941 52.3406C96.4875 53.3784 101.047 47.9079 104.178 40.1218Z" fill="#3F2A52"/>
<path d="M94.4914 55.8629C98.0241 55.7813 100.718 48.1088 100.509 38.7258C100.3 29.3428 97.2662 21.8025 93.7335 21.8841C90.2008 21.9656 87.5066 29.6382 87.7159 39.0211C87.9251 48.4041 90.9586 55.9444 94.4914 55.8629Z" fill="#6850A0"/>
<path d="M92.4572 64.8238C95.0969 63.0341 93.0897 55.2519 87.9741 47.4419C82.8585 39.6318 76.5715 34.7514 73.9319 36.5411C71.2922 38.3309 73.2994 46.113 78.415 53.9231C83.5307 61.7331 89.8176 66.6135 92.4572 64.8238Z" fill="#6850A0"/>
<path d="M109.455 53.2169C114.217 45.1788 115.875 37.312 113.158 35.6459C110.442 33.9799 104.379 39.1454 99.6168 47.1835C94.8546 55.2216 93.1965 63.0884 95.9132 64.7545C98.63 66.4205 104.693 61.255 109.455 53.2169Z" fill="#6850A0"/>
<path d="M99.3268 68.7354C101.738 67.2437 99.8082 59.5334 95.0157 51.5139C90.2233 43.4945 84.3834 38.2027 81.9719 39.6945C79.5604 41.1862 81.4905 48.8965 86.283 56.916C91.0754 64.9354 96.9154 70.2272 99.3268 68.7354Z" fill="#A28CD3"/>
<path d="M102.297 56.5567C106.727 48.3243 108.312 40.5328 105.836 39.1539C103.361 37.775 97.7626 43.3308 93.3327 51.5632C88.9027 59.7956 87.3183 67.5871 89.7939 68.966C92.2694 70.3449 97.8674 64.789 102.297 56.5567Z" fill="#A28CD3"/>
<path d="M95.3646 83.6573C97.5799 83.6062 99.2058 75.9584 98.9962 66.5754C98.7867 57.1924 96.821 49.6274 94.6058 49.6785C92.3905 49.7296 90.7646 57.3774 90.9741 66.7604C91.1837 76.1434 93.1494 83.7084 95.3646 83.6573Z" fill="#6850A0"/>
<path d="M99.6855 82.4486C101.579 81.2774 99.2286 73.8269 94.4362 65.8075C89.6437 57.7881 84.2238 52.2365 82.3305 53.4077C80.4372 54.5789 82.7874 62.0294 87.5798 70.0488C92.3723 78.0682 97.7922 83.6198 99.6855 82.4486Z" fill="#6850A0"/>
<path d="M102.522 69.7147C106.952 61.4823 108.968 53.931 107.024 52.8484C105.081 51.7658 99.914 57.5618 95.484 65.7942C91.0541 74.0265 89.0385 81.5778 90.9821 82.6604C92.9257 83.7431 98.0924 77.947 102.522 69.7147Z" fill="#6850A0"/>
<path d="M95.7248 97.975C97.4271 97.9357 98.6374 90.2974 98.4281 80.9145C98.2188 71.5315 96.6692 63.9569 94.9669 63.9962C93.2647 64.0355 92.0544 71.6738 92.2637 81.0568C92.473 90.4398 94.0226 98.0143 95.7248 97.975Z" fill="#3F2A52"/>
<path d="M89.5313 80.1952C91.4744 78.9932 89.5673 72.1917 85.2717 65.0036C80.9761 57.8155 75.9186 52.9628 73.9754 54.1649C72.0323 55.3669 73.9393 62.1684 78.235 69.3565C82.5306 76.5446 87.5881 81.3973 89.5313 80.1952Z" fill="#3F2A52"/>
<path d="M112.187 68.5682C116.157 61.1892 117.759 54.3067 115.764 53.1956C113.77 52.0845 108.934 57.1656 104.963 64.5445C100.992 71.9235 99.3905 78.806 101.385 79.9171C103.38 81.0282 108.216 75.9471 112.187 68.5682Z" fill="#3F2A52"/>
<path d="M100.287 99.5416C102.698 98.0498 100.768 90.3395 95.9757 82.3201C91.1833 74.3006 85.3433 69.0089 82.9318 70.5006C80.5203 71.9924 82.4505 79.7027 87.2429 87.7221C92.0354 95.7416 97.8753 101.033 100.287 99.5416Z" fill="#A28CD3"/>
<path d="M103.236 87.3682C107.666 79.1358 109.25 71.3443 106.775 69.9654C104.299 68.5865 98.7011 74.1424 94.2711 82.3747C89.8412 90.6071 88.2568 98.3986 90.7323 99.7775C93.2078 101.156 98.8058 95.6006 103.236 87.3682Z" fill="#A28CD3"/>
<path d="M89.0043 82.8422C93.2909 90.0178 96.036 94.8732 94.0933 96.0763C92.1506 97.2794 83.7675 92.3381 79.4809 85.1625C75.1943 77.9869 73.2938 71.1765 75.2365 69.9734C77.1792 68.7703 84.7177 75.6666 89.0043 82.8422Z" fill="#6850A0"/>
<path d="M101.653 81.6387C97.6829 89.0077 95.0856 95.8396 97.0706 96.9353C99.0555 98.0309 106.383 92.7459 110.353 85.3769C114.322 78.0079 115.927 71.1331 113.921 70.0159C111.915 68.8988 105.602 74.2697 101.632 81.6387H101.653Z" fill="#6850A0"/>
<path d="M97.6623 109.912C98.1691 106.818 98.4225 102.5 98.3169 97.7523C98.1058 88.3638 96.5643 80.8015 94.875 80.8444C93.1857 80.8874 91.961 88.5142 92.1721 97.9027C92.2777 102.565 92.7211 106.797 93.3335 109.848C94.7694 109.848 96.2264 109.848 97.6623 109.912Z" fill="#3F2A52"/>
<path d="M92.8051 109.933C93.6497 109.976 94.5155 110.019 95.3601 109.976C95.6557 109.976 96.2892 110.041 96.5426 109.869C96.247 109.912 96.2259 109.933 96.4793 109.869C96.5426 109.869 96.606 109.847 96.6693 109.826C96.8805 109.783 97.0917 109.719 97.3028 109.676C97.6407 109.59 97.9785 109.461 98.2953 109.332C98.3586 109.289 98.4853 109.224 98.5487 109.181C98.5909 109.138 98.6543 109.117 98.6965 109.074C98.6965 109.074 98.6965 109.074 98.7176 109.074C98.7387 109.053 98.7598 109.031 98.7809 109.01C98.8232 108.924 98.971 108.709 98.9921 108.666C99.3933 108.086 99.7312 107.721 100.301 107.312C100.555 107.119 100.871 107.033 101.188 106.99C100.069 104.369 98.3797 101.404 96.2048 98.4395C90.6723 90.9201 84.2108 86.3655 81.7613 88.2346C79.3118 90.1038 81.8035 97.7091 87.336 105.207C88.7296 107.119 90.2078 108.838 91.6437 110.299C92.0026 110.062 92.4038 109.912 92.8262 109.933H92.8051Z" fill="#A28CD3"/>
<path d="M108.79 87.483C106.319 85.8287 100.216 90.8345 95.1274 98.6546C92.9524 102.006 91.3053 105.336 90.334 108.193C90.9464 108.494 91.4531 109.074 91.6221 109.762C91.6643 109.762 91.7065 109.783 91.7277 109.805C92.0655 109.891 92.4034 109.934 92.7412 109.977C92.7412 109.977 92.7412 109.977 92.7624 109.977C92.9946 109.998 93.248 110.02 93.4803 110.063C93.3325 110.063 93.3325 110.063 93.4803 110.063C94.6839 110.17 95.8664 110.063 97.0701 110.041C98.1259 110.041 99.1395 109.848 100.195 109.783C101.483 108.279 102.75 106.561 103.996 104.67C109.085 96.8499 111.218 89.1587 108.747 87.5044L108.79 87.483Z" fill="#A28CD3"/>
<path d="M85.9426 96.3552C90.8838 103.08 94.0723 107.656 92.2563 109.031C90.4403 110.406 81.6349 106.324 76.6726 99.5993C71.7314 92.8748 69.1974 86.2793 71.0134 84.9043C72.8294 83.5293 80.9803 89.6308 85.9426 96.3767V96.3552Z" fill="#6850A0"/>
<path d="M105.771 93.4766C100.767 100.158 97.1771 106.496 98.9931 107.914C100.809 109.332 108.833 105.185 113.838 98.5038C118.842 91.8223 121.44 85.2482 119.624 83.8518C117.808 82.4553 110.776 86.7951 105.771 93.4766Z" fill="#6850A0"/>
<path d="M101.379 108.429C101.463 111.759 97.1554 111.845 95.445 111.888C93.7346 111.931 89.448 111.888 89.3635 108.58C89.2791 105.25 93.629 102.779 95.3394 102.736C97.0498 102.693 101.294 105.099 101.379 108.429Z" fill="#3F2A52"/>
<path d="M142.069 124.069C127.035 143.276 121.565 157.026 121.565 157.026C121.565 157.026 137.529 155.629 153.409 139.366C169.288 123.103 174.398 99.5562 174.398 99.5562C174.398 99.5562 158.202 103.445 142.069 124.069Z" fill="#386641"/>
<path d="M142.069 124.07C127.035 143.276 121.565 157.026 121.565 157.026C121.565 157.026 130.202 149.485 146.081 133.2C161.201 117.711 174.398 99.5352 174.398 99.5352C174.398 99.5352 158.202 103.424 142.069 124.048V124.07Z" fill="#4C8455"/>
<path d="M134.025 280C108.579 226.978 116.688 158.788 138.1 94.0137" stroke="#386641" stroke-width="1.92" stroke-miterlimit="10" stroke-linecap="round"/>
<path d="M163.665 29.9876C166.41 21.0273 166.09 12.9564 162.95 11.9609C159.81 10.9653 155.04 17.422 152.295 26.3823C149.55 35.3427 149.87 43.4135 153.01 44.4091C156.15 45.4047 160.92 38.948 163.665 29.9876Z" fill="#3F2A52"/>
<path d="M150.475 50.0788C153.153 49.7808 154.595 42.7601 153.696 34.3975C152.798 26.0349 149.898 19.4971 147.22 19.7951C144.542 20.093 143.1 27.1137 143.998 35.4763C144.897 43.8389 147.797 50.3767 150.475 50.0788Z" fill="#3F2A52"/>
<path d="M164.28 41.9189C169.689 35.5555 172.421 28.9437 170.383 27.1509C168.345 25.3582 162.309 29.0634 156.901 35.4268C151.493 41.7902 148.76 48.402 150.798 50.1948C152.836 51.9875 158.872 48.2823 164.28 41.9189Z" fill="#3F2A52"/>
<path d="M161.244 39.4182C163.989 30.4579 163.479 22.3269 160.106 21.2572C156.732 20.1875 151.772 26.5841 149.027 35.5445C146.283 44.5048 146.792 52.6357 150.166 53.7054C153.54 54.7752 158.5 48.3785 161.244 39.4182Z" fill="#6850A0"/>
<path d="M145.425 61.5411C148.488 60.7019 149.027 52.675 146.628 43.6124C144.23 34.5497 139.802 27.8833 136.739 28.7224C133.676 29.5615 133.138 37.5884 135.536 46.651C137.935 55.7137 142.362 62.3802 145.425 61.5411Z" fill="#6850A0"/>
<path d="M165.186 56.0718C172.22 50.0002 176.259 43.0831 174.207 40.6221C172.155 38.1611 164.789 41.088 157.754 47.1597C150.72 53.2313 146.681 60.1484 148.733 62.6094C150.785 65.0704 158.151 62.1435 165.186 56.0718Z" fill="#6850A0"/>
<path d="M150.704 67.4859C153.457 66.8551 154.046 58.9213 152.02 49.7651C149.993 40.609 146.118 33.6978 143.365 34.3286C140.612 34.9594 140.023 42.8932 142.049 52.0494C144.076 61.2055 147.95 68.1167 150.704 67.4859Z" fill="#A28CD3"/>
<path d="M157.344 56.8863C164.124 50.5227 168.07 43.6531 166.156 41.5425C164.242 39.4319 157.194 42.8797 150.414 49.2433C143.633 55.6069 139.688 62.4766 141.602 64.5871C143.515 66.6977 150.563 63.2499 157.344 56.8863Z" fill="#A28CD3"/>
<path d="M151.089 65.3026C153.833 56.3423 154.343 48.5348 152.228 47.864C150.113 47.1932 146.173 53.9132 143.428 62.8735C140.683 71.8339 140.173 79.6414 142.288 80.3122C144.404 80.983 148.344 74.263 151.089 65.3026Z" fill="#6850A0"/>
<path d="M146.724 80.578C148.886 80.0828 148.996 72.2588 146.969 63.1026C144.943 53.9465 141.547 46.9254 139.386 47.4207C137.224 47.9159 137.114 55.7399 139.141 64.8961C141.167 74.0522 144.563 81.0732 146.724 80.578Z" fill="#6850A0"/>
<path d="M153.457 69.4325C160.238 63.0689 164.516 56.5669 163.014 54.9098C161.512 53.2528 154.797 57.0682 148.016 63.4318C141.236 69.7954 136.957 76.2974 138.46 77.9545C139.962 79.6115 146.677 75.7961 153.457 69.4325Z" fill="#6850A0"/>
<path d="M146.03 78.7259C148.775 69.7656 149.682 62.084 148.057 61.5686C146.431 61.0531 142.888 67.899 140.144 76.8594C137.399 85.8197 136.492 93.5013 138.117 94.0168C139.743 94.5322 143.286 87.6863 146.03 78.7259Z" fill="#3F2A52"/>
<path d="M137.811 75.142C140.029 74.6338 140.355 67.5687 138.539 59.3617C136.722 51.1547 133.451 44.9137 131.233 45.422C129.014 45.9303 128.688 52.9953 130.505 61.2023C132.321 69.4093 135.592 75.6503 137.811 75.142Z" fill="#3F2A52"/>
<path d="M162.966 71.4783C169.044 65.7744 172.721 59.7718 171.179 58.0711C169.637 56.3704 163.46 59.6157 157.382 65.3196C151.305 71.0235 147.628 77.0261 149.17 78.7268C150.712 80.4274 156.889 77.1822 162.966 71.4783Z" fill="#3F2A52"/>
<path d="M141.939 96.9967C144.692 96.3659 145.282 88.432 143.255 79.2759C141.229 70.1197 137.354 63.2086 134.601 63.8393C131.847 64.4701 131.258 72.404 133.284 81.5601C135.311 90.7163 139.186 97.6274 141.939 96.9967Z" fill="#A28CD3"/>
<path d="M148.57 86.4122C155.351 80.0486 159.296 73.179 157.383 71.0684C155.469 68.9578 148.421 72.4056 141.64 78.7692C134.86 85.1328 130.915 92.0025 132.828 94.113C134.742 96.2236 141.79 92.7758 148.57 86.4122Z" fill="#A28CD3"/>
<path d="M136.496 77.4711C138.312 85.6779 139.389 91.1563 137.172 91.6719C134.954 92.1875 128.556 84.7756 126.74 76.5902C124.924 68.4048 125.262 61.3366 127.479 60.821C129.696 60.3054 134.68 69.2857 136.496 77.4925V77.4711Z" fill="#6850A0"/>
<path d="M148.869 80.4574C142.788 86.1507 138.184 91.7795 139.726 93.4767C141.267 95.1739 149.883 92.5314 155.943 86.8382C162.003 81.1449 165.678 75.1294 164.136 73.4322C162.595 71.735 154.929 74.7642 148.848 80.4574H148.869Z" fill="#6850A0"/>
<path d="M136.221 105.937C137.678 103.166 139.262 99.1699 140.655 94.6153C143.4 85.6565 144.308 77.9867 142.682 77.4711C141.057 76.9555 137.53 83.8089 134.785 92.7677C133.412 97.2363 132.504 101.383 132.146 104.476C133.497 104.949 134.87 105.422 136.221 105.937Z" fill="#3F2A52"/>
<path d="M131.618 104.412C132.399 104.734 133.201 105.056 134.025 105.293C134.299 105.378 134.891 105.636 135.186 105.572C134.891 105.529 134.869 105.507 135.123 105.572C135.186 105.572 135.25 105.572 135.313 105.593C135.524 105.615 135.735 105.636 135.967 105.658C136.326 105.658 136.664 105.658 137.023 105.658C137.108 105.658 137.256 105.615 137.298 105.615C137.361 105.615 137.403 105.572 137.467 105.572C137.467 105.572 137.467 105.572 137.488 105.572C137.509 105.572 137.551 105.55 137.572 105.529C137.636 105.464 137.847 105.314 137.889 105.293C138.438 104.863 138.881 104.627 139.557 104.433C139.853 104.347 140.191 104.347 140.507 104.433C140.275 101.576 139.599 98.2243 138.459 94.7009C135.566 85.7851 130.878 79.3614 127.964 80.3282C125.05 81.295 125.029 89.3085 127.922 98.2243C128.661 100.48 129.506 102.586 130.414 104.455C130.815 104.347 131.259 104.326 131.66 104.498L131.618 104.412Z" fill="#A28CD3"/>
<path d="M153.81 88.3204C151.994 85.9571 144.624 88.7071 137.36 94.4648C134.235 96.9354 131.638 99.5565 129.843 101.941C130.328 102.414 130.624 103.144 130.582 103.832C130.624 103.853 130.645 103.875 130.687 103.896C130.983 104.09 131.279 104.24 131.574 104.39C131.574 104.39 131.574 104.39 131.595 104.39C131.807 104.498 132.039 104.605 132.25 104.713C132.123 104.648 132.102 104.648 132.25 104.713C133.369 105.207 134.531 105.486 135.671 105.851C136.663 106.173 137.698 106.324 138.712 106.625C140.401 105.615 142.154 104.412 143.906 103.015C151.191 97.2577 155.605 90.6621 153.789 88.2989L153.81 88.3204Z" fill="#A28CD3"/>
<path d="M129.358 89.2876C131.935 97.2796 133.539 102.629 131.364 103.36C129.19 104.09 122.137 97.344 119.561 89.352C116.984 81.36 116.646 74.3133 118.8 73.5828C120.954 72.8524 126.761 81.2955 129.337 89.2876H129.358Z" fill="#6850A0"/>
<path d="M149.06 93.0043C142.218 97.7092 136.834 102.565 138.101 104.477C139.368 106.389 148.279 105.1 155.12 100.373C161.962 95.6468 166.481 90.2973 165.193 88.3637C163.905 86.4302 155.881 88.2778 149.039 92.9828L149.06 93.0043Z" fill="#6850A0"/>
<path d="M140.211 105.744C139.24 108.924 135.122 107.613 133.517 107.098C131.912 106.582 127.816 105.164 128.808 101.985C129.78 98.805 134.679 97.8812 136.305 98.3969C137.931 98.9125 141.225 102.565 140.232 105.744H140.211Z" fill="#3F2A52"/>
</svg>
