<svg width="184" height="151" viewBox="0 0 184 151" fill="none" xmlns="http://www.w3.org/2000/svg">
<path d="M0.000468761 28.8L9.08047 5.43999C9.6138 4.02665 10.2938 2.95999 11.1205 2.23999C11.9738 1.49332 13.0138 1.11999 14.2405 1.11999C15.4138 1.11999 16.4138 1.49332 17.2405 2.23999C18.0938 2.95999 18.7871 4.02665 19.3205 5.43999L28.4005 28.8H21.3605L13.4405 6.87999H14.8405L7.00047 28.8H0.000468761ZM6.80047 23.84V18.28H21.8805V23.84H6.80047ZM35.6139 -1.33514e-05V21.64C35.6139 22.52 35.7339 23.1333 35.9739 23.48C36.2406 23.8 36.6806 23.96 37.2939 23.96C37.5339 23.96 37.7739 23.9333 38.0139 23.88C38.2806 23.8267 38.5339 23.7733 38.7739 23.72V28.48C37.6806 29.0133 36.4806 29.28 35.1739 29.28C33.1472 29.28 31.7072 28.7067 30.8539 27.56C30.0272 26.3867 29.6139 24.8 29.6139 22.8V-1.33514e-05H35.6139ZM60.1242 28.8H54.0442C53.8576 28.4267 53.7109 27.88 53.6042 27.16C53.5242 26.44 53.4842 25.6 53.4842 24.64L53.2842 23.48V15.4C53.2842 14.5733 53.0176 14 52.4842 13.68C51.9776 13.36 51.2709 13.2 50.3642 13.2C49.4309 13.2 48.6576 13.32 48.0442 13.56C47.4309 13.7733 46.8976 14.04 46.4442 14.36C45.9909 14.6533 45.5509 14.9067 45.1242 15.12C44.7242 15.3333 44.2442 15.44 43.6842 15.44C42.9109 15.44 42.2976 15.24 41.8442 14.84C41.3909 14.4133 41.1642 13.84 41.1642 13.12C41.1642 12.6133 41.2842 12.1333 41.5242 11.68C41.7642 11.2 42.1776 10.76 42.7642 10.36C44.4442 8.99999 46.9642 8.31999 50.3242 8.31999C52.2976 8.31999 53.9509 8.57332 55.2842 9.07999C56.6176 9.58665 57.6176 10.4267 58.2842 11.6C58.9509 12.7467 59.2842 14.2933 59.2842 16.24V22.28C59.2842 23.7467 59.3642 25.0267 59.5242 26.12C59.6842 27.1867 59.8842 28.08 60.1242 28.8ZM47.0442 29.28C45.0442 29.28 43.4709 28.7467 42.3242 27.68C41.1776 26.6133 40.6042 25.2 40.6042 23.44C40.6042 21.7867 41.1376 20.4933 42.2042 19.56C43.2709 18.6 44.8442 17.96 46.9242 17.64L51.0042 17C51.9109 16.84 52.5109 16.6533 52.8042 16.44C53.1242 16.2267 53.2842 15.8933 53.2842 15.44V19.4C53.1242 19.5333 52.9109 19.6667 52.6442 19.8C52.4042 19.9067 52.0042 20.0267 51.4442 20.16L49.4042 20.56C48.6842 20.6933 48.0976 20.9333 47.6442 21.28C47.2176 21.6 47.0042 22.1067 47.0042 22.8C47.0042 23.4933 47.2176 24.04 47.6442 24.44C48.0976 24.8133 48.6976 25 49.4442 25C50.1642 25 50.8042 24.8267 51.3642 24.48C51.9509 24.1333 52.4176 23.64 52.7642 23C53.1109 22.36 53.2842 21.6267 53.2842 20.8L54.0042 24.56C53.4176 26.1333 52.5109 27.32 51.2842 28.12C50.0576 28.8933 48.6442 29.28 47.0442 29.28ZM76.763 28.8V17.96C76.763 17.0533 76.6163 16.3067 76.323 15.72C76.0296 15.1333 75.6163 14.7067 75.083 14.44C74.5763 14.1467 74.003 14 73.363 14C72.6696 14 72.0163 14.16 71.403 14.48C70.8163 14.7733 70.3363 15.24 69.963 15.88C69.5896 16.4933 69.403 17.28 69.403 18.24L68.563 13.36C68.963 12.2133 69.5096 11.2667 70.203 10.52C70.8963 9.77332 71.6963 9.22665 72.603 8.87999C73.5363 8.50665 74.5096 8.31999 75.523 8.31999C76.8296 8.31999 78.0296 8.61332 79.123 9.19999C80.243 9.75999 81.1363 10.68 81.803 11.96C82.4696 13.2133 82.803 14.88 82.803 16.96V28.8H76.763ZM63.403 28.8V8.79999H69.403V28.8H63.403ZM106.714 29.28C104.554 29.28 102.581 29.04 100.794 28.56C99.0339 28.0533 97.5272 27.4267 96.2739 26.68V20.52C98.1406 21.7467 100.007 22.6933 101.874 23.36C103.741 24 105.474 24.32 107.074 24.32C108.567 24.32 109.661 24.0667 110.354 23.56C111.047 23.0533 111.394 22.4133 111.394 21.64C111.394 20.9467 111.114 20.3867 110.554 19.96C110.021 19.5333 109.287 19.1867 108.354 18.92C107.447 18.6267 106.447 18.3467 105.354 18.08C104.287 17.8133 103.207 17.5067 102.114 17.16C101.021 16.7867 100.021 16.3067 99.1139 15.72C98.2072 15.1067 97.4739 14.3333 96.9139 13.4C96.3539 12.44 96.0739 11.24 96.0739 9.79999C96.0739 8.09332 96.5139 6.58665 97.3939 5.27999C98.2739 3.97332 99.5539 2.95999 101.234 2.23999C102.941 1.49332 104.994 1.11999 107.394 1.11999C109.234 1.11999 110.861 1.33332 112.274 1.75999C113.687 2.18665 114.861 2.78665 115.794 3.55999C116.327 3.98665 116.741 4.43999 117.034 4.91999C117.327 5.39999 117.474 5.94665 117.474 6.55999C117.474 7.35999 117.234 8.01332 116.754 8.51999C116.274 8.99999 115.607 9.23999 114.754 9.23999C114.061 9.23999 113.434 9.07999 112.874 8.75999C112.314 8.43999 111.754 8.06665 111.194 7.63999C110.661 7.21332 110.034 6.83999 109.314 6.51999C108.621 6.17332 107.767 5.99999 106.754 5.99999C105.474 5.99999 104.501 6.26665 103.834 6.79999C103.194 7.33332 102.874 7.98665 102.874 8.75999C102.874 9.45332 103.154 10.0133 103.714 10.44C104.274 10.8667 105.007 11.2267 105.914 11.52C106.821 11.8133 107.807 12.0933 108.874 12.36C109.967 12.6267 111.061 12.9467 112.154 13.32C113.247 13.6933 114.247 14.1867 115.154 14.8C116.061 15.3867 116.794 16.1467 117.354 17.08C117.914 18.0133 118.194 19.2 118.194 20.64C118.194 22.3467 117.767 23.8533 116.914 25.16C116.061 26.4667 114.781 27.48 113.074 28.2C111.394 28.92 109.274 29.28 106.714 29.28ZM139.89 28.8H133.81C133.623 28.4267 133.477 27.88 133.37 27.16C133.29 26.44 133.25 25.6 133.25 24.64L133.05 23.48V15.4C133.05 14.5733 132.783 14 132.25 13.68C131.743 13.36 131.037 13.2 130.13 13.2C129.197 13.2 128.423 13.32 127.81 13.56C127.197 13.7733 126.663 14.04 126.21 14.36C125.757 14.6533 125.317 14.9067 124.89 15.12C124.49 15.3333 124.01 15.44 123.45 15.44C122.677 15.44 122.063 15.24 121.61 14.84C121.157 14.4133 120.93 13.84 120.93 13.12C120.93 12.6133 121.05 12.1333 121.29 11.68C121.53 11.2 121.943 10.76 122.53 10.36C124.21 8.99999 126.73 8.31999 130.09 8.31999C132.063 8.31999 133.717 8.57332 135.05 9.07999C136.383 9.58665 137.383 10.4267 138.05 11.6C138.717 12.7467 139.05 14.2933 139.05 16.24V22.28C139.05 23.7467 139.13 25.0267 139.29 26.12C139.45 27.1867 139.65 28.08 139.89 28.8ZM126.81 29.28C124.81 29.28 123.237 28.7467 122.09 27.68C120.943 26.6133 120.37 25.2 120.37 23.44C120.37 21.7867 120.903 20.4933 121.97 19.56C123.037 18.6 124.61 17.96 126.69 17.64L130.77 17C131.677 16.84 132.277 16.6533 132.57 16.44C132.89 16.2267 133.05 15.8933 133.05 15.44V19.4C132.89 19.5333 132.677 19.6667 132.41 19.8C132.17 19.9067 131.77 20.0267 131.21 20.16L129.17 20.56C128.45 20.6933 127.863 20.9333 127.41 21.28C126.983 21.6 126.77 22.1067 126.77 22.8C126.77 23.4933 126.983 24.04 127.41 24.44C127.863 24.8133 128.463 25 129.21 25C129.93 25 130.57 24.8267 131.13 24.48C131.717 24.1333 132.183 23.64 132.53 23C132.877 22.36 133.05 21.6267 133.05 20.8L133.77 24.56C133.183 26.1333 132.277 27.32 131.05 28.12C129.823 28.8933 128.41 29.28 126.81 29.28ZM156.529 28.8V17.96C156.529 17.0533 156.382 16.3067 156.089 15.72C155.795 15.1333 155.382 14.7067 154.849 14.44C154.342 14.1467 153.769 14 153.129 14C152.435 14 151.782 14.16 151.169 14.48C150.582 14.7733 150.102 15.24 149.729 15.88C149.355 16.4933 149.169 17.28 149.169 18.24L148.329 13.36C148.729 12.2133 149.275 11.2667 149.969 10.52C150.662 9.77332 151.462 9.22665 152.369 8.87999C153.302 8.50665 154.275 8.31999 155.289 8.31999C156.595 8.31999 157.795 8.61332 158.889 9.19999C160.009 9.75999 160.902 10.68 161.569 11.96C162.235 13.2133 162.569 14.88 162.569 16.96V28.8H156.529ZM143.169 28.8V8.79999H149.169V28.8H143.169ZM173.568 29.28C171.995 29.28 170.555 29.12 169.248 28.8C167.941 28.4533 166.728 28.0133 165.608 27.48V22.4C167.048 23.3333 168.488 24.0667 169.928 24.6C171.395 25.1333 172.688 25.4 173.808 25.4C174.795 25.4 175.515 25.2267 175.968 24.88C176.421 24.5333 176.648 24.1067 176.648 23.6C176.648 23.0667 176.381 22.64 175.848 22.32C175.315 22 174.635 21.7333 173.808 21.52C172.981 21.28 172.101 21.0267 171.168 20.76C170.235 20.4933 169.355 20.1467 168.528 19.72C167.701 19.2933 167.021 18.7067 166.488 17.96C165.955 17.2133 165.688 16.24 165.688 15.04C165.688 13.76 166.035 12.6133 166.728 11.6C167.448 10.56 168.488 9.75999 169.848 9.19999C171.235 8.61332 172.941 8.31999 174.968 8.31999C176.568 8.31999 177.941 8.50665 179.088 8.87999C180.235 9.22665 181.115 9.71999 181.728 10.36C182.368 10.9733 182.688 11.7067 182.688 12.56C182.688 13.2267 182.488 13.7467 182.088 14.12C181.715 14.4933 181.208 14.68 180.568 14.68C180.061 14.68 179.595 14.56 179.168 14.32C178.768 14.0533 178.355 13.76 177.928 13.44C177.528 13.12 177.061 12.84 176.528 12.6C176.021 12.3333 175.408 12.2 174.688 12.2C173.808 12.2 173.155 12.3867 172.728 12.76C172.301 13.1333 172.088 13.5733 172.088 14.08C172.088 14.64 172.355 15.0933 172.888 15.44C173.421 15.76 174.101 16.04 174.928 16.28C175.755 16.4933 176.635 16.7333 177.568 17C178.501 17.2667 179.381 17.6267 180.208 18.08C181.035 18.5333 181.715 19.1333 182.248 19.88C182.781 20.6 183.048 21.56 183.048 22.76C183.048 24.04 182.688 25.1733 181.968 26.16C181.248 27.1467 180.181 27.92 178.768 28.48C177.355 29.0133 175.621 29.28 173.568 29.28ZM12.3046 148.8L41.3606 74.048C43.0673 69.5253 45.2433 66.112 47.8886 63.808C50.6193 61.4187 53.9473 60.224 57.8726 60.224C61.6273 60.224 64.8273 61.4187 67.4726 63.808C70.2033 66.112 72.422 69.5253 74.1286 74.048L103.185 148.8H80.6566L55.3126 78.656H59.7926L34.7046 148.8H12.3046ZM34.0646 132.928V115.136H82.3206V132.928H34.0646ZM169.076 148.8H149.62C149.022 147.605 148.553 145.856 148.212 143.552C147.956 141.248 147.828 138.56 147.828 135.488L147.188 131.776V105.92C147.188 103.275 146.334 101.44 144.628 100.416C143.006 99.392 140.745 98.88 137.844 98.88C134.857 98.88 132.382 99.264 130.42 100.032C128.457 100.715 126.75 101.568 125.3 102.592C123.849 103.531 122.441 104.341 121.076 105.024C119.796 105.707 118.26 106.048 116.468 106.048C113.993 106.048 112.03 105.408 110.58 104.128C109.129 102.763 108.404 100.928 108.404 98.624C108.404 97.0027 108.788 95.4667 109.556 94.016C110.324 92.48 111.646 91.072 113.524 89.792C118.9 85.44 126.964 83.264 137.716 83.264C144.03 83.264 149.321 84.0747 153.588 85.696C157.854 87.3173 161.054 90.0053 163.188 93.76C165.321 97.4293 166.388 102.379 166.388 108.608V127.936C166.388 132.629 166.644 136.725 167.156 140.224C167.668 143.637 168.308 146.496 169.076 148.8ZM127.22 150.336C120.82 150.336 115.785 148.629 112.116 145.216C108.446 141.803 106.612 137.28 106.612 131.648C106.612 126.357 108.318 122.219 111.732 119.232C115.145 116.16 120.18 114.112 126.836 113.088L139.892 111.04C142.793 110.528 144.713 109.931 145.652 109.248C146.676 108.565 147.188 107.499 147.188 106.048V118.72C146.676 119.147 145.993 119.573 145.14 120C144.372 120.341 143.092 120.725 141.3 121.152L134.772 122.432C132.468 122.859 130.59 123.627 129.14 124.736C127.774 125.76 127.092 127.381 127.092 129.6C127.092 131.819 127.774 133.568 129.14 134.848C130.59 136.043 132.51 136.64 134.9 136.64C137.204 136.64 139.252 136.085 141.044 134.976C142.921 133.867 144.414 132.288 145.524 130.24C146.633 128.192 147.188 125.845 147.188 123.2L149.492 135.232C147.614 140.267 144.713 144.064 140.788 146.624C136.862 149.099 132.34 150.336 127.22 150.336Z" fill="black"/>
</svg>
