<svg width="139" height="148" viewBox="0 0 139 148" fill="none" xmlns="http://www.w3.org/2000/svg">
<path d="M23.7082 26.92C21.1749 26.92 18.9082 26.36 16.9082 25.24C14.9349 24.0934 13.3882 22.5067 12.2682 20.48C11.1749 18.4267 10.6282 16.1067 10.6282 13.52C10.6282 10.9067 11.1882 8.57336 12.3082 6.52002C13.4282 4.46669 14.9882 2.86669 16.9882 1.72002C18.9882 0.573356 21.2415 2.3365e-05 23.7482 2.3365e-05C26.2815 2.3365e-05 28.5349 0.573356 30.5082 1.72002C32.5082 2.84002 34.0549 4.42669 35.1482 6.48002C36.2682 8.50669 36.8282 10.8267 36.8282 13.44C36.8282 16.0534 36.2682 18.3867 35.1482 20.44C34.0282 22.4667 32.4682 24.0534 30.4682 25.2C28.4949 26.3467 26.2415 26.92 23.7082 26.92ZM23.7482 23.28C25.4815 23.28 27.0149 22.8667 28.3482 22.04C29.7082 21.2134 30.7615 20.0667 31.5082 18.6C32.2815 17.1067 32.6682 15.4134 32.6682 13.52C32.6682 11.6267 32.2815 9.93336 31.5082 8.44002C30.7615 6.92002 29.7082 5.74669 28.3482 4.92002C26.9882 4.06669 25.4415 3.64002 23.7082 3.64002C21.9749 3.64002 20.4282 4.05336 19.0682 4.88002C17.7349 5.70669 16.6815 6.86669 15.9082 8.36002C15.1615 9.82669 14.7882 11.52 14.7882 13.44C14.7882 15.3334 15.1615 17.0267 15.9082 18.52C16.6815 20.0134 17.7482 21.1867 19.1082 22.04C20.4682 22.8667 22.0149 23.28 23.7482 23.28ZM63.8366 6.68002C66.2366 6.68002 68.0366 7.37336 69.2366 8.76002C70.4633 10.12 71.0766 12.0667 71.0766 14.6V24.68C71.0766 25.9334 70.49 26.56 69.3166 26.56H68.9166C68.33 26.56 67.8766 26.4267 67.5566 26.16C67.2633 25.8667 67.1166 25.3734 67.1166 24.68V15.08C67.1166 11.8 65.7033 10.16 62.8766 10.16C61.8633 10.16 60.9166 10.4534 60.0366 11.04C59.1833 11.6 58.5033 12.3734 57.9966 13.36V24.68C57.9966 25.9334 57.41 26.56 56.2366 26.56H55.8366C54.6366 26.56 54.0366 25.9334 54.0366 24.68V15.24C54.0366 11.8534 52.6233 10.16 49.7966 10.16C48.81 10.16 47.8766 10.4534 46.9966 11.04C46.1166 11.6267 45.4366 12.4 44.9566 13.36V24.68C44.9566 25.9334 44.37 26.56 43.1966 26.56H42.7566C41.5833 26.56 40.9966 25.9334 40.9966 24.68V7.40002C40.9966 7.32002 41.1433 7.22669 41.4366 7.12002C41.73 7.01336 42.0633 6.96002 42.4366 6.96002C43.9566 6.96002 44.7833 7.94669 44.9166 9.92002C45.61 8.93336 46.4633 8.14669 47.4766 7.56002C48.49 6.97336 49.6233 6.68002 50.8766 6.68002C52.4233 6.68002 53.73 7.02669 54.7966 7.72002C55.8633 8.41336 56.65 9.41336 57.1566 10.72C57.8766 9.49336 58.7966 8.52002 59.9166 7.80002C61.0366 7.05336 62.3433 6.68002 63.8366 6.68002ZM86.0823 6.68002C88.5356 6.68002 90.3889 7.44002 91.6423 8.96002C92.8956 10.4534 93.5223 12.44 93.5223 14.92V24.68C93.5223 25.9334 92.9356 26.56 91.7623 26.56H91.3223C90.1489 26.56 89.5623 25.9334 89.5623 24.68V15.4C89.5623 13.7734 89.1623 12.4934 88.3623 11.56C87.5889 10.6267 86.5089 10.16 85.1223 10.16C83.8956 10.16 82.8156 10.4667 81.8823 11.08C80.9489 11.6667 80.2289 12.48 79.7223 13.52V24.68C79.7223 25.9334 79.1356 26.56 77.9623 26.56H77.5223C76.3489 26.56 75.7623 25.9334 75.7623 24.68V7.40002C75.7623 7.32002 75.9089 7.22669 76.2023 7.12002C76.4956 7.01336 76.8289 6.96002 77.2023 6.96002C77.8689 6.96002 78.4423 7.20002 78.9223 7.68002C79.4023 8.13336 79.6556 8.93336 79.6823 10.08C80.4023 9.01336 81.2956 8.18669 82.3623 7.60002C83.4556 6.98669 84.6956 6.68002 86.0823 6.68002ZM97.0241 16.88C97.0241 14.96 97.4508 13.2267 98.3041 11.68C99.1575 10.1067 100.331 8.88002 101.824 8.00002C103.317 7.12002 104.997 6.68002 106.864 6.68002C108.704 6.68002 110.317 7.09336 111.704 7.92002C113.091 8.72002 114.171 9.85336 114.944 11.32C115.717 12.7867 116.104 14.4667 116.104 16.36V16.68C116.104 17.1067 116.011 17.4134 115.824 17.6C115.664 17.76 115.357 17.84 114.904 17.84H100.704C100.704 18 100.731 18.24 100.784 18.56C101.077 20.1334 101.797 21.4 102.944 22.36C104.117 23.32 105.557 23.8 107.264 23.8C108.811 23.8 110.064 23.52 111.024 22.96C111.984 22.3734 112.744 21.5867 113.304 20.6C113.357 20.5467 113.557 20.5867 113.904 20.72C114.277 20.8267 114.611 21.04 114.904 21.36C115.224 21.6534 115.384 22.0534 115.384 22.56C115.384 22.9867 115.197 23.4534 114.824 23.96C114.451 24.4667 113.931 24.9334 113.264 25.36C111.611 26.4 109.584 26.92 107.184 26.92C105.184 26.92 103.411 26.5067 101.864 25.68C100.344 24.8267 99.1575 23.64 98.3041 22.12C97.4508 20.6 97.0241 18.8534 97.0241 16.88ZM112.264 15.16C112.157 13.48 111.624 12.1467 110.664 11.16C109.704 10.1734 108.424 9.68002 106.824 9.68002C105.251 9.68002 103.904 10.2 102.784 11.24C101.664 12.2534 100.984 13.56 100.744 15.16H112.264ZM119.906 25.2C119.426 24.8534 119.052 24.4667 118.786 24.04C118.519 23.6134 118.386 23.2 118.386 22.8C118.386 22.4267 118.492 22.1067 118.706 21.84C118.946 21.5467 119.199 21.3334 119.466 21.2C119.732 21.04 119.892 20.9734 119.946 21C120.639 21.88 121.532 22.5867 122.626 23.12C123.719 23.6267 124.986 23.88 126.426 23.88C127.786 23.88 128.826 23.6534 129.546 23.2C130.292 22.72 130.666 22.08 130.666 21.28C130.666 20.6667 130.479 20.1867 130.106 19.84C129.732 19.4667 129.239 19.1867 128.626 19C128.012 18.8134 127.039 18.5734 125.706 18.28C124.399 18.0134 123.279 17.7067 122.346 17.36C121.439 17.0134 120.639 16.4667 119.946 15.72C119.279 14.9734 118.946 13.9734 118.946 12.72C118.946 10.9067 119.639 9.45336 121.026 8.36002C122.439 7.24002 124.306 6.68002 126.626 6.68002C128.359 6.68002 129.812 6.92002 130.986 7.40002C132.186 7.85336 133.039 8.45336 133.546 9.20002C133.866 9.62669 134.026 10.08 134.026 10.56C134.026 10.9334 133.906 11.2667 133.666 11.56C133.426 11.8534 133.159 12.08 132.866 12.24C132.599 12.4 132.452 12.4534 132.426 12.4C131.812 11.5734 131.012 10.92 130.026 10.44C129.039 9.93336 127.959 9.68002 126.786 9.68002C125.452 9.68002 124.426 9.92002 123.706 10.4C122.986 10.8534 122.626 11.4934 122.626 12.32C122.626 12.88 122.799 13.3334 123.146 13.68C123.492 14 123.972 14.2667 124.586 14.48C125.226 14.6667 126.172 14.8934 127.426 15.16C128.839 15.4534 130.012 15.7734 130.946 16.12C131.906 16.4667 132.732 17.0267 133.426 17.8C134.146 18.5467 134.506 19.56 134.506 20.84C134.506 22.68 133.786 24.1467 132.346 25.24C130.932 26.3334 128.986 26.88 126.506 26.88C125.066 26.88 123.786 26.72 122.666 26.4C121.546 26.1067 120.626 25.7067 119.906 25.2ZM7.4238 147.04C6.22913 147.04 5.03446 146.827 3.8398 146.4C2.73046 145.888 1.7918 145.333 1.0238 144.736C0.34113 144.053 0.0851303 143.499 0.255797 143.072L29.6958 67.04C30.2078 65.5894 31.1465 64.5227 32.5118 63.84C33.8771 63.1574 35.9678 62.816 38.7838 62.816C41.6851 62.816 43.7758 63.1574 45.0558 63.84C46.4211 64.5227 47.3598 65.5894 47.8718 67.04L77.5678 143.072C77.7385 143.413 77.4398 143.925 76.6718 144.608C75.9891 145.205 75.0505 145.76 73.8558 146.272C72.6611 146.784 71.4665 147.04 70.2718 147.04C66.6025 147.04 63.9998 144.992 62.4638 140.896L55.1678 122.08H22.0158L14.7198 141.024C13.2691 145.035 10.8371 147.04 7.4238 147.04ZM51.8398 111.456L38.5278 76.384L25.2158 111.456H51.8398ZM83.4408 130.272C83.4408 123.275 86.8115 118.112 93.5528 114.784C100.294 111.456 110.705 109.664 124.785 109.408H126.449V108.128C126.449 103.435 125.126 99.8507 122.481 97.376C119.921 94.9014 116.166 93.664 111.217 93.664C106.865 93.664 103.195 94.6454 100.209 96.608C97.3075 98.4854 95.0888 101.003 93.5528 104.16C93.5528 104.331 92.8275 104.288 91.3768 104.032C89.9261 103.691 88.6035 103.051 87.4088 102.112C86.2995 101.173 85.7448 99.808 85.7448 98.016C85.7448 95.456 87.1528 92.896 89.9688 90.336C92.2728 88.288 95.3021 86.624 99.0568 85.344C102.811 83.9787 107.163 83.296 112.113 83.296C120.817 83.296 127.473 85.4294 132.081 89.696C136.689 93.9627 138.993 100.021 138.993 107.872V145.632C138.993 145.973 138.481 146.272 137.457 146.528C136.518 146.869 135.494 147.04 134.385 147.04C130.459 147.04 128.027 145.163 127.089 141.408C126.747 139.872 126.577 138.464 126.577 137.184C124.187 140.512 121.03 143.115 117.105 144.992C113.265 146.869 109.041 147.808 104.433 147.808C97.9475 147.808 92.8275 146.229 89.0728 143.072C85.3181 139.829 83.4408 135.563 83.4408 130.272ZM126.449 117.344L122.993 117.472C113.777 117.813 106.95 118.923 102.513 120.8C98.0755 122.677 95.8568 125.664 95.8568 129.76C95.8568 132.491 96.8808 134.667 98.9288 136.288C100.977 137.909 103.835 138.72 107.505 138.72C113.051 138.72 117.574 137.184 121.073 134.112C124.657 130.955 126.449 126.944 126.449 122.08V117.344Z" fill="black"/>
</svg>
