<svg width="179" height="156" viewBox="0 0 179 156" fill="none" xmlns="http://www.w3.org/2000/svg">
<path d="M0.546875 7.44141C0.182292 7.44141 0 7.23307 0 6.81641L0.195312 3.53516C0.208333 3.3138 0.253906 3.17708 0.332031 3.125C0.423177 3.0599 0.579427 3.02083 0.800781 3.00781L9.84375 2.61719C10.0651 2.63021 10.1953 2.6888 10.2344 2.79297C10.2734 2.88411 10.2995 3.02083 10.3125 3.20312L10.5078 6.44531C10.4818 6.66667 10.4297 6.81641 10.3516 6.89453C10.2734 6.95964 10.1302 6.99219 9.92188 6.99219L6.77734 6.95312L11.1914 26.4258L15.8789 3.61328C15.918 3.35286 16.0742 3.21615 16.3477 3.20312L19.2969 2.98828C19.5703 3.01432 19.7331 3.16406 19.7852 3.4375L24.9219 26.5039L28.8086 6.89453L25.8008 6.81641C25.6445 6.81641 25.5339 6.78385 25.4688 6.71875C25.4167 6.65365 25.3776 6.53646 25.3516 6.36719L25.4492 3.20312C25.4753 2.83854 25.6706 2.64323 26.0352 2.61719L34.7461 2.87109C35.0326 2.89714 35.1758 3.10547 35.1758 3.49609L34.9805 6.5625C34.9674 6.77083 34.9219 6.91406 34.8438 6.99219C34.7656 7.07031 34.6159 7.11589 34.3945 7.12891L32.5195 7.05078L26.4258 32.3242C26.3737 32.5716 26.2174 32.7083 25.957 32.7344L22.8906 32.8906C22.6172 32.8646 22.4544 32.7148 22.4023 32.4414L17.5781 11.6406L13.0273 32.3242C12.9753 32.5716 12.819 32.7083 12.5586 32.7344L9.29688 32.8906C9.0625 32.8776 8.89974 32.7279 8.80859 32.4414L2.38281 7.26562L0.546875 7.44141ZM52.1484 32.6172C50.4818 33.0339 48.3659 33.2422 45.8008 33.2422C43.1836 33.2422 41.2826 32.4349 40.0977 30.8203C38.8607 29.1406 38.2422 26.4779 38.2422 22.832C38.2422 19.0039 38.7695 16.1458 39.8242 14.2578C41.0221 12.1745 42.9362 10.9049 45.5664 10.4492C46.4779 10.293 47.4935 10.2148 48.6133 10.2148C51.0221 10.2148 52.7734 10.8073 53.8672 11.9922C54.9609 13.1771 55.5078 14.987 55.5078 17.4219C55.5078 19.0104 55.2279 20.2344 54.668 21.0938C54.4857 21.3672 54.2383 21.6797 53.9258 22.0312C53.6133 22.3698 53.0339 22.6758 52.1875 22.9492C51.3542 23.2096 50.3971 23.4115 49.3164 23.5547C47.6367 23.763 45.3255 23.8672 42.3828 23.8672C42.5521 26.0677 43.0924 27.5651 44.0039 28.3594C44.694 28.9844 45.8919 29.2969 47.5977 29.2969C49.1992 29.2969 50.7943 29.1602 52.3828 28.8867L52.4414 27.8711C52.4544 27.7148 52.487 27.6107 52.5391 27.5586C52.6042 27.5065 52.7148 27.4609 52.8711 27.4219L55.6836 26.7969C55.9701 26.7969 56.1328 26.9206 56.1719 27.168C56.2109 27.3893 56.25 27.8255 56.2891 28.4766C56.3281 29.1146 56.3672 29.668 56.4062 30.1367C56.4453 30.6055 56.4779 31.0547 56.5039 31.4844L56.582 32.5781C56.5951 32.9036 56.6016 33.1771 56.6016 33.3984C56.6016 33.7891 56.3151 34.0169 55.7422 34.082L52.5 34.4727C52.2135 34.4727 52.0703 34.3294 52.0703 34.043L52.1484 32.6172ZM50.332 19.8242C50.6706 19.5247 50.8724 19.1797 50.9375 18.7891C51.0156 18.3854 51.0547 17.9167 51.0547 17.3828C51.0547 16.8359 51.0026 16.3542 50.8984 15.9375C50.8073 15.5208 50.6445 15.1628 50.4102 14.8633C49.9023 14.2383 49.0755 13.9258 47.9297 13.9258C45.7161 13.9258 44.2383 14.4857 43.4961 15.6055C42.793 16.6471 42.4023 18.444 42.3242 20.9961C46.8685 20.931 49.5378 20.5404 50.332 19.8242ZM61.4258 6.25C61.1914 6.25 61.0742 6.10677 61.0742 5.82031L61.1914 1.99219C61.1914 1.83594 61.2305 1.73828 61.3086 1.69922C61.3867 1.64714 61.5039 1.60807 61.6602 1.58203L68.0078 1.73828C68.151 1.73828 68.2422 1.77734 68.2812 1.85547C68.3203 1.92057 68.3464 2.03125 68.3594 2.1875L68.2227 5.29297L68.5156 28.6523L71.1719 28.4375C71.3542 28.4375 71.4583 28.5612 71.4844 28.8086L71.7188 32.3438C71.6927 32.5 71.6471 32.6042 71.582 32.6562C71.5299 32.6953 71.4193 32.7214 71.25 32.7344L60.6445 32.6172C60.4622 32.6172 60.3711 32.4609 60.3711 32.1484V28.8086C60.3711 28.5612 60.4753 28.4375 60.6836 28.4375L64.375 28.6719V6.01562L61.4258 6.25ZM74.7852 6.25C74.5508 6.25 74.4336 6.10677 74.4336 5.82031L74.5508 1.99219C74.5508 1.83594 74.5898 1.73828 74.668 1.69922C74.7461 1.64714 74.8633 1.60807 75.0195 1.58203L81.3672 1.73828C81.5104 1.73828 81.6016 1.77734 81.6406 1.85547C81.6797 1.92057 81.7057 2.03125 81.7188 2.1875L81.582 5.29297L81.875 28.6523L84.5312 28.4375C84.7135 28.4375 84.8177 28.5612 84.8438 28.8086L85.0781 32.3438C85.0521 32.5 85.0065 32.6042 84.9414 32.6562C84.8893 32.6953 84.7786 32.7214 84.6094 32.7344L74.0039 32.6172C73.8216 32.6172 73.7305 32.4609 73.7305 32.1484V28.8086C73.7305 28.5612 73.8346 28.4375 74.043 28.4375L77.7344 28.6719V6.01562L74.7852 6.25ZM92.2266 2.40234C92.8385 1.86849 93.5807 1.47135 94.4531 1.21094C95.3255 0.950521 96.1784 0.820312 97.0117 0.820312C97.8581 0.820312 98.5286 0.833333 99.0234 0.859375L99.043 0.332031C99.043 0.110677 99.1667 0 99.4141 0H102.48C102.715 0 102.852 0.14974 102.891 0.449219L102.578 6.21094C102.552 6.47135 102.454 6.60156 102.285 6.60156L99.3945 6.67969C99.069 6.66667 98.8997 6.51693 98.8867 6.23047L98.9453 4.16016C98.4505 4.10807 97.9492 4.08203 97.4414 4.08203C96.9336 4.08203 96.4844 4.15365 96.0938 4.29688C95.7031 4.4401 95.3776 4.67448 95.1172 5C94.5964 5.625 94.3359 6.55599 94.3359 7.79297C94.3359 9.02995 94.349 10.1953 94.375 11.2891L100.137 11.2109C100.319 11.224 100.43 11.2695 100.469 11.3477C100.521 11.4128 100.553 11.5234 100.566 11.6797L100.371 14.668C100.345 14.9154 100.202 15.0521 99.9414 15.0781L94.6289 14.9414V28.7109L98.2227 28.6328C98.431 28.6328 98.5352 28.7565 98.5352 29.0039L98.1836 32.3438C98.1576 32.5 98.112 32.6042 98.0469 32.6562C97.9948 32.6953 97.8841 32.7214 97.7148 32.7344L88.2812 32.6172C88.099 32.6172 88.0078 32.4609 88.0078 32.1484L88.2031 29.1992C88.2292 28.9518 88.3333 28.8281 88.5156 28.8281L90.4688 28.7891L90.6445 14.9805L87.207 15.1953C86.9857 15.1823 86.8555 15.0716 86.8164 14.8633L86.4062 11.8359C86.4062 11.5495 86.5495 11.4062 86.8359 11.4062L90.5273 11.3477C90.4102 10.2148 90.3516 8.97135 90.3516 7.61719C90.3516 6.25 90.5143 5.16927 90.8398 4.375C91.1654 3.58073 91.6276 2.92318 92.2266 2.40234ZM104.824 6.25C104.59 6.25 104.473 6.10677 104.473 5.82031L104.59 1.99219C104.59 1.83594 104.629 1.73828 104.707 1.69922C104.785 1.64714 104.902 1.60807 105.059 1.58203L111.406 1.73828C111.549 1.73828 111.641 1.77734 111.68 1.85547C111.719 1.92057 111.745 2.03125 111.758 2.1875L111.621 5.29297L111.914 28.6523L114.57 28.4375C114.753 28.4375 114.857 28.5612 114.883 28.8086L115.117 32.3438C115.091 32.5 115.046 32.6042 114.98 32.6562C114.928 32.6953 114.818 32.7214 114.648 32.7344L104.043 32.6172C103.861 32.6172 103.77 32.4609 103.77 32.1484V28.8086C103.77 28.5612 103.874 28.4375 104.082 28.4375L107.773 28.6719V6.01562L104.824 6.25ZM132.266 32.6172C130.599 33.0339 128.483 33.2422 125.918 33.2422C123.301 33.2422 121.4 32.4349 120.215 30.8203C118.978 29.1406 118.359 26.4779 118.359 22.832C118.359 19.0039 118.887 16.1458 119.941 14.2578C121.139 12.1745 123.053 10.9049 125.684 10.4492C126.595 10.293 127.611 10.2148 128.73 10.2148C131.139 10.2148 132.891 10.8073 133.984 11.9922C135.078 13.1771 135.625 14.987 135.625 17.4219C135.625 19.0104 135.345 20.2344 134.785 21.0938C134.603 21.3672 134.355 21.6797 134.043 22.0312C133.73 22.3698 133.151 22.6758 132.305 22.9492C131.471 23.2096 130.514 23.4115 129.434 23.5547C127.754 23.763 125.443 23.8672 122.5 23.8672C122.669 26.0677 123.21 27.5651 124.121 28.3594C124.811 28.9844 126.009 29.2969 127.715 29.2969C129.316 29.2969 130.911 29.1602 132.5 28.8867L132.559 27.8711C132.572 27.7148 132.604 27.6107 132.656 27.5586C132.721 27.5065 132.832 27.4609 132.988 27.4219L135.801 26.7969C136.087 26.7969 136.25 26.9206 136.289 27.168C136.328 27.3893 136.367 27.8255 136.406 28.4766C136.445 29.1146 136.484 29.668 136.523 30.1367C136.562 30.6055 136.595 31.0547 136.621 31.4844L136.699 32.5781C136.712 32.9036 136.719 33.1771 136.719 33.3984C136.719 33.7891 136.432 34.0169 135.859 34.082L132.617 34.4727C132.331 34.4727 132.188 34.3294 132.188 34.043L132.266 32.6172ZM130.449 19.8242C130.788 19.5247 130.99 19.1797 131.055 18.7891C131.133 18.3854 131.172 17.9167 131.172 17.3828C131.172 16.8359 131.12 16.3542 131.016 15.9375C130.924 15.5208 130.762 15.1628 130.527 14.8633C130.02 14.2383 129.193 13.9258 128.047 13.9258C125.833 13.9258 124.355 14.4857 123.613 15.6055C122.91 16.6471 122.52 18.444 122.441 20.9961C126.986 20.931 129.655 20.5404 130.449 19.8242ZM155.625 32.6172C153.958 33.0339 151.842 33.2422 149.277 33.2422C146.66 33.2422 144.759 32.4349 143.574 30.8203C142.337 29.1406 141.719 26.4779 141.719 22.832C141.719 19.0039 142.246 16.1458 143.301 14.2578C144.499 12.1745 146.413 10.9049 149.043 10.4492C149.954 10.293 150.97 10.2148 152.09 10.2148C154.499 10.2148 156.25 10.8073 157.344 11.9922C158.438 13.1771 158.984 14.987 158.984 17.4219C158.984 19.0104 158.704 20.2344 158.145 21.0938C157.962 21.3672 157.715 21.6797 157.402 22.0312C157.09 22.3698 156.51 22.6758 155.664 22.9492C154.831 23.2096 153.874 23.4115 152.793 23.5547C151.113 23.763 148.802 23.8672 145.859 23.8672C146.029 26.0677 146.569 27.5651 147.48 28.3594C148.171 28.9844 149.368 29.2969 151.074 29.2969C152.676 29.2969 154.271 29.1602 155.859 28.8867L155.918 27.8711C155.931 27.7148 155.964 27.6107 156.016 27.5586C156.081 27.5065 156.191 27.4609 156.348 27.4219L159.16 26.7969C159.447 26.7969 159.609 26.9206 159.648 27.168C159.688 27.3893 159.727 27.8255 159.766 28.4766C159.805 29.1146 159.844 29.668 159.883 30.1367C159.922 30.6055 159.954 31.0547 159.98 31.4844L160.059 32.5781C160.072 32.9036 160.078 33.1771 160.078 33.3984C160.078 33.7891 159.792 34.0169 159.219 34.082L155.977 34.4727C155.69 34.4727 155.547 34.3294 155.547 34.043L155.625 32.6172ZM153.809 19.8242C154.147 19.5247 154.349 19.1797 154.414 18.7891C154.492 18.3854 154.531 17.9167 154.531 17.3828C154.531 16.8359 154.479 16.3542 154.375 15.9375C154.284 15.5208 154.121 15.1628 153.887 14.8633C153.379 14.2383 152.552 13.9258 151.406 13.9258C149.193 13.9258 147.715 14.4857 146.973 15.6055C146.27 16.6471 145.879 18.444 145.801 20.9961C150.345 20.931 153.014 20.5404 153.809 19.8242ZM174.316 32.6172C173.691 32.6562 172.767 32.6758 171.543 32.6758C170.332 32.6758 169.342 32.5521 168.574 32.3047C167.819 32.0573 167.194 31.6602 166.699 31.1133C165.723 30.0326 165.234 28.2943 165.234 25.8984C165.234 24.349 165.254 22.8711 165.293 21.4648C165.345 20.0456 165.384 18.7891 165.41 17.6953C165.449 16.5885 165.488 15.4948 165.527 14.4141L162.93 14.2188C162.669 14.2057 162.539 14.0299 162.539 13.6914L162.52 11.4453C162.52 11.1589 162.663 11.0156 162.949 11.0156L165.684 10.957C165.71 10.2799 165.736 9.63542 165.762 9.02344L165.918 6.07422C165.957 5.38411 166.009 4.99349 166.074 4.90234C166.139 4.79818 166.257 4.73307 166.426 4.70703L170.059 4.27734C170.332 4.27734 170.469 4.42057 170.469 4.70703C170.469 5.1237 170.397 6.06771 170.254 7.53906L169.961 10.8398L177.617 10.625C177.904 10.625 178.047 10.7812 178.047 11.0938V14.2773C178.047 14.5378 177.904 14.6745 177.617 14.6875L169.707 14.3555C169.486 17.4023 169.375 20.0586 169.375 22.3242C169.375 24.5898 169.421 26.0547 169.512 26.7188C169.616 27.3828 169.798 27.8971 170.059 28.2617C170.501 28.8867 171.445 29.1992 172.891 29.1992C173.307 29.1992 173.685 29.1862 174.023 29.1602C173.984 28.7044 173.965 28.3659 173.965 28.1445C173.965 27.9102 174.089 27.7734 174.336 27.7344L177.598 27.3438C177.871 27.3438 178.008 27.4935 178.008 27.793L178.086 32.7539C178.086 32.9753 177.988 33.1055 177.793 33.1445L174.902 33.6133C174.603 33.5872 174.434 33.4635 174.395 33.2422L174.316 32.6172ZM12.4414 152.609C11.5247 152.526 11.0664 151.859 11.0664 150.609V140.172C11.0664 139.505 11.1914 139.047 11.4414 138.797C11.7331 138.547 12.2331 138.401 12.9414 138.359L18.6914 138.609L43.4414 58.3594C43.6914 57.5677 44.1914 57.1302 44.9414 57.0469L59.1289 56.5469C59.8789 56.5885 60.3997 57.0677 60.6914 57.9844L87.6914 138.172L93.3789 137.984C94.5456 138.068 95.1289 138.734 95.1289 139.984V149.859C95.1289 150.568 94.9831 151.026 94.6914 151.234C94.3997 151.443 93.8997 151.547 93.1914 151.547H64.2539C63.5039 151.547 63.0664 151.38 62.9414 151.047C62.8164 150.714 62.7539 150.255 62.7539 149.672L64.0039 140.547C64.0872 139.839 64.2539 139.38 64.5039 139.172C64.7539 138.922 65.2122 138.797 65.8789 138.797L73.0039 138.609L67.6289 121.984L36.6914 121.359L31.6289 139.484L39.1914 138.734C39.6914 138.734 40.0247 138.839 40.1914 139.047C40.3997 139.255 40.5456 139.63 40.6289 140.172L41.5664 149.672C41.4831 150.38 41.2956 150.859 41.0039 151.109C40.7539 151.359 40.3164 151.505 39.6914 151.547L12.4414 152.609ZM39.6289 110.734H63.9414L50.8164 70.5469L39.6289 110.734ZM139.441 80.7969C151.775 80.7969 157.941 88.4635 157.941 103.797C157.941 107.422 157.858 112.109 157.691 117.859L157.254 130.109C157.171 132.568 157.066 134.901 156.941 137.109L156.691 143.047L160.441 142.734C161.816 142.651 163.379 142.526 165.129 142.359C166.004 142.359 166.441 142.755 166.441 143.547L165.316 153.422C165.191 154.172 164.733 154.589 163.941 154.672L145.879 155.797C145.296 155.797 145.004 155.339 145.004 154.422L145.879 147.109C138.921 152.484 131.358 155.172 123.191 155.172C116.816 155.172 111.566 153.318 107.441 149.609C103.066 145.693 100.879 140.422 100.879 133.797C100.879 125.172 103.858 119.109 109.816 115.609C115.066 112.526 123.712 110.984 135.754 110.984C138.254 110.984 140.921 111.047 143.754 111.172C143.796 110.089 143.816 109.089 143.816 108.172V105.797C143.816 97.6719 140.254 93.6094 133.129 93.6094C129.421 93.6094 124.837 94.7344 119.379 96.9844L119.629 99.3594C119.712 100.151 119.754 100.776 119.754 101.234C119.754 102.151 119.296 102.609 118.379 102.609L107.816 102.797C107.066 102.672 106.65 102.214 106.566 101.422L105.504 83.5469C105.504 82.5469 105.962 81.9844 106.879 81.8594L117.316 80.4844C118.191 80.4844 118.629 80.9427 118.629 81.8594V87.0469C126.087 82.8802 133.025 80.7969 139.441 80.7969ZM127.566 143.359C132.358 143.359 137.629 141.984 143.379 139.234C143.462 136.484 143.504 133.464 143.504 130.172C143.546 126.839 143.608 123.547 143.691 120.297C132.733 120.297 125.129 121.234 120.879 123.109C116.962 124.859 115.004 127.776 115.004 131.859C115.004 139.526 119.191 143.359 127.566 143.359Z" fill="black"/>
</svg>
