<svg width="245" height="151" viewBox="0 0 245 151" fill="none" xmlns="http://www.w3.org/2000/svg">
<path d="M0.000117302 0.55993C0.000117302 0.186597 0.160117 -7.00951e-05 0.480117 -7.00951e-05H3.36012C3.68012 -7.00951e-05 3.84012 0.173263 3.84012 0.51993V26.3199C3.84012 26.5866 3.97345 26.7199 4.24012 26.7199H18.0801C18.4001 26.7199 18.5601 26.8533 18.5601 27.1199V29.2399C18.5601 29.3733 18.5201 29.4799 18.4401 29.5599C18.3601 29.6399 18.2401 29.6799 18.0801 29.6799H0.560118C0.346784 29.6799 0.200117 29.6399 0.120117 29.5599C0.0401173 29.4533 0.000117302 29.3066 0.000117302 29.1199V0.55993ZM26.6226 28.9999C26.6226 29.2666 26.5693 29.4533 26.4626 29.5599C26.3826 29.6399 26.196 29.6799 25.9026 29.6799H23.8626C23.6226 29.6799 23.4626 29.6399 23.3826 29.5599C23.3026 29.4799 23.2626 29.3333 23.2626 29.1199V9.03993C23.2626 8.6666 23.4226 8.47993 23.7426 8.47993H26.1826C26.476 8.47993 26.6226 8.65326 26.6226 8.99993V28.9999ZM26.7826 3.91993C26.7826 4.4266 26.5426 4.67993 26.0626 4.67993H23.7426C23.5026 4.67993 23.3426 4.6266 23.2626 4.51993C23.1826 4.3866 23.1426 4.21326 23.1426 3.99993V0.639931C23.1426 0.213264 23.3293 -7.00951e-05 23.7026 -7.00951e-05H26.2226C26.596 -7.00951e-05 26.7826 0.19993 26.7826 0.599929V3.91993ZM33.4729 29.6799C33.2329 29.6799 33.0596 29.6266 32.9529 29.5199C32.8729 29.4133 32.8329 29.2533 32.8329 29.0399V0.55993C32.8329 0.186597 32.9929 -7.00951e-05 33.3129 -7.00951e-05H35.7929C36.0596 -7.00951e-05 36.1929 0.186597 36.1929 0.55993V10.3599C36.1929 10.6533 36.2463 10.8133 36.3529 10.8399C36.4596 10.8399 36.6063 10.7599 36.7929 10.5999C37.0329 10.3599 37.4196 10.0399 37.9529 9.63993C38.5129 9.23993 39.2196 8.87993 40.0729 8.55993C40.9529 8.23993 41.9929 8.07993 43.1929 8.07993C45.1396 8.07993 46.7396 8.55993 47.9929 9.51993C49.2463 10.4799 50.1796 11.7866 50.7929 13.4399C51.4329 15.0666 51.7529 16.9066 51.7529 18.9599C51.7529 22.3733 50.9529 25.0799 49.3529 27.0799C47.7529 29.0799 45.5129 30.0799 42.6329 30.0799C41.4063 30.0799 40.3529 29.8933 39.4729 29.5199C38.6196 29.1466 37.9129 28.7066 37.3529 28.1999C36.7929 27.6933 36.3796 27.2666 36.1129 26.9199C36.0063 26.7866 35.9129 26.7333 35.8329 26.7599C35.7529 26.7866 35.6996 26.8799 35.6729 27.0399L35.4729 29.0399C35.4196 29.4666 35.1796 29.6799 34.7529 29.6799H33.4729ZM36.1929 22.5199C36.1929 23.4799 36.4596 24.3599 36.9929 25.1599C37.5529 25.9333 38.2729 26.5466 39.1529 26.9999C40.0329 27.4533 40.9529 27.6799 41.9129 27.6799C43.1129 27.6799 44.1929 27.3866 45.1529 26.7999C46.1129 26.1866 46.8729 25.2399 47.4329 23.9599C47.9929 22.6799 48.2729 21.0399 48.2729 19.0399C48.2729 16.3199 47.7529 14.2266 46.7129 12.7599C45.6729 11.2666 44.1663 10.5199 42.1929 10.5199C40.9396 10.5199 39.7929 10.8133 38.7529 11.3999C37.7396 11.9599 36.8863 12.6533 36.1929 13.4799V22.5199ZM57.3382 29.6799C57.1516 29.6799 57.0049 29.6399 56.8982 29.5599C56.8182 29.4533 56.7782 29.3199 56.7782 29.1599V8.99993C56.7782 8.65326 56.9249 8.47993 57.2182 8.47993H59.5382C59.8316 8.47993 59.9782 8.6266 59.9782 8.91993V11.5199C59.9782 11.6799 60.0182 11.7733 60.0982 11.7999C60.1782 11.8266 60.2849 11.7733 60.4182 11.6399C61.1116 10.8133 61.7916 10.1466 62.4582 9.63993C63.1516 9.1066 63.8449 8.71993 64.5382 8.47993C65.2316 8.21326 65.9249 8.07993 66.6182 8.07993C67.5516 8.07993 68.0182 8.25326 68.0182 8.59993V10.9999C68.0182 11.2666 67.8982 11.3733 67.6582 11.3199C67.4182 11.2933 67.1382 11.2666 66.8182 11.2399C66.5249 11.2133 66.2049 11.1999 65.8582 11.1999C65.2716 11.1999 64.6449 11.3333 63.9782 11.5999C63.3116 11.8399 62.6849 12.1866 62.0982 12.6399C61.5382 13.0933 61.0716 13.5999 60.6982 14.1599C60.3249 14.7199 60.1382 15.2799 60.1382 15.8399V29.0799C60.1382 29.4799 59.9382 29.6799 59.5382 29.6799H57.3382ZM73.8229 20.3999C73.8229 21.7066 74.1296 22.9066 74.7429 23.9999C75.3829 25.0666 76.2229 25.9199 77.2629 26.5599C78.3296 27.1999 79.5163 27.5199 80.8229 27.5199C82.1563 27.5199 83.3429 27.2533 84.3829 26.7199C85.4229 26.1599 86.3163 25.3199 87.0629 24.1999C87.1696 24.0933 87.2496 24.0399 87.3029 24.0399C87.3829 24.0133 87.4896 24.0266 87.6229 24.0799L89.3029 24.9199C89.5429 25.0533 89.5696 25.2399 89.3829 25.4799C88.6629 26.5466 87.8629 27.4266 86.9829 28.1199C86.1296 28.7866 85.1696 29.2799 84.1029 29.5999C83.0363 29.9199 81.8363 30.0799 80.5029 30.0799C78.5296 30.0799 76.7829 29.6266 75.2629 28.7199C73.7429 27.8133 72.5429 26.5466 71.6629 24.9199C70.7829 23.2933 70.3429 21.4133 70.3429 19.2799C70.3429 16.9599 70.7829 14.9733 71.6629 13.3199C72.5696 11.6399 73.7829 10.3466 75.3029 9.43993C76.8496 8.53326 78.5696 8.07993 80.4629 8.07993C82.4096 8.07993 84.1029 8.5066 85.5429 9.35993C86.9829 10.2133 88.1029 11.4533 88.9029 13.0799C89.7029 14.7066 90.1029 16.6666 90.1029 18.9599C90.1029 19.1466 90.0763 19.3333 90.0229 19.5199C89.9963 19.7066 89.8229 19.7999 89.5029 19.7999H74.1829C74.0763 19.7999 73.9829 19.8666 73.9029 19.9999C73.8496 20.1066 73.8229 20.2399 73.8229 20.3999ZM86.0629 17.5999C86.3563 17.5999 86.5429 17.5733 86.6229 17.5199C86.7029 17.4399 86.7429 17.2799 86.7429 17.0399C86.7429 15.8933 86.4896 14.8266 85.9829 13.8399C85.5029 12.8266 84.7963 12.0133 83.8629 11.3999C82.9563 10.7866 81.8496 10.4799 80.5429 10.4799C79.1029 10.4799 77.8896 10.8266 76.9029 11.5199C75.9163 12.1866 75.1696 13.0666 74.6629 14.1599C74.1563 15.2533 73.9029 16.3999 73.9029 17.5999H86.0629ZM104.18 0.55993C104.18 0.186597 104.34 -7.00951e-05 104.66 -7.00951e-05H122.26C122.526 -7.00951e-05 122.66 0.146597 122.66 0.439931V2.47993C122.66 2.79993 122.486 2.95993 122.14 2.95993H108.54C108.193 2.95993 108.02 3.11993 108.02 3.43993V13.2799C108.02 13.5733 108.166 13.7199 108.46 13.7199H119.14C119.433 13.7199 119.58 13.8533 119.58 14.1199V16.2399C119.58 16.4799 119.433 16.5999 119.14 16.5999H108.46C108.166 16.5999 108.02 16.7466 108.02 17.0399V29.1599C108.02 29.5066 107.833 29.6799 107.46 29.6799H104.74C104.526 29.6799 104.38 29.6399 104.3 29.5599C104.22 29.4799 104.18 29.3333 104.18 29.1199V0.55993ZM125.737 29.6799C125.55 29.6799 125.403 29.6399 125.297 29.5599C125.217 29.4533 125.177 29.3199 125.177 29.1599V8.99993C125.177 8.65326 125.323 8.47993 125.617 8.47993H127.937C128.23 8.47993 128.377 8.6266 128.377 8.91993V11.5199C128.377 11.6799 128.417 11.7733 128.497 11.7999C128.577 11.8266 128.683 11.7733 128.817 11.6399C129.51 10.8133 130.19 10.1466 130.857 9.63993C131.55 9.1066 132.243 8.71993 132.937 8.47993C133.63 8.21326 134.323 8.07993 135.017 8.07993C135.95 8.07993 136.417 8.25326 136.417 8.59993V10.9999C136.417 11.2666 136.297 11.3733 136.057 11.3199C135.817 11.2933 135.537 11.2666 135.217 11.2399C134.923 11.2133 134.603 11.1999 134.257 11.1999C133.67 11.1999 133.043 11.3333 132.377 11.5999C131.71 11.8399 131.083 12.1866 130.497 12.6399C129.937 13.0933 129.47 13.5999 129.097 14.1599C128.723 14.7199 128.537 15.2799 128.537 15.8399V29.0799C128.537 29.4799 128.337 29.6799 127.937 29.6799H125.737ZM152.455 27.1199C151.468 28.0799 150.388 28.8133 149.215 29.3199C148.068 29.8266 146.775 30.0799 145.335 30.0799C143.255 30.0799 141.615 29.5466 140.415 28.4799C139.241 27.4133 138.655 26.0133 138.655 24.2799C138.655 22.8666 139.055 21.6533 139.855 20.6399C140.655 19.5999 141.841 18.7866 143.415 18.1999C144.988 17.5866 146.921 17.2133 149.215 17.0799L152.335 16.8399C152.495 16.8133 152.641 16.7599 152.775 16.6799C152.908 16.5999 152.975 16.4533 152.975 16.2399V15.1599C152.975 13.7199 152.521 12.5866 151.615 11.7599C150.735 10.9066 149.535 10.4799 148.015 10.4799C146.841 10.4799 145.775 10.7466 144.815 11.2799C143.881 11.8133 143.041 12.6133 142.295 13.6799C142.188 13.8133 142.095 13.9066 142.015 13.9599C141.961 13.9866 141.855 13.9733 141.695 13.9199L139.535 13.1999C139.455 13.1466 139.388 13.0799 139.335 12.9999C139.308 12.9199 139.348 12.7733 139.455 12.5599C140.255 11.1733 141.375 10.0799 142.815 9.27993C144.281 8.47993 146.068 8.07993 148.175 8.07993C149.961 8.07993 151.441 8.35993 152.615 8.91993C153.815 9.45326 154.708 10.2399 155.295 11.2799C155.908 12.2933 156.215 13.5066 156.215 14.9199V29.0799C156.215 29.3199 156.175 29.4799 156.095 29.5599C156.015 29.6399 155.881 29.6799 155.695 29.6799H153.655C153.468 29.6799 153.335 29.6266 153.255 29.5199C153.175 29.3866 153.121 29.2266 153.095 29.0399L153.055 27.1999C152.975 26.8266 152.775 26.7999 152.455 27.1199ZM152.975 19.5199C152.975 19.0666 152.788 18.8533 152.415 18.8799L149.775 19.1199C148.548 19.1733 147.455 19.3333 146.495 19.5999C145.535 19.8399 144.721 20.1599 144.055 20.5599C143.388 20.9599 142.881 21.4399 142.535 21.9999C142.188 22.5333 142.015 23.1599 142.015 23.8799C142.015 25.0533 142.415 25.9733 143.215 26.6399C144.041 27.2799 145.148 27.5999 146.535 27.5999C147.388 27.5999 148.201 27.4533 148.975 27.1599C149.775 26.8399 150.468 26.4399 151.055 25.9599C151.668 25.4533 152.135 24.9333 152.455 24.3999C152.801 23.8666 152.975 23.3466 152.975 22.8399V19.5199ZM162.729 29.6799C162.356 29.6799 162.169 29.5066 162.169 29.1599V8.99993C162.169 8.65326 162.316 8.47993 162.609 8.47993H165.009C165.302 8.47993 165.449 8.6266 165.449 8.91993V11.2399C165.449 11.3733 165.476 11.4533 165.529 11.4799C165.582 11.5066 165.676 11.4666 165.809 11.3599C166.689 10.6666 167.502 10.0799 168.249 9.59993C169.022 9.09326 169.809 8.71993 170.609 8.47993C171.409 8.21326 172.262 8.07993 173.169 8.07993C175.249 8.07993 176.836 8.63993 177.929 9.75993C179.049 10.8799 179.609 12.3333 179.609 14.1199V29.0399C179.609 29.4666 179.409 29.6799 179.009 29.6799H176.769C176.582 29.6799 176.449 29.6399 176.369 29.5599C176.289 29.4533 176.249 29.3199 176.249 29.1599V14.8799C176.249 13.5733 175.916 12.5599 175.249 11.8399C174.582 11.0933 173.529 10.7199 172.089 10.7199C171.316 10.7199 170.582 10.8533 169.889 11.1199C169.222 11.3599 168.542 11.7199 167.849 12.1999C167.156 12.6533 166.382 13.2399 165.529 13.9599V29.0799C165.529 29.4799 165.329 29.6799 164.929 29.6799H162.729ZM203.848 29.0399C203.955 29.1999 203.982 29.3466 203.928 29.4799C203.875 29.6133 203.728 29.6799 203.488 29.6799H200.688C200.528 29.6799 200.382 29.6399 200.248 29.5599C200.142 29.4799 200.048 29.3599 199.968 29.1999L193.928 18.8399C193.875 18.7333 193.808 18.6666 193.728 18.6399C193.675 18.5866 193.582 18.6266 193.448 18.7599L189.208 23.0399C189.102 23.1466 189.022 23.2666 188.968 23.3999C188.942 23.5066 188.928 23.6533 188.928 23.8399V28.9999C188.928 29.2666 188.875 29.4533 188.768 29.5599C188.688 29.6399 188.502 29.6799 188.208 29.6799H186.168C185.902 29.6799 185.728 29.6399 185.648 29.5599C185.595 29.4799 185.568 29.3333 185.568 29.1199V0.55993C185.568 0.186597 185.715 -7.00951e-05 186.008 -7.00951e-05H188.448C188.768 -7.00951e-05 188.928 0.173263 188.928 0.51993V19.0799C188.928 19.2933 188.955 19.4266 189.008 19.4799C189.062 19.5066 189.168 19.4266 189.328 19.2399L199.208 8.95993C199.502 8.63993 199.782 8.47993 200.048 8.47993H202.488C202.755 8.47993 202.902 8.55993 202.928 8.71993C202.982 8.85326 202.902 9.0266 202.688 9.23993L196.368 15.6799C196.288 15.7599 196.235 15.8533 196.208 15.9599C196.208 16.0666 196.248 16.1999 196.328 16.3599L203.848 29.0399ZM211.506 28.9999C211.506 29.2666 211.453 29.4533 211.346 29.5599C211.24 29.6399 211.053 29.6799 210.786 29.6799H208.706C208.306 29.6799 208.106 29.4933 208.106 29.1199L208.146 0.55993C208.146 0.186597 208.306 -7.00951e-05 208.626 -7.00951e-05H211.026C211.346 -7.00951e-05 211.506 0.173263 211.506 0.51993V28.9999ZM221.037 28.9999C221.037 29.2666 220.983 29.4533 220.877 29.5599C220.797 29.6399 220.61 29.6799 220.317 29.6799H218.277C218.037 29.6799 217.877 29.6399 217.797 29.5599C217.717 29.4799 217.677 29.3333 217.677 29.1199V9.03993C217.677 8.6666 217.837 8.47993 218.157 8.47993H220.597C220.89 8.47993 221.037 8.65326 221.037 8.99993V28.9999ZM221.197 3.91993C221.197 4.4266 220.957 4.67993 220.477 4.67993H218.157C217.917 4.67993 217.757 4.6266 217.677 4.51993C217.597 4.3866 217.557 4.21326 217.557 3.99993V0.639931C217.557 0.213264 217.743 -7.00951e-05 218.117 -7.00951e-05H220.637C221.01 -7.00951e-05 221.197 0.19993 221.197 0.599929V3.91993ZM227.807 29.6799C227.434 29.6799 227.247 29.5066 227.247 29.1599V8.99993C227.247 8.65326 227.394 8.47993 227.687 8.47993H230.087C230.38 8.47993 230.527 8.6266 230.527 8.91993V11.2399C230.527 11.3733 230.554 11.4533 230.607 11.4799C230.66 11.5066 230.754 11.4666 230.887 11.3599C231.767 10.6666 232.58 10.0799 233.327 9.59993C234.1 9.09326 234.887 8.71993 235.687 8.47993C236.487 8.21326 237.34 8.07993 238.247 8.07993C240.327 8.07993 241.914 8.63993 243.007 9.75993C244.127 10.8799 244.687 12.3333 244.687 14.1199V29.0399C244.687 29.4666 244.487 29.6799 244.087 29.6799H241.847C241.66 29.6799 241.527 29.6399 241.447 29.5599C241.367 29.4533 241.327 29.3199 241.327 29.1599V14.8799C241.327 13.5733 240.994 12.5599 240.327 11.8399C239.66 11.0933 238.607 10.7199 237.167 10.7199C236.394 10.7199 235.66 10.8533 234.967 11.1199C234.3 11.3599 233.62 11.7199 232.927 12.1999C232.234 12.6533 231.46 13.2399 230.607 13.9599V29.0799C230.607 29.4799 230.407 29.6799 230.007 29.6799H227.807ZM47.3007 149.68C46.7887 149.68 46.4047 149.509 46.1487 149.168C45.9781 148.741 45.9781 148.187 46.1487 147.504L79.3007 56.4959C79.5567 55.8986 79.8554 55.4719 80.1967 55.2159C80.5381 54.8746 81.0927 54.7039 81.8607 54.7039H91.8447C93.3807 54.7039 94.3621 55.3439 94.7887 56.6239L127.557 147.504C127.727 148.016 127.685 148.528 127.429 149.04C127.258 149.467 126.874 149.68 126.277 149.68H117.189C116.165 149.68 115.482 149.253 115.141 148.4L106.309 123.568C106.138 123.227 105.967 122.971 105.797 122.8C105.626 122.629 105.285 122.544 104.773 122.544H67.5247C66.7567 122.544 66.2447 122.885 65.9887 123.568L56.9007 148.528C56.8154 148.869 56.6021 149.168 56.2607 149.424C56.0047 149.595 55.5781 149.68 54.9807 149.68H47.3007ZM101.445 112.816C102.469 112.816 102.81 112.261 102.469 111.152L87.1087 69.0399C86.7674 68.2719 86.4261 67.8879 86.0847 67.8879C85.8287 67.8879 85.5727 68.2719 85.3167 69.0399L69.7007 111.408C69.2741 112.347 69.5301 112.816 70.4687 112.816H101.445ZM182.157 141.488C178.999 144.56 175.543 146.907 171.789 148.528C168.119 150.149 163.981 150.96 159.373 150.96C152.717 150.96 147.469 149.253 143.629 145.84C139.874 142.427 137.997 137.947 137.997 132.4C137.997 127.877 139.277 123.995 141.837 120.752C144.397 117.424 148.194 114.821 153.229 112.944C158.263 110.981 164.45 109.787 171.789 109.36L181.773 108.592C182.285 108.507 182.754 108.336 183.181 108.08C183.607 107.824 183.821 107.355 183.821 106.672V103.216C183.821 98.6079 182.37 94.9813 179.469 92.3359C176.653 89.6053 172.813 88.2399 167.949 88.2399C164.194 88.2399 160.781 89.0933 157.709 90.7999C154.722 92.5066 152.034 95.0666 149.645 98.4799C149.303 98.9066 149.005 99.2053 148.749 99.3759C148.578 99.4613 148.237 99.4186 147.725 99.2479L140.813 96.9439C140.557 96.7733 140.343 96.5599 140.173 96.3039C140.087 96.0479 140.215 95.5786 140.557 94.8959C143.117 90.4586 146.701 86.9599 151.309 84.3999C156.002 81.8399 161.719 80.5599 168.461 80.5599C174.178 80.5599 178.914 81.4559 182.669 83.2479C186.509 84.9546 189.367 87.4719 191.245 90.7999C193.207 94.0426 194.189 97.9253 194.189 102.448V147.76C194.189 148.528 194.061 149.04 193.805 149.296C193.549 149.552 193.122 149.68 192.525 149.68H185.997C185.399 149.68 184.973 149.509 184.717 149.168C184.461 148.741 184.29 148.229 184.205 147.632L184.077 141.744C183.821 140.549 183.181 140.464 182.157 141.488ZM183.821 117.168C183.821 115.717 183.223 115.035 182.029 115.12L173.581 115.888C169.655 116.059 166.157 116.571 163.085 117.424C160.013 118.192 157.41 119.216 155.277 120.496C153.143 121.776 151.522 123.312 150.413 125.104C149.303 126.811 148.749 128.816 148.749 131.12C148.749 134.875 150.029 137.819 152.589 139.952C155.234 142 158.775 143.024 163.213 143.024C165.943 143.024 168.546 142.555 171.021 141.616C173.581 140.592 175.799 139.312 177.677 137.776C179.639 136.155 181.133 134.491 182.157 132.784C183.266 131.077 183.821 129.413 183.821 127.792V117.168Z" fill="black"/>
</svg>
