<svg width="402" height="117" viewBox="0 0 402 117" fill="none" xmlns="http://www.w3.org/2000/svg">
<path d="M402 101C402 109.837 394.837 117 386 117H16C7.16345 117 0 109.837 0 101V53C0 44.1634 7.16344 37 16 37H150.885C158.728 37 165.109 42.9604 169.082 49.7218C175.51 60.6586 187.397 68 201 68C214.603 68 226.49 60.6586 232.918 49.7218C236.891 42.9604 243.272 37 251.115 37H386C394.837 37 402 44.1634 402 53V101Z" fill="#1E2839"/>
<path d="M357 53.2656C370.076 53.2656 380.734 63.9241 380.734 77C380.734 83.8771 377.771 90.0697 373.043 94.418L372.239 95.1562C372.07 95.2892 371.913 95.4324 371.89 95.4521C371.684 95.6238 371.47 95.7918 371.247 95.959L370.549 96.4629L370.539 96.4697C370.263 96.6667 370.249 96.6924 370.146 96.751L370.115 96.7686L370.085 96.7891C369.846 96.9443 369.62 97.0794 369.384 97.2178L368.624 97.6641C368.517 97.7264 368.404 97.7981 368.342 97.8369C368.259 97.888 368.206 97.9192 368.159 97.9424L368.148 97.9482L368.138 97.9531C367.641 98.2135 367.145 98.4495 366.651 98.6611L366.617 98.6758L366.584 98.6924C366.372 98.7984 366.232 98.8675 366.105 98.915L366.078 98.9248L366.052 98.9365C365.581 99.1383 365.14 99.2683 364.529 99.4883C364.284 99.5539 364.054 99.6401 363.884 99.7041C363.383 99.8782 362.88 99.9749 362.204 100.144C362.064 100.169 361.947 100.198 361.879 100.217C361.763 100.249 361.761 100.248 361.771 100.247L361.728 100.253L361.685 100.262C361.041 100.4 360.388 100.494 359.694 100.565L359.605 100.575L359.518 100.597C359.505 100.6 359.495 100.603 359.485 100.605C359.479 100.607 359.474 100.608 359.469 100.609H359.468L359.41 100.614C358.612 100.687 357.802 100.734 357 100.734C356.224 100.734 355.439 100.689 354.64 100.62C354.549 100.6 354.422 100.575 354.279 100.565H354.28C353.587 100.494 352.934 100.4 352.29 100.262L352.236 100.251L352.182 100.244L352.038 100.216C351.982 100.202 351.915 100.184 351.823 100.158L351.782 100.146L350.894 99.9219C350.603 99.8461 350.315 99.768 350.029 99.6846L350.006 99.6777L349.982 99.6719L349.786 99.6123C349.712 99.5867 349.626 99.5546 349.52 99.5146L349.489 99.5029L349.459 99.4941L349.071 99.3662C348.683 99.2339 348.294 99.0882 347.904 98.9287L347.887 98.9209L347.869 98.915L347.662 98.8252C347.585 98.789 347.497 98.7453 347.392 98.6924L347.349 98.6719L347.305 98.6533L346.929 98.4941C346.562 98.3319 346.209 98.1568 345.87 97.9707C345.799 97.9297 345.719 97.8828 345.626 97.8271C345.535 97.7725 345.429 97.7092 345.328 97.6514L345.308 97.6396L345.287 97.6289L344.931 97.4346C344.696 97.3028 344.467 97.1661 344.244 97.0234L343.915 96.8057C343.827 96.7429 343.746 96.6855 343.671 96.6338C343.594 96.5807 343.524 96.5326 343.451 96.4805C342.942 96.1049 342.496 95.795 342.085 95.4521L342.033 95.4092L341.978 95.3721L341.89 95.3018C341.857 95.2722 341.805 95.2254 341.696 95.1338H341.697C341.577 95.026 341.447 94.9214 341.341 94.8369V94.7959L340.935 94.4199C336.229 90.071 333.266 83.8775 333.266 77C333.266 63.9241 343.924 53.2656 357 53.2656ZM357 54.4844C344.576 54.4844 334.484 64.5759 334.484 77C334.484 83.1489 336.977 88.7392 340.999 92.8145L341.992 93.8213L342.884 92.7227C343.559 91.8897 344.364 91.1301 345.347 90.4824L345.353 90.4785C348.515 88.3704 352.738 87.2784 357.019 87.2783C361.3 87.2783 365.509 88.3699 368.645 90.4756L368.653 90.4824C369.647 91.1371 370.468 91.8956 371.104 92.7061L371.991 93.8379L373.001 92.8145C377.023 88.7392 379.516 83.1489 379.516 77C379.516 64.5759 369.424 54.4844 357 54.4844Z" fill="#758EB7" stroke="#758EB7" stroke-width="2.53182"/>
<path d="M357 65.5898C361.336 65.5898 364.881 68.9999 365.099 73.2822L365.109 73.6992C365.085 78.0889 361.656 81.6235 357.298 81.7832H356.893C352.3 81.6434 348.891 78.0719 348.891 73.6992C348.891 69.2233 352.524 65.5898 357 65.5898Z" fill="#758EB7" stroke="#758EB7" stroke-width="2.53182"/>
<path d="M262.685 55V59.8933H254V64.6841C254 72.703 256.383 77.1736 262.109 79.9533C264.237 81.0978 266.202 82.524 267.95 84.1933C269.355 85.6918 271.068 86.8674 272.971 87.6392L275.136 88.3053V94.1081H271.831C267.834 94.1081 266.489 95.0176 266.489 97.7204V99.5394H291.468V97.9126C291.468 95.2609 289.829 94.0696 286.037 94.0696H282.822V88.3053L285.025 87.652C286.931 86.8794 288.645 85.6989 290.047 84.1933C291.87 82.4555 293.911 80.9614 296.118 79.7484C297.832 78.9235 299.363 77.7625 300.62 76.3343C301.876 74.9062 302.833 73.24 303.433 71.4349C303.84 69.1998 304.029 66.9303 303.996 64.6585V59.9061H295.273V55H262.685ZM278.979 63.1598L281.605 68.5911H287.933L282.976 73.1642L284.397 79.0054L278.979 76.0976L273.56 79.0438L274.982 73.2026L270.012 68.6295H276.353L278.979 63.1598ZM258.56 64.7866H262.608V74.8807C262.185 75.1369 260.866 73.5997 259.905 71.8448C259.36 70.5012 259.01 69.0862 258.868 67.6432L258.56 64.7866ZM295.35 64.7866H299.756L299.385 67.6048C299.298 69.9507 298.354 72.1835 296.733 73.8815C296.352 74.4012 295.868 74.8372 295.311 75.1625L295.35 64.7866Z" stroke="#758EB7" stroke-width="3" stroke-linecap="round" stroke-linejoin="round"/>
<path d="M58.916 59.0146C61.7724 59.0147 64.2985 59.564 66.1924 60.4697C68.0865 61.3756 69.3452 62.6369 69.6738 64.0596L69.6719 64.0605L69.6787 64.0674C69.7892 64.1779 69.8975 64.2862 69.9512 64.3936C69.9777 64.4467 69.9898 64.4987 69.9834 64.5498C69.977 64.6009 69.9516 64.6529 69.8984 64.7061L69.8945 64.7021V89.7812C69.8944 90.2143 69.6786 90.4307 69.459 90.6504L69.458 90.6494L69.4561 90.6543C68.9085 91.9684 67.5932 93.0662 65.7539 93.835C63.9147 94.6036 61.5528 95.0429 58.916 95.043C56.1693 95.043 53.6978 94.5482 51.8037 93.6973C49.9093 92.8461 48.5942 91.6393 48.1562 90.2158H48.1582L48.1523 90.21C47.9374 89.9947 47.9375 89.7801 47.9375 89.5605V64.7178C48.0469 63.0759 49.2512 61.6504 51.2002 60.6348C53.1489 59.6193 55.8397 59.0146 58.916 59.0146ZM22.1982 66.71H25.0566C25.6016 66.71 26.1478 66.9828 26.5303 67.3926C26.9125 67.8022 27.1301 68.3469 27.0215 68.8906V93.2988C27.0214 94.17 26.3682 94.823 25.4971 94.8232H21.5391C20.6677 94.8232 20.0147 94.1702 20.0146 93.2988V68.8936C20.0148 67.5837 21.1062 66.7102 22.1982 66.71ZM31.6387 92.873H34.5254V61.1846H31.6387V92.873ZM67.7012 86.252C65.7259 87.7881 62.6515 88.6669 58.916 88.667C55.1803 88.667 52.1046 87.7879 50.1289 86.4707L50.1064 86.4561V89.3408C50.1064 89.7315 50.3437 90.1477 50.7744 90.5508C51.2054 90.9541 51.8321 91.3465 52.6162 91.6904C54.1848 92.3784 56.3858 92.873 58.916 92.873C61.4458 92.873 63.6463 92.3785 65.1875 91.6631C65.958 91.3053 66.5646 90.8917 66.9648 90.457C67.3602 90.0276 67.5549 89.5761 67.5059 89.1357H67.7246V86.2334L67.7012 86.252ZM22.1846 92.6533H25.0713V68.8789H22.1846V92.6533ZM40.8721 92.6533H43.7598V77.4541H40.8721V92.6533ZM67.9209 80.0957C65.9456 81.6319 62.8713 82.5107 59.1357 82.5107C55.4002 82.5107 52.3254 81.6315 50.3496 80.3145L50.3408 80.3271L50.3506 80.3125H50.1064V82.9648C50.1064 83.3555 50.3437 83.7717 50.7744 84.1748C51.2054 84.5782 51.8321 84.9705 52.6162 85.3145C54.1848 86.0024 56.3858 86.4971 58.916 86.4971C61.4457 86.497 63.6463 86.0579 65.2148 85.3975C65.9991 85.0672 66.6265 84.6814 67.0576 84.2676C67.484 83.8582 67.7186 83.4198 67.7236 82.9795H67.9443V80.0771L67.9209 80.0957ZM67.9209 74.3789C65.9456 75.9151 62.8714 76.7939 59.1357 76.7939C55.4004 76.7939 52.3254 75.9156 50.3496 74.5986L50.3408 74.6104L50.3506 74.5957H50.1064V76.5889C50.1064 76.9795 50.3437 77.3957 50.7744 77.7988C51.2054 78.2022 51.8321 78.5946 52.6162 78.9385C54.1848 79.6264 56.3858 80.1211 58.916 80.1211C61.4457 80.1211 63.6463 79.6819 65.2148 79.0215C65.9991 78.6913 66.6265 78.3055 67.0576 77.8916C67.484 77.4823 67.7186 77.0438 67.7236 76.6035H67.9443V74.3604L67.9209 74.3789ZM45.709 93.0791C45.7088 93.9504 45.0559 94.6035 44.1846 94.6035H40.2275C39.3562 94.6035 38.7033 93.9504 38.7031 93.0791V77.249C38.7031 75.9389 39.7946 75.0646 40.8867 75.0645H43.7451C44.4006 75.0645 44.9462 75.3379 45.3008 75.7197C45.6556 76.1018 45.8184 76.5916 45.71 77.0254H45.709V93.0791ZM67.9209 68.0029C65.9456 69.5392 62.8714 70.4179 59.1357 70.418C55.4001 70.418 52.3254 69.5388 50.3496 68.2217L50.3408 68.2344L50.3506 68.2197H50.1064V71.0928C50.1066 71.4833 50.3439 71.8988 50.7744 72.3018C51.2054 72.7051 51.8321 73.0975 52.6162 73.4414C54.1848 74.1294 56.3858 74.625 58.916 74.625C61.4458 74.625 63.6463 74.1849 65.2148 73.5244C65.9991 73.1942 66.6265 72.8084 67.0576 72.3945C67.4837 71.9854 67.7184 71.5474 67.7236 71.1074H67.9443V67.9844L67.9209 68.0029ZM58.916 61.1846C56.4956 61.1846 54.3497 61.6793 52.7812 62.3672C51.997 62.7111 51.3568 63.1036 50.8984 63.5068C50.4405 63.9097 50.1621 64.3251 50.1064 64.7148V64.7168C50.1066 65.1073 50.3439 65.5228 50.7744 65.9258C51.2054 66.3291 51.8321 66.7215 52.6162 67.0654C54.1848 67.7534 56.3858 68.249 58.916 68.249C61.4458 68.249 63.6463 67.8089 65.2148 67.1484C65.9991 66.8182 66.6265 66.4324 67.0576 66.0186C67.4884 65.6049 67.7245 65.1617 67.7246 64.7168C67.7246 64.3262 67.4882 63.9099 67.0576 63.5068C66.6266 63.1034 65.9991 62.7112 65.2148 62.3672C63.6463 61.6793 61.446 61.1846 58.916 61.1846ZM36.2549 93.5186C36.2549 94.39 35.6019 95.043 34.7305 95.043H30.7734C29.902 95.043 29.2491 94.39 29.249 93.5186V61.1982C29.2492 59.8884 30.3406 59.0148 31.4326 59.0146H34.5107C35.0565 59.0146 35.5472 59.233 35.874 59.6143C36.2007 59.9954 36.3652 60.5405 36.2559 61.1963H36.2549V93.5186Z" fill="#758EB7" stroke="#758EB7" stroke-width="0.029095"/>
<path fill-rule="evenodd" clip-rule="evenodd" d="M125.276 97.4484C137.826 97.4484 148 87.2744 148 74.7242C148 62.174 137.826 52 125.276 52C112.726 52 102.552 62.174 102.552 74.7242C102.552 87.2744 112.726 97.4484 125.276 97.4484Z" stroke="#758EB7" stroke-width="3" stroke-linecap="round" stroke-linejoin="round"/>
<path fill-rule="evenodd" clip-rule="evenodd" d="M125.276 89.1851C133.262 89.1851 139.737 82.7108 139.737 74.7243C139.737 66.7378 133.262 60.2634 125.276 60.2634C117.289 60.2634 110.815 66.7378 110.815 74.7243C110.815 82.7108 117.289 89.1851 125.276 89.1851Z" stroke="#758EB7" stroke-width="3" stroke-linecap="round" stroke-linejoin="round"/>
<path fill-rule="evenodd" clip-rule="evenodd" d="M125.276 80.9216C128.698 80.9216 131.473 78.1469 131.473 74.7241C131.473 71.3013 128.698 68.5266 125.276 68.5266C121.853 68.5266 119.078 71.3013 119.078 74.7241C119.078 78.1469 121.853 80.9216 125.276 80.9216Z" stroke="#758EB7" stroke-width="3" stroke-linecap="round" stroke-linejoin="round"/>
<path d="M125.025 75.0427L101.414 98.6543" stroke="#758EB7" stroke-width="3" stroke-linecap="round" stroke-linejoin="round"/>
<path d="M123.034 73.6201H126.447V77.0338" stroke="#758EB7" stroke-width="3" stroke-linecap="round" stroke-linejoin="round"/>
<path d="M98 98.6541H101.414V102.068" stroke="#758EB7" stroke-width="3" stroke-linecap="round" stroke-linejoin="round"/>
<path d="M201.667 94.6667H200.333C199.781 94.6667 199.333 94.2191 199.333 93.6667V90.6667C199.333 90.1144 199.781 89.6667 200.333 89.6667H201.667C202.219 89.6667 202.667 90.1144 202.667 90.6667V93.6667C202.667 94.2191 202.219 94.6667 201.667 94.6667Z" fill="#E8E9EC" stroke="#758EB7" stroke-width="3.80315" stroke-linecap="round" stroke-linejoin="round"/>
<path d="M186 82.1667L201 73L216 82.1667" stroke="#758EB7" stroke-width="3.80315" stroke-linecap="round" stroke-linejoin="round"/>
<path d="M212.667 88V98.6667C212.667 99.219 212.219 99.6667 211.667 99.6667H190.333C189.781 99.6667 189.333 99.219 189.333 98.6667V88" stroke="#758EB7" stroke-width="3.80315" stroke-linecap="round" stroke-linejoin="round"/>
<rect x="169" width="64" height="64" rx="32" fill="#2B3619"/>
<path d="M207.667 36.0015C208.583 36.0015 209.333 35.2515 209.333 34.3348V32.6681C209.333 31.7515 208.583 31.0015 207.667 31.0015C206.75 31.0015 206 31.7515 206 32.6681V34.3348C206 35.2515 206.75 36.0015 207.667 36.0015Z" fill="#D0D8C3"/>
<path d="M184.183 18.5015C186.133 18.5015 187.8 19.8015 188.317 21.5848C187.75 22.1515 187.283 22.8015 186.9 23.5015H184.483C182.1 23.5015 180.167 21.5681 180.167 19.1848V18.8515C180.167 18.6515 180.317 18.5015 180.517 18.5015H184.183Z" fill="#D0D8C3"/>
<path d="M197.667 44.3346C197.667 45.2551 196.921 46.0013 196 46.0013C195.08 46.0013 194.333 45.2551 194.333 44.3346C194.333 43.4141 195.08 42.668 196 42.668C196.921 42.668 197.667 43.4141 197.667 44.3346Z" fill="#D0D8C3"/>
<path d="M206 46.0013C206.921 46.0013 207.667 45.2551 207.667 44.3346C207.667 43.4141 206.921 42.668 206 42.668C205.08 42.668 204.333 43.4141 204.333 44.3346C204.333 45.2551 205.08 46.0013 206 46.0013Z" fill="#D0D8C3"/>
<path d="M196.248 11.1638L196.231 11.1706C195.734 11.3696 195.221 11.6217 194.716 11.971C192.612 13.363 191.282 15.3848 191.042 17.7526C190.299 16.7327 189.333 15.8942 188.216 15.3022C187.02 14.6681 185.687 14.336 184.333 14.3348H178.5C177.837 14.3348 177.201 14.5982 176.732 15.067C176.263 15.5358 176 16.1717 176 16.8348V19.3348C176 21.5449 176.878 23.6645 178.441 25.2273C179.215 26.0011 180.133 26.6149 181.144 27.0338C182.155 27.4526 183.239 27.6681 184.333 27.6681V30.1954L184.333 30.2181V41.1294C183.276 42.7906 182.7 44.7114 182.667 46.6798C182.629 49.5068 183.699 52.2364 185.647 54.2858C187.595 56.3351 190.266 57.5418 193.092 57.6481C194.12 58.7041 195.35 59.5434 196.708 60.1166C198.066 60.6896 199.526 60.9849 201 60.9849C202.474 60.9849 203.934 60.6896 205.292 60.1166C206.65 59.5434 207.88 58.7041 208.908 57.6481C211.734 57.5418 214.405 56.3351 216.353 54.2858C218.301 52.2364 219.37 49.5068 219.333 46.6798C219.301 44.7093 218.724 42.7861 217.667 41.1231V27.6681C219.877 27.6681 221.996 26.7901 223.559 25.2273C225.122 23.6645 226 21.5449 226 19.3348V16.8348C226 16.1717 225.737 15.5358 225.268 15.067C224.799 14.5982 224.163 14.3348 223.5 14.3348H217.667C216.313 14.336 214.98 14.6681 213.783 15.3022C213.255 15.5824 212.76 15.9178 212.307 16.3015C211.758 14.5674 210.597 13.0605 208.951 11.971C208.445 11.6217 207.933 11.3695 207.436 11.1705L207.418 11.1638C205.456 10.4042 203.692 12.432 204.514 14.2541L204.521 14.2679L204.527 14.2816C205.057 15.3992 205.164 16.5203 204.771 17.6681H199.198C199.153 17.4381 199.108 17.1868 199.07 16.9242C198.991 16.3794 198.944 15.8209 198.959 15.3203C198.974 14.7988 199.055 14.4613 199.139 14.2816L199.146 14.2679L199.152 14.2541C199.975 12.432 198.211 10.4042 196.248 11.1638ZM193.5 21.0014H202.667L204.967 23.3014C206.7 25.0348 209.05 26.0014 211.5 26.0014H214.278L214.298 26.1848C214.322 26.4006 214.333 26.6176 214.333 26.8348V40.1576C212.66 39.1058 210.618 38.4969 208.465 38.5029H199.333V36.2014C199.333 31.9014 197.067 27.5514 193.5 25.1681C191.72 23.9766 187.667 24.3347 187.667 24.3347L184.333 24.3348C183.007 24.3348 181.735 23.808 180.798 22.8703C179.86 21.9326 179.333 20.6608 179.333 19.3348V17.6681H184.333C185.304 17.6676 186.255 17.9499 187.068 18.4806C187.881 19.0113 188.523 19.7673 188.913 20.6564L189.588 22.1931L191.12 21.5064C191.869 21.1723 192.68 21.0003 193.5 21.0014ZM193.5 54.3348C192.506 54.3349 191.521 54.1373 190.604 53.7534C189.687 53.3694 188.855 52.8071 188.157 52.0988C187.459 51.3904 186.909 50.5504 186.539 49.6276C186.168 48.7046 185.985 47.7174 186 46.7231C186.02 45.2239 186.495 43.7661 187.362 42.5431L187.478 42.3781C189.021 40.9981 191.212 40.1276 193.669 40.1696H208.467H208.469C210.872 40.1628 213.01 41.0224 214.523 42.3748L214.638 42.5381C215.507 43.7626 215.981 45.2223 216 46.7231C216.015 47.7174 215.832 48.7046 215.462 49.6276C215.091 50.5504 214.541 51.3904 213.843 52.0988C213.145 52.8071 212.313 53.3694 211.396 53.7534C210.479 54.1373 209.494 54.3349 208.5 54.3348H193.5ZM196.214 56.0023H205.773C205.303 56.3703 204.791 56.6839 204.246 56.9358C203.226 57.4071 202.117 57.6513 200.993 57.6513C199.87 57.6513 198.76 57.4071 197.741 56.9358C197.196 56.6839 196.683 56.3703 196.214 56.0023ZM217.667 24.3348H215.479C215.369 24.0485 215.242 23.7703 215.1 23.5014H217.517C219.9 23.5014 221.833 21.5681 221.833 19.1848V18.8514C221.833 18.6514 221.683 18.5014 221.483 18.5014H217.817C215.867 18.5014 214.2 19.8014 213.683 21.5848C213.699 21.6003 213.712 21.6164 213.722 21.633C213.48 21.3895 213.221 21.162 212.948 20.952L213.078 20.6514C213.47 19.762 214.113 19.0061 214.928 18.4762C215.743 17.9464 216.695 17.6656 217.667 17.6681H222.667V19.3348C222.667 20.6608 222.14 21.9326 221.202 22.8703C220.264 23.808 218.993 24.3348 217.667 24.3348ZM192.667 34.3348V32.6681C192.667 31.7514 193.417 31.0014 194.333 31.0014C195.25 31.0014 196 31.7514 196 32.6681V34.3348C196 35.2514 195.25 36.0014 194.333 36.0014C193.417 36.0014 192.667 35.2514 192.667 34.3348Z" fill="#D0D8C3"/>
</svg>
