<svg width="410" height="123" viewBox="0 0 410 123" fill="none" xmlns="http://www.w3.org/2000/svg">
<g filter="url(#filter0_d_370_10884)">
<path d="M406 107C406 115.837 398.837 123 390 123H20C11.1634 123 4 115.837 4 107V59C4 50.1634 11.1634 43 20 43H154.885C162.728 43 169.109 48.9604 173.082 55.7218C179.51 66.6586 191.397 74 205 74C218.603 74 230.49 66.6586 236.918 55.7218C240.891 48.9604 247.272 43 255.115 43H390C398.837 43 406 50.1634 406 59V107Z" fill="#F3F9F0"/>
</g>
<path d="M205.667 102.667H204.333C203.781 102.667 203.333 102.219 203.333 101.667V98.6667C203.333 98.1144 203.781 97.6667 204.333 97.6667H205.667C206.219 97.6667 206.667 98.1144 206.667 98.6667V101.667C206.667 102.219 206.219 102.667 205.667 102.667Z" fill="#37502D" stroke="#37502D" stroke-width="3.80315" stroke-linecap="round" stroke-linejoin="round"/>
<path d="M190 90.1667L205 81L220 90.1667" stroke="#37502D" stroke-width="3.80315" stroke-linecap="round" stroke-linejoin="round"/>
<path d="M216.667 96V106.667C216.667 107.219 216.219 107.667 215.667 107.667H194.333C193.781 107.667 193.333 107.219 193.333 106.667V96" stroke="#37502D" stroke-width="3.80315" stroke-linecap="round" stroke-linejoin="round"/>
<path fill-rule="evenodd" clip-rule="evenodd" d="M129.276 103.448C141.826 103.448 152 93.2744 152 80.7242C152 68.174 141.826 58 129.276 58C116.726 58 106.552 68.174 106.552 80.7242C106.552 93.2744 116.726 103.448 129.276 103.448Z" stroke="#37502D" stroke-width="3" stroke-linecap="round" stroke-linejoin="round"/>
<path fill-rule="evenodd" clip-rule="evenodd" d="M129.276 95.1851C137.262 95.1851 143.737 88.7108 143.737 80.7243C143.737 72.7378 137.262 66.2634 129.276 66.2634C121.289 66.2634 114.815 72.7378 114.815 80.7243C114.815 88.7108 121.289 95.1851 129.276 95.1851Z" stroke="#37502D" stroke-width="3" stroke-linecap="round" stroke-linejoin="round"/>
<path fill-rule="evenodd" clip-rule="evenodd" d="M129.276 86.9216C132.698 86.9216 135.473 84.1469 135.473 80.7241C135.473 77.3013 132.698 74.5266 129.276 74.5266C125.853 74.5266 123.078 77.3013 123.078 80.7241C123.078 84.1469 125.853 86.9216 129.276 86.9216Z" stroke="#37502D" stroke-width="3" stroke-linecap="round" stroke-linejoin="round"/>
<path d="M129.025 81.0427L105.414 104.654" stroke="#37502D" stroke-width="3" stroke-linecap="round" stroke-linejoin="round"/>
<path d="M127.034 79.6201H130.447V83.0338" stroke="#37502D" stroke-width="3" stroke-linecap="round" stroke-linejoin="round"/>
<path d="M102 104.654H105.414V108.068" stroke="#37502D" stroke-width="3" stroke-linecap="round" stroke-linejoin="round"/>
<path d="M386 83C386 69.225 374.775 58 361 58C347.225 58 336 69.225 336 83C336 90.25 339.125 96.775 344.075 101.35C344.075 101.375 344.075 101.375 344.05 101.4C344.3 101.65 344.6 101.85 344.85 102.075C345 102.2 345.125 102.325 345.275 102.425C345.725 102.8 346.225 103.15 346.7 103.5C346.875 103.625 347.025 103.725 347.2 103.85C347.675 104.175 348.175 104.475 348.7 104.75C348.875 104.85 349.075 104.975 349.25 105.075C349.75 105.35 350.275 105.6 350.825 105.825C351.025 105.925 351.225 106.025 351.425 106.1C351.975 106.325 352.525 106.525 353.075 106.7C353.275 106.775 353.475 106.85 353.675 106.9C354.275 107.075 354.875 107.225 355.475 107.375C355.65 107.425 355.825 107.475 356.025 107.5C356.725 107.65 357.425 107.75 358.15 107.825C358.25 107.825 358.35 107.85 358.45 107.875C359.3 107.95 360.15 108 361 108C361.85 108 362.7 107.95 363.525 107.875C363.625 107.875 363.725 107.85 363.825 107.825C364.55 107.75 365.25 107.65 365.95 107.5C366.125 107.475 366.3 107.4 366.5 107.375C367.1 107.225 367.725 107.1 368.3 106.9C368.5 106.825 368.7 106.75 368.9 106.7C369.45 106.5 370.025 106.325 370.55 106.1C370.75 106.025 370.95 105.925 371.15 105.825C371.675 105.6 372.2 105.35 372.725 105.075C372.925 104.975 373.1 104.85 373.275 104.75C373.775 104.45 374.275 104.175 374.775 103.85C374.95 103.75 375.1 103.625 375.275 103.5C375.775 103.15 376.25 102.8 376.7 102.425C376.85 102.3 376.975 102.175 377.125 102.075C377.4 101.85 377.675 101.625 377.925 101.4C377.925 101.375 377.925 101.375 377.9 101.35C382.875 96.775 386 90.25 386 83ZM373.35 95.425C366.575 90.875 355.475 90.875 348.65 95.425C347.55 96.15 346.65 97 345.9 97.925C342.1 94.075 339.75 88.8 339.75 83C339.75 71.275 349.275 61.75 361 61.75C372.725 61.75 382.25 71.275 382.25 83C382.25 88.8 379.9 94.075 376.1 97.925C375.375 97 374.45 96.15 373.35 95.425Z" fill="#37502D"/>
<path d="M361 70.3242C355.825 70.3242 351.625 74.5242 351.625 79.6992C351.625 84.7742 355.6 88.8992 360.875 89.0492H361.1H361.275H361.325C366.375 88.8742 370.35 84.7742 370.375 79.6992C370.375 74.5242 366.175 70.3242 361 70.3242Z" fill="#37502D"/>
<path d="M267.685 61V65.8933H259V70.6841C259 78.703 261.383 83.1736 267.109 85.9533C269.237 87.0978 271.202 88.524 272.95 90.1933C274.355 91.6918 276.068 92.8674 277.971 93.6392L280.136 94.3053V100.108H276.831C272.834 100.108 271.489 101.018 271.489 103.72V105.539H296.468V103.913C296.468 101.261 294.829 100.07 291.037 100.07H287.822V94.3053L290.025 93.652C291.931 92.8794 293.645 91.6989 295.047 90.1933C296.87 88.4555 298.911 86.9614 301.118 85.7484C302.832 84.9235 304.363 83.7625 305.62 82.3343C306.876 80.9062 307.833 79.24 308.433 77.4349C308.84 75.1998 309.029 72.9303 308.996 70.6585V65.9061H300.273V61H267.685ZM283.979 69.1598L286.605 74.5911H292.933L287.976 79.1642L289.397 85.0054L283.979 82.0976L278.56 85.0438L279.982 79.2026L275.012 74.6295H281.353L283.979 69.1598ZM263.56 70.7866H267.608V80.8807C267.185 81.1369 265.866 79.5997 264.905 77.8448C264.36 76.5012 264.01 75.0862 263.868 73.6432L263.56 70.7866ZM300.35 70.7866H304.756L304.385 73.6048C304.298 75.9507 303.354 78.1835 301.733 79.8815C301.352 80.4012 300.868 80.8372 300.311 81.1625L300.35 70.7866Z" stroke="#37502D" stroke-width="3" stroke-linecap="round" stroke-linejoin="round"/>
<path d="M73.689 70.0569C73.0294 67.1986 68.6322 65.0001 62.9157 65.0001C56.7596 65.0001 52.1424 67.4185 51.9226 70.7165V95.561C51.9226 95.7808 51.9226 96.0007 52.1425 96.2206C53.022 99.0788 57.4192 101.058 62.9158 101.058C68.1925 101.058 72.3699 99.2987 73.4692 96.6603C73.6891 96.4404 73.9089 96.2206 73.9089 95.7808V70.7165C74.1288 70.4966 73.9089 70.2768 73.689 70.0569ZM62.9157 67.1986C67.9726 67.1986 71.7103 69.1774 71.7103 70.7165C71.7103 72.4754 67.9726 74.2343 62.9157 74.2343C57.8589 74.2343 54.1212 72.2555 54.1212 70.7165C54.3411 69.1774 58.0787 67.1986 62.9157 67.1986ZM54.3411 74.2342C56.3199 75.5534 59.3979 76.4329 63.1356 76.4329C66.8733 76.4329 69.9514 75.5534 71.9302 74.0144V77.0925H71.7103C71.7103 78.8514 67.9726 80.6103 62.9157 80.6103C57.8589 80.6103 54.1212 78.6315 54.1212 77.0925V74.2342H54.3411ZM54.3411 80.6103C56.3199 81.9295 59.3979 82.809 63.1356 82.809C66.8733 82.809 69.9514 81.9295 71.9302 80.3905V82.5891H71.7103C71.7103 84.348 67.9726 86.1069 62.9157 86.1069C57.8589 86.1069 54.1212 84.1282 54.1212 82.5891V80.6104L54.3411 80.6103ZM54.3411 86.3267C56.3199 87.6459 59.3979 88.5254 63.1356 88.5254C66.8733 88.5254 69.9514 87.6459 71.9302 86.1069V88.9651H71.7103C71.7103 90.724 67.9726 92.483 62.9157 92.483C57.8589 92.483 54.1212 90.5042 54.1212 88.9651V86.3268L54.3411 86.3267ZM62.9157 98.8589C57.8589 98.8589 54.1212 96.8801 54.1212 95.3411V92.4829C56.1 93.802 59.178 94.6815 62.9157 94.6815C66.6534 94.6815 69.7315 93.802 71.7103 92.263V95.1213H71.4904C71.7103 96.8801 67.9726 98.8589 62.9157 98.8589ZM29.0569 72.6952H26.1986C25.0993 72.6952 24 73.5747 24 74.8939V99.2987C24 100.178 24.6596 100.838 25.5391 100.838H29.4966C30.3761 100.838 31.0356 100.178 31.0356 99.2987V74.8939C31.2555 73.7946 30.1562 72.6952 29.0569 72.6952ZM29.0569 98.639H26.1986V74.8938H29.0569V98.639ZM38.511 65H35.4329C34.3336 65 33.2342 65.8795 33.2342 67.1986V99.5185C33.2342 100.398 33.8938 101.058 34.7733 101.058H38.7308C39.6103 101.058 40.2699 100.398 40.2699 99.5185V67.1986C40.4898 65.8795 39.6103 65 38.511 65ZM38.2911 98.8589H35.6528V67.1986H38.511V98.8589H38.2911ZM47.7452 81.05H44.887C43.7877 81.05 42.6883 81.9295 42.6883 83.2487V99.0788C42.6883 99.9583 43.3479 100.618 44.2274 100.618H48.1849C49.0644 100.618 49.724 99.9583 49.724 99.0788V83.0288C49.9438 82.1493 49.0644 81.05 47.7452 81.05ZM47.7452 98.639H44.887V83.4685H47.7452V98.639Z" fill="#37502D"/>
<g filter="url(#filter1_d_370_10884)">
<rect x="173" y="6" width="64" height="64" rx="32" fill="#C6E1BB"/>
</g>
<path d="M211.667 42.0015C212.583 42.0015 213.333 41.2515 213.333 40.3348V38.6681C213.333 37.7515 212.583 37.0015 211.667 37.0015C210.75 37.0015 210 37.7515 210 38.6681V40.3348C210 41.2515 210.75 42.0015 211.667 42.0015Z" fill="#526F53"/>
<path d="M188.183 24.5015C190.133 24.5015 191.8 25.8015 192.317 27.5848C191.75 28.1515 191.283 28.8015 190.9 29.5015H188.483C186.1 29.5015 184.167 27.5681 184.167 25.1848V24.8515C184.167 24.6515 184.317 24.5015 184.517 24.5015H188.183Z" fill="#526F53"/>
<path d="M201.667 50.3346C201.667 51.2551 200.921 52.0013 200 52.0013C199.08 52.0013 198.333 51.2551 198.333 50.3346C198.333 49.4141 199.08 48.668 200 48.668C200.921 48.668 201.667 49.4141 201.667 50.3346Z" fill="#526F53"/>
<path d="M210 52.0013C210.921 52.0013 211.667 51.2551 211.667 50.3346C211.667 49.4141 210.921 48.668 210 48.668C209.08 48.668 208.333 49.4141 208.333 50.3346C208.333 51.2551 209.08 52.0013 210 52.0013Z" fill="#526F53"/>
<path d="M200.248 17.1638L200.231 17.1706C199.734 17.3696 199.221 17.6217 198.716 17.971C196.612 19.363 195.282 21.3848 195.042 23.7526C194.299 22.7327 193.333 21.8942 192.216 21.3022C191.02 20.6681 189.687 20.336 188.333 20.3348H182.5C181.837 20.3348 181.201 20.5982 180.732 21.067C180.263 21.5358 180 22.1717 180 22.8348V25.3348C180 27.5449 180.878 29.6645 182.441 31.2273C183.215 32.0011 184.133 32.6149 185.144 33.0338C186.155 33.4526 187.239 33.6681 188.333 33.6681V36.1954L188.333 36.2181V47.1294C187.276 48.7906 186.7 50.7114 186.667 52.6798C186.629 55.5068 187.699 58.2364 189.647 60.2858C191.595 62.3351 194.266 63.5418 197.092 63.6481C198.12 64.7041 199.35 65.5434 200.708 66.1166C202.066 66.6896 203.526 66.9849 205 66.9849C206.474 66.9849 207.934 66.6896 209.292 66.1166C210.65 65.5434 211.88 64.7041 212.908 63.6481C215.734 63.5418 218.405 62.3351 220.353 60.2858C222.301 58.2364 223.37 55.5068 223.333 52.6798C223.301 50.7093 222.724 48.7861 221.667 47.1231V33.6681C223.877 33.6681 225.996 32.7901 227.559 31.2273C229.122 29.6645 230 27.5449 230 25.3348V22.8348C230 22.1717 229.737 21.5358 229.268 21.067C228.799 20.5982 228.163 20.3348 227.5 20.3348H221.667C220.313 20.336 218.98 20.6681 217.783 21.3022C217.255 21.5824 216.76 21.9178 216.307 22.3015C215.758 20.5674 214.597 19.0605 212.951 17.971C212.445 17.6217 211.933 17.3695 211.436 17.1705L211.418 17.1638C209.456 16.4042 207.692 18.432 208.514 20.2541L208.521 20.2679L208.527 20.2816C209.057 21.3992 209.164 22.5203 208.771 23.6681H203.198C203.153 23.4381 203.108 23.1868 203.07 22.9242C202.991 22.3794 202.944 21.8209 202.959 21.3203C202.974 20.7988 203.055 20.4613 203.139 20.2816L203.146 20.2679L203.152 20.2541C203.975 18.432 202.211 16.4042 200.248 17.1638ZM197.5 27.0014H206.667L208.967 29.3014C210.7 31.0348 213.05 32.0014 215.5 32.0014H218.278L218.298 32.1848C218.322 32.4006 218.333 32.6176 218.333 32.8348V46.1576C216.66 45.1058 214.618 44.4969 212.465 44.5029H203.333V42.2014C203.333 37.9014 201.067 33.5514 197.5 31.1681C195.72 29.9766 191.667 30.3347 191.667 30.3347L188.333 30.3348C187.007 30.3348 185.735 29.808 184.798 28.8703C183.86 27.9326 183.333 26.6608 183.333 25.3348V23.6681H188.333C189.304 23.6676 190.255 23.9499 191.068 24.4806C191.881 25.0113 192.523 25.7673 192.913 26.6564L193.588 28.1931L195.12 27.5064C195.869 27.1723 196.68 27.0003 197.5 27.0014ZM197.5 60.3348C196.506 60.3349 195.521 60.1373 194.604 59.7534C193.687 59.3694 192.855 58.8071 192.157 58.0988C191.459 57.3904 190.909 56.5504 190.539 55.6276C190.168 54.7046 189.985 53.7174 190 52.7231C190.02 51.2239 190.495 49.7661 191.362 48.5431L191.478 48.3781C193.021 46.9981 195.212 46.1276 197.669 46.1696H212.467H212.469C214.872 46.1628 217.01 47.0224 218.523 48.3748L218.638 48.5381C219.507 49.7626 219.981 51.2223 220 52.7231C220.015 53.7174 219.832 54.7046 219.462 55.6276C219.091 56.5504 218.541 57.3904 217.843 58.0988C217.145 58.8071 216.313 59.3694 215.396 59.7534C214.479 60.1373 213.494 60.3349 212.5 60.3348H197.5ZM200.214 62.0023H209.773C209.303 62.3703 208.791 62.6839 208.246 62.9358C207.226 63.4071 206.117 63.6513 204.993 63.6513C203.87 63.6513 202.76 63.4071 201.741 62.9358C201.196 62.6839 200.683 62.3703 200.214 62.0023ZM221.667 30.3348H219.479C219.369 30.0485 219.242 29.7703 219.1 29.5014H221.517C223.9 29.5014 225.833 27.5681 225.833 25.1848V24.8514C225.833 24.6514 225.683 24.5014 225.483 24.5014H221.817C219.867 24.5014 218.2 25.8014 217.683 27.5848C217.699 27.6003 217.712 27.6164 217.722 27.633C217.48 27.3895 217.221 27.162 216.948 26.952L217.078 26.6514C217.47 25.762 218.113 25.0061 218.928 24.4762C219.743 23.9464 220.695 23.6656 221.667 23.6681H226.667V25.3348C226.667 26.6608 226.14 27.9326 225.202 28.8703C224.264 29.808 222.993 30.3348 221.667 30.3348ZM196.667 40.3348V38.6681C196.667 37.7514 197.417 37.0014 198.333 37.0014C199.25 37.0014 200 37.7514 200 38.6681V40.3348C200 41.2514 199.25 42.0014 198.333 42.0014C197.417 42.0014 196.667 41.2514 196.667 40.3348Z" fill="#526F53"/>
<defs>
<filter id="filter0_d_370_10884" x="0" y="35" width="410" height="88" filterUnits="userSpaceOnUse" color-interpolation-filters="sRGB">
<feFlood flood-opacity="0" result="BackgroundImageFix"/>
<feColorMatrix in="SourceAlpha" type="matrix" values="0 0 0 0 0 0 0 0 0 0 0 0 0 0 0 0 0 0 127 0" result="hardAlpha"/>
<feOffset dy="-4"/>
<feGaussianBlur stdDeviation="2"/>
<feComposite in2="hardAlpha" operator="out"/>
<feColorMatrix type="matrix" values="0 0 0 0 0 0 0 0 0 0 0 0 0 0 0 0 0 0 0.25 0"/>
<feBlend mode="normal" in2="BackgroundImageFix" result="effect1_dropShadow_370_10884"/>
<feBlend mode="normal" in="SourceGraphic" in2="effect1_dropShadow_370_10884" result="shape"/>
</filter>
<filter id="filter1_d_370_10884" x="169" y="0" width="72" height="72" filterUnits="userSpaceOnUse" color-interpolation-filters="sRGB">
<feFlood flood-opacity="0" result="BackgroundImageFix"/>
<feColorMatrix in="SourceAlpha" type="matrix" values="0 0 0 0 0 0 0 0 0 0 0 0 0 0 0 0 0 0 127 0" result="hardAlpha"/>
<feOffset dy="-2"/>
<feGaussianBlur stdDeviation="2"/>
<feComposite in2="hardAlpha" operator="out"/>
<feColorMatrix type="matrix" values="0 0 0 0 0 0 0 0 0 0 0 0 0 0 0 0 0 0 0.25 0"/>
<feBlend mode="normal" in2="BackgroundImageFix" result="effect1_dropShadow_370_10884"/>
<feBlend mode="normal" in="SourceGraphic" in2="effect1_dropShadow_370_10884" result="shape"/>
</filter>
</defs>
</svg>
