<svg width="188" height="150" viewBox="0 0 188 150" fill="none" xmlns="http://www.w3.org/2000/svg">
<path d="M20.52 14.52C21.72 15.32 22.5333 16.3467 22.96 17.6C23.3866 18.8267 23.4933 20.0933 23.28 21.4C23.0933 22.7067 22.6133 23.9333 21.84 25.08C21.0666 26.2267 20.08 27.1067 18.88 27.72C18 28.04 17.1066 28.2533 16.2 28.36C15.32 28.44 14.4266 28.48 13.52 28.48C12.64 28.48 11.7333 28.4533 10.8 28.4C9.89329 28.3467 8.95996 28.3467 7.99996 28.4H1.59996C1.22663 28.4 0.919961 28.2533 0.679961 27.96C0.466628 27.6667 0.359961 27.32 0.359961 26.92C0.306628 25.5867 0.279961 24.3067 0.279961 23.08C0.306628 21.8533 0.333294 20.6267 0.359961 19.4C0.386628 18.1733 0.399961 16.9467 0.399961 15.72C0.426628 14.4667 0.413294 13.1733 0.359961 11.84C0.359961 11.2 0.346628 10.7067 0.319961 10.36C0.293294 9.98665 0.266628 9.63998 0.239961 9.31998C0.239961 8.99998 0.226628 8.66665 0.199961 8.31998C0.173294 7.94665 0.159961 7.43998 0.159961 6.79998C0.239961 6.31998 0.226628 5.71998 0.119961 4.99998C0.039961 4.27998 -3.89516e-05 3.58665 -3.89516e-05 2.91998C-3.89516e-05 2.25332 0.0932944 1.69332 0.279961 1.23998C0.493294 0.759984 0.933294 0.546651 1.59996 0.599985C2.69329 0.546651 3.70663 0.506651 4.63996 0.479984C5.59996 0.42665 6.53329 0.38665 7.43996 0.359983C8.34663 0.333317 9.26663 0.319984 10.2 0.319984C11.16 0.293318 12.1866 0.279984 13.28 0.279984C14.8 0.359983 16.2666 0.679983 17.68 1.23998C19.12 1.79998 20.2933 2.63999 21.2 3.75998C21.6 4.39998 21.88 5.13332 22.04 5.95999C22.2266 6.75998 22.28 7.57332 22.2 8.39998C22.12 9.22665 21.9066 10.0267 21.56 10.8C21.24 11.5467 20.7866 12.1867 20.2 12.72C19.9333 13.0133 19.84 13.3333 19.92 13.68C20 14 20.2 14.28 20.52 14.52ZM6.19996 7.75998C6.19996 8.10665 6.18663 8.47998 6.15996 8.87998C6.15996 9.27998 6.21329 9.65332 6.31996 9.99998C6.42663 10.32 6.58663 10.6 6.79996 10.84C7.03996 11.0533 7.39996 11.16 7.87996 11.16C8.54663 11.08 9.27996 11.0933 10.08 11.2C10.88 11.3067 11.6666 11.36 12.44 11.36C13.2933 11.36 14.0266 11.1867 14.64 10.84C15.28 10.4933 15.6533 9.75998 15.76 8.63998C15.76 8.10665 15.6666 7.67998 15.48 7.35998C15.32 7.01332 15.0933 6.74665 14.8 6.55998C14.5066 6.34665 14.1733 6.21332 13.8 6.15999C13.4533 6.07998 13.0933 6.03998 12.72 6.03998C12.1066 6.14665 11.4266 6.13332 10.68 5.99998C9.95996 5.86665 9.26663 5.79998 8.59996 5.79998C7.98663 5.79998 7.45329 5.93332 6.99996 6.19998C6.57329 6.43998 6.30663 6.95998 6.19996 7.75998ZM13.84 22.64C14.56 22.6933 15.16 22.5867 15.64 22.32C16.12 22.0533 16.48 21.7067 16.72 21.28C16.96 20.8267 17.08 20.3333 17.08 19.8C17.08 19.2667 16.96 18.7867 16.72 18.36C16.48 17.9067 16.12 17.5467 15.64 17.28C15.16 17.0133 14.56 16.92 13.84 17C13.0933 17 12.5066 17 12.08 17C11.6533 16.9733 11.2533 16.9467 10.88 16.92C10.5066 16.8933 10.0933 16.88 9.63996 16.88C9.2133 16.8533 8.62663 16.84 7.87996 16.84C7.39996 16.84 7.02663 17.0267 6.75996 17.4C6.51996 17.7467 6.39996 18.16 6.39996 18.64C6.34663 19.04 6.29329 19.48 6.23996 19.96C6.18663 20.4133 6.18663 20.8533 6.23996 21.28C6.29329 21.68 6.43996 22.04 6.67996 22.36C6.91996 22.6533 7.31996 22.8267 7.87996 22.88C8.62663 22.88 9.2133 22.8667 9.63996 22.84C10.0933 22.8133 10.5066 22.7867 10.88 22.76C11.2533 22.7333 11.6533 22.7067 12.08 22.68C12.5066 22.6533 13.0933 22.64 13.84 22.64ZM46.0843 0.599985C46.4577 0.599985 46.7777 0.706651 47.0443 0.919983C47.311 1.10665 47.4443 1.39998 47.4443 1.79998C47.4443 2.14665 47.4443 2.42665 47.4443 2.63999C47.471 2.82665 47.4843 3.01332 47.4843 3.19999C47.4843 3.38665 47.4843 3.58665 47.4843 3.79998C47.511 3.98665 47.5243 4.26665 47.5243 4.63998C47.471 5.22665 47.2177 5.61332 46.7643 5.79998C46.311 5.98665 45.7643 6.07998 45.1243 6.07998C44.7243 6.07998 44.2977 6.05332 43.8443 5.99998C43.391 5.94665 42.9377 5.90665 42.4843 5.87998C42.0577 5.82665 41.6443 5.78665 41.2443 5.75999C40.871 5.73332 40.5377 5.74665 40.2443 5.79998H38.5243H36.1643H34.4443C33.9643 5.79998 33.5643 6.01332 33.2443 6.43998C32.9243 6.86665 32.7643 7.31999 32.7643 7.79999C32.711 8.19999 32.671 8.61332 32.6443 9.03998C32.6177 9.43998 32.6443 9.82665 32.7243 10.2C32.8043 10.5467 32.9777 10.84 33.2443 11.08C33.511 11.2933 33.911 11.4133 34.4443 11.44C35.4577 11.4133 36.391 11.4 37.2443 11.4C38.1243 11.4 38.9777 11.4 39.8043 11.4C40.6577 11.4 41.5243 11.4133 42.4043 11.44C43.2843 11.44 44.2177 11.44 45.2043 11.44C45.6043 11.4667 45.911 11.6133 46.1243 11.88C46.3643 12.1467 46.4843 12.48 46.4843 12.88C46.4843 13.2267 46.471 13.52 46.4443 13.76C46.4443 13.9733 46.4443 14.1733 46.4443 14.36C46.4443 14.52 46.431 14.7067 46.4043 14.92C46.4043 15.1333 46.4043 15.4267 46.4043 15.8C46.4043 16.1733 46.2977 16.4933 46.0843 16.76C45.8977 17 45.6043 17.12 45.2043 17.12C44.271 17.0667 43.4043 17.0267 42.6043 17C41.8043 16.9733 41.0177 16.96 40.2443 16.96C39.311 16.96 38.391 16.9867 37.4843 17.04C36.5777 17.0667 35.5643 17.12 34.4443 17.2C33.8577 17.2533 33.431 17.4 33.1643 17.64C32.9243 17.88 32.7643 18.1733 32.6843 18.52C32.631 18.8667 32.631 19.2533 32.6843 19.68C32.7643 20.1067 32.8443 20.52 32.9243 20.92C32.9243 21.4 33.0577 21.7867 33.3243 22.08C33.591 22.3467 33.9643 22.48 34.4443 22.48C35.4577 22.5333 36.4043 22.5733 37.2843 22.6C38.1643 22.6267 39.031 22.64 39.8843 22.64C40.871 22.64 41.8577 22.6267 42.8443 22.6C43.831 22.5467 44.911 22.48 46.0843 22.4C46.511 22.3733 46.8177 22.52 47.0043 22.84C47.191 23.16 47.2977 23.56 47.3243 24.04C47.3777 24.52 47.3777 25.0267 47.3243 25.56C47.271 26.0667 47.2443 26.52 47.2443 26.92C47.2177 27.5333 46.9777 27.9467 46.5243 28.16C46.0977 28.3467 45.551 28.44 44.8843 28.44C44.4843 28.44 44.071 28.4133 43.6443 28.36C43.2177 28.3333 42.791 28.3067 42.3643 28.28C41.9377 28.2267 41.5243 28.2 41.1243 28.2C40.751 28.1733 40.4043 28.1867 40.0843 28.24C39.3377 28.24 38.7377 28.2533 38.2843 28.28C37.8577 28.3067 37.4577 28.3333 37.0843 28.36C36.711 28.36 36.311 28.3733 35.8843 28.4C35.4577 28.4267 34.871 28.44 34.1243 28.44C33.5377 28.3333 32.8043 28.3333 31.9243 28.44C31.0443 28.5733 30.191 28.64 29.3643 28.64C28.6443 28.64 28.0177 28.5333 27.4843 28.32C26.9777 28.08 26.6977 27.6133 26.6443 26.92C26.6977 25.9867 26.7243 25.12 26.7243 24.32C26.7243 23.4933 26.711 22.6933 26.6843 21.92C26.6843 21.12 26.6577 20.32 26.6043 19.52C26.5777 18.6933 26.5377 17.8133 26.4843 16.88C26.5377 15.9467 26.5777 15.08 26.6043 14.28C26.6577 13.4533 26.6977 12.64 26.7243 11.84C26.7777 11.04 26.8177 10.24 26.8443 9.43998C26.8977 8.61332 26.9377 7.73332 26.9643 6.79998C27.0443 6.39998 27.0443 5.83998 26.9643 5.11998C26.911 4.39998 26.8843 3.69332 26.8843 2.99999C26.8843 2.27998 26.9643 1.66665 27.1243 1.15999C27.2843 0.653317 27.6177 0.42665 28.1243 0.479984C29.751 0.42665 31.311 0.38665 32.8043 0.359983C34.3243 0.306651 35.8443 0.279984 37.3643 0.279984C38.8043 0.279984 40.231 0.306651 41.6443 0.359983C43.0843 0.38665 44.5643 0.46665 46.0843 0.599985ZM73.1012 0.0799847C73.5012 0.0799847 73.8079 0.253318 74.0212 0.599985C74.2612 0.919984 74.3812 1.26665 74.3812 1.63998C74.3812 2.27998 74.3945 2.78665 74.4212 3.15998C74.4745 3.50665 74.5279 3.83998 74.5812 4.15998C74.6345 4.47998 74.6745 4.82665 74.7012 5.19998C74.7545 5.54665 74.7812 6.03998 74.7812 6.67998C74.7812 7.31998 74.7679 7.82665 74.7412 8.19999C74.7145 8.54665 74.6879 8.87998 74.6612 9.19998C74.6345 9.51998 74.6079 9.86665 74.5812 10.24C74.5545 10.5867 74.5412 11.08 74.5412 11.72C74.5679 12.6533 74.5812 13.5333 74.5812 14.36C74.5812 15.16 74.5812 15.96 74.5812 16.76C74.5812 17.5333 74.5679 18.3333 74.5412 19.16C74.5412 19.96 74.5279 20.8267 74.5012 21.76C74.5012 22.4 74.4879 22.9067 74.4612 23.28C74.4612 23.6267 74.4612 23.96 74.4612 24.28C74.4612 24.6 74.4479 24.9467 74.4212 25.32C74.4212 25.6667 74.4212 26.16 74.4212 26.8C74.4212 27.2 74.3012 27.5467 74.0612 27.84C73.8212 28.1333 73.5012 28.28 73.1012 28.28C72.6745 28.28 72.3279 28.2933 72.0612 28.32C71.8212 28.32 71.5945 28.3333 71.3812 28.36C71.1679 28.3867 70.9279 28.4 70.6612 28.4C70.4212 28.4267 70.0745 28.44 69.6212 28.44C68.9012 28.3067 68.3145 28.04 67.8612 27.64C67.4345 27.24 67.0612 26.7733 66.7412 26.24C66.4212 25.7067 66.1145 25.1467 65.8212 24.56C65.5545 23.9733 65.2079 23.4267 64.7812 22.92C63.8479 21.3467 62.9812 19.7733 62.1812 18.2C61.4079 16.6267 60.5012 15.08 59.4612 13.56C59.1412 13.08 58.7279 12.84 58.2212 12.84C57.8479 12.84 57.5279 12.96 57.2612 13.2C56.9945 13.44 56.8612 13.7733 56.8612 14.2C56.8612 14.92 56.8612 15.5467 56.8612 16.08C56.8612 16.6133 56.8612 17.1333 56.8612 17.64C56.8879 18.1467 56.9012 18.6667 56.9012 19.2C56.9012 19.7333 56.9012 20.36 56.9012 21.08C56.8479 21.4267 56.8345 21.8533 56.8612 22.36C56.9145 22.84 56.9679 23.36 57.0212 23.92C57.1012 24.4533 57.1545 25 57.1812 25.56C57.2079 26.0933 57.1812 26.5733 57.1012 27C57.0479 27.4 56.9012 27.7333 56.6612 28C56.4212 28.2667 56.0612 28.3867 55.5812 28.36C55.1812 28.36 54.8612 28.36 54.6212 28.36C54.4079 28.3867 54.2079 28.4 54.0212 28.4C53.8345 28.4 53.6212 28.4 53.3812 28.4C53.1679 28.4267 52.8612 28.44 52.4612 28.44C51.7679 28.28 51.3145 27.9467 51.1012 27.44C50.9145 26.9333 50.8345 26.3467 50.8612 25.68C50.9145 25.0133 50.9945 24.3333 51.1012 23.64C51.2079 22.92 51.2212 22.2933 51.1412 21.76C51.1945 20.4267 51.2212 19.1467 51.2212 17.92C51.2212 16.6667 51.2079 15.44 51.1812 14.24C51.1545 13.0133 51.1145 11.7733 51.0612 10.52C51.0345 9.26665 51.0079 7.98665 50.9812 6.67998C51.0612 6.17332 51.0479 5.55998 50.9412 4.83999C50.8345 4.11999 50.7679 3.43998 50.7412 2.79998C50.7412 2.13332 50.8479 1.57332 51.0612 1.11998C51.2745 0.639983 51.7412 0.38665 52.4612 0.359983C52.9145 0.439984 53.4345 0.466651 54.0212 0.439985C54.6079 0.413317 55.1945 0.413317 55.7812 0.439985C56.3679 0.466651 56.9145 0.546651 57.4212 0.679984C57.9279 0.786651 58.3412 1.01332 58.6612 1.35998C59.8079 3.67999 60.9679 5.97332 62.1412 8.23998C63.3412 10.5067 64.6612 12.72 66.1012 14.88C66.4212 15.36 66.8345 15.6 67.3412 15.6C67.6612 15.6 67.9412 15.4933 68.1812 15.28C68.4479 15.04 68.5812 14.6933 68.5812 14.24C68.5012 12.1067 68.4345 10.0133 68.3812 7.95998C68.3279 5.90665 68.3279 3.79998 68.3812 1.63998C68.3812 1.26665 68.5012 0.933317 68.7412 0.639985C68.9812 0.34665 69.3945 0.199983 69.9812 0.199983C70.3812 0.199983 70.6879 0.199983 70.9012 0.199983C71.1412 0.173317 71.3545 0.159984 71.5412 0.159984C71.7279 0.133317 71.9279 0.119984 72.1412 0.119984C72.3812 0.0933178 72.7012 0.0799847 73.1012 0.0799847ZM101.187 0.0799847C101.587 0.0799847 101.894 0.253318 102.107 0.599985C102.347 0.919984 102.467 1.26665 102.467 1.63998C102.467 2.27998 102.48 2.78665 102.507 3.15998C102.56 3.50665 102.614 3.83998 102.667 4.15998C102.72 4.47998 102.76 4.82665 102.787 5.19998C102.84 5.54665 102.867 6.03998 102.867 6.67998C102.867 7.31998 102.854 7.82665 102.827 8.19999C102.8 8.54665 102.774 8.87998 102.747 9.19998C102.72 9.51998 102.694 9.86665 102.667 10.24C102.64 10.5867 102.627 11.08 102.627 11.72C102.654 12.6533 102.667 13.5333 102.667 14.36C102.667 15.16 102.667 15.96 102.667 16.76C102.667 17.5333 102.654 18.3333 102.627 19.16C102.627 19.96 102.614 20.8267 102.587 21.76C102.587 22.4 102.574 22.9067 102.547 23.28C102.547 23.6267 102.547 23.96 102.547 24.28C102.547 24.6 102.534 24.9467 102.507 25.32C102.507 25.6667 102.507 26.16 102.507 26.8C102.507 27.2 102.387 27.5467 102.147 27.84C101.907 28.1333 101.587 28.28 101.187 28.28C100.76 28.28 100.414 28.2933 100.147 28.32C99.9071 28.32 99.6805 28.3333 99.4672 28.36C99.2538 28.3867 99.0138 28.4 98.7471 28.4C98.5071 28.4267 98.1605 28.44 97.7071 28.44C96.9871 28.3067 96.4005 28.04 95.9471 27.64C95.5205 27.24 95.1471 26.7733 94.8271 26.24C94.5071 25.7067 94.2005 25.1467 93.9071 24.56C93.6405 23.9733 93.2938 23.4267 92.8671 22.92C91.9338 21.3467 91.0671 19.7733 90.2671 18.2C89.4938 16.6267 88.5871 15.08 87.5471 13.56C87.2271 13.08 86.8138 12.84 86.3071 12.84C85.9338 12.84 85.6138 12.96 85.3471 13.2C85.0805 13.44 84.9471 13.7733 84.9471 14.2C84.9471 14.92 84.9471 15.5467 84.9471 16.08C84.9471 16.6133 84.9471 17.1333 84.9471 17.64C84.9738 18.1467 84.9871 18.6667 84.9871 19.2C84.9871 19.7333 84.9871 20.36 84.9871 21.08C84.9338 21.4267 84.9205 21.8533 84.9471 22.36C85.0005 22.84 85.0538 23.36 85.1071 23.92C85.1871 24.4533 85.2405 25 85.2671 25.56C85.2938 26.0933 85.2671 26.5733 85.1871 27C85.1338 27.4 84.9871 27.7333 84.7471 28C84.5071 28.2667 84.1471 28.3867 83.6671 28.36C83.2671 28.36 82.9471 28.36 82.7071 28.36C82.4938 28.3867 82.2938 28.4 82.1071 28.4C81.9205 28.4 81.7071 28.4 81.4671 28.4C81.2538 28.4267 80.9471 28.44 80.5471 28.44C79.8538 28.28 79.4005 27.9467 79.1871 27.44C79.0005 26.9333 78.9205 26.3467 78.9471 25.68C79.0005 25.0133 79.0805 24.3333 79.1871 23.64C79.2938 22.92 79.3071 22.2933 79.2271 21.76C79.2805 20.4267 79.3071 19.1467 79.3071 17.92C79.3071 16.6667 79.2938 15.44 79.2671 14.24C79.2405 13.0133 79.2005 11.7733 79.1471 10.52C79.1205 9.26665 79.0938 7.98665 79.0671 6.67998C79.1471 6.17332 79.1338 5.55998 79.0271 4.83999C78.9205 4.11999 78.8538 3.43998 78.8271 2.79998C78.8271 2.13332 78.9338 1.57332 79.1471 1.11998C79.3605 0.639983 79.8271 0.38665 80.5471 0.359983C81.0005 0.439984 81.5205 0.466651 82.1071 0.439985C82.6938 0.413317 83.2805 0.413317 83.8671 0.439985C84.4538 0.466651 85.0005 0.546651 85.5071 0.679984C86.0138 0.786651 86.4271 1.01332 86.7471 1.35998C87.8938 3.67999 89.0538 5.97332 90.2271 8.23998C91.4271 10.5067 92.7471 12.72 94.1871 14.88C94.5071 15.36 94.9205 15.6 95.4271 15.6C95.7471 15.6 96.0271 15.4933 96.2671 15.28C96.5338 15.04 96.6671 14.6933 96.6671 14.24C96.5871 12.1067 96.5205 10.0133 96.4671 7.95998C96.4138 5.90665 96.4138 3.79998 96.4671 1.63998C96.4671 1.26665 96.5871 0.933317 96.8271 0.639985C97.0671 0.34665 97.4805 0.199983 98.0671 0.199983C98.4671 0.199983 98.7738 0.199983 98.9871 0.199983C99.2271 0.173317 99.4405 0.159984 99.6272 0.159984C99.8138 0.133317 100.014 0.119984 100.227 0.119984C100.467 0.0933178 100.787 0.0799847 101.187 0.0799847ZM111.633 0.399983C112.326 0.399983 112.766 0.639983 112.953 1.11998C113.14 1.59998 113.22 2.17332 113.193 2.83998C113.166 3.50665 113.1 4.19998 112.993 4.91998C112.886 5.61332 112.873 6.19998 112.953 6.67998C113.14 10.12 113.18 13.4667 113.073 16.72C112.993 19.9733 112.94 23.3333 112.913 26.8C112.913 27.2 112.793 27.5733 112.553 27.92C112.34 28.24 112.033 28.4 111.633 28.4C111.233 28.4 110.913 28.3867 110.673 28.36C110.46 28.36 110.246 28.36 110.033 28.36C109.846 28.3333 109.633 28.32 109.393 28.32C109.18 28.2933 108.873 28.28 108.473 28.28C107.886 28.28 107.486 28.0267 107.273 27.52C107.086 27.0133 106.98 26.4133 106.953 25.72C106.953 25 106.98 24.28 107.033 23.56C107.113 22.8133 107.113 22.2133 107.033 21.76C107.033 21.12 107.02 20.6267 106.993 20.28C106.993 19.9067 106.993 19.56 106.993 19.24C106.993 18.92 106.98 18.5867 106.953 18.24C106.953 17.8667 106.953 17.36 106.953 16.72C106.953 15.7867 106.953 14.92 106.953 14.12C106.953 13.2933 106.953 12.4933 106.953 11.72C106.98 10.92 107.006 10.12 107.033 9.31998C107.086 8.49332 107.126 7.61332 107.153 6.67998C107.206 5.74665 107.206 4.94665 107.153 4.27998C107.1 3.58665 107.06 3.01332 107.033 2.55998C107.006 2.07998 107.02 1.70665 107.073 1.43998C107.153 1.14665 107.353 0.919984 107.673 0.759983C107.993 0.599984 108.46 0.506651 109.073 0.479984C109.713 0.42665 110.566 0.399983 111.633 0.399983ZM136.667 -1.66893e-05C137.2 0.10665 137.56 0.333317 137.747 0.679984C137.933 0.999985 138.04 1.38665 138.067 1.83998C138.093 2.26665 138.08 2.71998 138.027 3.19999C138 3.65332 138 4.07998 138.027 4.47999C137.973 5.19998 137.707 5.67998 137.227 5.91998C136.773 6.13332 136.227 6.23998 135.587 6.23998C134.92 6.23998 134.227 6.19998 133.507 6.11998C132.787 6.01332 132.16 5.99998 131.627 6.07998C130.693 6.15998 130.08 6.43998 129.787 6.91998C129.493 7.37332 129.347 7.91998 129.347 8.55998C129.373 9.19998 129.453 9.87998 129.587 10.6C129.72 11.32 129.76 11.9867 129.707 12.6C129.707 13.1867 129.707 13.6533 129.707 14C129.733 14.3467 129.76 14.6667 129.787 14.96C129.813 15.2533 129.827 15.5733 129.827 15.92C129.853 16.2667 129.867 16.7333 129.867 17.32C129.787 18.2 129.72 19.0267 129.667 19.8C129.64 20.5733 129.613 21.3333 129.587 22.08C129.587 22.8 129.587 23.5467 129.587 24.32C129.613 25.0933 129.653 25.92 129.707 26.8C129.707 27.2 129.56 27.5733 129.267 27.92C128.973 28.2667 128.64 28.44 128.267 28.44C127.973 28.44 127.72 28.4267 127.507 28.4C127.32 28.4 127.147 28.3867 126.987 28.36L126.387 28.32C126.227 28.2933 126.04 28.28 125.827 28.28C125.64 28.2533 125.4 28.24 125.107 28.24C124.547 28.1067 124.187 27.8133 124.027 27.36C123.867 26.88 123.8 26.3467 123.827 25.76C123.853 25.1467 123.893 24.52 123.947 23.88C124.027 23.2133 124.027 22.6133 123.947 22.08C123.947 21.4933 123.933 21.0267 123.907 20.68C123.907 20.3333 123.907 20.0133 123.907 19.72C123.907 19.4267 123.893 19.1067 123.867 18.76C123.867 18.3867 123.867 17.9067 123.867 17.32C123.893 16.44 123.907 15.6267 123.907 14.88C123.907 14.1067 123.88 13.3467 123.827 12.6C123.8 11.8533 123.76 11.1067 123.707 10.36C123.653 9.58665 123.587 8.75998 123.507 7.87998C123.507 7.34665 123.347 6.93332 123.027 6.63998C122.707 6.34665 122.28 6.19998 121.747 6.19998C121.107 6.19998 120.6 6.18665 120.227 6.15999C119.88 6.10665 119.547 6.06665 119.227 6.03998C118.907 5.98665 118.56 5.94665 118.187 5.91998C117.84 5.89332 117.347 5.87998 116.707 5.87998C116.333 5.87998 116.04 5.74665 115.827 5.47998C115.613 5.21332 115.507 4.87998 115.507 4.47999C115.56 4.10665 115.547 3.69332 115.467 3.23998C115.413 2.75998 115.387 2.31998 115.387 1.91998C115.413 1.49332 115.507 1.11998 115.667 0.799985C115.853 0.453318 116.2 0.239984 116.707 0.159984C117.427 0.106651 118.133 0.0799847 118.827 0.0799847C119.52 0.0533183 120.213 0.0399852 120.907 0.0399852C122.667 0.0399852 124.387 0.0799847 126.067 0.159984C127.747 0.213318 129.453 0.239985 131.187 0.239985C132.093 0.239985 133 0.226651 133.907 0.199983C134.813 0.173317 135.733 0.10665 136.667 -1.66893e-05ZM159.952 0.599985C160.325 0.599985 160.645 0.706651 160.912 0.919983C161.178 1.10665 161.312 1.39998 161.312 1.79998C161.312 2.14665 161.312 2.42665 161.312 2.63999C161.338 2.82665 161.352 3.01332 161.352 3.19999C161.352 3.38665 161.352 3.58665 161.352 3.79998C161.378 3.98665 161.392 4.26665 161.392 4.63998C161.338 5.22665 161.085 5.61332 160.632 5.79998C160.178 5.98665 159.632 6.07998 158.992 6.07998C158.592 6.07998 158.165 6.05332 157.712 5.99998C157.258 5.94665 156.805 5.90665 156.352 5.87998C155.925 5.82665 155.512 5.78665 155.112 5.75999C154.738 5.73332 154.405 5.74665 154.112 5.79998H152.392H150.032H148.312C147.832 5.79998 147.432 6.01332 147.112 6.43998C146.792 6.86665 146.632 7.31999 146.632 7.79999C146.578 8.19999 146.538 8.61332 146.512 9.03998C146.485 9.43998 146.512 9.82665 146.592 10.2C146.672 10.5467 146.845 10.84 147.112 11.08C147.378 11.2933 147.778 11.4133 148.312 11.44C149.325 11.4133 150.258 11.4 151.112 11.4C151.992 11.4 152.845 11.4 153.672 11.4C154.525 11.4 155.392 11.4133 156.272 11.44C157.152 11.44 158.085 11.44 159.072 11.44C159.472 11.4667 159.778 11.6133 159.992 11.88C160.232 12.1467 160.352 12.48 160.352 12.88C160.352 13.2267 160.338 13.52 160.312 13.76C160.312 13.9733 160.312 14.1733 160.312 14.36C160.312 14.52 160.298 14.7067 160.272 14.92C160.272 15.1333 160.272 15.4267 160.272 15.8C160.272 16.1733 160.165 16.4933 159.952 16.76C159.765 17 159.472 17.12 159.072 17.12C158.138 17.0667 157.272 17.0267 156.472 17C155.672 16.9733 154.885 16.96 154.112 16.96C153.178 16.96 152.258 16.9867 151.352 17.04C150.445 17.0667 149.432 17.12 148.312 17.2C147.725 17.2533 147.298 17.4 147.032 17.64C146.792 17.88 146.632 18.1733 146.552 18.52C146.498 18.8667 146.498 19.2533 146.552 19.68C146.632 20.1067 146.712 20.52 146.792 20.92C146.792 21.4 146.925 21.7867 147.192 22.08C147.458 22.3467 147.832 22.48 148.312 22.48C149.325 22.5333 150.272 22.5733 151.152 22.6C152.032 22.6267 152.898 22.64 153.752 22.64C154.738 22.64 155.725 22.6267 156.712 22.6C157.698 22.5467 158.778 22.48 159.952 22.4C160.378 22.3733 160.685 22.52 160.872 22.84C161.058 23.16 161.165 23.56 161.192 24.04C161.245 24.52 161.245 25.0267 161.192 25.56C161.138 26.0667 161.112 26.52 161.112 26.92C161.085 27.5333 160.845 27.9467 160.392 28.16C159.965 28.3467 159.418 28.44 158.752 28.44C158.352 28.44 157.938 28.4133 157.512 28.36C157.085 28.3333 156.658 28.3067 156.232 28.28C155.805 28.2267 155.392 28.2 154.992 28.2C154.618 28.1733 154.272 28.1867 153.952 28.24C153.205 28.24 152.605 28.2533 152.152 28.28C151.725 28.3067 151.325 28.3333 150.952 28.36C150.578 28.36 150.178 28.3733 149.752 28.4C149.325 28.4267 148.738 28.44 147.992 28.44C147.405 28.3333 146.672 28.3333 145.792 28.44C144.912 28.5733 144.058 28.64 143.232 28.64C142.512 28.64 141.885 28.5333 141.352 28.32C140.845 28.08 140.565 27.6133 140.512 26.92C140.565 25.9867 140.592 25.12 140.592 24.32C140.592 23.4933 140.578 22.6933 140.552 21.92C140.552 21.12 140.525 20.32 140.472 19.52C140.445 18.6933 140.405 17.8133 140.352 16.88C140.405 15.9467 140.445 15.08 140.472 14.28C140.525 13.4533 140.565 12.64 140.592 11.84C140.645 11.04 140.685 10.24 140.712 9.43998C140.765 8.61332 140.805 7.73332 140.832 6.79998C140.912 6.39998 140.912 5.83998 140.832 5.11998C140.778 4.39998 140.752 3.69332 140.752 2.99999C140.752 2.27998 140.832 1.66665 140.992 1.15999C141.152 0.653317 141.485 0.42665 141.992 0.479984C143.618 0.42665 145.178 0.38665 146.672 0.359983C148.192 0.306651 149.712 0.279984 151.232 0.279984C152.672 0.279984 154.098 0.306651 155.512 0.359983C156.952 0.38665 158.432 0.46665 159.952 0.599985ZM187.768 27.04C187.875 27.3333 187.862 27.5733 187.728 27.76C187.622 27.9467 187.435 28.0933 187.168 28.2C186.902 28.3067 186.582 28.3733 186.208 28.4C185.862 28.4533 185.502 28.48 185.128 28.48C184.648 28.48 184.182 28.4667 183.728 28.44C183.302 28.4133 182.955 28.3867 182.688 28.36C181.995 28.3067 181.422 28.0933 180.968 27.72C180.515 27.3467 180.115 26.8933 179.768 26.36C179.448 25.8267 179.142 25.2667 178.848 24.68C178.555 24.0667 178.208 23.52 177.808 23.04C177.408 22.4533 177.062 21.8267 176.768 21.16C176.502 20.4933 176.195 19.8667 175.848 19.28C175.528 18.6933 175.115 18.2133 174.608 17.84C174.102 17.44 173.408 17.2267 172.528 17.2C171.915 17.2267 171.475 17.4533 171.208 17.88C170.968 18.28 170.822 18.7733 170.768 19.36C170.715 19.9467 170.702 20.5733 170.728 21.24C170.782 21.88 170.782 22.4667 170.728 23V26.96C170.675 27.6 170.462 28.0267 170.088 28.24C169.715 28.4267 169.275 28.52 168.768 28.52C168.315 28.52 167.862 28.48 167.408 28.4C166.955 28.3467 166.542 28.3333 166.168 28.36C165.768 28.36 165.408 28.2267 165.088 27.96C164.795 27.6667 164.648 27.3333 164.648 26.96C164.728 26 164.768 25.12 164.768 24.32C164.795 23.4933 164.795 22.6933 164.768 21.92C164.768 21.1467 164.755 20.36 164.728 19.56C164.702 18.7333 164.688 17.84 164.688 16.88C164.688 15.9467 164.688 15.08 164.688 14.28C164.715 13.4533 164.728 12.6533 164.728 11.88C164.755 11.08 164.755 10.28 164.728 9.47998C164.728 8.65332 164.702 7.77332 164.648 6.83998C164.648 5.47998 164.635 4.38665 164.608 3.55999C164.608 2.73332 164.648 2.10665 164.728 1.67998C164.835 1.22665 165.022 0.933318 165.288 0.799985C165.582 0.639984 166.008 0.54665 166.568 0.519984C167.128 0.493317 167.862 0.479984 168.768 0.479984C169.675 0.479984 170.822 0.413318 172.208 0.279984C173.328 0.253318 174.475 0.239985 175.648 0.239985C176.822 0.239985 177.955 0.306652 179.048 0.439985C180.168 0.573318 181.208 0.799984 182.168 1.11998C183.155 1.43998 184.008 1.91998 184.728 2.55998C185.448 3.19998 186.022 4.02665 186.448 5.03999C186.875 6.05332 187.075 7.30665 187.048 8.79998C187.075 9.99998 186.928 11.0133 186.608 11.84C186.315 12.64 185.928 13.32 185.448 13.88C184.995 14.44 184.515 14.9067 184.008 15.28C183.502 15.6533 183.062 16 182.688 16.32C182.342 16.64 182.102 16.9867 181.968 17.36C181.835 17.7067 181.928 18.1333 182.248 18.64C182.595 19.1733 182.848 19.6 183.008 19.92C183.195 20.24 183.355 20.5467 183.488 20.84C183.648 21.1067 183.808 21.4 183.968 21.72C184.155 22.04 184.422 22.4667 184.768 23C185.115 23.5333 185.395 23.9467 185.608 24.24C185.848 24.5067 186.062 24.76 186.248 25C186.462 25.24 186.675 25.5067 186.888 25.8C187.128 26.0933 187.422 26.5067 187.768 27.04ZM62.9197 63.112C66.7597 74.2053 70.3863 85.0426 73.7997 95.624C77.213 106.12 81.053 116.829 85.3197 127.752C86.0023 129.8 86.5143 131.421 86.8557 132.616C87.2823 133.811 87.6663 134.92 88.0077 135.944C88.4343 136.883 88.861 137.949 89.2877 139.144C89.7143 140.339 90.269 141.96 90.9517 144.008C91.3783 145.203 91.2077 146.184 90.4397 146.952C89.757 147.72 88.8183 148.104 87.6237 148.104C86.0023 147.848 84.3383 147.805 82.6317 147.976C80.925 148.061 79.3037 148.147 77.7677 148.232C76.2317 148.317 74.8664 148.275 73.6717 148.104C72.477 147.848 71.5384 147.293 70.8557 146.44C70.429 145.245 70.0877 144.051 69.8317 142.856C69.661 141.661 69.3624 140.467 68.9357 139.272C68.765 138.675 68.509 137.992 68.1677 137.224C67.9117 136.371 67.613 135.517 67.2717 134.664C66.9303 133.811 66.5463 133.043 66.1197 132.36C65.693 131.677 65.2237 131.165 64.7117 130.824C64.1143 130.397 63.3463 130.227 62.4077 130.312C61.5543 130.312 60.7437 130.312 59.9757 130.312C57.3303 130.312 55.2397 130.269 53.7037 130.184C52.1677 130.099 50.717 130.013 49.3517 129.928C48.0717 129.843 46.6637 129.757 45.1277 129.672C43.5917 129.587 41.501 129.544 38.8557 129.544C36.893 129.544 35.357 130.013 34.2477 130.952C33.2237 131.805 32.413 132.915 31.8157 134.28C31.2183 135.645 30.749 137.139 30.4077 138.76C30.1517 140.381 29.7677 141.917 29.2557 143.368C28.7437 144.819 28.0183 146.099 27.0797 147.208C26.2263 148.232 24.9463 148.872 23.2397 149.128C21.7037 149.128 20.509 149.085 19.6557 149C18.8023 149 17.9917 148.957 17.2237 148.872C16.4557 148.872 15.6023 148.829 14.6637 148.744C13.8103 148.744 12.6157 148.744 11.0797 148.744C9.88501 148.744 8.86101 148.232 8.00768 147.208C7.15435 146.099 6.94101 144.947 7.36768 143.752C8.64768 140.765 9.79968 138.035 10.8237 135.56C11.933 133 12.9997 130.483 14.0237 128.008C15.0477 125.448 16.029 122.888 16.9677 120.328C17.9063 117.768 18.8877 114.952 19.9117 111.88C20.6797 108.808 21.405 105.949 22.0877 103.304C22.8557 100.573 23.6237 97.928 24.3917 95.368C25.1597 92.808 25.9703 90.2053 26.8237 87.56C27.7623 84.9146 28.7863 82.0986 29.8957 79.112C30.8343 77.1493 31.4743 75.0586 31.8157 72.84C32.2423 70.536 32.7117 68.36 33.2237 66.312C33.821 64.264 34.717 62.472 35.9117 60.936C37.1917 59.4 39.1117 58.4186 41.6717 57.992C43.6343 57.992 45.1703 58.0346 46.2797 58.12C47.4743 58.2053 48.541 58.3333 49.4797 58.504C50.4183 58.5893 51.4423 58.6746 52.5517 58.76C53.7463 58.8453 55.2823 58.888 57.1597 58.888C58.4397 58.888 59.5917 59.3146 60.6157 60.168C61.725 60.936 62.493 61.9173 62.9197 63.112ZM51.9117 112.136C54.4717 111.709 55.965 110.685 56.3917 109.064C56.9037 107.443 56.9037 105.565 56.3917 103.432C55.8797 101.213 55.1543 98.9947 54.2157 96.776C53.277 94.472 52.6797 92.5093 52.4237 90.888C51.5703 89.2666 50.6743 88.456 49.7357 88.456C48.8823 88.456 48.0717 89.1813 47.3037 90.632C46.5357 92.0826 45.853 93.7466 45.2557 95.624C44.6583 97.416 44.1037 99.2506 43.5917 101.128C43.165 102.92 42.7383 104.2 42.3117 104.968C41.7997 106.675 41.757 108.04 42.1837 109.064C42.6957 110.003 43.4637 110.728 44.4877 111.24C45.5117 111.667 46.6637 111.965 47.9437 112.136C49.309 112.221 50.6317 112.221 51.9117 112.136ZM150.795 63.112C154.635 74.2053 158.261 85.0426 161.675 95.624C165.088 106.12 168.928 116.829 173.195 127.752C173.877 129.8 174.389 131.421 174.731 132.616C175.157 133.811 175.541 134.92 175.883 135.944C176.309 136.883 176.736 137.949 177.163 139.144C177.589 140.339 178.144 141.96 178.827 144.008C179.253 145.203 179.083 146.184 178.315 146.952C177.632 147.72 176.693 148.104 175.499 148.104C173.877 147.848 172.213 147.805 170.507 147.976C168.8 148.061 167.179 148.147 165.643 148.232C164.107 148.317 162.741 148.275 161.547 148.104C160.352 147.848 159.413 147.293 158.731 146.44C158.304 145.245 157.963 144.051 157.707 142.856C157.536 141.661 157.237 140.467 156.811 139.272C156.64 138.675 156.384 137.992 156.043 137.224C155.787 136.371 155.488 135.517 155.147 134.664C154.805 133.811 154.421 133.043 153.995 132.36C153.568 131.677 153.099 131.165 152.587 130.824C151.989 130.397 151.221 130.227 150.283 130.312C149.429 130.312 148.619 130.312 147.851 130.312C145.205 130.312 143.115 130.269 141.579 130.184C140.043 130.099 138.592 130.013 137.227 129.928C135.947 129.843 134.539 129.757 133.003 129.672C131.467 129.587 129.376 129.544 126.731 129.544C124.768 129.544 123.232 130.013 122.123 130.952C121.099 131.805 120.288 132.915 119.691 134.28C119.093 135.645 118.624 137.139 118.283 138.76C118.027 140.381 117.643 141.917 117.131 143.368C116.619 144.819 115.893 146.099 114.955 147.208C114.101 148.232 112.821 148.872 111.115 149.128C109.579 149.128 108.384 149.085 107.531 149C106.677 149 105.867 148.957 105.099 148.872C104.331 148.872 103.477 148.829 102.539 148.744C101.685 148.744 100.491 148.744 98.9547 148.744C97.76 148.744 96.736 148.232 95.8827 147.208C95.0293 146.099 94.816 144.947 95.2427 143.752C96.5227 140.765 97.6747 138.035 98.6987 135.56C99.808 133 100.875 130.483 101.899 128.008C102.923 125.448 103.904 122.888 104.843 120.328C105.781 117.768 106.763 114.952 107.787 111.88C108.555 108.808 109.28 105.949 109.963 103.304C110.731 100.573 111.499 97.928 112.267 95.368C113.035 92.808 113.845 90.2053 114.699 87.56C115.637 84.9146 116.661 82.0986 117.771 79.112C118.709 77.1493 119.349 75.0586 119.691 72.84C120.117 70.536 120.587 68.36 121.099 66.312C121.696 64.264 122.592 62.472 123.787 60.936C125.067 59.4 126.987 58.4186 129.547 57.992C131.509 57.992 133.045 58.0346 134.155 58.12C135.349 58.2053 136.416 58.3333 137.355 58.504C138.293 58.5893 139.317 58.6746 140.427 58.76C141.621 58.8453 143.157 58.888 145.035 58.888C146.315 58.888 147.467 59.3146 148.491 60.168C149.6 60.936 150.368 61.9173 150.795 63.112Z" fill="black"/>
</svg>
