<svg width="169" height="151" viewBox="0 0 169 151" fill="none" xmlns="http://www.w3.org/2000/svg">
<path d="M20.5605 28.96H16.4005L3.16047 5.40002H3.00047C3.02714 5.90669 3.0538 6.44002 3.08047 7.00002C3.1338 7.56002 3.16047 8.14669 3.16047 8.76002C3.18714 9.34669 3.2138 9.96002 3.24047 10.6C3.26714 11.2134 3.28047 11.8267 3.28047 12.44V28.96H0.000469029V0.40002H4.12047L17.3605 23.76H17.5205C17.4938 23.36 17.4671 22.88 17.4405 22.32C17.4138 21.76 17.3871 21.1734 17.3605 20.56C17.3338 19.92 17.3071 19.28 17.2805 18.64C17.2805 18 17.2805 17.4134 17.2805 16.88V0.40002H20.5605V28.96ZM43.9777 18.2C43.9777 19.96 43.7777 21.52 43.3777 22.88C42.9777 24.24 42.391 25.4134 41.6177 26.4C40.8443 27.36 39.8977 28.0934 38.7777 28.6C37.6577 29.1067 36.391 29.36 34.9777 29.36C33.6443 29.36 32.431 29.1067 31.3377 28.6C30.2443 28.0934 29.311 27.36 28.5377 26.4C27.7643 25.44 27.1643 24.28 26.7377 22.92C26.311 21.5334 26.0977 19.96 26.0977 18.2C26.0977 15.8267 26.4443 13.8267 27.1377 12.2C27.8577 10.5467 28.8843 9.29335 30.2177 8.44002C31.551 7.56002 33.1643 7.12002 35.0577 7.12002C36.8443 7.12002 38.4043 7.54669 39.7377 8.40002C41.071 9.25335 42.111 10.5067 42.8577 12.16C43.6043 13.7867 43.9777 15.8 43.9777 18.2ZM29.6177 18.2C29.6177 19.9334 29.8043 21.4267 30.1777 22.68C30.5777 23.9067 31.1777 24.8534 31.9777 25.52C32.7777 26.16 33.8043 26.48 35.0577 26.48C36.2843 26.48 37.2977 26.16 38.0977 25.52C38.8977 24.8534 39.4843 23.9067 39.8577 22.68C40.2577 21.4267 40.4577 19.9334 40.4577 18.2C40.4577 16.44 40.2577 14.96 39.8577 13.76C39.4843 12.5334 38.8977 11.6134 38.0977 11C37.2977 10.36 36.271 10.04 35.0177 10.04C33.1243 10.04 31.751 10.7467 30.8977 12.16C30.0443 13.5734 29.6177 15.5867 29.6177 18.2ZM55.4936 26.48C55.9736 26.48 56.4403 26.44 56.8936 26.36C57.3736 26.2534 57.7869 26.1467 58.1336 26.04V28.72C57.7336 28.9067 57.2269 29.0534 56.6136 29.16C56.0003 29.2934 55.3736 29.36 54.7336 29.36C53.6936 29.36 52.7603 29.16 51.9336 28.76C51.1069 28.36 50.4536 27.7067 49.9736 26.8C49.4936 25.8667 49.2536 24.6134 49.2536 23.04V10.24H46.5736V8.52002L49.3336 7.32002L50.5336 2.60002H52.6536V7.52002H57.8936V10.24H52.6536V22.84C52.6536 24.0667 52.8936 24.9867 53.3736 25.6C53.8803 26.1867 54.5869 26.48 55.4936 26.48ZM78.7823 18.2C78.7823 19.96 78.5823 21.52 78.1823 22.88C77.7823 24.24 77.1957 25.4134 76.4223 26.4C75.649 27.36 74.7023 28.0934 73.5823 28.6C72.4623 29.1067 71.1957 29.36 69.7823 29.36C68.449 29.36 67.2357 29.1067 66.1423 28.6C65.049 28.0934 64.1157 27.36 63.3423 26.4C62.569 25.44 61.969 24.28 61.5423 22.92C61.1157 21.5334 60.9023 19.96 60.9023 18.2C60.9023 15.8267 61.249 13.8267 61.9423 12.2C62.6623 10.5467 63.689 9.29335 65.0223 8.44002C66.3557 7.56002 67.969 7.12002 69.8623 7.12002C71.649 7.12002 73.209 7.54669 74.5423 8.40002C75.8757 9.25335 76.9157 10.5067 77.6623 12.16C78.409 13.7867 78.7823 15.8 78.7823 18.2ZM64.4223 18.2C64.4223 19.9334 64.609 21.4267 64.9823 22.68C65.3823 23.9067 65.9823 24.8534 66.7823 25.52C67.5823 26.16 68.609 26.48 69.8623 26.48C71.089 26.48 72.1023 26.16 72.9023 25.52C73.7023 24.8534 74.289 23.9067 74.6623 22.68C75.0623 21.4267 75.2623 19.9334 75.2623 18.2C75.2623 16.44 75.0623 14.96 74.6623 13.76C74.289 12.5334 73.7023 11.6134 72.9023 11C72.1023 10.36 71.0757 10.04 69.8223 10.04C67.929 10.04 66.5557 10.7467 65.7023 12.16C64.849 13.5734 64.4223 15.5867 64.4223 18.2ZM108.274 21.24C108.274 22.92 107.901 24.36 107.154 25.56C106.408 26.76 105.341 27.6934 103.954 28.36C102.568 29.0267 100.941 29.36 99.0742 29.36C98.1142 29.36 97.1942 29.3067 96.3142 29.2C95.4609 29.0934 94.6609 28.9467 93.9142 28.76C93.1942 28.5734 92.5276 28.3334 91.9142 28.04V24.6C92.8742 25.0534 93.9942 25.44 95.2742 25.76C96.5542 26.08 97.8342 26.24 99.1142 26.24C100.341 26.24 101.368 26.04 102.194 25.64C103.048 25.24 103.688 24.6934 104.114 24C104.541 23.28 104.754 22.4667 104.754 21.56C104.754 20.6267 104.581 19.84 104.234 19.2C103.888 18.56 103.288 17.9734 102.434 17.44C101.581 16.9067 100.408 16.3334 98.9142 15.72C97.8209 15.2667 96.8476 14.7867 95.9942 14.28C95.1676 13.7734 94.4742 13.2 93.9142 12.56C93.3542 11.8934 92.9276 11.1467 92.6342 10.32C92.3676 9.46669 92.2342 8.48002 92.2342 7.36002C92.2076 5.86669 92.5542 4.57335 93.2742 3.48002C93.9942 2.36002 94.9942 1.50669 96.2742 0.920021C97.5542 0.306687 99.0209 2.0504e-05 100.674 2.0504e-05C102.088 2.0504e-05 103.381 0.146687 104.554 0.44002C105.754 0.733354 106.821 1.09335 107.754 1.52002L106.674 4.60002C105.741 4.17335 104.768 3.82669 103.754 3.56002C102.741 3.29335 101.701 3.16002 100.634 3.16002C99.5942 3.16002 98.7009 3.33335 97.9542 3.68002C97.2342 4.02669 96.6876 4.52002 96.3142 5.16002C95.9676 5.77335 95.7942 6.49335 95.7942 7.32002C95.7942 8.30669 95.9676 9.12002 96.3142 9.76002C96.6609 10.3734 97.2342 10.9334 98.0342 11.44C98.8609 11.9467 99.9676 12.4934 101.354 13.08C102.874 13.72 104.141 14.4134 105.154 15.16C106.194 15.88 106.968 16.7334 107.474 17.72C108.008 18.68 108.274 19.8534 108.274 21.24ZM120.475 7.12002C122.848 7.12002 124.582 7.72002 125.675 8.92002C126.795 10.12 127.355 11.9467 127.355 14.4V28.96H124.835L124.235 25.96H124.115C123.582 26.7067 123.022 27.3467 122.435 27.88C121.848 28.3867 121.168 28.76 120.395 29C119.648 29.24 118.768 29.36 117.755 29.36C116.528 29.36 115.462 29.1067 114.555 28.6C113.648 28.0934 112.942 27.36 112.435 26.4C111.955 25.44 111.715 24.3067 111.715 23C111.715 20.8667 112.462 19.2134 113.955 18.04C115.475 16.8667 117.755 16.2267 120.795 16.12L123.995 16V14.68C123.995 12.9467 123.662 11.72 122.995 11C122.355 10.28 121.408 9.92002 120.155 9.92002C119.222 9.92002 118.302 10.0667 117.395 10.36C116.515 10.6534 115.662 11.0134 114.835 11.44L113.755 8.88002C114.662 8.34669 115.688 7.92002 116.835 7.60002C118.008 7.28002 119.222 7.12002 120.475 7.12002ZM121.275 18.56C119.062 18.64 117.502 19.0534 116.595 19.8C115.688 20.5467 115.235 21.6134 115.235 23C115.235 24.2267 115.542 25.1334 116.155 25.72C116.795 26.3067 117.635 26.6 118.675 26.6C120.222 26.6 121.488 26.08 122.475 25.04C123.488 24 123.995 22.4667 123.995 20.44V18.44L121.275 18.56ZM142.868 7.12002C145.134 7.12002 146.841 7.73336 147.988 8.96002C149.134 10.1867 149.708 12.1334 149.708 14.8V28.96H146.308V15.16C146.308 13.4534 145.988 12.1734 145.348 11.32C144.708 10.4667 143.681 10.04 142.268 10.04C140.268 10.04 138.868 10.6934 138.068 12C137.268 13.28 136.868 15.2267 136.868 17.84V28.96H133.468V7.52002H136.188L136.668 10.44H136.868C137.294 9.69335 137.814 9.08002 138.428 8.60002C139.041 8.09336 139.734 7.72002 140.508 7.48002C141.281 7.24002 142.068 7.12002 142.868 7.12002ZM168.171 23.08C168.171 24.44 167.865 25.5867 167.251 26.52C166.638 27.4534 165.758 28.16 164.611 28.64C163.491 29.12 162.131 29.36 160.531 29.36C159.225 29.36 158.078 29.24 157.091 29C156.105 28.76 155.238 28.44 154.491 28.04V24.8C155.238 25.2534 156.145 25.6534 157.211 26C158.305 26.32 159.411 26.48 160.531 26.48C162.025 26.48 163.118 26.2 163.811 25.64C164.505 25.08 164.851 24.32 164.851 23.36C164.851 22.8 164.718 22.3067 164.451 21.88C164.185 21.4534 163.718 21.04 163.051 20.64C162.411 20.2134 161.505 19.7467 160.331 19.24C159.131 18.68 158.091 18.1334 157.211 17.6C156.331 17.04 155.651 16.3867 155.171 15.64C154.691 14.8667 154.451 13.9067 154.451 12.76C154.451 11 155.118 9.62669 156.451 8.64002C157.811 7.62669 159.585 7.12002 161.771 7.12002C162.945 7.12002 164.025 7.24002 165.011 7.48002C166.025 7.72002 166.985 8.06669 167.891 8.52002L166.691 11.24C166.185 10.9734 165.651 10.7467 165.091 10.56C164.531 10.3734 163.958 10.2267 163.371 10.12C162.811 10.0134 162.225 9.96002 161.611 9.96002C160.385 9.96002 159.425 10.2 158.731 10.68C158.065 11.16 157.731 11.8 157.731 12.6C157.731 13.1867 157.878 13.6934 158.171 14.12C158.491 14.52 158.998 14.92 159.691 15.32C160.385 15.6934 161.318 16.1467 162.491 16.68C163.665 17.2134 164.678 17.76 165.531 18.32C166.385 18.8534 167.038 19.5067 167.491 20.28C167.945 21.0267 168.171 21.96 168.171 23.08ZM75.3246 148.96L65.8526 120.544H35.1326L25.7886 148.96H14.1406L44.8606 57.312H56.1246L86.9726 148.96H75.3246ZM53.9486 81.888C53.6926 80.864 53.3086 79.5414 52.7966 77.92C52.37 76.2134 51.9006 74.5067 51.3886 72.8C50.962 71.008 50.6206 69.5574 50.3646 68.448C50.1086 69.984 49.7673 71.5627 49.3406 73.184C48.9993 74.8054 48.6153 76.384 48.1886 77.92C47.762 79.3707 47.378 80.6933 47.0366 81.888L38.0766 110.432H62.9086L53.9486 81.888ZM120.549 79.072C128.143 79.072 133.69 80.992 137.189 84.832C140.773 88.672 142.565 94.5174 142.565 102.368V148.96H134.501L132.581 139.36H132.197C130.49 141.749 128.698 143.797 126.821 145.504C124.943 147.125 122.767 148.32 120.293 149.088C117.903 149.856 115.087 150.24 111.845 150.24C107.919 150.24 104.506 149.429 101.605 147.808C98.7033 146.187 96.442 143.84 94.8206 140.768C93.2846 137.696 92.5166 134.069 92.5166 129.888C92.5166 123.061 94.906 117.771 99.6846 114.016C104.549 110.261 111.845 108.213 121.573 107.872L131.813 107.488V103.264C131.813 97.7174 130.746 93.792 128.613 91.488C126.565 89.184 123.535 88.032 119.525 88.032C116.538 88.032 113.594 88.5014 110.693 89.44C107.877 90.3787 105.146 91.5307 102.501 92.896L99.0446 84.704C101.946 82.9974 105.231 81.632 108.901 80.608C112.655 79.584 116.538 79.072 120.549 79.072ZM123.109 115.68C116.026 115.936 111.034 117.259 108.133 119.648C105.231 122.037 103.781 125.451 103.781 129.888C103.781 133.813 104.762 136.715 106.725 138.592C108.773 140.469 111.461 141.408 114.789 141.408C119.738 141.408 123.791 139.744 126.949 136.416C130.191 133.088 131.813 128.181 131.813 121.696V115.296L123.109 115.68Z" fill="black"/>
</svg>
