<svg width="397" height="311" viewBox="0 0 397 311" fill="none" xmlns="http://www.w3.org/2000/svg">
<path opacity="0.12" d="M249.216 311C328.226 311 392.276 302.426 392.276 291.85C392.276 281.274 328.226 272.7 249.216 272.7C170.206 272.7 106.155 281.274 106.155 291.85C106.155 302.426 170.206 311 249.216 311Z" fill="black"/>
<path d="M348.639 90.1073C348.639 90.1073 395.949 105.984 379.023 54.9097C379.023 54.9097 413.366 87.3814 365.667 115.371C317.969 143.36 348.65 90.1073 348.65 90.1073H348.639Z" fill="#534741"/>
<path d="M380.312 54.0314C376.263 54.2139 372.294 51.8985 369.009 49.7201C365.725 47.5416 364.903 43.504 365.303 39.7174C365.519 37.71 365.941 35.5885 366.603 33.6838C367.105 32.2695 367.835 31.0263 369.386 32.0072C372.591 34.0374 374.997 37.6529 376.514 41.0518C377.233 42.6714 379.696 41.7704 379.708 40.185C379.708 37.9723 379.639 35.4175 380.86 33.4671C381.715 32.0984 383.78 30.7754 385.297 31.9387C386.985 33.2276 387.509 36.4097 387.669 38.3715C387.886 40.972 387.464 43.4812 386.517 45.9106C385.844 47.61 388.228 48.6365 389.38 47.5758C390.247 46.766 391.239 46.0931 392.357 45.6597C392.665 45.5456 393.109 45.3175 393.109 45.3517C393.109 45.7509 392.174 46.3554 391.935 46.5493C389.882 48.1803 387.726 49.6973 385.57 51.18C384.487 51.9214 383.392 52.6627 382.285 53.3699C381.179 54.077 380.198 55.0009 378.864 54.2709C376.845 53.1646 374.94 51.3625 373.275 49.7885C371.462 48.0663 369.819 46.0931 368.895 43.7321C368.086 41.6677 367.549 38.7821 368.861 36.8089C369.34 36.079 370.002 35.4517 370.846 36.0105C371.792 36.6378 372.488 38.2232 373.024 39.1927C374.256 41.4168 375.191 43.7777 375.819 46.2528C375.898 46.5721 375.978 46.9029 376.047 47.2336C376.195 47.8952 375.99 48.3514 376.628 47.9066C377.529 47.2793 376.834 47.7811 376.628 47.5302C376.503 47.3705 376.092 47.188 375.944 47.0397C375.066 46.1957 374.564 44.9411 374.085 43.8348C372.842 40.9948 371.941 38.0065 371.313 34.9726L368.804 36.9002C371.576 38.7935 373.218 42.295 372.75 45.6369L375.26 44.6104C373.378 43.3215 372.351 40.9378 372.75 38.6909L371.097 39.9455C371.804 40.0253 372.557 41.7475 372.785 42.295C372.922 42.5802 373.013 42.8767 373.058 43.1847C373.07 43.3558 373.024 43.5154 372.933 43.6523C373.446 43.504 373.503 43.6751 373.104 44.177C373.127 44.1541 373.104 44.1769 373.081 44.2454C374.541 45.8992 376.948 43.4698 375.499 41.8274C374.051 40.185 371.051 40.5158 370.173 42.6258C369.237 44.8841 371.393 47.4732 373.788 46.9371C376.184 46.401 376.868 43.4812 376.104 41.4054C375.248 39.09 373.697 36.8203 371.097 36.5238C370.412 36.4439 369.568 37.1055 369.443 37.7784C368.758 41.6335 370.275 45.3517 373.526 47.5644C374.359 48.1347 375.887 47.61 376.035 46.5379C376.72 41.5651 374.689 36.7747 370.515 33.9347C369.192 33.0337 367.721 34.5164 368.006 35.8623C368.827 39.7858 370.036 43.9374 372.043 47.4504C372.762 48.7164 373.766 49.9368 375.1 50.5641C376.594 51.2712 378.909 51.18 379.571 49.4007C380.118 47.9408 379.263 45.7623 378.852 44.3594C378.305 42.4433 377.564 40.5842 376.685 38.7935C375.271 35.9307 372.956 31.3228 368.998 32.509C365.451 33.5697 364.424 37.9609 364.778 41.1659C365.177 44.8499 367.059 48.1347 369.523 50.8264C370.823 52.2407 372.283 53.4953 373.788 54.6929C375.18 55.7993 376.64 57.2021 378.351 57.7724C380.061 58.3427 381.635 57.8066 383.13 56.8828C385.068 55.6852 386.95 54.3735 388.809 53.0619C390.669 51.7503 392.471 50.4386 394.239 49.0357C395.619 47.9408 396.805 46.5151 396.497 44.6332C395.641 39.4322 389.106 43.139 386.973 45.1236L389.836 46.7888C391.17 43.4128 391.478 39.7402 390.828 36.1702C390.292 33.2504 389.038 29.6006 386.038 28.4258C383.392 27.3993 380.358 28.6653 378.624 30.7526C376.457 33.353 376.332 36.9344 376.309 40.1622L379.503 39.2954C377.484 34.7901 368.587 22.4379 364.037 31.0947C363.158 32.7713 362.771 34.6875 362.394 36.5238C361.949 38.7365 361.641 41.029 361.881 43.2873C362.269 47.074 363.945 50.3474 367.116 52.5144C370.891 55.1035 375.636 57.6356 380.335 57.4189C382.525 57.3162 382.536 53.8945 380.335 53.9972L380.312 54.0314Z" fill="#534741"/>
<path d="M364.549 33.5246C362.895 43.1966 368.358 50.576 376.285 55.5032C377.608 52.3781 378.92 49.2529 380.243 46.1278C378.578 45.8313 376.958 45.4891 375.362 44.9302C374.643 44.7021 373.936 44.4284 373.263 44.0862C372.031 43.1738 371.928 43.5958 372.955 45.3522L368.005 49.1161C370.697 48.8195 375.35 53.4502 377.483 55.104L379.753 46.527C376.913 47.0745 373.97 46.2533 372.008 44.0748C371.062 43.0141 370.366 41.6682 370.081 40.2653C369.932 39.638 369.887 39.0107 369.955 38.372C368.815 38.68 368.484 38.9537 368.974 39.1818C369.123 39.8889 370.446 41.4401 370.811 42.2385C371.37 43.5045 371.814 44.8276 372.419 46.0708C373.685 48.6827 375.464 50.6786 377.882 52.2754C381.144 54.4311 385.672 51.5911 385.604 47.8386C385.558 45.7286 385.524 43.6072 385.478 41.4971C385.455 40.4934 385.604 39.3073 385.421 38.3264L385.387 36.741C381.669 35.0644 379.821 35.2697 379.855 37.3569C379.262 38.794 379.228 40.8128 378.817 42.3526C378.293 44.3143 377.643 46.2191 376.924 48.1124C374.586 54.2942 384.497 56.9745 386.824 50.8383C389.151 44.7021 393.759 32.0191 384.668 28.8255C381.087 27.5709 377.232 29.2817 375.784 32.7833C374.016 37.0489 375.247 43.322 375.339 47.8386L383.06 43.4019C381.019 42.056 380.448 38.6343 379.468 36.5585C378.179 33.8098 376.274 31.3804 373.514 30.0003C368.187 27.3428 361.652 29.7037 360.044 35.6233C358.572 41.0409 360.979 47.3824 364.731 51.3174C369.396 56.2104 375.989 57.6589 382.467 56.4043C386.014 55.7199 387.714 50.154 384.737 47.8272C380.334 44.3942 374.05 38.1553 368.005 38.8396C365.633 39.102 363.808 40.2653 363.055 42.6035C360.26 51.2489 371.084 54.8759 377.506 56.0051C383.06 56.9859 386.653 49.846 381.464 46.6297C377.962 44.4512 373.639 40.9497 374.438 36.2506C375.544 29.795 365.655 27.012 364.538 33.5246H364.549Z" fill="#534741"/>
<path d="M381.829 55.1034C388.433 55.1034 388.444 44.8384 381.829 44.8384C375.214 44.8384 375.214 55.1034 381.829 55.1034Z" fill="#534741"/>
<path d="M372.602 40.5275V37.9156C372.602 37.6191 372.807 35.8056 372.602 36.4101L371.279 38.6798L370.925 38.9992L368.336 39.6949C367.196 39.809 365.861 37.8358 366.534 39.136C368.941 43.7325 376.092 41.4856 376.103 36.547C376.103 30.8556 369.796 27.0005 364.732 29.715C359.668 32.4295 359.052 38.3376 360.729 43.2877C361.55 45.6943 363.763 47.3595 366.363 46.9603C368.815 46.5953 370.868 44.5195 370.811 41.919C370.777 40.3907 370.743 38.8737 370.709 37.3454C370.709 36.969 370.834 35.817 370.709 35.4406C369.899 37.5963 368.781 38.4061 367.355 37.8472C366.899 37.8016 366.546 37.5735 366.317 37.1401C366.454 37.0374 368.028 43.493 368.097 44.2914C368.359 47.0515 370.275 49.4239 373.229 49.4239C375.807 49.4239 378.624 47.0629 378.362 44.2914C377.814 38.3947 376.64 29.6238 369.762 27.9472C365.93 27.0119 362.029 29.2246 360.843 32.977C359.965 35.7486 360.466 39.079 360.535 41.9304L370.617 40.5617C370.572 40.4249 369.99 38.0867 370.07 38.1209C370.184 38.1666 369.431 38.8281 369.397 38.8509C367.937 39.6721 365.827 38.1209 365.827 36.5584L375.396 33.9693C373.583 30.502 369.568 28.084 365.736 30.1484C361.904 32.2128 362.303 36.6724 362.314 40.5389C362.337 47.1428 372.602 47.1542 372.579 40.5389L372.602 40.5275Z" fill="#534741"/>
<path d="M386.734 51.5564C388.171 51.5564 389.562 51.1686 390.84 50.5071C392.117 49.8456 393.132 48.8533 393.965 47.7013C394.296 47.2451 394.341 46.4581 394.193 45.9449C394.045 45.4316 393.634 44.8385 393.144 44.5762C392.619 44.291 391.969 44.1542 391.387 44.3481C390.806 44.542 390.384 44.8841 390.019 45.3974C389.973 45.4658 389.927 45.5229 389.87 45.5913L390.224 45.1351C389.893 45.5571 389.517 45.9449 389.083 46.2756L389.54 45.9221C389.072 46.287 388.559 46.5836 388.011 46.8117L388.559 46.5836C388.034 46.8003 387.487 46.9486 386.928 47.0284L387.532 46.9486C387.258 46.9828 386.996 47.0056 386.722 47.0056C386.129 47.0056 385.525 47.2565 385.114 47.6785C384.704 48.1005 384.418 48.7278 384.441 49.2867C384.498 50.5185 385.445 51.5792 386.722 51.5678L386.734 51.5564Z" fill="#534741"/>
<path d="M265.32 213.961C265.32 213.961 273.395 296.595 286.249 292.192C286.249 292.192 289.773 292.922 291.142 284.493C291.142 284.493 291.598 292.831 295.465 292.363C295.465 292.363 301.042 293.492 301.84 285.748C302.639 278.003 309.242 232.335 309.242 232.335L265.308 213.972L265.32 213.961Z" fill="#D8C6B4"/>
<path d="M123.491 215.228C123.491 215.228 131.567 297.861 144.421 293.459C144.421 293.459 147.945 294.189 149.314 285.76C149.314 285.76 149.77 294.097 153.636 293.63C153.636 293.63 159.214 294.759 160.012 287.014C160.811 279.27 167.414 233.602 167.414 233.602L123.48 215.239L123.491 215.228Z" fill="#D8C6B4"/>
<path d="M94.9899 99.9846C94.9899 99.9846 82.2384 198.13 125.488 227.75C125.488 227.75 144.935 241.106 181.524 246.912C218.113 252.717 223.919 258.522 223.919 258.522C223.919 258.522 257.599 250.972 290.71 231.229L365.633 246.33C365.633 246.33 362.143 194.434 381.316 143.143C381.316 143.143 381.259 84.3932 316.27 62.8936C316.27 62.8936 275.62 43.1619 218.706 71.2767C218.706 71.2767 192.496 80.4126 176.985 60.2703L95.0013 99.9732L94.9899 99.9846Z" fill="#EAE2D8"/>
<path d="M177.701 215.228C177.701 215.228 185.776 297.861 198.631 293.459C198.631 293.459 202.155 294.189 203.524 285.76C203.524 285.76 203.98 294.097 207.846 293.63C207.846 293.63 213.424 294.759 214.222 287.014C215.02 279.27 234.342 234.971 234.342 234.971L177.69 215.239L177.701 215.228Z" fill="#EAE2D8"/>
<path d="M283.671 216.402C283.671 216.402 295.259 267.704 330.685 264.054C330.685 264.054 331.324 293.686 339.057 293.686C346.79 293.686 345.284 286.387 345.284 286.387C345.284 286.387 347.862 293.686 352.584 293.686C357.306 293.686 361.389 289.603 362.461 283.376C362.461 283.376 369.225 261.089 365.518 243.684C361.811 226.279 283.671 216.402 283.671 216.402Z" fill="#EAE2D8"/>
<path d="M219.014 71.8243C219.071 75.9417 218.763 80.0021 218.272 84.0967C217.953 86.5718 217.634 89.0354 217.291 91.5104C216.961 93.9854 216.926 94.2249 217.2 92.2175C217.04 93.5634 216.869 94.8978 216.744 96.2437C216.493 98.9126 216.539 101.559 216.424 104.228C216.413 104.615 216.55 105.642 216.607 106.064C216.801 106.931 217.029 107.786 217.303 108.63C216.687 107.376 216.63 107.307 217.143 108.402C217.679 109.657 218.318 110.866 218.991 112.052C219.367 112.702 219.755 113.341 220.166 113.968C220.166 113.877 221.546 115.656 222.082 116.181C222.698 116.797 223.348 117.378 224.009 117.937C224.728 118.325 225.446 118.679 225.743 118.85C226.039 119.021 226.781 119.5 227.545 119.945C227.773 120.036 228.138 120.173 228.663 120.378C229.119 120.538 229.587 120.709 230.043 120.868C232.689 121.792 235.403 122.545 238.118 123.229C248.725 125.887 258.842 127.164 267.795 134.076C272.768 137.92 276.749 142.938 279.612 148.55C280.193 149.69 280.706 150.865 281.231 152.04C281.79 153.374 282.246 154.435 282.577 155.233C282.668 155.439 282.759 155.633 282.862 155.838C284.231 158.381 285.611 160.868 287.071 163.354C287.151 163.491 287.208 163.605 287.276 163.708C287.367 163.799 287.447 163.879 287.561 163.982C288.417 164.826 289.306 165.727 290.116 166.616C290.424 166.958 291.006 167.426 291.416 167.757C291.952 168.122 292.5 168.475 293.059 168.806C294.142 169.468 295.271 170.015 296.378 170.631C296.423 170.654 296.458 170.677 296.503 170.699C296.549 170.699 296.583 170.722 296.629 170.734C299.412 171.441 302.103 172.479 304.932 173.106C305.514 173.232 306.472 173.562 307.361 173.779C307.646 173.722 308.057 173.688 308.593 173.699C310.794 173.733 312.962 173.87 315.163 173.745C315.391 173.733 315.63 173.699 315.881 173.665C315.003 173.608 315.334 173.06 317.683 173.38C319.645 172.867 321.596 172.41 323.523 171.749C324.116 171.27 325.439 170.893 326.055 170.574C327.846 169.627 329.591 168.589 331.279 167.472C332.02 166.981 332.75 166.457 333.48 165.943C333.526 165.898 333.56 165.875 333.617 165.818C335.18 164.404 336.788 163.058 338.293 161.586C341.578 158.404 344.521 154.96 347.463 151.458C347.726 151.139 347.999 150.888 348.25 150.683C348.741 149.975 349.208 149.154 349.585 148.63C350.908 146.793 352.197 144.934 353.463 143.064C360.477 132.662 366.739 121.678 373.08 110.866C364.435 90.5295 350.258 74.6643 316.896 62.8709C316.896 62.8709 276.247 43.1392 219.333 71.254C219.333 71.254 219.219 71.2883 219.002 71.3567C219.002 71.505 219.025 71.6418 219.036 71.7901L219.014 71.8243Z" fill="#534741"/>
<path d="M134.738 127.997C131.43 113.227 129.24 97.6927 130.461 82.8083L95.0008 99.9852C95.0008 99.9852 86.9941 161.655 105.22 201.985C107.946 198.13 111.938 195.108 116.466 193.659C116.535 193.637 116.58 193.625 116.637 193.602C116.683 193.568 116.729 193.545 116.774 193.523C117.105 193.34 117.413 193.135 117.744 192.929C118.519 191.96 120.241 190.842 120.949 190.089C121.519 189.485 122.078 188.869 122.614 188.23C122.762 188.048 122.876 187.9 122.99 187.774C124.347 185.653 126.412 182.014 126.765 181.353C127.587 179.813 128.317 178.25 129.058 176.676C129.32 176.003 129.583 175.331 129.834 174.646C132.252 168.031 133.837 161.256 135.114 154.344C135.114 154.333 135.114 154.321 135.114 154.299C135.137 154.013 135.171 153.66 135.206 153.227C135.354 151.584 135.468 149.953 135.514 148.299C135.548 147.159 135.548 146.03 135.514 144.889C132.799 139.859 132.229 133.94 134.727 127.986L134.738 127.997Z" fill="#534741"/>
<path d="M228.48 161.198C230.783 161.518 234.547 162.293 236.817 161.335L238.072 161.313L237.775 157.936C237.615 157.914 235.152 160.354 234.73 160.674C233.92 161.278 231.776 161.985 231.251 162.829L230.293 163.137C231.878 164.198 232.472 164.164 232.084 163.069C232.722 162.533 231.548 161.666 232.654 161.027C233.338 160.628 235.311 160.799 235.996 161.119C238.699 162.373 237.342 163.696 235.357 164.472L233.943 164.86C232.335 164.78 232.084 165.111 233.179 165.863C233.92 166.799 234.045 166.799 233.578 165.863C233.258 165.213 233.099 164.506 233.087 163.765C232.905 157.868 241.436 157.925 242.679 162.898C243.626 166.707 233.738 169.958 230.761 169.125C226.37 167.894 228.502 160.434 230.407 157.686C232.209 155.085 239.269 152.827 240.946 154.868C241.847 155.963 242.543 161.21 241.858 162.499C240.832 164.438 237.376 164.586 235.494 164.86C227.533 166 230.92 178.09 238.824 176.961C244.288 176.174 249.842 173.893 252.694 168.863C255.762 163.445 254.735 155.861 252.568 150.272C247.892 138.182 229.415 140.03 221.841 148.276C214.268 156.522 212.443 173.323 223.107 179.561C233.167 185.447 250.572 179.082 254.541 168.156C259.001 155.872 244.299 143.782 232.643 147.135C221.374 150.375 215.614 167.357 225.252 175.627C229.631 179.379 236.783 177.702 241.55 175.455C247.139 172.821 250.732 167.654 249.979 161.358C248.439 148.515 229.209 143.166 221.613 154.002C218.135 158.952 218.682 168.247 222.902 172.695C227.784 177.828 235.334 175.376 240.387 172.011C245.44 168.646 252.021 163.035 249.306 156.1C248.166 153.192 245.907 151.162 243.056 149.93C239.155 148.242 235.756 149.667 231.81 149.12C223.917 148.025 220.496 160.104 228.48 161.221V161.198Z" fill="#534741"/>
<path d="M152.587 271.251C147.261 271.502 141.946 270.909 136.745 269.723C135 269.323 133.186 268.901 131.487 268.343C134.886 283.603 139.277 295.807 144.421 294.039C144.421 294.039 147.945 294.769 149.314 286.341C149.314 286.341 149.77 294.678 153.637 294.21C153.637 294.21 159.214 295.34 160.012 287.595C160.275 285.017 161.187 278.22 162.282 270.304C159.066 270.761 155.826 271.103 152.576 271.251H152.587Z" fill="#352D29"/>
<path d="M291.541 275.62C286.021 275.745 280.329 274.901 275.003 273.441C278.128 285.257 281.915 293.675 286.26 292.192C286.26 292.192 289.785 292.922 291.153 284.493C291.153 284.493 291.609 292.831 295.476 292.363C295.476 292.363 301.053 293.492 301.852 285.748C302.057 283.786 302.627 279.418 303.369 273.966C299.559 274.947 295.624 275.528 291.541 275.631V275.62Z" fill="#352D29"/>
<path d="M208.395 274.593C200.822 274.206 193.716 273.966 186.747 272.198C189.986 285.303 194.001 295.044 198.643 293.447C198.643 293.447 202.167 294.177 203.536 285.748C203.536 285.748 203.992 294.086 207.859 293.618C207.859 293.618 213.436 294.747 214.235 287.003C214.44 285.018 215.866 280.616 217.873 275.175C214.736 275.107 211.634 274.753 208.395 274.593Z" fill="#534741"/>
<path d="M337.393 274.445C335.397 274.616 333.401 274.73 331.405 274.81C332.34 283.33 334.427 293.949 339.047 293.949C346.78 293.949 345.274 286.649 345.274 286.649C345.274 286.649 347.852 293.949 352.574 293.949C357.295 293.949 361.379 289.865 362.451 283.638C362.451 283.638 363.797 279.19 364.96 272.711C355.847 275.529 346.928 275.529 337.393 274.445Z" fill="#534741"/>
<path d="M61.6738 29.6123C50.5077 31.9847 29.9206 33.9921 18.9484 20.1685C17.2832 18.0699 14.3748 17.4425 12.0936 18.8454C4.41767 23.5445 -8.9725 35.3608 8.79742 53.8949C9.20802 54.3169 9.67567 54.6704 10.2003 54.9328C13.7817 56.7234 28.5976 62.6087 50.2226 50.7013C59.176 45.7741 64.1716 41.4057 66.8862 37.8244C69.7946 34.0035 66.3615 28.6086 61.6624 29.6009L61.6738 29.6123Z" fill="#EFE7DC"/>
<path d="M9.73308 20.4194C20.5 36.3417 40.8362 47.5191 59.4957 44.8388C57.0093 46.6865 53.9754 48.6483 50.2344 50.7013C28.6093 62.5973 13.7935 56.712 10.2121 54.9328C9.68745 54.6704 9.20842 54.3169 8.80923 53.8949C-7.23845 37.1629 2.11414 25.9055 9.73308 20.4194Z" fill="#BC9388"/>
<path d="M166.685 31.928C177.851 34.3004 198.438 36.3077 209.41 22.4842C211.075 20.3855 213.984 19.7582 216.265 21.1611C223.941 25.8602 237.331 37.6764 219.561 56.2105C219.151 56.6325 218.683 56.9861 218.158 57.2484C214.577 59.0391 199.761 64.9244 178.136 53.017C169.183 48.0897 164.187 43.7214 161.472 40.14C158.564 36.3191 161.997 30.9243 166.696 31.9166L166.685 31.928Z" fill="#534741"/>
<path d="M218.637 22.7351C207.87 38.6573 187.534 49.8348 168.874 47.1545C171.36 49.0022 174.394 50.964 178.135 53.017C199.76 64.913 214.576 59.0277 218.158 57.2484C218.682 56.9861 219.161 56.6326 219.561 56.2105C235.608 39.4785 226.256 28.2212 218.637 22.7351Z" fill="#BC9388"/>
<path d="M50.2327 50.7015C50.2327 50.7015 47.8718 9.90361 59.4941 1.60033C71.1164 -6.70294 67.3525 19.9862 75.6444 20.4196L50.2327 50.7015Z" fill="#B2936F"/>
<path d="M176.778 50.7015C176.778 50.7015 179.139 9.90361 167.517 1.60033C155.895 -6.70294 159.659 19.9862 151.367 20.4196L176.778 50.7015Z" fill="#B2936F"/>
<path d="M114.55 148.082C155.677 148.082 189.017 115.998 189.017 76.4209C189.017 36.8434 155.677 4.75952 114.55 4.75952C73.4226 4.75952 40.0825 36.8434 40.0825 76.4209C40.0825 115.998 73.4226 148.082 114.55 148.082Z" fill="#EFE7DC"/>
<path d="M132.718 113.832H96.3908C86.0917 113.832 77.7427 122.181 77.7427 132.48V133.928C77.7427 144.228 86.0917 152.577 96.3908 152.577H132.718C143.017 152.577 151.366 144.228 151.366 133.928V132.48C151.366 122.181 143.017 113.832 132.718 113.832Z" fill="#BC9388"/>
<path d="M97.4185 130.483C97.4185 130.483 108.425 132.183 109.736 142.938C109.976 144.946 99.711 131.487 97.4185 130.483Z" fill="#9B6F67"/>
<path d="M131.658 130.483C131.658 130.483 120.651 132.183 119.34 142.938C119.1 144.946 129.365 131.487 131.658 130.483Z" fill="#9B6F67"/>
<path d="M118.929 7.4056C107.911 15.1272 99.9503 36.2504 111.652 46.4584C116.545 50.7355 121.313 54.4195 122.214 61.2857C123.024 67.4789 119.614 75.6909 123.195 81.2455C131.818 94.6014 147.169 84.9865 158.951 83.1958C168.19 81.7929 179.995 83.173 187.956 89.2066C188.743 85.0207 189.188 80.7094 189.188 76.3068C189.188 38.7824 159.202 8.01011 121.028 4.91919C120.617 5.84304 119.944 6.69846 118.941 7.3942L118.929 7.4056Z" fill="#534741"/>
<path d="M62.1752 111.436C57.2479 106.771 56.153 101.753 59.5519 95.6396C61.5821 91.9898 62.0041 89.8342 60.6582 85.7738C59.5405 82.4091 57.841 79.2155 55.1835 76.809C51.0661 73.0679 45.6941 71.6764 40.2878 71.3C40.1624 72.9995 40.0825 74.7103 40.0825 76.444C40.0825 95.7194 48.0094 113.216 60.8863 126.093C65.3916 122.135 67.6841 116.672 62.1752 111.448V111.436Z" fill="#534741"/>
<path d="M62.5733 56.8948C62.5961 57.0773 62.6759 57.0545 62.8128 56.8264C63.8393 56.4956 63.4743 56.0394 61.7179 55.4463C61.8319 55.3551 61.3643 57.0887 61.3073 57.18C61.0678 57.3967 60.7826 57.5449 60.4747 57.6248C61.8091 59.2786 62.3566 59.3698 62.1285 57.9327C62.4592 57.2142 62.4592 56.4614 62.9269 55.7771C63.2348 55.3323 65.3905 54.1233 65.4247 53.9864C63.9762 52.5379 63.4173 52.344 63.7253 53.3819C63.7481 53.7811 63.7481 54.1917 63.7253 54.5909C63.6226 55.4919 63.269 56.4158 62.7558 57.1686C62.368 57.7388 61.5126 58.1266 61.2046 58.6399C61.0107 58.7996 60.794 58.8908 60.5545 58.925C61.2502 59.8945 61.4784 59.8375 61.2388 58.7425C61.6723 57.6248 61.0677 56.2105 61.6722 55.0357C62.4592 53.5074 64.3184 52.9029 65.8923 52.5835C66.1775 52.5151 66.4626 52.4581 66.7477 52.4124C67.7514 52.5835 67.8085 52.3326 66.9188 51.6711C66.3828 52.4694 66.1547 53.5758 65.6072 54.4198C65.0141 55.3437 64.3069 56.3131 63.4287 56.9975C62.6988 57.5678 61.9916 57.5564 62.1285 58.0012C60.6572 53.0968 52.947 55.184 54.4297 60.1226C56.5055 67.023 64.4666 66.8747 69.0745 62.6433C72.7927 59.233 77.0926 52.3098 73.6709 47.4168C70.2493 42.5238 62.311 44.3373 58.1821 47.2913C53.4944 50.6332 51.2475 58.9821 54.6464 63.9549C58.4673 69.5436 66.0862 66.2474 69.2228 61.8449C71.9601 58.0012 73.3744 50.2111 68.9604 46.9491C63.7595 43.1169 56.5055 49.5496 54.8289 54.3058C53.905 56.9291 53.6997 60.4306 55.0798 62.9398C56.6766 65.8368 60.2466 66.0535 63.1094 65.1639C69.0973 63.3048 72.4962 54.3172 67.1926 49.8576C64.6833 47.7475 60.9765 48.5345 58.4445 50.1997C55.3307 52.2413 54.2472 55.5034 54.8517 59.0619C55.7071 64.1146 63.3945 61.9703 62.5505 56.9405L62.5733 56.8948Z" fill="#534741"/>
<path d="M72.2697 103.087C73.0795 101.547 74.0033 100.053 75.0754 98.6731C75.9081 97.6124 77.0714 96.1753 78.1436 95.4225C78.748 94.9891 79.1473 94.7952 79.8088 94.875C79.5236 94.8408 80.0711 94.9663 80.0825 94.9663C79.8316 94.8522 80.3676 95.2172 80.0825 94.9663C80.1167 95.0005 80.4133 95.3769 80.2308 95.1031C80.2878 95.1944 80.3448 95.2856 80.3905 95.3769C80.3334 95.2172 80.3334 95.2286 80.4019 95.4225C80.4475 95.5822 80.4931 95.7419 80.5159 95.9015C80.4703 95.5366 80.4931 96.0726 80.5045 96.1068C80.5387 96.5402 80.6072 95.8331 80.4817 96.3463C80.4475 96.4718 80.4247 96.6087 80.3791 96.7341C80.1966 97.3386 79.6947 98.08 79.2955 98.5819C78.3146 99.8251 77.06 101.023 75.8624 101.867C75.2579 102.289 74.6306 102.745 73.9463 103.03C74.106 102.962 73.5129 103.178 73.5813 103.155C73.6383 103.133 72.9882 103.281 73.2277 103.235C72.8514 103.315 73.0909 103.178 73.2277 103.327C73.3532 103.418 73.4673 103.532 73.5471 103.669C73.5699 103.828 73.5699 103.806 73.5471 103.589C73.6155 102.106 73.9805 100.795 74.9614 99.5285C75.7712 98.4906 77.0942 97.3272 78.269 96.6087L78.4401 96.506C78.634 96.4034 78.6682 96.3806 78.5542 96.449C78.4857 96.449 78.4287 96.449 78.3603 96.449C78.155 96.4034 78.0067 96.3007 77.9154 96.1183C78.2348 96.449 77.7558 95.8787 77.9725 96.2779C77.8812 96.1068 77.9953 95.9471 77.9154 96.2323C77.8014 96.6315 78.0067 96.1638 77.79 96.5174C77.6645 96.7341 77.5276 96.9509 77.3908 97.1562C77.4136 97.122 77.0486 97.6124 77.2083 97.4185C77.0486 97.6124 76.8775 97.8063 76.7065 97.9888C75.5317 99.2434 74.1744 100.087 72.5548 100.897L75.064 102.825C75.4975 101.011 76.3073 99.3688 77.4934 98.0002C78.2576 97.1219 78.0979 95.97 77.1513 95.3084C75.9423 94.4758 74.5964 95.1716 73.6155 95.9814C72.7715 96.6885 71.9845 97.4755 71.2774 98.3195C69.8061 100.087 68.4944 102.654 70.0684 104.821L72.7601 102.745C72.532 102.517 72.6346 102.642 72.7031 102.733L72.6575 102.551C72.6803 102.665 72.6803 102.665 72.6803 102.551C72.7031 102.175 72.7145 101.855 72.6346 101.479C72.4408 100.441 71.6424 99.8593 70.6273 99.768C69.692 99.6882 68.9278 100.623 68.9164 101.479C68.8936 102.608 69.0077 103.76 69.7376 104.684C70.5018 105.653 71.7336 106.144 72.9426 105.802L71.6195 102.676C71.4257 102.813 71.5511 102.722 71.6994 102.699C71.802 102.699 71.802 102.699 71.6994 102.699C71.5739 102.699 71.5967 102.699 71.7678 102.699C71.8249 102.791 71.8819 102.802 71.7564 102.676C71.745 102.665 71.9275 102.836 71.9275 102.836C72.0188 102.893 71.8363 102.574 71.8819 102.791C71.8819 102.745 71.8819 102.323 71.8705 102.46C71.8705 102.574 71.9617 102.129 71.9617 102.118C71.9617 102.118 72.0644 101.832 72.0074 101.969C72.4636 100.897 73.3304 99.7908 73.9577 99.0267C75.5431 97.1105 77.2311 95.7419 79.5008 94.7496C80.3448 94.3846 80.5387 93.1414 80.1167 92.4114C79.6035 91.5332 78.6226 91.4305 77.7786 91.7955C74.6649 93.1528 72.1556 95.5708 70.2281 98.3309C69.1673 99.8479 68.118 101.604 68.5629 103.532C69.0077 105.459 71.5055 106.954 73.3418 105.653C74.0375 105.163 74.4025 104.342 74.0375 103.52C73.6954 102.756 72.8514 102.289 72.0188 102.528C72.0644 102.517 72.7031 102.597 72.2925 102.528C72.4864 102.562 72.4522 102.779 72.3837 102.562C72.3381 102.403 72.3495 102.517 72.3381 102.289C72.3267 102.026 72.3381 101.764 72.3381 101.513L70.6273 103.224H70.7299C70.4448 103.155 70.1596 103.076 69.8631 102.996C69.7604 102.95 69.1673 102.277 69.27 102.095C69.2472 102.14 69.27 102.311 69.27 102.368C69.2472 102.733 69.27 103.041 69.3384 103.406C69.4753 104.091 69.8517 104.707 70.3421 105.197C70.9466 105.79 71.9275 105.859 72.589 105.334C73.2049 104.844 73.5357 103.828 73.0339 103.121C73.0339 103.121 72.7943 102.768 72.8514 102.848C72.9312 102.984 72.7715 102.551 72.8171 102.802C72.7487 102.414 72.7715 102.517 72.8628 102.152C72.9654 101.73 73.4102 101.137 73.7068 100.772C74.163 100.224 74.6534 99.6996 75.1667 99.2092C75.429 98.9582 75.6913 98.7301 75.9651 98.4906C76.0905 98.3765 75.9537 98.4906 76.1362 98.3537L76.2845 98.2739C76.0335 98.445 75.7598 98.445 75.429 98.2739L75.0869 95.5822C73.5015 97.4071 72.3381 99.5513 71.7792 101.912C71.4257 103.418 72.954 104.513 74.2885 103.84C76.159 102.905 77.9953 101.707 79.3868 100.11C80.8695 98.4222 82.4777 95.5708 80.2992 93.7002C78.1207 91.8297 75.3492 94.339 73.7296 95.8445C72.11 97.35 70.7527 99.3346 70.3307 101.559C70.1026 102.791 69.9315 104.228 70.5817 105.357C71.3458 106.691 73.0567 106.805 74.3911 106.452C76.5582 105.881 78.5884 104.193 80.1623 102.665C81.7363 101.137 83.4243 99.2206 83.8121 97.0193C84.2113 94.6925 83.1164 92.0693 80.63 91.5218C77.7444 90.8831 75.4861 92.9475 73.7182 94.9435C71.9503 96.9395 70.5132 99.0267 69.3156 101.319C68.8822 102.14 69.1103 103.178 69.9315 103.657C70.7071 104.114 71.8477 103.863 72.2697 103.041V103.087Z" fill="#3F3832"/>
<path d="M155.839 102.289C154.767 100.236 153.466 98.3315 151.984 96.5522C150.501 94.773 148.847 92.8683 146.555 92.4805C144.057 92.047 141.696 93.5183 141.319 96.096C140.943 98.6737 142.323 100.67 143.886 102.472C145.323 104.126 147.091 105.62 149.018 106.68C150.17 107.319 151.505 107.775 152.839 107.513C154.345 107.216 155.006 105.836 155.006 104.422C155.006 101.993 154.025 99.7686 152.486 97.9323C151.813 97.1225 151.026 96.4268 150.193 95.7767C149.201 95.0011 148.163 94.0886 146.851 93.986C145.346 93.8719 144.068 95.0125 143.829 96.461C143.589 97.9095 144.273 99.1755 145.117 100.282C146.612 102.255 148.642 103.692 150.843 104.798C152.178 105.471 153.717 104.365 153.352 102.871C152.793 100.51 151.63 98.3657 150.045 96.5409L149.703 99.2326C149.395 99.3922 149.132 99.4037 148.904 99.2554C148.824 99.2098 148.836 99.2211 148.927 99.2668C148.961 99.301 149.235 99.4835 149.098 99.3694C149.383 99.5861 149.634 99.8371 149.896 100.077C150.444 100.59 150.957 101.137 151.436 101.708C151.63 101.936 151.71 102.038 151.892 102.335C152.041 102.563 152.2 102.871 152.246 102.996C152.292 103.145 152.349 103.304 152.36 103.453C152.337 103.225 152.337 103.578 152.337 103.647C152.337 103.772 152.337 103.772 152.337 103.647L152.292 103.818C152.428 103.601 152.121 104.057 152.121 104.046C151.63 104.73 151.938 105.791 152.565 106.258C153.238 106.76 154.196 106.737 154.812 106.122C155.303 105.631 155.679 105.015 155.816 104.331C155.884 104 155.907 103.681 155.884 103.35C155.884 103.282 155.884 103.156 155.873 103.088C155.873 102.985 155.873 102.996 155.85 103.122C155.805 103.453 155.611 103.726 155.28 103.92L154.413 104.148H154.516C153.945 103.567 153.375 102.996 152.805 102.426C152.805 102.688 152.805 102.951 152.805 103.202C152.793 103.43 152.805 103.327 152.759 103.475C152.691 103.692 152.657 103.475 152.85 103.441C152.428 103.51 153.067 103.43 153.124 103.441C152.314 103.213 151.413 103.658 151.105 104.434C150.775 105.266 151.094 106.065 151.801 106.566C153.626 107.855 156.01 106.487 156.557 104.536C157.105 102.586 155.976 100.761 154.915 99.244C152.987 96.4952 150.478 94.0658 147.364 92.7086C146.52 92.3436 145.528 92.4576 145.026 93.3245C144.604 94.0544 144.787 95.2976 145.642 95.6626C147.912 96.6549 149.6 98.035 151.185 99.9397C151.813 100.692 152.611 101.753 153.09 102.791C153.147 102.917 153.25 103.179 153.284 103.418C153.25 103.179 153.272 103.567 153.261 103.612C153.261 103.738 153.261 103.738 153.261 103.612L153.204 103.783C153.204 103.783 153.25 103.669 153.33 103.612C153.409 103.567 153.398 103.567 153.318 103.612C153.215 103.669 153.227 103.669 153.375 103.601C153.421 103.521 153.626 103.669 153.375 103.601C153.501 103.635 153.786 103.761 153.535 103.578L152.212 106.703C153.421 107.045 154.653 106.555 155.417 105.585C156.135 104.662 156.249 103.51 156.238 102.381C156.227 101.514 155.462 100.59 154.527 100.67C153.512 100.761 152.714 101.343 152.52 102.381C152.463 102.7 152.428 103.031 152.474 103.361C152.474 103.555 152.474 103.612 152.497 103.498C152.52 103.396 152.508 103.441 152.463 103.635C152.52 103.555 152.645 103.407 152.406 103.647L155.097 105.722C156.671 103.555 155.36 100.989 153.888 99.2212C153.204 98.4 152.451 97.6358 151.63 96.9514C150.638 96.1074 149.269 95.3433 148.015 96.2101C147.068 96.8602 146.908 98.0236 147.672 98.9018C148.847 100.259 149.668 101.913 150.102 103.726L152.611 101.799C151.197 101.092 149.919 100.305 148.859 99.2896C148.288 98.7421 147.946 98.3429 147.57 97.7384C147.387 97.4419 147.307 97.3392 147.25 97.1339C147.136 96.7347 147.273 97.0883 147.193 97.1796C147.25 96.9857 147.239 96.9743 147.17 97.1453C147.273 96.9743 147.273 96.9743 147.17 97.1339C147.615 96.9743 146.577 97.4875 146.612 97.3506L146.555 97.3164C146.669 97.3735 146.783 97.4419 146.897 97.5103C147.228 97.7156 147.535 97.9551 147.855 98.1946C148.334 98.5596 149.075 99.1984 149.588 99.7458C150.581 100.784 151.311 101.993 151.573 103.498C151.619 103.761 151.607 104.114 151.63 104.491C151.653 104.867 151.584 104.57 151.699 104.491C151.482 104.673 152.178 104.023 152.166 104.148C152.166 104.228 151.368 104 151.219 103.932C150.946 103.818 150.49 103.532 150.159 103.327C148.847 102.506 147.752 101.571 146.68 100.396C146.144 99.8143 145.733 99.3238 145.334 98.6851C145.14 98.3772 144.969 98.0692 144.878 97.8297C144.832 97.7042 144.798 97.5788 144.764 97.4419C144.73 97.3164 144.707 97.1796 144.684 97.0427C144.707 97.2252 144.718 97.2138 144.695 97.0085C144.695 96.9743 144.73 96.4382 144.684 96.8032C144.707 96.6435 144.753 96.4838 144.798 96.3241C144.912 95.8907 144.661 96.518 144.889 96.1416C145.14 95.7196 144.673 96.3469 145.003 95.982C145.22 95.7424 144.832 95.982 145.186 95.8451C144.935 95.9363 145.482 95.7653 145.471 95.7653C145.186 95.8223 145.756 95.7653 145.756 95.7653C145.973 95.7767 146.007 95.7767 145.87 95.7653C145.996 95.7881 146.121 95.8223 146.235 95.8565C146.486 95.9249 146.885 96.1644 147.216 96.4154C147.353 96.518 147.707 96.8602 147.923 97.0769C148.608 97.7613 149.258 98.4912 149.874 99.244C151.014 100.647 152.063 102.312 152.93 103.966C153.364 104.787 154.504 105.027 155.268 104.582C156.101 104.091 156.306 103.065 155.884 102.244L155.839 102.289Z" fill="#3F3832"/>
</svg>
