<svg width="405" height="380" viewBox="0 0 405 380" fill="none" xmlns="http://www.w3.org/2000/svg">
<g clip-path="url(#clip0_386_11622)">
<path opacity="0.12" d="M207.844 380C286.273 380 349.852 365.276 349.852 347.113C349.852 328.95 286.273 314.226 207.844 314.226C129.415 314.226 65.8359 328.95 65.8359 347.113C65.8359 365.276 129.415 380 207.844 380Z" fill="black"/>
<path d="M87.8565 193.172C87.8565 193.172 73.8629 262.396 27.1948 236.441C27.1948 236.441 52.4988 275.899 88.6264 234.62C124.765 193.342 87.8565 193.172 87.8565 193.172Z" fill="#534741"/>
<path d="M29.4026 238.307C30.4328 233.964 29.0629 229.644 27.5684 225.584C26.1985 221.875 23.7644 219.274 20.0282 217.883C15.6467 216.254 -0.21502 215.214 3.53246 224.114C5.26469 228.208 8.57062 231.669 12.1822 234.179L13.4956 231.081C10.1896 230.47 6.30628 229.825 3.31735 231.816C0.973759 233.388 -0.67921 236.305 0.3171 239.144C1.31341 241.983 4.6986 243.713 7.40449 244.697C10.6878 245.884 14.2088 246.054 17.628 245.398L16.3147 242.299C14.1069 243.928 9.82733 248.225 12.9182 250.951C16.009 253.676 19.8923 249.153 22.0208 247.151C23.5492 245.726 25.0437 244.267 26.5042 242.774C27.7043 241.553 29.346 240.218 29.9347 238.556C30.6253 236.611 29.7762 234.801 28.9157 233.082C28.0553 231.363 27.0929 229.52 25.9947 227.846C23.9342 224.714 21.2509 221.943 17.7299 220.484C14.7523 219.251 10.8916 218.901 8.31022 221.196C2.02668 226.794 15.5335 233.874 19.564 235.491C21.3981 236.226 23.1983 236.057 23.7417 233.885C24.2399 231.906 23.085 229.995 21.6925 228.672C18.579 225.72 14.3107 223.696 10.3934 222.067C8.84234 221.423 7.97057 223.402 8.48005 224.555C10.3821 228.921 14.7636 231.748 19.4734 231.985C20.8886 232.053 21.4208 230.526 20.9452 229.429C19.4734 226.071 16.0543 223.967 12.4313 223.922C11.469 223.922 10.7897 224.714 10.7331 225.618C10.5746 228.072 12.8729 230.176 14.8768 231.25C16.8808 232.325 19.915 231.884 20.5603 229.384C21.149 227.134 18.8621 224.928 16.6317 225.584C14.2768 226.274 13.9824 229.102 15.3184 230.809C16.6543 232.517 19.0432 230.119 17.7186 228.412C18.0016 228.728 17.8431 228.853 17.2544 228.774C17.4921 228.389 17.4695 228.287 17.1525 228.468C16.8241 228.265 16.3486 228.208 15.9863 227.948C15.2391 227.428 14.0503 226.614 14.1183 225.618L12.42 227.315C14.9561 227.337 17.0053 228.853 18.0016 231.137L19.4734 228.581C15.8618 228.4 12.8276 226.105 11.4124 222.836L9.499 225.324C11.82 226.286 14.0616 227.462 16.1788 228.807C16.6996 229.135 21.466 232.178 20.4131 233.048L21.6132 232.551C20.866 232.619 19.7791 231.906 19.1225 231.59C18.1827 231.137 17.2657 230.64 16.3826 230.097C14.6617 229.045 13.054 227.812 11.5822 226.421C11.0954 225.958 10.0424 225.143 10.1443 224.363C10.2236 223.786 10.9369 223.402 11.4124 223.198C12.9748 222.531 14.8995 222.949 16.4166 223.56C20.2999 225.155 22.7907 228.774 24.7154 232.325C25.4513 233.682 27.5118 236.396 26.4476 237.877C25.2588 239.529 23.5153 240.965 22.0661 242.379C20.3226 244.086 18.545 245.749 16.7222 247.366C16.4166 247.637 15.7486 248.395 15.2957 248.361C15.1485 248.361 15.2165 248.338 15.2504 248.384C15.3184 248.485 15.6014 247.875 15.6467 247.796C16.2354 246.778 17.0845 245.896 18.0242 245.194C19.564 244.064 18.6696 241.723 16.7109 242.096C14.3673 242.537 11.9558 242.446 9.64619 241.824C7.73282 241.304 5.36658 240.399 4.03062 238.839C2.69466 237.278 3.72493 235.548 5.18543 234.609C7.31391 233.252 10.2915 233.897 12.5898 234.326C14.4919 234.677 15.5108 232.347 13.9031 231.228C11.0048 229.215 7.98189 226.195 6.66858 222.836C5.98927 221.083 7.30259 220.631 8.8197 220.382C10.6991 220.077 12.7483 220.111 14.6504 220.224C18.262 220.439 22.0435 221.728 23.753 225.143C24.6361 226.908 25.2135 228.921 25.7343 230.821C26.3344 232.981 26.6627 235.163 26.1419 237.369C25.6211 239.574 28.9157 240.399 29.4139 238.273L29.4026 238.307Z" fill="#534741"/>
<path d="M9.43103 228.559C14.2314 228.649 16.9939 232.901 18.5563 236.95C20.5376 242.084 28.4855 241.677 28.5647 235.593C28.644 229.509 27.3986 217.498 18.5676 218.607C16.2354 218.901 14.3786 219.998 13.654 222.339C11.8312 228.253 16.4165 235.31 19.0432 240.411C21.2509 244.697 26.8778 242.921 28.3496 239.201C30.7498 233.162 29.7988 226.229 25.723 221.14C22.3604 216.944 16.4958 213.563 10.9595 214.569C5.42315 215.576 2.4229 221.038 3.87208 226.387C4.59667 229.056 6.35153 231.182 8.45737 232.901C10.1896 234.315 14.2088 235.751 15.1145 237.911L21.3868 231.646C15.3863 230.391 -0.396205 225.064 0.702 236.713C1.66435 246.936 15.9637 244.324 22.7227 243.136C29.1648 242.005 26.4362 232.189 20.0168 233.32C18.262 233.625 16.5071 233.851 14.7296 233.964C13.8352 234.021 12.9408 234.055 12.0577 234.066C9.51029 234.089 9.86126 233.422 8.77438 236.611C7.68749 239.8 7.56295 239.133 9.91787 239.63C10.8123 239.823 11.718 240.004 12.6124 240.196C14.639 240.626 16.6543 241.044 18.6809 241.474C22.0208 242.175 26.5721 239.088 24.9531 235.208C23.7077 232.223 22.0774 230.074 19.4621 228.14C18.5563 227.473 17.6279 226.896 16.6882 226.286C15.624 225.584 14.6617 224.306 13.722 223.696C13.3823 223.537 13.2351 223.854 13.3031 224.634C14.005 224.77 14.673 225.019 15.2957 225.381C16.258 225.89 17.1411 226.602 17.8317 227.462C20.0281 230.187 19.7791 233.444 18.5563 236.509L27.8628 235.299C26.9457 233.523 26.0626 231.737 25.2361 229.916C24.7153 228.774 23.1077 226.353 23.5039 225.075L18.5903 228.808C17.5034 227.563 17.1751 227.462 17.6053 228.502C17.7978 229.192 17.9563 229.882 18.0808 230.583C18.3865 232.257 18.4205 233.919 18.3978 235.616L28.4062 234.259C25.1456 225.811 19.2017 218.561 9.45368 218.392C2.89841 218.279 2.89841 228.457 9.45368 228.57L9.43103 228.559Z" fill="#534741"/>
<path d="M21.8512 243.351C28.4065 243.351 28.4178 233.173 21.8512 233.173C15.2846 233.173 15.2846 243.351 21.8512 243.351Z" fill="#534741"/>
<path d="M16.6545 217.623C12.8504 216.888 8.48025 215.35 5.57057 218.855C2.93261 222.022 4.15535 226.433 7.17825 228.819L12.1372 220.314C12.9976 220.461 13.7562 221.796 13.7675 222.644C13.7788 223.492 13.4278 224.159 12.7259 224.612C12.3636 224.702 12.3523 224.714 12.7032 224.612C13.0655 224.51 13.0429 224.521 12.6466 224.634C12.4881 224.612 12.5787 224.646 12.9184 224.725C13.4392 224.951 13.926 225.177 14.4355 225.46L18.3641 216.164C15.2167 215.497 11.4465 214.094 8.23117 214.886C4.71012 215.757 2.49106 218.935 2.63825 222.508C2.92129 229.305 11.0842 232.212 16.5639 233.784C22.8815 235.593 25.576 225.777 19.2698 223.967C17.9565 223.594 16.6432 223.176 15.3865 222.61C14.5826 222.248 12.7259 221.083 12.5447 221.106C12.2957 220.868 12.2843 220.857 12.4881 221.083C12.7938 221.604 12.8731 222.135 12.7146 222.667L10.1332 224.838C9.72563 224.725 9.83885 224.736 10.4729 224.883C12.2051 225.189 13.9373 225.618 15.6582 225.98C21.1266 227.145 24.8061 219.647 19.5868 216.684C15.0582 214.106 9.04633 213.28 5.38942 217.804C2.07216 221.909 3.79306 229.158 9.43127 230.142C11.6843 230.538 13.9713 229.882 15.1827 227.801C16.2356 226.014 16.1337 223.017 14.3902 221.637C14.1637 221.468 13.9486 221.298 13.7448 221.106C12.6919 220.077 12.7712 221.219 13.9826 224.533L12.1598 226.353L12.5221 226.127L9.95207 226.817C9.53316 226.534 9.69167 226.523 10.4389 226.783L11.4918 226.987L13.96 227.462C16.6545 227.982 19.4623 226.704 20.2322 223.911C20.9228 221.423 19.383 218.177 16.6772 217.645L16.6545 217.623Z" fill="#534741"/>
<path d="M18.0811 242.322C18.0018 242.752 17.866 243.159 17.7075 243.566L17.9339 243.023C17.7075 243.555 17.4131 244.041 17.0734 244.493L17.4244 244.041C17.0848 244.471 16.6998 244.855 16.2583 245.195L16.7111 244.844C16.3262 245.138 15.9186 245.387 15.4771 245.59C14.9902 245.817 14.5713 246.45 14.4355 246.947C14.2883 247.49 14.3562 248.214 14.6619 248.689C14.9676 249.164 15.4431 249.594 16.0205 249.729L16.6206 249.809C17.0282 249.809 17.4131 249.707 17.7641 249.503C18.4094 249.209 18.9528 248.802 19.5076 248.361C19.9152 248.033 20.2888 247.66 20.6171 247.241C21.0474 246.687 21.4549 246.133 21.7493 245.5C22.0437 244.867 22.3041 244.222 22.4399 243.532C22.5531 242.933 22.5305 242.333 22.2135 241.79C21.9418 241.327 21.3983 240.874 20.8549 240.75C20.2775 240.614 19.6208 240.648 19.1113 240.976C18.6358 241.282 18.183 241.757 18.0698 242.333L18.0811 242.322Z" fill="#534741"/>
<path d="M290.832 217.758C290.832 217.758 279.884 359.349 262.449 351.806C262.449 351.806 257.671 353.061 255.814 338.62C255.814 338.62 255.192 352.903 249.95 352.1C249.95 352.1 242.387 354.034 241.3 340.768C240.224 327.503 214.026 251.584 214.026 251.584L290.821 217.77L290.832 217.758Z" fill="#D8C6B4"/>
<path d="M175.555 297.092C195.594 247.14 115.946 207.365 115.946 207.365C115.946 207.365 114.95 215.327 113.953 227.349C115.436 228.479 116.84 229.61 118.165 230.673C125.456 236.532 133.811 242.752 139.619 250.046C142.812 254.05 143.186 258.913 139.619 262.848C138.793 263.764 137.887 264.533 136.936 265.212C140.989 268.808 144.839 272.585 148.19 276.713C152.628 282.198 150.432 292.829 141.782 292.173C130.675 291.325 120.701 286.462 112.006 279.789C112.572 307.078 116.421 332.965 128.286 338.733C155.402 351.897 194.677 351.987 194.677 351.987C205.331 353.197 213.652 349.081 215.52 342.205C217.388 335.329 206.418 328.317 206.418 328.317C206.418 328.317 217.818 333.768 220.875 322.515C223.944 311.263 175.543 297.104 175.543 297.104L175.555 297.092Z" fill="#D8C6B4"/>
<path d="M249.225 319.485C259.483 318.829 269.129 318.41 278.582 315.391C274.189 337.839 268.744 354.532 262.46 351.806C262.46 351.806 257.682 353.062 255.826 338.62C255.826 338.62 255.203 352.903 249.961 352.1C249.961 352.1 242.398 354.034 241.311 340.768C241.028 337.364 239.104 329.821 236.375 320.491C240.632 320.367 244.832 319.767 249.225 319.485Z" fill="#534741"/>
<path d="M189.956 311.512C191.02 308.684 192.016 305.834 192.933 302.951C206.565 308.107 223.162 315.888 221.328 322.617C218.26 333.87 206.87 328.419 206.87 328.419C206.87 328.419 217.841 335.43 215.973 342.306C214.105 349.182 205.772 353.299 195.13 352.089C195.13 352.089 187.284 352.066 176.188 350.868C184.431 338.857 187.974 325.863 189.967 311.5L189.956 311.512Z" fill="#534741"/>
<path d="M317.076 99.1024C317.076 99.1024 373.956 179.115 349.818 225.177C349.818 225.177 338.995 245.918 309.615 268.016C280.246 290.115 263.105 301.096 263.105 301.096C263.105 301.096 244.809 306.965 206.599 305.065L133.71 337.941C133.71 337.941 126.837 306.06 86.1584 270.052C86.1584 270.052 58.8504 218.584 105.824 169.525C105.824 169.525 132.283 133.335 195.266 131.492C195.266 131.492 222.494 127.296 226.717 102.45L317.076 99.0911V99.1024Z" fill="#EAE2D8"/>
<path d="M195.243 132.114C197.111 135.755 199.274 139.16 201.606 142.518C203.032 144.543 204.47 146.544 205.919 148.546C207.369 150.559 207.504 150.751 206.327 149.123C207.086 150.231 207.867 151.317 208.603 152.448C210.063 154.676 211.252 157.005 212.599 159.29C212.792 159.618 213.143 160.59 213.301 160.986C213.528 161.834 213.731 162.694 213.89 163.553C213.856 162.174 213.867 162.083 213.924 163.282C214.037 164.628 214.048 165.985 214.003 167.342C213.98 168.088 213.935 168.835 213.867 169.57C213.822 169.502 213.437 171.696 213.222 172.409C212.961 173.234 212.667 174.037 212.35 174.84C211.909 175.519 211.433 176.163 211.252 176.435C211.071 176.729 210.641 177.486 210.176 178.233C210.018 178.414 209.757 178.708 209.395 179.126C209.067 179.488 208.738 179.85 208.41 180.201C206.519 182.236 204.493 184.159 202.421 186.025C194.36 193.285 186.084 199.11 181.465 209.322C178.894 214.999 177.74 221.253 177.842 227.496C177.864 228.762 177.955 230.029 178.045 231.295C178.17 232.72 178.272 233.863 178.351 234.722C178.362 234.937 178.374 235.163 178.385 235.378C178.362 238.239 178.317 241.055 178.193 243.917C178.193 244.075 178.193 244.199 178.193 244.324C178.147 244.448 178.113 244.55 178.068 244.708C177.706 245.85 177.343 247.049 177.049 248.203C176.936 248.655 176.653 249.334 176.438 249.809C176.132 250.374 175.826 250.94 175.498 251.494C174.853 252.568 174.117 253.586 173.437 254.638C173.415 254.683 173.392 254.717 173.358 254.762C173.324 254.785 173.302 254.819 173.268 254.841C171.15 256.764 169.282 258.912 167.097 260.779C166.644 261.163 165.965 261.898 165.274 262.498C165.003 262.588 164.629 262.746 164.154 263.006C162.24 264.058 160.406 265.189 158.414 266.105C158.21 266.196 157.983 266.286 157.746 266.365C158.493 265.902 157.949 265.585 156.036 266.953C154.077 267.417 152.153 267.926 150.16 268.243C149.413 268.096 148.088 268.39 147.397 268.39C145.382 268.39 143.378 268.299 141.374 268.096C140.491 268.005 139.619 267.892 138.736 267.779C138.668 267.768 138.634 267.756 138.567 267.734C136.54 267.213 134.502 266.784 132.498 266.207C128.139 264.94 123.95 263.3 119.75 261.604C119.365 261.446 119.014 261.355 118.708 261.287C117.938 260.892 117.157 260.394 116.58 260.111C114.565 259.127 112.561 258.098 110.579 257.035C99.5973 251.188 88.9888 244.471 78.3917 237.968C76.5123 216.141 81.5391 195.649 105.315 169.807C105.315 169.807 131.774 133.618 194.756 131.775C194.756 131.775 194.881 131.752 195.096 131.718C195.164 131.842 195.209 131.978 195.277 132.114H195.243Z" fill="#534741"/>
<path d="M295.281 142.111C291.307 127.647 285.998 113.024 277.993 100.55L317.076 99.1024C317.076 99.1024 352.807 149.383 355.603 193.172C351.426 191.057 346.512 190.277 341.87 191.114C341.802 191.125 341.757 191.137 341.7 191.148C341.644 191.148 341.599 191.148 341.542 191.148C341.168 191.148 340.795 191.103 340.421 191.08C339.289 190.594 337.262 190.413 336.289 190.085C335.507 189.825 334.738 189.531 333.968 189.225C333.753 189.135 333.583 189.067 333.424 188.999C331.25 187.778 327.752 185.55 327.129 185.131C325.692 184.17 324.322 183.13 322.94 182.1C322.397 181.637 321.853 181.162 321.321 180.687C316.113 176.016 311.585 170.825 307.248 165.363C307.248 165.352 307.237 165.34 307.226 165.329C307.067 165.091 306.886 164.797 306.648 164.436C305.754 163.067 304.894 161.687 304.09 160.274C303.524 159.29 303.003 158.295 302.493 157.288C302.539 151.611 300.274 146.183 295.315 142.123L295.281 142.111Z" fill="#534741"/>
<path d="M221.136 204.888C216.29 208.383 210.256 209.209 208.263 215.677C206.146 222.542 211.139 227.088 217.275 228.751C222.313 230.108 228.767 230.888 233.59 228.344C239.67 225.143 239.919 218.708 237.586 212.929C232.582 200.523 216.154 202.073 210.358 213.235C207.799 218.165 208.354 224.714 212.09 228.909C216.188 233.512 222.438 233.998 228.11 232.686C234.462 231.205 239.138 227.801 238.719 220.687C238.379 214.965 235.175 209.401 230.261 206.404C218.668 199.324 205.818 209.005 204.55 221.242C202.987 236.362 221.091 239.664 232.163 235.604C245.308 230.787 246.655 217.193 237.994 207.32C233.409 202.095 227.137 198.702 220.072 199.517C213.516 200.274 204.459 204.074 202.568 211.075C201.017 216.808 203.769 225.064 207.471 229.565C212.498 235.661 220.094 235.819 227.114 233.32C234.609 230.651 231.382 218.629 223.808 221.321C222.019 221.954 219.109 223.311 217.309 222.022C216.03 221.095 214.456 216.514 214.739 215.033C215.351 211.798 223.321 211.312 226.038 213.144C229.457 215.451 234.099 221.027 228.801 223.605C225.755 225.087 216.245 226.636 217.162 221.389C217.966 216.774 222.506 214.92 225.461 218.765C227.069 220.846 226.321 220.62 224.046 220.812C221.77 221.004 220.23 220.303 222.064 218.075C222.483 217.555 224.431 216.299 225.133 216.492C225.835 216.684 225.517 217.283 226.118 217.6L226.536 218.968L227.578 217.396C227.182 217.136 225.178 217.476 224.691 217.453C223.31 217.363 220.808 216.186 219.664 216.492C218.351 215.847 218.283 216.277 219.483 217.792C219.574 219.342 220.038 219.749 220.887 219.025C222.585 219.104 226.14 216.594 227.431 215.655C233.862 211.007 227.657 200.206 221.147 204.911L221.136 204.888Z" fill="#534741"/>
<path d="M329.235 231.081C329.235 231.081 318.287 372.672 300.852 365.128C300.852 365.128 296.074 366.384 294.217 351.942C294.217 351.942 293.594 366.225 288.352 365.422C288.352 365.422 280.79 367.356 279.703 354.091C278.627 340.825 252.429 264.906 252.429 264.906L329.224 231.092L329.235 231.081Z" fill="#EAE2D8"/>
<path d="M138.838 310.177C141.317 304.002 142.268 297.986 142.031 292.173C141.951 292.173 141.861 292.173 141.782 292.173C124.708 290.872 110.273 280.106 99.0988 267.79C93.6417 261.785 88.513 255.147 84.5278 248.067C82.9201 245.206 81.9917 243.08 81.1312 240.037C79.9085 239.698 79.3764 238.748 78.3687 237.968C75.4591 271.183 70.8964 341.775 91.5699 351.817C118.685 364.981 157.96 365.072 157.96 365.072C168.614 366.282 176.935 362.165 178.804 355.289C180.672 348.413 169.701 341.402 169.701 341.402C169.701 341.402 181.102 346.853 184.159 335.6C187.227 324.347 138.827 310.188 138.827 310.188L138.838 310.177Z" fill="#EAE2D8"/>
<path d="M287.628 332.807C297.885 332.151 307.532 331.732 316.985 328.713C312.592 351.162 307.147 367.854 300.863 365.128C300.863 365.128 296.085 366.384 294.229 351.942C294.229 351.942 293.606 366.225 288.364 365.422C288.364 365.422 280.801 367.356 279.714 354.091C279.431 350.687 277.506 343.143 274.778 333.813C279.035 333.689 283.235 333.089 287.628 332.807Z" fill="#534741"/>
<path d="M153.239 324.596C154.304 321.769 155.3 318.919 156.217 316.035C169.848 321.192 186.446 328.973 184.612 335.702C181.544 346.955 170.154 341.504 170.154 341.504C170.154 341.504 181.125 348.515 179.257 355.391C177.389 362.267 169.056 366.384 158.413 365.174C158.413 365.174 150.567 365.151 139.472 363.952C147.714 351.942 151.258 338.948 153.251 324.585L153.239 324.596Z" fill="#534741"/>
<path d="M343.784 33.9502C354.868 36.3025 375.303 38.2929 386.195 24.5862C387.848 22.5053 390.735 21.8833 392.999 23.2743C400.619 27.9337 413.91 39.65 396.271 58.0275C395.863 58.4459 395.399 58.7965 394.878 59.0566C391.323 60.8321 376.617 66.6677 355.151 54.8609C346.263 49.9753 341.304 45.6439 338.61 42.0928C335.723 38.3042 339.13 32.955 343.795 33.9389L343.784 33.9502Z" fill="#EFE7DC"/>
<path d="M395.343 24.835C384.655 40.6226 364.469 51.7056 345.946 49.0479C348.414 50.88 351.426 52.8252 355.14 54.8609C376.605 66.6563 391.312 60.8208 394.867 59.0566C395.388 58.7965 395.864 58.4459 396.26 58.0274C412.19 41.4369 402.906 30.2747 395.343 24.835Z" fill="#BC9388"/>
<path d="M239.544 31.6544C228.46 34.0067 208.025 35.9971 197.133 22.2904C195.48 20.2095 192.593 19.5875 190.329 20.9785C182.709 25.6379 169.418 37.3542 187.057 55.7317C187.465 56.1501 187.929 56.5007 188.449 56.7608C192.005 58.5364 206.711 64.3719 228.177 52.5651C237.065 47.6795 242.024 43.3481 244.718 39.797C247.605 36.0085 244.198 30.6592 239.533 31.6431L239.544 31.6544Z" fill="#534741"/>
<path d="M187.974 22.5392C198.662 38.3268 218.848 49.4098 237.371 46.7522C234.903 48.5842 231.891 50.5294 228.177 52.5651C206.711 64.3606 192.005 58.525 188.45 56.7608C187.929 56.5007 187.453 56.1501 187.057 55.7316C171.127 39.1411 180.411 27.9789 187.974 22.5392Z" fill="#BC9388"/>
<path d="M355.139 50.2693C355.139 50.2693 357.483 9.81636 345.946 1.58327C334.409 -6.64982 338.145 19.8137 329.915 20.2434L355.139 50.2693Z" fill="#B2936F"/>
<path d="M229.525 50.2693C229.525 50.2693 227.182 9.81636 238.718 1.58327C250.255 -6.64982 246.519 19.8137 254.75 20.2434L229.525 50.2693Z" fill="#B2936F"/>
<path d="M291.285 146.827C332.11 146.827 365.205 115.015 365.205 75.7716C365.205 36.5286 332.11 4.71594 291.285 4.71594C250.461 4.71594 217.366 36.5286 217.366 75.7716C217.366 115.015 250.461 146.827 291.285 146.827Z" fill="#EFE7DC"/>
<path d="M278.039 151.283H314.098C324.322 151.283 332.609 143.004 332.609 132.792V131.356C332.609 121.144 324.322 112.866 314.098 112.866H278.039C267.815 112.866 259.528 121.144 259.528 131.356V132.792C259.528 143.004 267.815 151.283 278.039 151.283Z" fill="#BC9388"/>
<path d="M313.068 129.377C313.068 129.377 302.143 131.062 300.841 141.727C300.603 143.717 310.792 130.372 313.068 129.377Z" fill="#9B6F67"/>
<path d="M279.091 129.377C279.091 129.377 290.017 131.062 291.319 141.727C291.557 143.717 281.367 130.372 279.091 129.377Z" fill="#9B6F67"/>
<path d="M286.949 7.33967C297.885 14.996 305.788 35.9406 294.172 46.0623C289.315 50.3033 284.582 53.9561 283.688 60.7643C282.884 66.9052 286.269 75.0478 282.714 80.5554C274.155 93.7984 258.916 84.2648 247.221 82.4892C238.05 81.0982 226.332 82.4666 218.43 88.4492C217.649 84.2987 217.207 80.0238 217.207 75.6585C217.207 38.4512 246.972 7.93906 284.866 4.87427C285.273 5.79031 285.941 6.6385 286.937 7.32836L286.949 7.33967Z" fill="#534741"/>
<path d="M343.286 110.491C348.176 105.865 349.263 100.889 345.89 94.8275C343.874 91.2086 343.455 89.0712 344.791 85.0451C345.901 81.7089 347.588 78.5423 350.226 76.1561C354.313 72.4466 359.645 71.0669 365.012 70.6937C365.136 72.3788 365.216 74.0752 365.216 75.7942C365.216 94.9067 357.347 112.255 344.565 125.023C340.093 121.099 337.817 115.682 343.286 110.502V110.491Z" fill="#534741"/>
<path d="M350.531 58.5137C351.041 55.4828 350.407 52.7121 348.075 50.5746C346.116 48.7652 342.731 47.5098 340.104 48.3693C334.296 50.258 334.919 58.7173 338.531 62.3023C340.602 64.3492 343.931 65.5367 346.818 64.9034C349.999 64.2022 351.177 61.341 351.245 58.3214C351.392 52.2032 346.909 46.5259 340.761 45.6325C334.036 44.6486 332.881 52.9043 334.443 57.6994C336.108 62.7773 341.429 67.6289 347.09 65.9778C353.543 64.0891 353.147 54.5668 350.192 49.9187C347.429 45.576 340.376 42.8731 335.406 44.3998C327.503 46.8426 331.239 56.1388 334.896 60.5041C337.036 63.0487 340.025 65.22 343.489 65.2087C346.954 65.1974 349.931 62.9356 350.939 59.5994C352.411 54.7138 344.757 52.6216 343.297 57.4959C343.433 57.0548 342.731 57.0661 342.006 56.5006C341.146 55.8221 340.433 54.8608 339.844 53.9448C339.3 53.1079 339.074 52.0109 338.542 51.2193C337.659 51.8865 337.715 52.124 338.712 51.9544L339.176 52.0335C340.84 52.2936 342.923 52.9609 343.738 54.5555C344.339 55.7203 343.738 57.1227 344.169 58.231C343.931 59.3166 344.169 59.3732 344.848 58.4119C344.61 58.378 344.384 58.2875 344.203 58.1292C343.897 57.6203 343.048 57.2357 342.663 56.6703C342.153 55.9352 341.802 55.0078 341.701 54.1144C341.689 53.7186 341.701 53.3115 341.701 52.9156C342.018 51.8865 341.452 52.0788 340.014 53.515C340.036 53.6168 341.961 54.6573 342.244 55.0078C342.901 55.7995 342.889 56.5685 343.286 57.428C343.059 58.8643 343.603 58.7625 344.927 57.1227C344.622 57.0435 344.35 56.8965 344.101 56.6816C344.055 56.5911 343.58 54.8721 343.693 54.9626C341.95 55.5507 341.587 56.0144 342.606 56.331C342.742 56.5572 342.821 56.5798 342.844 56.3989C342.006 61.3862 349.637 63.5237 350.486 58.5024L350.531 58.5137Z" fill="#534741"/>
<path d="M336.198 100.505C335.134 98.4691 333.843 96.5804 332.372 94.8162C330.9 93.052 329.258 91.1633 326.982 90.7788C324.503 90.3491 322.159 91.808 321.786 94.3639C321.412 96.9197 322.782 98.8988 324.333 100.686C325.76 102.326 327.515 103.807 329.428 104.859C330.571 105.492 331.896 105.944 333.221 105.684C334.715 105.39 335.372 104.022 335.372 102.62C335.372 100.211 334.398 98.0054 332.87 96.1846C332.202 95.3817 331.421 94.6918 330.594 94.0472C329.609 93.2782 328.579 92.3734 327.277 92.2716C325.782 92.1586 324.514 93.2895 324.277 94.7257C324.039 96.162 324.718 97.4173 325.556 98.5143C327.039 100.471 329.054 101.896 331.239 102.993C332.564 103.66 334.092 102.563 333.73 101.082C333.175 98.7405 332.021 96.6144 330.447 94.8049L330.107 97.4739C329.802 97.6322 329.541 97.6435 329.315 97.4965C329.235 97.4513 329.247 97.4626 329.337 97.5078C329.371 97.5417 329.643 97.7227 329.507 97.6096C329.79 97.8245 330.039 98.0733 330.3 98.3108C330.843 98.8197 331.353 99.3625 331.828 99.928C332.021 100.154 332.1 100.256 332.281 100.55C332.428 100.776 332.587 101.082 332.632 101.206C332.677 101.353 332.734 101.511 332.745 101.658C332.723 101.432 332.723 101.783 332.723 101.851C332.723 101.975 332.723 101.975 332.723 101.851L332.677 102.02C332.813 101.805 332.507 102.258 332.507 102.246C332.021 102.925 332.326 103.977 332.949 104.44C333.617 104.938 334.568 104.915 335.179 104.305C335.666 103.818 336.04 103.208 336.176 102.529C336.244 102.201 336.266 101.884 336.244 101.556C336.244 101.489 336.244 101.364 336.232 101.296C336.232 101.195 336.232 101.206 336.21 101.33C336.164 101.658 335.972 101.93 335.644 102.122L334.783 102.348H334.885C334.319 101.771 333.753 101.206 333.187 100.64C333.187 100.901 333.187 101.161 333.187 101.409C333.175 101.636 333.187 101.534 333.141 101.681C333.073 101.896 333.04 101.681 333.232 101.647C332.813 101.715 333.447 101.636 333.504 101.647C332.7 101.421 331.805 101.862 331.5 102.631C331.171 103.456 331.488 104.248 332.19 104.746C334.002 106.024 336.368 104.667 336.912 102.733C337.455 100.799 336.334 98.9893 335.281 97.4852C333.368 94.7597 330.877 92.3508 327.786 91.005C326.948 90.6431 325.963 90.7562 325.465 91.6157C325.046 92.3395 325.228 93.5722 326.077 93.9341C328.33 94.918 330.005 96.2864 331.579 98.175C332.202 98.9215 332.994 99.9732 333.47 101.002C333.526 101.127 333.628 101.387 333.662 101.624C333.628 101.387 333.651 101.771 333.64 101.817C333.64 101.941 333.64 101.941 333.64 101.817L333.583 101.986C333.583 101.986 333.628 101.873 333.708 101.817C333.787 101.771 333.775 101.771 333.696 101.817C333.594 101.873 333.606 101.873 333.753 101.805C333.798 101.726 334.002 101.873 333.753 101.805C333.877 101.839 334.16 101.964 333.911 101.783L332.598 104.881C333.798 105.221 335.021 104.734 335.779 103.773C336.493 102.857 336.606 101.715 336.595 100.595C336.583 99.7357 335.825 98.8197 334.896 98.8988C333.889 98.9893 333.096 99.5661 332.904 100.595C332.847 100.912 332.813 101.24 332.858 101.568C332.858 101.76 332.858 101.817 332.881 101.704C332.904 101.602 332.892 101.647 332.847 101.839C332.904 101.76 333.028 101.613 332.79 101.851L335.462 103.909C337.025 101.76 335.723 99.2155 334.262 97.4626C333.583 96.6483 332.836 95.8906 332.021 95.212C331.036 94.3752 329.677 93.6174 328.432 94.4769C327.492 95.1216 327.333 96.2751 328.092 97.1459C329.258 98.4917 330.073 100.132 330.503 101.93L332.994 100.018C331.59 99.3173 330.322 98.5369 329.269 97.5304C328.703 96.9876 328.364 96.5918 327.99 95.9924C327.809 95.6983 327.73 95.5966 327.673 95.393C327.56 94.9972 327.696 95.3477 327.616 95.4382C327.673 95.246 327.662 95.2347 327.594 95.4043C327.696 95.2347 327.696 95.2347 327.594 95.393C328.035 95.2347 327.005 95.7436 327.039 95.6079L326.982 95.5739C327.096 95.6305 327.209 95.6983 327.322 95.7662C327.65 95.9698 327.956 96.2072 328.273 96.4447C328.749 96.8066 329.485 97.4399 329.994 97.9828C330.979 99.0119 331.704 100.211 331.964 101.704C332.009 101.964 331.998 102.314 332.021 102.687C332.043 103.061 331.975 102.767 332.089 102.687C331.873 102.868 332.564 102.224 332.553 102.348C332.553 102.427 331.76 102.201 331.613 102.133C331.341 102.02 330.888 101.737 330.56 101.534C329.258 100.72 328.171 99.7923 327.107 98.6274C326.575 98.0506 326.167 97.5644 325.771 96.931C325.579 96.6257 325.409 96.3203 325.318 96.0828C325.273 95.9584 325.239 95.834 325.205 95.6983C325.171 95.5739 325.148 95.4382 325.126 95.3025C325.148 95.4835 325.16 95.4721 325.137 95.2686C325.137 95.2347 325.171 94.7031 325.126 95.065C325.148 94.9067 325.194 94.7484 325.239 94.59C325.352 94.1603 325.103 94.7823 325.329 94.4091C325.579 93.9907 325.114 94.6126 325.443 94.2508C325.658 94.0133 325.273 94.2508 325.624 94.115C325.375 94.2055 325.918 94.0359 325.907 94.0359C325.624 94.0924 326.19 94.0359 326.19 94.0359C326.405 94.0472 326.439 94.0472 326.303 94.0359C326.428 94.0585 326.552 94.0924 326.665 94.1264C326.914 94.1942 327.311 94.4317 327.639 94.6805C327.775 94.7823 328.126 95.1216 328.341 95.3364C329.02 96.015 329.666 96.7388 330.277 97.4852C331.409 98.8762 332.451 100.527 333.311 102.167C333.741 102.981 334.874 103.219 335.632 102.778C336.459 102.292 336.662 101.274 336.244 100.46L336.198 100.505Z" fill="#3F3832"/>
<path d="M253.244 103.128C254.048 101.602 254.965 100.12 256.029 98.7518C256.856 97.7 258.011 96.2751 259.075 95.5287C259.675 95.0989 260.071 94.9067 260.728 94.9858C260.445 94.9519 260.988 95.0763 260.999 95.0763C260.75 94.9632 261.282 95.3251 260.999 95.0763C261.033 95.1102 261.328 95.4834 261.147 95.212C261.203 95.3025 261.26 95.393 261.305 95.4834C261.249 95.3251 261.249 95.3364 261.316 95.5287C261.362 95.687 261.407 95.8453 261.43 96.0037C261.384 95.6418 261.407 96.1733 261.418 96.2072C261.452 96.637 261.52 95.9358 261.396 96.4447C261.362 96.5691 261.339 96.7048 261.294 96.8292C261.113 97.4286 260.615 98.1637 260.218 98.6613C259.245 99.894 257.999 101.081 256.81 101.918C256.21 102.337 255.588 102.789 254.908 103.072C255.067 103.004 254.478 103.219 254.546 103.196C254.603 103.174 253.957 103.321 254.195 103.275C253.822 103.355 254.059 103.219 254.195 103.366C254.32 103.456 254.433 103.57 254.512 103.705C254.535 103.864 254.535 103.841 254.512 103.626C254.58 102.156 254.942 100.855 255.916 99.6C256.72 98.5708 258.033 97.4173 259.199 96.7048L259.369 96.603C259.562 96.5013 259.596 96.4786 259.482 96.5465C259.414 96.5465 259.358 96.5465 259.29 96.5465C259.086 96.5013 258.939 96.3995 258.848 96.2185C259.165 96.5465 258.69 95.981 258.905 96.3769C258.814 96.2072 258.928 96.0489 258.848 96.3316C258.735 96.7274 258.939 96.2638 258.724 96.6144C258.599 96.8292 258.463 97.0441 258.328 97.2477C258.35 97.2137 257.988 97.7 258.146 97.5078C257.988 97.7 257.818 97.8923 257.648 98.0732C256.482 99.3173 255.135 100.154 253.527 100.957L256.018 102.868C256.448 101.07 257.252 99.4417 258.429 98.0846C259.188 97.2137 259.029 96.0715 258.09 95.4156C256.89 94.59 255.554 95.2799 254.58 96.0828C253.742 96.784 252.961 97.5643 252.259 98.4012C250.799 100.154 249.497 102.699 251.059 104.847L253.731 102.789C253.504 102.563 253.606 102.687 253.674 102.778L253.629 102.597C253.652 102.71 253.652 102.71 253.652 102.597C253.674 102.224 253.686 101.907 253.606 101.534C253.414 100.505 252.621 99.9279 251.614 99.8375C250.685 99.7583 249.927 100.686 249.916 101.534C249.893 102.653 250.006 103.796 250.731 104.712C251.489 105.673 252.712 106.159 253.912 105.82L252.599 102.721C252.406 102.857 252.531 102.767 252.678 102.744C252.78 102.744 252.78 102.744 252.678 102.744C252.553 102.744 252.576 102.744 252.746 102.744C252.803 102.834 252.859 102.846 252.735 102.721C252.723 102.71 252.904 102.88 252.904 102.88C252.995 102.936 252.814 102.62 252.859 102.834C252.859 102.789 252.859 102.371 252.848 102.506C252.848 102.62 252.938 102.178 252.938 102.167C252.938 102.167 253.04 101.884 252.984 102.02C253.437 100.957 254.297 99.8601 254.92 99.1024C256.493 97.2024 258.169 95.8453 260.422 94.8614C261.26 94.4995 261.452 93.2668 261.033 92.5431C260.524 91.6722 259.55 91.5705 258.712 91.9324C255.622 93.2781 253.131 95.6757 251.218 98.4125C250.165 99.9166 249.123 101.658 249.565 103.57C250.006 105.481 252.486 106.962 254.308 105.673C254.999 105.187 255.361 104.372 254.999 103.558C254.659 102.8 253.822 102.337 252.995 102.574C253.04 102.563 253.674 102.642 253.267 102.574C253.459 102.608 253.425 102.823 253.357 102.608C253.312 102.45 253.323 102.563 253.312 102.337C253.301 102.077 253.312 101.817 253.312 101.568L251.614 103.264H251.716C251.433 103.196 251.15 103.117 250.855 103.038C250.753 102.993 250.165 102.325 250.266 102.145C250.244 102.19 250.266 102.359 250.266 102.416C250.244 102.778 250.266 103.083 250.334 103.445C250.47 104.124 250.844 104.734 251.331 105.221C251.931 105.809 252.904 105.877 253.561 105.356C254.172 104.87 254.501 103.864 254.003 103.162C254.003 103.162 253.765 102.812 253.821 102.891C253.901 103.027 253.742 102.597 253.788 102.846C253.72 102.461 253.742 102.563 253.833 102.201C253.935 101.783 254.376 101.195 254.671 100.833C255.123 100.29 255.61 99.7696 256.12 99.2833C256.38 99.0345 256.641 98.8083 256.912 98.5708C257.037 98.4578 256.901 98.5708 257.082 98.4351L257.229 98.356C256.98 98.5256 256.709 98.5256 256.38 98.356L256.041 95.687C254.467 97.4965 253.312 99.6226 252.757 101.964C252.406 103.456 253.923 104.542 255.248 103.875C257.105 102.948 258.928 101.76 260.309 100.177C261.781 98.503 263.377 95.6757 261.215 93.821C259.052 91.9663 256.301 94.4543 254.693 95.9471C253.086 97.4399 251.738 99.4077 251.319 101.613C251.093 102.834 250.923 104.259 251.568 105.379C252.327 106.702 254.025 106.815 255.35 106.465C257.501 105.899 259.516 104.225 261.079 102.71C262.641 101.195 264.317 99.2946 264.702 97.112C265.098 94.8049 264.011 92.2038 261.543 91.6609C258.679 91.0276 256.437 93.0746 254.682 95.0537C252.927 97.0328 251.501 99.1024 250.312 101.376C249.882 102.19 250.108 103.219 250.923 103.694C251.693 104.146 252.825 103.897 253.244 103.083V103.128Z" fill="#3F3832"/>
<path d="M159.251 161.891C153.364 165.453 147.839 169.672 142.415 173.89C140.015 175.756 137.615 177.633 135.215 179.499C134.819 179.805 134.377 180.133 134.105 180.336C133.369 180.834 132.634 181.32 131.898 181.795C125.354 178.651 119.715 173.472 116.047 166.573C106.911 149.372 113.455 128.031 130.664 118.905C147.873 109.778 169.248 116.315 178.385 133.505C181.283 138.967 182.608 144.837 182.506 150.604C174.626 154.133 166.599 157.435 159.251 161.88V161.891Z" fill="#82EC86"/>
<path d="M146.536 128.472C142.653 129.027 138.996 130.723 136.041 133.301C134.558 134.602 133.675 136.174 133.867 138.187C134.026 139.906 134.479 141.908 135.554 143.299C138.181 146.691 143.57 144.893 147.182 145.267C150.793 145.64 154.484 148.999 152.537 152.742C150.273 157.096 144.204 155.795 140.525 154.608C138.441 153.929 137.547 157.209 139.619 157.876C143.593 159.166 147.974 159.935 151.846 157.91C155.266 156.123 157.111 152.391 156.103 148.614C155.096 144.837 151.484 142.36 147.669 141.919C145.438 141.659 143.219 142.021 140.989 141.953C140.196 141.93 138.974 141.953 138.34 141.354C137.706 140.754 137.57 139.589 137.4 138.809C137.117 137.486 137.264 136.751 138.283 135.835C139.109 135.088 140.026 134.455 140.989 133.901C142.993 132.747 145.167 132.057 147.454 131.729C148.371 131.594 148.857 130.451 148.642 129.637C148.382 128.665 147.454 128.325 146.548 128.45L146.536 128.472Z" fill="#01430E"/>
<path d="M137.627 126.606C141.238 138.504 144.838 150.401 148.45 162.287C149.084 164.368 152.356 163.486 151.722 161.382C148.11 149.485 144.51 137.588 140.898 125.702C140.264 123.621 136.992 124.503 137.627 126.606Z" fill="#01430E"/>
<path d="M184.759 148.999C169.191 155.75 153.839 163.271 139.959 173.098C136.041 175.869 132.26 178.821 128.626 181.954C126.973 183.378 129.384 185.776 131.026 184.351C143.729 173.404 158.379 165.001 173.482 157.808C177.773 155.761 182.109 153.816 186.468 151.928C188.472 151.057 186.74 148.139 184.759 148.999Z" fill="#3F3632"/>
</g>
<defs>
<clipPath id="clip0_386_11622">
<rect width="405" height="380" fill="white"/>
</clipPath>
</defs>
</svg>
