<svg width="196" height="151" viewBox="0 0 196 151" fill="none" xmlns="http://www.w3.org/2000/svg">
<path d="M27.3199 30.7201C27.8799 30.7201 28.3999 30.9468 28.8799 31.4001C29.3599 31.8801 29.5999 32.4268 29.5999 33.0401C29.5999 33.6534 29.3199 34.2268 28.7599 34.7601C28.2266 35.3201 27.5332 35.8134 26.6799 36.2401C25.8266 36.6668 24.9332 37.0001 23.9999 37.2401C23.0932 37.4801 22.2666 37.6001 21.5199 37.6001C19.8666 37.6001 18.5466 37.4401 17.5599 37.1201C16.5732 36.8268 15.7599 36.4801 15.1199 36.0801C14.4799 35.7068 13.8799 35.3601 13.3199 35.0401C12.7599 34.7468 12.0799 34.6001 11.2799 34.6001C10.7732 34.6001 10.3599 34.6801 10.0399 34.8401C9.74657 35.0268 9.41324 35.2001 9.0399 35.3601C8.69324 35.5468 8.1999 35.6401 7.5599 35.6401C6.89324 35.6401 6.33324 35.3868 5.8799 34.8801C5.42657 34.3734 5.1999 33.8268 5.1999 33.2401C5.1999 32.2001 5.66657 31.5068 6.5999 31.1601L14.8799 28.0801L18.4799 28.9601L10.7199 31.8401L12.9999 30.5201C13.9332 30.5201 14.7466 30.6534 15.4399 30.9201C16.1599 31.2134 16.8399 31.5334 17.4799 31.8801C18.1199 32.2268 18.7732 32.5334 19.4399 32.8001C20.1332 33.0934 20.9199 33.2401 21.7999 33.2401C22.5199 33.2401 23.1199 33.1201 23.5999 32.8801C24.1066 32.6401 24.5466 32.3734 24.9199 32.0801C25.3732 31.7334 25.7732 31.4134 26.1199 31.1201C26.4932 30.8534 26.8932 30.7201 27.3199 30.7201ZM27.1599 15.6001C27.1599 17.6001 26.8266 19.4668 26.1599 21.2001C25.4932 22.9334 24.5466 24.4668 23.3199 25.8001C22.1199 27.1068 20.6799 28.1334 18.9999 28.8801C17.3466 29.6268 15.5332 30.0001 13.5599 30.0001C11.5866 30.0001 9.77324 29.6268 8.1199 28.8801C6.46657 28.1334 5.02657 27.1068 3.7999 25.8001C2.5999 24.4668 1.66657 22.9334 0.999903 21.2001C0.333236 19.4668 -9.7543e-05 17.6001 -9.7543e-05 15.6001C-9.7543e-05 13.6001 0.333236 11.7334 0.999903 10.0001C1.66657 8.26676 2.5999 6.74676 3.7999 5.4401C5.02657 4.10676 6.46657 3.06676 8.1199 2.3201C9.77324 1.57343 11.5866 1.2001 13.5599 1.2001C15.5332 1.2001 17.3466 1.57343 18.9999 2.3201C20.6799 3.06676 22.1199 4.10676 23.3199 5.4401C24.5466 6.74676 25.4932 8.26676 26.1599 10.0001C26.8266 11.7334 27.1599 13.6001 27.1599 15.6001ZM21.9599 15.6001C21.9599 13.8134 21.5999 12.2001 20.8799 10.7601C20.1599 9.29343 19.1732 8.13343 17.9199 7.2801C16.6666 6.42676 15.2132 6.0001 13.5599 6.0001C11.9066 6.0001 10.4532 6.42676 9.1999 7.2801C7.94657 8.13343 6.9599 9.2801 6.2399 10.7201C5.54657 12.1601 5.1999 13.7868 5.1999 15.6001C5.1999 17.3868 5.54657 19.0134 6.2399 20.4801C6.9599 21.9201 7.94657 23.0668 9.1999 23.9201C10.4532 24.7734 11.9066 25.2001 13.5599 25.2001C15.2132 25.2001 16.6666 24.7734 17.9199 23.9201C19.1732 23.0668 20.1599 21.9201 20.8799 20.4801C21.5999 19.0134 21.9599 17.3868 21.9599 15.6001ZM47.0752 8.2001C47.7685 8.2001 48.3419 8.4401 48.7952 8.9201C49.2485 9.37343 49.4752 9.94676 49.4752 10.6401V20.8001C49.4752 23.6268 48.6885 25.8668 47.1152 27.5201C45.5419 29.1734 43.2752 30.0001 40.3152 30.0001C37.3552 30.0001 35.0885 29.1734 33.5152 27.5201C31.9685 25.8668 31.1952 23.6268 31.1952 20.8001V10.6401C31.1952 9.94676 31.4219 9.37343 31.8752 8.9201C32.3285 8.4401 32.9019 8.2001 33.5952 8.2001C34.2885 8.2001 34.8619 8.4401 35.3152 8.9201C35.7685 9.37343 35.9952 9.94676 35.9952 10.6401V20.8001C35.9952 22.4268 36.3552 23.6401 37.0752 24.4401C37.7952 25.2134 38.8752 25.6001 40.3152 25.6001C41.7819 25.6001 42.8752 25.2134 43.5952 24.4401C44.3152 23.6401 44.6752 22.4268 44.6752 20.8001V10.6401C44.6752 9.94676 44.9019 9.37343 45.3552 8.9201C45.8085 8.4401 46.3819 8.2001 47.0752 8.2001ZM59.1918 27.1601C59.1918 27.8534 58.9651 28.4401 58.5118 28.9201C58.0584 29.3734 57.4851 29.6001 56.7918 29.6001C56.0984 29.6001 55.5251 29.3734 55.0718 28.9201C54.6184 28.4401 54.3918 27.8534 54.3918 27.1601V10.6401C54.3918 9.94676 54.6184 9.37343 55.0718 8.9201C55.5251 8.4401 56.0984 8.2001 56.7918 8.2001C57.4851 8.2001 58.0584 8.4401 58.5118 8.9201C58.9651 9.37343 59.1918 9.94676 59.1918 10.6401V27.1601ZM56.7518 5.6001C55.8451 5.6001 55.2051 5.45343 54.8318 5.1601C54.4584 4.86676 54.2718 4.34676 54.2718 3.6001V2.8401C54.2718 2.06676 54.4718 1.54676 54.8718 1.2801C55.2984 0.986763 55.9384 0.840096 56.7918 0.840096C57.7251 0.840096 58.3784 0.986763 58.7518 1.2801C59.1251 1.57343 59.3118 2.09343 59.3118 2.8401V3.6001C59.3118 4.37343 59.1118 4.90676 58.7118 5.2001C58.3118 5.46676 57.6584 5.6001 56.7518 5.6001ZM73.6449 7.8001C75.1649 7.8001 76.4849 7.9601 77.6049 8.2801C78.7516 8.6001 79.6316 9.05343 80.2449 9.6401C80.8849 10.2001 81.2049 10.8801 81.2049 11.6801C81.2049 12.2134 81.0449 12.7201 80.7249 13.2001C80.4049 13.6534 79.9382 13.8801 79.3249 13.8801C78.8982 13.8801 78.5382 13.8268 78.2449 13.7201C77.9782 13.5868 77.7382 13.4268 77.5249 13.2401C77.3116 13.0534 77.0582 12.8801 76.7649 12.7201C76.4982 12.5601 76.0849 12.4401 75.5249 12.3601C74.9916 12.2534 74.5916 12.2001 74.3249 12.2001C72.9649 12.2001 71.8049 12.4934 70.8449 13.0801C69.9116 13.6668 69.1916 14.4668 68.6849 15.4801C68.1782 16.4668 67.9249 17.6134 67.9249 18.9201C67.9249 20.2001 68.1782 21.3468 68.6849 22.3601C69.2182 23.3468 69.9382 24.1334 70.8449 24.7201C71.7782 25.3068 72.8449 25.6001 74.0449 25.6001C74.7116 25.6001 75.2849 25.5601 75.7649 25.4801C76.2449 25.4001 76.6449 25.2801 76.9649 25.1201C77.3382 24.9068 77.6716 24.6801 77.9649 24.4401C78.2582 24.2001 78.6982 24.0801 79.2849 24.0801C79.9782 24.0801 80.5116 24.3068 80.8849 24.7601C81.2582 25.1868 81.4449 25.7201 81.4449 26.3601C81.4449 27.0268 81.0716 27.6401 80.3249 28.2001C79.5782 28.7334 78.5916 29.1734 77.3649 29.5201C76.1649 29.8401 74.8582 30.0001 73.4449 30.0001C71.3382 30.0001 69.5116 29.5201 67.9649 28.5601C66.4182 27.5734 65.2182 26.2401 64.3649 24.5601C63.5382 22.8801 63.1249 21.0001 63.1249 18.9201C63.1249 16.7334 63.5649 14.8134 64.4449 13.1601C65.3516 11.4801 66.5916 10.1734 68.1649 9.2401C69.7649 8.2801 71.5916 7.8001 73.6449 7.8001ZM87.7062 29.6001C87.0128 29.6001 86.4395 29.3734 85.9862 28.9201C85.5328 28.4401 85.3062 27.8534 85.3062 27.1601V2.4401C85.3062 1.74676 85.5328 1.17343 85.9862 0.720095C86.4395 0.240097 87.0128 9.72748e-05 87.7062 9.72748e-05C88.3995 9.72748e-05 88.9728 0.240097 89.4262 0.720095C89.8795 1.17343 90.1062 1.74676 90.1062 2.4401V27.1601C90.1062 27.8534 89.8795 28.4401 89.4262 28.9201C88.9728 29.3734 88.3995 29.6001 87.7062 29.6001ZM100.426 8.2001C101.039 8.2001 101.573 8.45343 102.026 8.9601C102.479 9.46676 102.706 9.9601 102.706 10.4401C102.706 11.0801 102.386 11.6801 101.746 12.2401L89.7062 23.3201L89.5062 17.8001L98.6662 8.9601C99.1728 8.45343 99.7595 8.2001 100.426 8.2001ZM101.026 29.5601C100.333 29.5601 99.7462 29.2934 99.2662 28.7601L91.8662 20.9201L95.5062 17.5601L102.706 25.4001C103.213 25.9334 103.466 26.5334 103.466 27.2001C103.466 27.8934 103.186 28.4668 102.626 28.9201C102.093 29.3468 101.559 29.5601 101.026 29.5601ZM106.244 26.2801C105.978 25.9068 105.858 25.4268 105.884 24.8401C105.911 24.2534 106.258 23.7468 106.924 23.3201C107.351 23.0534 107.804 22.9468 108.284 23.0001C108.764 23.0268 109.231 23.2668 109.684 23.7201C110.458 24.4934 111.271 25.0934 112.124 25.5201C112.978 25.9468 114.044 26.1601 115.324 26.1601C115.724 26.1334 116.164 26.0801 116.644 26.0001C117.124 25.8934 117.538 25.6801 117.884 25.3601C118.258 25.0134 118.444 24.4934 118.444 23.8001C118.444 23.2134 118.244 22.7468 117.844 22.4001C117.444 22.0534 116.911 21.7601 116.244 21.5201C115.604 21.2801 114.884 21.0534 114.084 20.8401C113.258 20.6001 112.404 20.3334 111.524 20.0401C110.671 19.7468 109.884 19.3734 109.164 18.9201C108.444 18.4401 107.858 17.8134 107.404 17.0401C106.951 16.2668 106.724 15.2934 106.724 14.1201C106.724 12.7868 107.098 11.6534 107.844 10.7201C108.591 9.78676 109.551 9.06676 110.724 8.5601C111.924 8.05343 113.178 7.8001 114.484 7.8001C115.311 7.8001 116.178 7.90676 117.084 8.1201C117.991 8.30676 118.858 8.62676 119.684 9.0801C120.511 9.50676 121.204 10.0801 121.764 10.8001C122.058 11.2001 122.231 11.6801 122.284 12.2401C122.338 12.8001 122.084 13.3068 121.524 13.7601C121.124 14.0801 120.658 14.2268 120.124 14.2001C119.591 14.1468 119.151 13.9601 118.804 13.6401C118.351 13.0534 117.738 12.5868 116.964 12.2401C116.218 11.8934 115.351 11.7201 114.364 11.7201C113.964 11.7201 113.524 11.7734 113.044 11.8801C112.591 11.9601 112.191 12.1601 111.844 12.4801C111.498 12.7734 111.324 13.2534 111.324 13.9201C111.324 14.5334 111.524 15.0268 111.924 15.4001C112.324 15.7468 112.858 16.0401 113.524 16.2801C114.218 16.4934 114.951 16.7068 115.724 16.9201C116.524 17.1334 117.338 17.3868 118.164 17.6801C118.991 17.9734 119.751 18.3601 120.444 18.8401C121.138 19.3201 121.698 19.9468 122.124 20.7201C122.551 21.4668 122.764 22.4268 122.764 23.6001C122.764 24.9601 122.364 26.1201 121.564 27.0801C120.764 28.0401 119.764 28.7734 118.564 29.2801C117.364 29.7601 116.138 30.0001 114.884 30.0001C113.311 30.0001 111.738 29.7334 110.164 29.2001C108.591 28.6401 107.284 27.6668 106.244 26.2801ZM144.614 7.8001C145.307 7.8001 145.88 8.02676 146.334 8.4801C146.787 8.93343 147.014 9.5201 147.014 10.2401V27.1601C147.014 27.8534 146.787 28.4401 146.334 28.9201C145.88 29.3734 145.307 29.6001 144.614 29.6001C143.92 29.6001 143.347 29.3734 142.894 28.9201C142.44 28.4401 142.214 27.8534 142.214 27.1601V25.2001L143.094 25.5601C143.094 25.9068 142.907 26.3334 142.534 26.8401C142.16 27.3201 141.654 27.8001 141.014 28.2801C140.374 28.7601 139.614 29.1734 138.734 29.5201C137.88 29.8401 136.947 30.0001 135.934 30.0001C134.094 30.0001 132.427 29.5334 130.934 28.6001C129.44 27.6401 128.254 26.3334 127.374 24.6801C126.52 23.0001 126.094 21.0801 126.094 18.9201C126.094 16.7334 126.52 14.8134 127.374 13.1601C128.254 11.4801 129.427 10.1734 130.894 9.2401C132.36 8.2801 133.987 7.8001 135.774 7.8001C136.92 7.8001 137.974 7.97343 138.934 8.3201C139.894 8.66676 140.72 9.10676 141.414 9.6401C142.134 10.1734 142.68 10.7201 143.054 11.2801C143.454 11.8134 143.654 12.2668 143.654 12.6401L142.214 13.1601V10.2401C142.214 9.54676 142.44 8.97343 142.894 8.5201C143.347 8.0401 143.92 7.8001 144.614 7.8001ZM136.534 25.6001C137.707 25.6001 138.734 25.3068 139.614 24.7201C140.494 24.1334 141.174 23.3334 141.654 22.3201C142.16 21.3068 142.414 20.1734 142.414 18.9201C142.414 17.6401 142.16 16.4934 141.654 15.4801C141.174 14.4668 140.494 13.6668 139.614 13.0801C138.734 12.4934 137.707 12.2001 136.534 12.2001C135.387 12.2001 134.374 12.4934 133.494 13.0801C132.614 13.6668 131.92 14.4668 131.414 15.4801C130.934 16.4934 130.694 17.6401 130.694 18.9201C130.694 20.1734 130.934 21.3068 131.414 22.3201C131.92 23.3334 132.614 24.1334 133.494 24.7201C134.374 25.3068 135.387 25.6001 136.534 25.6001ZM163.651 7.8001C165.624 7.8001 167.118 8.21343 168.131 9.0401C169.171 9.86676 169.878 10.9734 170.251 12.3601C170.651 13.7201 170.851 15.2401 170.851 16.9201V27.1601C170.851 27.8534 170.624 28.4401 170.171 28.9201C169.718 29.3734 169.144 29.6001 168.451 29.6001C167.758 29.6001 167.184 29.3734 166.731 28.9201C166.278 28.4401 166.051 27.8534 166.051 27.1601V16.9201C166.051 16.0401 165.931 15.2534 165.691 14.5601C165.478 13.8401 165.078 13.2668 164.491 12.8401C163.904 12.4134 163.064 12.2001 161.971 12.2001C160.904 12.2001 159.998 12.4134 159.251 12.8401C158.531 13.2668 157.971 13.8401 157.571 14.5601C157.198 15.2534 157.011 16.0401 157.011 16.9201V27.1601C157.011 27.8534 156.784 28.4401 156.331 28.9201C155.878 29.3734 155.304 29.6001 154.611 29.6001C153.918 29.6001 153.344 29.3734 152.891 28.9201C152.438 28.4401 152.211 27.8534 152.211 27.1601V10.6401C152.211 9.94676 152.438 9.37343 152.891 8.9201C153.344 8.4401 153.918 8.2001 154.611 8.2001C155.304 8.2001 155.878 8.4401 156.331 8.9201C156.784 9.37343 157.011 9.94676 157.011 10.6401V12.3601L156.411 12.2401C156.651 11.7868 156.998 11.3068 157.451 10.8001C157.904 10.2668 158.438 9.77343 159.051 9.3201C159.664 8.86676 160.358 8.50676 161.131 8.2401C161.904 7.94676 162.744 7.8001 163.651 7.8001ZM193.559 9.72748e-05C194.252 9.72748e-05 194.826 0.226763 195.279 0.680096C195.732 1.13343 195.959 1.7201 195.959 2.4401V27.1601C195.959 27.8534 195.732 28.4401 195.279 28.9201C194.826 29.3734 194.252 29.6001 193.559 29.6001C192.866 29.6001 192.292 29.3734 191.839 28.9201C191.386 28.4401 191.159 27.8534 191.159 27.1601V25.2001L192.039 25.5601C192.039 25.9068 191.852 26.3334 191.479 26.8401C191.106 27.3201 190.599 27.8001 189.959 28.2801C189.319 28.7601 188.559 29.1734 187.679 29.5201C186.826 29.8401 185.892 30.0001 184.879 30.0001C183.039 30.0001 181.372 29.5334 179.879 28.6001C178.386 27.6401 177.199 26.3334 176.319 24.6801C175.466 23.0001 175.039 21.0801 175.039 18.9201C175.039 16.7334 175.466 14.8134 176.319 13.1601C177.199 11.4801 178.372 10.1734 179.839 9.2401C181.306 8.2801 182.932 7.8001 184.719 7.8001C185.866 7.8001 186.919 7.97343 187.879 8.3201C188.839 8.66676 189.666 9.10676 190.359 9.6401C191.079 10.1734 191.626 10.7201 191.999 11.2801C192.399 11.8134 192.599 12.2668 192.599 12.6401L191.159 13.1601V2.4401C191.159 1.74676 191.386 1.17343 191.839 0.720095C192.292 0.240097 192.866 9.72748e-05 193.559 9.72748e-05ZM185.479 25.6001C186.652 25.6001 187.679 25.3068 188.559 24.7201C189.439 24.1334 190.119 23.3334 190.599 22.3201C191.106 21.3068 191.359 20.1734 191.359 18.9201C191.359 17.6401 191.106 16.4934 190.599 15.4801C190.119 14.4668 189.439 13.6668 188.559 13.0801C187.679 12.4934 186.652 12.2001 185.479 12.2001C184.332 12.2001 183.319 12.4934 182.439 13.0801C181.559 13.6668 180.866 14.4668 180.359 15.4801C179.879 16.4934 179.639 17.6401 179.639 18.9201C179.639 20.1734 179.879 21.3068 180.359 22.3201C180.866 23.3334 181.559 24.1334 182.439 24.7201C183.319 25.3068 184.332 25.6001 185.479 25.6001ZM58.6615 80.0961L31.0135 145.12C30.4162 146.741 29.4775 148.021 28.1975 148.96C27.0029 149.813 25.6802 150.24 24.2295 150.24C21.9255 150.24 20.2189 149.6 19.1095 148.32C18.0002 147.04 17.4455 145.461 17.4455 143.584C17.4455 142.816 17.5735 142.005 17.8295 141.152L49.7015 64.6081C50.3842 62.9014 51.4082 61.5788 52.7735 60.6401C54.2242 59.7014 55.7602 59.3174 57.3815 59.4881C58.9175 59.4881 60.3255 59.9574 61.6055 60.8961C62.9709 61.7494 63.9522 62.9868 64.5495 64.6081L96.0375 139.616C96.4642 140.725 96.6775 141.749 96.6775 142.688C96.6775 144.992 95.9095 146.827 94.3735 148.192C92.9229 149.557 91.3015 150.24 89.5095 150.24C87.9735 150.24 86.5655 149.771 85.2855 148.832C84.0909 147.893 83.1522 146.613 82.4695 144.992L54.9495 80.8641L58.6615 80.0961ZM34.9815 129.504L42.0215 114.784H76.5815L79.0135 129.504H34.9815ZM164.8 79.8401C167.018 79.8401 168.853 80.5654 170.304 82.0161C171.754 83.4668 172.48 85.3441 172.48 87.6481V141.792C172.48 144.011 171.754 145.888 170.304 147.424C168.853 148.875 167.018 149.6 164.8 149.6C162.581 149.6 160.746 148.875 159.296 147.424C157.845 145.888 157.12 144.011 157.12 141.792V135.52L159.936 136.672C159.936 137.781 159.338 139.147 158.144 140.768C156.949 142.304 155.328 143.84 153.28 145.376C151.232 146.912 148.8 148.235 145.984 149.344C143.253 150.368 140.266 150.88 137.024 150.88C131.136 150.88 125.802 149.387 121.024 146.4C116.245 143.328 112.448 139.147 109.632 133.856C106.901 128.48 105.536 122.336 105.536 115.424C105.536 108.427 106.901 102.283 109.632 96.9921C112.448 91.6161 116.202 87.4348 120.896 84.4481C125.589 81.3761 130.794 79.8401 136.512 79.8401C140.181 79.8401 143.552 80.3948 146.624 81.5041C149.696 82.6134 152.341 84.0214 154.56 85.7281C156.864 87.4348 158.613 89.1841 159.808 90.9761C161.088 92.6828 161.728 94.1334 161.728 95.3281L157.12 96.9921V87.6481C157.12 85.4294 157.845 83.5948 159.296 82.1441C160.746 80.6081 162.581 79.8401 164.8 79.8401ZM138.944 136.8C142.698 136.8 145.984 135.861 148.8 133.984C151.616 132.107 153.792 129.547 155.328 126.304C156.949 123.061 157.76 119.435 157.76 115.424C157.76 111.328 156.949 107.659 155.328 104.416C153.792 101.173 151.616 98.6134 148.8 96.7361C145.984 94.8588 142.698 93.9201 138.944 93.9201C135.274 93.9201 132.032 94.8588 129.216 96.7361C126.4 98.6134 124.181 101.173 122.56 104.416C121.024 107.659 120.256 111.328 120.256 115.424C120.256 119.435 121.024 123.061 122.56 126.304C124.181 129.547 126.4 132.107 129.216 133.984C132.032 135.861 135.274 136.8 138.944 136.8Z" fill="black"/>
</svg>
