<svg width="270" height="152" viewBox="0 0 270 152" fill="none" xmlns="http://www.w3.org/2000/svg">
<path d="M10 15V10H15V15H10ZM0 35V0H5V5H10V10H5V35H0ZM20 35V10H15V5H20V0H25V35H20ZM30 35V10H35V35H30ZM30 5V0H35V5H30ZM60 35V15H65V35H60ZM40 35V10H60V15H45V35H40ZM75 35V30H95V35H75ZM70 30V15H75V20H90V15H95V25H75V30H70ZM75 15V10H90V15H75ZM105 35V30H120V35H105ZM120 30V25H125V30H120ZM100 30V15H105V30H100ZM120 20V15H125V20H120ZM105 15V10H120V15H105ZM150 20V15H155V20H150ZM130 35V10H135V15H140V20H135V35H130ZM140 15V10H150V15H140ZM160 30V25H165V30H160ZM165 35V30H180V25H165V20H180V15H185V35H165ZM165 15V10H180V15H165ZM195 35V15H190V10H195V5H200V10H210V15H200V35H195ZM200 5V0H210V5H200ZM225 35V30H230V35H225ZM220 30V10H215V5H220V0H225V5H230V10H225V30H220ZM235 35V10H240V35H235ZM235 5V0H240V5H235ZM245 30V25H250V30H245ZM250 35V30H265V25H250V20H265V15H270V35H250ZM250 15V10H265V15H250ZM65.5 152V80H77.5V92H113.5V80H125.5V152H113.5V104H77.5V152H65.5ZM77.5 80V68H113.5V80H77.5ZM137.5 140V128H149.5V140H137.5ZM149.5 152V140H185.5V128H149.5V116H185.5V104H197.5V152H149.5ZM149.5 104V92H185.5V104H149.5Z" fill="black"/>
</svg>
